note_on channel=0 note=45 velocity=78 time=0
note_on channel=0 note=48 velocity=81 time=464
note_on channel=0 note=50 velocity=79 time=240
note_on channel=0 note=52 velocity=68 time=236
note_on channel=0 note=45 velocity=82 time=354
note_on channel=0 note=43 velocity=62 time=18
note_on channel=0 note=45 velocity=80 time=22
note_on channel=0 note=45 velocity=88 time=692
note_on channel=0 note=48 velocity=77 time=568
note_on channel=0 note=50 velocity=90 time=88
note_on channel=0 note=52 velocity=75 time=240
note_on channel=0 note=45 velocity=75 time=288
note_on channel=0 note=48 velocity=77 time=720
note_on channel=0 note=45 velocity=78 time=22
note_on channel=0 note=45 velocity=80 time=782
note_on channel=0 note=45 velocity=78 time=76
note_on channel=0 note=43 velocity=80 time=328
note_on channel=0 note=45 velocity=76 time=36
note_on channel=0 note=45 velocity=78 time=88
note_on channel=0 note=43 velocity=75 time=352
note_on channel=0 note=45 velocity=76 time=22
note_on channel=0 note=45 velocity=76 time=88
note_on channel=0 note=48 velocity=70 time=330
note_on channel=0 note=50 velocity=69 time=720
note_on channel=0 note=45 velocity=79 time=300
note_on channel=0 note=45 velocity=78 time=100
note_on channel=0 note=43 velocity=74 time=340
note_on channel=0 note=45 velocity=75 time=8
note_on channel=0 note=45 velocity=78 time=64
note_on channel=0 note=43 velocity=74 time=37
note_on channel=0 note=45 velocity=75 time=24
note_on channel=0 note=45 velocity=73 time=76
note_on channel=0 note=48 velocity=74 time=24
note_on channel=0 note=45 velocity=76 time=240
note_on channel=0 note=45 velocity=78 time=38832
note_on channel=0 note=48 velocity=81 time=464
note_on channel=0 note=50 velocity=79 time=240
note_on channel=0 note=52 velocity=68 time=236
note_on channel=0 note=45 velocity=82 time=354
note_on channel=0 note=43 velocity=62 time=18
note_on channel=0 note=45 velocity=80 time=22
note_on channel=0 note=45 velocity=88 time=692
note_on channel=0 note=48 velocity=77 time=568
note_on channel=0 note=50 velocity=90 time=88
note_on channel=0 note=52 velocity=75 time=240
note_on channel=0 note=45 velocity=75 time=288
note_on channel=0 note=48 velocity=77 time=720
note_on channel=0 note=45 velocity=78 time=22
note_on channel=0 note=45 velocity=80 time=782
note_on channel=0 note=45 velocity=78 time=76
note_on channel=0 note=43 velocity=80 time=328
note_on channel=0 note=45 velocity=76 time=36
note_on channel=0 note=45 velocity=78 time=88
note_on channel=0 note=43 velocity=75 time=352
note_on channel=0 note=45 velocity=76 time=22
note_on channel=0 note=45 velocity=76 time=88
note_on channel=0 note=48 velocity=70 time=330
note_on channel=0 note=50 velocity=69 time=720
note_on channel=0 note=45 velocity=79 time=300
note_on channel=0 note=45 velocity=78 time=100
note_on channel=0 note=43 velocity=74 time=340
note_on channel=0 note=45 velocity=75 time=8
note_on channel=0 note=45 velocity=78 time=64
note_on channel=0 note=43 velocity=74 time=37
note_on channel=0 note=45 velocity=75 time=24
note_on channel=0 note=45 velocity=73 time=76
note_on channel=0 note=48 velocity=74 time=24
note_on channel=0 note=45 velocity=76 time=240
note_on channel=0 note=45 velocity=80 time=8112
note_on channel=0 note=45 velocity=78 time=76
note_on channel=0 note=43 velocity=80 time=328
note_on channel=0 note=45 velocity=76 time=36
note_on channel=0 note=45 velocity=78 time=88
note_on channel=0 note=43 velocity=75 time=352
note_on channel=0 note=45 velocity=76 time=22
note_on channel=0 note=45 velocity=76 time=88
note_on channel=0 note=48 velocity=70 time=330
note_on channel=0 note=50 velocity=69 time=720
note_on channel=0 note=45 velocity=79 time=300
note_on channel=0 note=45 velocity=78 time=100
note_on channel=0 note=43 velocity=74 time=340
note_on channel=0 note=45 velocity=75 time=8
note_on channel=0 note=45 velocity=78 time=64
note_on channel=0 note=43 velocity=74 time=37
note_on channel=0 note=45 velocity=75 time=24
note_on channel=0 note=45 velocity=73 time=76
note_on channel=0 note=48 velocity=74 time=24
note_on channel=0 note=45 velocity=76 time=240
note_on channel=0 note=45 velocity=78 time=15792
note_on channel=0 note=48 velocity=81 time=464
note_on channel=0 note=50 velocity=79 time=240
note_on channel=0 note=52 velocity=68 time=236
note_on channel=0 note=45 velocity=82 time=354
note_on channel=0 note=43 velocity=62 time=18
note_on channel=0 note=45 velocity=80 time=22
note_on channel=0 note=45 velocity=88 time=692
note_on channel=0 note=48 velocity=77 time=568
note_on channel=0 note=50 velocity=90 time=88
note_on channel=0 note=52 velocity=75 time=240
note_on channel=0 note=45 velocity=75 time=288
note_on channel=0 note=48 velocity=77 time=720
note_on channel=0 note=45 velocity=78 time=22
note_on channel=0 note=45 velocity=80 time=782
note_on channel=0 note=45 velocity=78 time=76
note_on channel=0 note=43 velocity=80 time=328
note_on channel=0 note=45 velocity=76 time=36
note_on channel=0 note=45 velocity=78 time=88
note_on channel=0 note=43 velocity=75 time=352
note_on channel=0 note=45 velocity=76 time=22
note_on channel=0 note=45 velocity=76 time=88
note_on channel=0 note=48 velocity=70 time=330
note_on channel=0 note=50 velocity=69 time=720
note_on channel=0 note=45 velocity=79 time=300
note_on channel=0 note=45 velocity=78 time=100
note_on channel=0 note=43 velocity=74 time=340
note_on channel=0 note=45 velocity=75 time=8
note_on channel=0 note=45 velocity=78 time=64
note_on channel=0 note=43 velocity=74 time=37
note_on channel=0 note=45 velocity=75 time=24
note_on channel=0 note=45 velocity=73 time=76
note_on channel=0 note=48 velocity=74 time=24
note_on channel=0 note=45 velocity=76 time=240
note_on channel=0 note=50 velocity=109 time=432
note_on channel=0 note=50 velocity=114 time=123
note_on channel=0 note=48 velocity=114 time=480
note_on channel=0 note=50 velocity=109 time=42
note_on channel=0 note=50 velocity=109 time=137
note_on channel=0 note=48 velocity=120 time=2
note_on channel=0 note=45 velocity=114 time=29
note_on channel=0 note=45 velocity=104 time=129
note_on channel=0 note=43 velocity=120 time=480
note_on channel=0 note=45 velocity=114 time=72
note_on channel=0 note=45 velocity=104 time=120
note_on channel=0 note=43 velocity=104 time=19
note_on channel=0 note=43 velocity=66 time=17
note_on channel=0 note=40 velocity=74 time=92
note_on channel=0 note=40 velocity=104 time=110
note_on channel=0 note=40 velocity=109 time=112
note_on channel=0 note=44 velocity=120 time=63
note_on channel=0 note=40 velocity=109 time=51
note_on channel=0 note=44 velocity=120 time=97
note_on channel=0 note=47 velocity=95 time=12
note_on channel=0 note=45 velocity=124 time=81
note_on channel=0 note=45 velocity=109 time=97
note_on channel=0 note=40 velocity=104 time=74
note_on channel=0 note=43 velocity=98 time=59
note_on channel=0 note=45 velocity=120 time=57
