MidiTrack([
  MetaMessage('track_name', name='                                                                ', time=0),
  MetaMessage('set_tempo', tempo=434782, time=0),
  MetaMessage('key_signature', key='Eb', time=0),
  MetaMessage('time_signature', numerator=4, denominator=4, clocks_per_click=24, notated_32nd_notes_per_beat=8, time=0),
  MetaMessage('midi_port', port=0, time=0),
  Message('control_change', channel=0, control=0, value=0, time=0),
  Message('control_change', channel=0, control=32, value=2, time=0),
  Message('program_change', channel=0, program=37, time=0),
  Message('control_change', channel=0, control=7, value=127, time=0),
  Message('control_change', channel=1, control=11, value=127, time=0),
  Message('control_change', channel=1, control=93, value=40, time=0),
  Message('control_change', channel=1, control=91, value=60, time=0),
  Message('control_change', channel=1, control=0, value=8, time=0),
  Message('control_change', channel=1, control=32, value=2, time=0),
  Message('program_change', channel=1, program=61, time=0),
  Message('control_change', channel=1, control=7, value=127, time=0),
  Message('control_change', channel=2, control=93, value=50, time=0),
  Message('control_change', channel=2, control=91, value=50, time=0),
  Message('control_change', channel=2, control=7, value=127, time=0),
  Message('control_change', channel=2, control=0, value=8, time=0),
  Message('control_change', channel=2, control=32, value=2, time=0),
  Message('program_change', channel=2, program=61, time=0),
  Message('control_change', channel=3, control=100, value=0, time=0),
  Message('control_change', channel=3, control=101, value=0, time=0),
  Message('control_change', channel=3, control=6, value=12, time=0),
  Message('control_change', channel=3, control=93, value=40, time=0),
  Message('control_change', channel=3, control=91, value=60, time=0),
  Message('control_change', channel=3, control=7, value=127, time=0),
  Message('control_change', channel=3, control=0, value=0, time=0),
  Message('control_change', channel=3, control=32, value=2, time=0),
  Message('program_change', channel=3, program=67, time=0),
  Message('control_change', channel=4, control=11, value=127, time=0),
  Message('control_change', channel=4, control=93, value=40, time=0),
  Message('control_change', channel=4, control=91, value=60, time=0),
  Message('control_change', channel=4, control=0, value=8, time=0),
  Message('control_change', channel=4, control=32, value=2, time=0),
  Message('program_change', channel=4, program=61, time=0),
  Message('control_change', channel=4, control=7, value=100, time=0),
  Message('control_change', channel=5, control=93, value=40, time=0),
  Message('control_change', channel=5, control=91, value=60, time=0),
  Message('control_change', channel=5, control=7, value=127, time=0),
  Message('control_change', channel=5, control=0, value=1, time=0),
  Message('control_change', channel=5, control=32, value=2, time=0),
  Message('program_change', channel=5, program=56, time=0),
  Message('control_change', channel=6, control=11, value=127, time=0),
  Message('control_change', channel=6, control=93, value=50, time=0),
  Message('control_change', channel=6, control=91, value=50, time=0),
  Message('control_change', channel=6, control=0, value=0, time=0),
  Message('control_change', channel=6, control=32, value=2, time=0),
  Message('program_change', channel=6, program=59, time=0),
  Message('control_change', channel=6, control=7, value=127, time=0),
  Message('control_change', channel=7, control=11, value=127, time=0),
  Message('control_change', channel=7, control=93, value=0, time=0),
  Message('control_change', channel=7, control=91, value=50, time=0),
  Message('control_change', channel=7, control=0, value=1, time=0),
  Message('control_change', channel=7, control=32, value=2, time=0),
  Message('program_change', channel=7, program=57, time=0),
  Message('control_change', channel=7, control=7, value=100, time=0),
  Message('control_change', channel=12, control=11, value=127, time=0),
  Message('control_change', channel=12, control=93, value=40, time=0),
  Message('control_change', channel=12, control=91, value=60, time=0),
  Message('control_change', channel=12, control=0, value=8, time=0),
  Message('control_change', channel=12, control=32, value=2, time=0),
  Message('program_change', channel=12, program=65, time=0),
  Message('control_change', channel=12, control=7, value=127, time=0),
  Message('control_change', channel=13, control=11, value=127, time=0),
  Message('control_change', channel=13, control=93, value=0, time=0),
  Message('control_change', channel=13, control=91, value=60, time=0),
  Message('control_change', channel=13, control=0, value=8, time=0),
  Message('control_change', channel=13, control=32, value=2, time=0),
  Message('program_change', channel=13, program=66, time=0),
  Message('control_change', channel=13, control=7, value=127, time=0),
  Message('control_change', channel=14, control=11, value=127, time=0),
  Message('control_change', channel=14, control=93, value=40, time=0),
  Message('control_change', channel=14, control=91, value=60, time=0),
  Message('control_change', channel=14, control=0, value=0, time=0),
  Message('control_change', channel=14, control=32, value=2, time=0),
  Message('program_change', channel=14, program=67, time=0),
  Message('control_change', channel=14, control=7, value=127, time=0),
  Message('note_on', channel=0, note=43, velocity=74, time=1920),
  Message('note_on', channel=1, note=69, velocity=127, time=0),
  Message('note_on', channel=1, note=73, velocity=127, time=0),
  Message('note_on', channel=1, note=74, velocity=127, time=0),
  Message('note_on', channel=1, note=76, velocity=127, time=0),
  Message('note_on', channel=1, note=79, velocity=127, time=0),
  Message('note_on', channel=4, note=57, velocity=107, time=0),
  Message('note_on', channel=4, note=61, velocity=107, time=0),
  Message('note_on', channel=4, note=62, velocity=107, time=0),
  Message('note_on', channel=4, note=64, velocity=107, time=0),
  Message('note_on', channel=4, note=67, velocity=107, time=0),
  Message('note_on', channel=6, note=69, velocity=107, time=0),
  Message('note_on', channel=6, note=73, velocity=107, time=0),
  Message('note_on', channel=6, note=74, velocity=107, time=0),
  Message('note_on', channel=6, note=76, velocity=107, time=0),
  Message('note_on', channel=6, note=79, velocity=107, time=0),
  Message('note_on', channel=9, note=40, velocity=120, time=0),
  Message('control_change', channel=9, control=7, value=127, time=0),
  Message('control_change', channel=9, control=91, value=80, time=0),
  Message('control_change', channel=9, control=91, value=60, time=0),
  Message('control_change', channel=9, control=93, value=40, time=0),
  Message('control_change', channel=9, control=127, value=80, time=0),
  Message('control_change', channel=9, control=7, value=127, time=0),
  Message('control_change', channel=9, control=93, value=40, time=0),
  Message('control_change', channel=9, control=91, value=80, time=0),
  Message('control_change', channel=9, control=7, value=127, time=0),
  Message('note_on', channel=9, note=40, velocity=0, time=1),
  Message('note_on', channel=0, note=43, velocity=0, time=99),
  Message('note_on', channel=1, note=69, velocity=0, time=0),
  Message('note_on', channel=1, note=73, velocity=0, time=0),
  Message('note_on', channel=1, note=74, velocity=0, time=0),
  Message('note_on', channel=1, note=76, velocity=0, time=0),
  Message('note_on', channel=1, note=79, velocity=0, time=0),
  Message('note_on', channel=4, note=57, velocity=0, time=0),
  Message('note_on', channel=4, note=61, velocity=0, time=0),
  Message('note_on', channel=4, note=62, velocity=0, time=0),
  Message('note_on', channel=4, note=64, velocity=0, time=0),
  Message('note_on', channel=4, note=67, velocity=0, time=0),
  Message('note_on', channel=6, note=69, velocity=0, time=0),
  Message('note_on', channel=6, note=73, velocity=0, time=0),
  Message('note_on', channel=6, note=74, velocity=0, time=0),
  Message('note_on', channel=6, note=76, velocity=0, time=0),
  Message('note_on', channel=6, note=79, velocity=0, time=0),
  Message('note_on', channel=0, note=43, velocity=74, time=20),
  Message('note_on', channel=1, note=69, velocity=127, time=0),
  Message('note_on', channel=1, note=73, velocity=127, time=0),
  Message('note_on', channel=1, note=74, velocity=127, time=0),
  Message('note_on', channel=1, note=76, velocity=127, time=0),
  Message('note_on', channel=1, note=79, velocity=127, time=0),
  Message('note_on', channel=4, note=57, velocity=107, time=0),
  Message('note_on', channel=4, note=61, velocity=107, time=0),
  Message('note_on', channel=4, note=62, velocity=107, time=0),
  Message('note_on', channel=4, note=64, velocity=107, time=0),
  Message('note_on', channel=4, note=67, velocity=107, time=0),
  Message('note_on', channel=6, note=69, velocity=107, time=0),
  Message('note_on', channel=6, note=73, velocity=107, time=0),
  Message('note_on', channel=6, note=74, velocity=107, time=0),
  Message('note_on', channel=6, note=76, velocity=107, time=0),
  Message('note_on', channel=6, note=79, velocity=107, time=0),
  Message('note_on', channel=9, note=40, velocity=120, time=0),
  Message('note_on', channel=9, note=40, velocity=0, time=1),
  Message('note_on', channel=0, note=43, velocity=0, time=99),
  Message('note_on', channel=1, note=69, velocity=0, time=0),
  Message('note_on', channel=1, note=73, velocity=0, time=0),
  Message('note_on', channel=1, note=74, velocity=0, time=0),
  Message('note_on', channel=1, note=76, velocity=0, time=0),
  Message('note_on', channel=1, note=79, velocity=0, time=0),
  Message('note_on', channel=4, note=57, velocity=0, time=0),
  Message('note_on', channel=4, note=61, velocity=0, time=0),
  Message('note_on', channel=4, note=62, velocity=0, time=0),
  Message('note_on', channel=4, note=64, velocity=0, time=0),
  Message('note_on', channel=4, note=67, velocity=0, time=0),
  Message('note_on', channel=6, note=69, velocity=0, time=0),
  Message('note_on', channel=6, note=73, velocity=0, time=0),
  Message('note_on', channel=6, note=74, velocity=0, time=0),
  Message('note_on', channel=6, note=76, velocity=0, time=0),
  Message('note_on', channel=6, note=79, velocity=0, time=0),
  Message('note_on', channel=0, note=43, velocity=74, time=140),
  Message('note_on', channel=1, note=69, velocity=127, time=0),
  Message('note_on', channel=1, note=73, velocity=127, time=0),
  Message('note_on', channel=1, note=74, velocity=127, time=0),
  Message('note_on', channel=1, note=76, velocity=127, time=0),
  Message('note_on', channel=1, note=79, velocity=127, time=0),
  Message('note_on', channel=4, note=57, velocity=107, time=0),
  Message('note_on', channel=4, note=61, velocity=107, time=0),
  Message('note_on', channel=4, note=62, velocity=107, time=0),
  Message('note_on', channel=4, note=64, velocity=107, time=0),
  Message('note_on', channel=4, note=67, velocity=107, time=0),
  Message('note_on', channel=6, note=69, velocity=107, time=0),
  Message('note_on', channel=6, note=73, velocity=107, time=0),
  Message('note_on', channel=6, note=74, velocity=107, time=0),
  Message('note_on', channel=6, note=76, velocity=107, time=0),
  Message('note_on', channel=6, note=79, velocity=107, time=0),
  Message('note_on', channel=9, note=40, velocity=120, time=0),
  Message('note_on', channel=9, note=40, velocity=0, time=1),
  Message('note_on', channel=0, note=43, velocity=0, time=99),
  Message('note_on', channel=1, note=69, velocity=0, time=0),
  Message('note_on', channel=1, note=73, velocity=0, time=0),
  Message('note_on', channel=1, note=74, velocity=0, time=0),
  Message('note_on', channel=1, note=76, velocity=0, time=0),
  Message('note_on', channel=1, note=79, velocity=0, time=0),
  Message('note_on', channel=4, note=57, velocity=0, time=0),
  Message('note_on', channel=4, note=61, velocity=0, time=0),
  Message('note_on', channel=4, note=62, velocity=0, time=0),
  Message('note_on', channel=4, note=64, velocity=0, time=0),
  Message('note_on', channel=4, note=67, velocity=0, time=0),
  Message('note_on', channel=6, note=69, velocity=0, time=0),
  Message('note_on', channel=6, note=73, velocity=0, time=0),
  Message('note_on', channel=6, note=74, velocity=0, time=0),
  Message('note_on', channel=6, note=76, velocity=0, time=0),
  Message('note_on', channel=6, note=79, velocity=0, time=0),
  Message('note_on', channel=0, note=43, velocity=74, time=20),
  Message('note_on', channel=1, note=69, velocity=127, time=0),
  Message('note_on', channel=1, note=73, velocity=127, time=0),
  Message('note_on', channel=1, note=74, velocity=127, time=0),
  Message('note_on', channel=1, note=76, velocity=127, time=0),
  Message('note_on', channel=1, note=79, velocity=127, time=0),
  Message('note_on', channel=4, note=57, velocity=107, time=0),
  Message('note_on', channel=4, note=61, velocity=107, time=0),
  Message('note_on', channel=4, note=62, velocity=107, time=0),
  Message('note_on', channel=4, note=64, velocity=107, time=0),
  Message('note_on', channel=4, note=67, velocity=107, time=0),
  Message('note_on', channel=6, note=69, velocity=107, time=0),
  Message('note_on', channel=6, note=73, velocity=107, time=0),
  Message('note_on', channel=6, note=74, velocity=107, time=0),
  Message('note_on', channel=6, note=76, velocity=107, time=0),
  Message('note_on', channel=6, note=79, velocity=107, time=0),
  Message('note_on', channel=9, note=40, velocity=120, time=0),
  Message('note_on', channel=9, note=40, velocity=0, time=1),
  Message('note_on', channel=0, note=43, velocity=0, time=99),
  Message('note_on', channel=1, note=69, velocity=0, time=0),
  Message('note_on', channel=1, note=73, velocity=0, time=0),
  Message('note_on', channel=1, note=74, velocity=0, time=0),
  Message('note_on', channel=1, note=76, velocity=0, time=0),
  Message('note_on', channel=1, note=79, velocity=0, time=0),
  Message('note_on', channel=4, note=57, velocity=0, time=0),
  Message('note_on', channel=4, note=61, velocity=0, time=0),
  Message('note_on', channel=4, note=62, velocity=0, time=0),
  Message('note_on', channel=4, note=64, velocity=0, time=0),
  Message('note_on', channel=4, note=67, velocity=0, time=0),
  Message('note_on', channel=6, note=69, velocity=0, time=0),
  Message('note_on', channel=6, note=73, velocity=0, time=0),
  Message('note_on', channel=6, note=74, velocity=0, time=0),
  Message('note_on', channel=6, note=76, velocity=0, time=0),
  Message('note_on', channel=6, note=79, velocity=0, time=0),
  Message('note_on', channel=0, note=43, velocity=74, time=140),
  Message('note_on', channel=1, note=69, velocity=127, time=0),
  Message('note_on', channel=1, note=73, velocity=127, time=0),
  Message('note_on', channel=1, note=74, velocity=127, time=0),
  Message('note_on', channel=1, note=76, velocity=127, time=0),
  Message('note_on', channel=1, note=79, velocity=127, time=0),
  Message('note_on', channel=4, note=57, velocity=107, time=0),
  Message('note_on', channel=4, note=61, velocity=107, time=0),
  Message('note_on', channel=4, note=62, velocity=107, time=0),
  Message('note_on', channel=4, note=64, velocity=107, time=0),
  Message('note_on', channel=4, note=67, velocity=107, time=0),
  Message('note_on', channel=6, note=69, velocity=107, time=0),
  Message('note_on', channel=6, note=73, velocity=107, time=0),
  Message('note_on', channel=6, note=74, velocity=107, time=0),
  Message('note_on', channel=6, note=76, velocity=107, time=0),
  Message('note_on', channel=6, note=79, velocity=107, time=0),
  Message('note_on', channel=9, note=40, velocity=120, time=0),
  Message('note_on', channel=9, note=40, velocity=0, time=1),
  Message('note_on', channel=0, note=43, velocity=0, time=99),
  Message('note_on', channel=1, note=69, velocity=0, time=0),
  Message('note_on', channel=1, note=73, velocity=0, time=0),
  Message('note_on', channel=1, note=74, velocity=0, time=0),
  Message('note_on', channel=1, note=76, velocity=0, time=0),
  Message('note_on', channel=1, note=79, velocity=0, time=0),
  Message('note_on', channel=4, note=57, velocity=0, time=0),
  Message('note_on', channel=4, note=61, velocity=0, time=0),
  Message('note_on', channel=4, note=62, velocity=0, time=0),
  Message('note_on', channel=4, note=64, velocity=0, time=0),
  Message('note_on', channel=4, note=67, velocity=0, time=0),
  Message('note_on', channel=6, note=69, velocity=0, time=0),
  Message('note_on', channel=6, note=73, velocity=0, time=0),
  Message('note_on', channel=6, note=74, velocity=0, time=0),
  Message('note_on', channel=6, note=76, velocity=0, time=0),
  Message('note_on', channel=6, note=79, velocity=0, time=0),
  Message('note_on', channel=0, note=43, velocity=74, time=20),
  Message('note_on', channel=1, note=69, velocity=127, time=0),
  Message('note_on', channel=1, note=73, velocity=127, time=0),
  Message('note_on', channel=1, note=74, velocity=127, time=0),
  Message('note_on', channel=1, note=76, velocity=127, time=0),
  Message('note_on', channel=1, note=79, velocity=127, time=0),
  Message('note_on', channel=4, note=57, velocity=107, time=0),
  Message('note_on', channel=4, note=61, velocity=107, time=0),
  Message('note_on', channel=4, note=62, velocity=107, time=0),
  Message('note_on', channel=4, note=64, velocity=107, time=0),
  Message('note_on', channel=4, note=67, velocity=107, time=0),
  Message('note_on', channel=6, note=69, velocity=107, time=0),
  Message('note_on', channel=6, note=73, velocity=107, time=0),
  Message('note_on', channel=6, note=74, velocity=107, time=0),
  Message('note_on', channel=6, note=76, velocity=107, time=0),
  Message('note_on', channel=6, note=79, velocity=107, time=0),
  Message('note_on', channel=9, note=40, velocity=120, time=0),
  Message('note_on', channel=9, note=40, velocity=0, time=1),
  Message('note_on', channel=0, note=43, velocity=0, time=99),
  Message('note_on', channel=1, note=69, velocity=0, time=0),
  Message('note_on', channel=1, note=73, velocity=0, time=0),
  Message('note_on', channel=1, note=74, velocity=0, time=0),
  Message('note_on', channel=1, note=76, velocity=0, time=0),
  Message('note_on', channel=1, note=79, velocity=0, time=0),
  Message('note_on', channel=4, note=57, velocity=0, time=0),
  Message('note_on', channel=4, note=61, velocity=0, time=0),
  Message('note_on', channel=4, note=62, velocity=0, time=0),
  Message('note_on', channel=4, note=64, velocity=0, time=0),
  Message('note_on', channel=4, note=67, velocity=0, time=0),
  Message('note_on', channel=6, note=69, velocity=0, time=0),
  Message('note_on', channel=6, note=73, velocity=0, time=0),
  Message('note_on', channel=6, note=74, velocity=0, time=0),
  Message('note_on', channel=6, note=76, velocity=0, time=0),
  Message('note_on', channel=6, note=79, velocity=0, time=0),
  Message('note_on', channel=0, note=43, velocity=74, time=140),
  Message('note_on', channel=1, note=69, velocity=127, time=0),
  Message('note_on', channel=1, note=73, velocity=127, time=0),
  Message('note_on', channel=1, note=74, velocity=127, time=0),
  Message('note_on', channel=1, note=76, velocity=127, time=0),
  Message('note_on', channel=1, note=79, velocity=127, time=0),
  Message('note_on', channel=4, note=57, velocity=107, time=0),
  Message('note_on', channel=4, note=61, velocity=107, time=0),
  Message('note_on', channel=4, note=62, velocity=107, time=0),
  Message('note_on', channel=4, note=64, velocity=107, time=0),
  Message('note_on', channel=4, note=67, velocity=107, time=0),
  Message('note_on', channel=6, note=69, velocity=107, time=0),
  Message('note_on', channel=6, note=73, velocity=107, time=0),
  Message('note_on', channel=6, note=74, velocity=107, time=0),
  Message('note_on', channel=6, note=76, velocity=107, time=0),
  Message('note_on', channel=6, note=79, velocity=107, time=0),
  Message('note_on', channel=9, note=40, velocity=120, time=0),
  Message('note_on', channel=9, note=40, velocity=0, time=1),
  Message('note_on', channel=0, note=43, velocity=0, time=99),
  Message('note_on', channel=1, note=69, velocity=0, time=0),
  Message('note_on', channel=1, note=73, velocity=0, time=0),
  Message('note_on', channel=1, note=74, velocity=0, time=0),
  Message('note_on', channel=1, note=76, velocity=0, time=0),
  Message('note_on', channel=1, note=79, velocity=0, time=0),
  Message('note_on', channel=4, note=57, velocity=0, time=0),
  Message('note_on', channel=4, note=61, velocity=0, time=0),
  Message('note_on', channel=4, note=62, velocity=0, time=0),
  Message('note_on', channel=4, note=64, velocity=0, time=0),
  Message('note_on', channel=4, note=67, velocity=0, time=0),
  Message('note_on', channel=6, note=69, velocity=0, time=0),
  Message('note_on', channel=6, note=73, velocity=0, time=0),
  Message('note_on', channel=6, note=74, velocity=0, time=0),
  Message('note_on', channel=6, note=76, velocity=0, time=0),
  Message('note_on', channel=6, note=79, velocity=0, time=0),
  Message('note_on', channel=0, note=43, velocity=74, time=20),
  Message('note_on', channel=1, note=69, velocity=127, time=0),
  Message('note_on', channel=1, note=73, velocity=127, time=0),
  Message('note_on', channel=1, note=74, velocity=127, time=0),
  Message('note_on', channel=1, note=76, velocity=127, time=0),
  Message('note_on', channel=1, note=79, velocity=127, time=0),
  Message('note_on', channel=4, note=57, velocity=107, time=0),
  Message('note_on', channel=4, note=61, velocity=107, time=0),
  Message('note_on', channel=4, note=62, velocity=107, time=0),
  Message('note_on', channel=4, note=64, velocity=107, time=0),
  Message('note_on', channel=4, note=67, velocity=107, time=0),
  Message('note_on', channel=6, note=69, velocity=107, time=0),
  Message('note_on', channel=6, note=73, velocity=107, time=0),
  Message('note_on', channel=6, note=74, velocity=107, time=0),
  Message('note_on', channel=6, note=76, velocity=107, time=0),
  Message('note_on', channel=6, note=79, velocity=107, time=0),
  Message('note_on', channel=9, note=40, velocity=120, time=0),
  Message('note_on', channel=9, note=40, velocity=0, time=1),
  Message('note_on', channel=0, note=43, velocity=0, time=99),
  Message('note_on', channel=1, note=69, velocity=0, time=0),
  Message('note_on', channel=1, note=73, velocity=0, time=0),
  Message('note_on', channel=1, note=74, velocity=0, time=0),
  Message('note_on', channel=1, note=76, velocity=0, time=0),
  Message('note_on', channel=1, note=79, velocity=0, time=0),
  Message('note_on', channel=4, note=57, velocity=0, time=0),
  Message('note_on', channel=4, note=61, velocity=0, time=0),
  Message('note_on', channel=4, note=62, velocity=0, time=0),
  Message('note_on', channel=4, note=64, velocity=0, time=0),
  Message('note_on', channel=4, note=67, velocity=0, time=0),
  Message('note_on', channel=6, note=69, velocity=0, time=0),
  Message('note_on', channel=6, note=73, velocity=0, time=0),
  Message('note_on', channel=6, note=74, velocity=0, time=0),
  Message('note_on', channel=6, note=76, velocity=0, time=0),
  Message('note_on', channel=6, note=79, velocity=0, time=0),
  Message('note_on', channel=0, note=46, velocity=74, time=140),
  Message('note_on', channel=1, note=73, velocity=127, time=0),
  Message('note_on', channel=1, note=78, velocity=127, time=0),
  Message('note_on', channel=1, note=82, velocity=127, time=0),
  Message('note_on', channel=4, note=61, velocity=107, time=0),
  Message('note_on', channel=4, note=66, velocity=107, time=0),
  Message('note_on', channel=4, note=70, velocity=107, time=0),
  Message('note_on', channel=6, note=73, velocity=107, time=0),
  Message('note_on', channel=6, note=78, velocity=107, time=0),
  Message('note_on', channel=6, note=82, velocity=107, time=0),
  Message('note_on', channel=9, note=40, velocity=120, time=0),
  Message('note_on', channel=9, note=40, velocity=0, time=1),
  Message('note_on', channel=0, note=46, velocity=0, time=219),
  Message('note_on', channel=6, note=73, velocity=0, time=0),
  Message('note_on', channel=6, note=78, velocity=0, time=0),
  Message('note_on', channel=6, note=82, velocity=0, time=0),
  Message('note_on', channel=0, note=47, velocity=74, time=20),
  Message('note_on', channel=1, note=72, velocity=127, time=0),
  Message('note_on', channel=1, note=79, velocity=127, time=0),
  Message('note_on', channel=1, note=83, velocity=127, time=0),
  Message('note_on', channel=4, note=60, velocity=107, time=0),
  Message('note_on', channel=4, note=67, velocity=107, time=0),
  Message('note_on', channel=4, note=71, velocity=107, time=0),
  Message('note_on', channel=6, note=72, velocity=107, time=0),
  Message('note_on', channel=6, note=79, velocity=107, time=0),
  Message('note_on', channel=6, note=83, velocity=107, time=0),
  Message('note_on', channel=9, note=40, velocity=120, time=0),
  Message('note_on', channel=1, note=73, velocity=0, time=1),
  Message('note_on', channel=1, note=78, velocity=0, time=0),
  Message('note_on', channel=1, note=82, velocity=0, time=0),
  Message('note_on', channel=4, note=61, velocity=0, time=0),
  Message('note_on', channel=4, note=66, velocity=0, time=0),
  Message('note_on', channel=4, note=70, velocity=0, time=0),
  Message('note_on', channel=9, note=40, velocity=0, time=0),
  Message('note_on', channel=1, note=83, velocity=0, time=149),
  Message('note_on', channel=4, note=71, velocity=0, time=0),
  Message('note_on', channel=6, note=83, velocity=0, time=0),
  Message('note_on', channel=0, note=47, velocity=0, time=70),
  Message('note_on', channel=1, note=72, velocity=0, time=0),
  Message('note_on', channel=1, note=79, velocity=0, time=0),
  Message('note_on', channel=4, note=60, velocity=0, time=0),
  Message('note_on', channel=4, note=67, velocity=0, time=0),
  Message('note_on', channel=6, note=72, velocity=0, time=0),
  Message('note_on', channel=6, note=79, velocity=0, time=0),
  Message('note_on', channel=9, note=45, velocity=78, time=20),
  Message('note_on', channel=9, note=45, velocity=0, time=1),
  Message('note_on', channel=9, note=45, velocity=92, time=59),
  Message('note_on', channel=9, note=45, velocity=0, time=1),
  Message('note_on', channel=9, note=45, velocity=106, time=59),
  Message('note_on', channel=9, note=45, velocity=0, time=1),
  Message('note_on', channel=9, note=45, velocity=120, time=59),
  Message('note_on', channel=9, note=45, velocity=0, time=1),
  Message('note_on', channel=9, note=40, velocity=120, time=59),
  Message('note_on', channel=9, note=40, velocity=0, time=1),
  Message('note_on', channel=9, note=40, velocity=92, time=59),
  Message('note_on', channel=9, note=40, velocity=0, time=1),
  Message('note_on', channel=9, note=40, velocity=120, time=59),
  Message('note_on', channel=9, note=40, velocity=0, time=1),
  Message('note_on', channel=9, note=40, velocity=92, time=59),
  Message('note_on', channel=9, note=40, velocity=0, time=1),
  Message('note_on', channel=9, note=40, velocity=120, time=59),
  Message('note_on', channel=9, note=40, velocity=0, time=1),
  Message('note_on', channel=9, note=40, velocity=120, time=119),
  Message('note_on', channel=9, note=40, velocity=0, time=1),
  Message('note_on', channel=9, note=40, velocity=120, time=119),
  Message('note_on', channel=9, note=40, velocity=0, time=1),
  Message('note_on', channel=9, note=45, velocity=120, time=119),
  Message('note_on', channel=9, note=45, velocity=0, time=1),
  Message('note_on', channel=9, note=45, velocity=120, time=239),
  Message('note_on', channel=9, note=45, velocity=0, time=1),
  Message('note_on', channel=9, note=45, velocity=120, time=119),
  Message('note_on', channel=9, note=45, velocity=0, time=1),
  Message('note_on', channel=9, note=40, velocity=120, time=239),
  Message('note_on', channel=9, note=40, velocity=0, time=1),
  Message('note_on', channel=0, note=36, velocity=74, time=479),
  Message('note_on', channel=0, note=36, velocity=0, time=340),
  Message('note_on', channel=0, note=43, velocity=84, time=20),
  Message('note_on', channel=0, note=43, velocity=0, time=340),
  Message('note_on', channel=0, note=42, velocity=74, time=20),
  Message('note_on', channel=0, note=42, velocity=0, time=220),
  Message('note_on', channel=0, note=41, velocity=74, time=20),
  Message('note_on', channel=0, note=41, velocity=0, time=340),
  Message('note_on', channel=0, note=39, velocity=74, time=20),
  Message('note_on', channel=0, note=39, velocity=0, time=340),
  Message('note_on', channel=0, note=34, velocity=74, time=20),
  Message('note_on', channel=0, note=34, velocity=0, time=220),
  Message('note_on', channel=0, note=36, velocity=74, time=20),
  Message('note_on', channel=0, note=36, velocity=0, time=340),
  Message('note_on', channel=0, note=43, velocity=84, time=20),
  Message('note_on', channel=0, note=43, velocity=0, time=340),
  Message('note_on', channel=0, note=42, velocity=74, time=20),
  Message('note_on', channel=0, note=42, velocity=0, time=220),
  Message('note_on', channel=0, note=41, velocity=74, time=20),
  Message('note_on', channel=0, note=41, velocity=0, time=340),
  Message('note_on', channel=0, note=39, velocity=74, time=20),
  Message('note_on', channel=0, note=39, velocity=0, time=340),
  Message('note_on', channel=0, note=34, velocity=74, time=20),
  Message('note_on', channel=0, note=34, velocity=0, time=220),
  Message('note_on', channel=0, note=36, velocity=74, time=20),
  Message('note_on', channel=0, note=36, velocity=0, time=340),
  Message('note_on', channel=0, note=43, velocity=84, time=20),
  Message('note_on', channel=0, note=43, velocity=0, time=340),
  Message('note_on', channel=0, note=42, velocity=74, time=20),
  Message('note_on', channel=0, note=42, velocity=0, time=220),
  Message('note_on', channel=0, note=41, velocity=74, time=20),
  Message('note_on', channel=0, note=41, velocity=0, time=340),
  Message('note_on', channel=0, note=39, velocity=74, time=20),
  Message('note_on', channel=0, note=39, velocity=0, time=340),
  Message('note_on', channel=0, note=34, velocity=74, time=20),
  Message('note_on', channel=0, note=34, velocity=0, time=220),
  Message('note_on', channel=0, note=36, velocity=74, time=20),
  Message('note_on', channel=0, note=36, velocity=0, time=340),
  Message('note_on', channel=0, note=43, velocity=84, time=20),
  Message('note_on', channel=0, note=43, velocity=0, time=340),
  Message('note_on', channel=0, note=42, velocity=74, time=20),
  Message('note_on', channel=0, note=42, velocity=0, time=220),
  Message('note_on', channel=0, note=41, velocity=74, time=20),
  Message('note_on', channel=0, note=41, velocity=0, time=340),
  Message('note_on', channel=0, note=39, velocity=74, time=20),
  Message('note_on', channel=9, note=40, velocity=64, time=240),
  Message('control_change', channel=9, control=7, value=127, time=0),
  Message('note_on', channel=9, note=61, velocity=68, time=0),
  Message('control_change', channel=9, control=7, value=127, time=0),
  Message('note_on', channel=9, note=40, velocity=0, time=1),
  Message('note_on', channel=9, note=61, velocity=0, time=0),
  Message('note_on', channel=0, note=39, velocity=0, time=99),
  Message('note_on', channel=0, note=34, velocity=74, time=20),
  Message('note_on', channel=9, note=40, velocity=64, time=0),
  Message('note_on', channel=9, note=61, velocity=82, time=0),
  Message('note_on', channel=9, note=40, velocity=0, time=1),
  Message('note_on', channel=9, note=61, velocity=0, time=0),
  Message('note_on', channel=9, note=40, velocity=64, time=119),
  Message('note_on', channel=9, note=61, velocity=110, time=0),
  Message('note_on', channel=9, note=40, velocity=0, time=1),
  Message('note_on', channel=9, note=61, velocity=0, time=0),
  Message('note_on', channel=0, note=34, velocity=0, time=99),
  Message('note_on', channel=0, note=36, velocity=74, time=20),
  Message('note_on', channel=9, note=40, velocity=50, time=0),
  Message('note_on', channel=9, note=70, velocity=78, time=0),
  Message('note_on', channel=9, note=61, velocity=82, time=0),
  Message('note_on', channel=9, note=40, velocity=0, time=1),
  Message('note_on', channel=9, note=70, velocity=0, time=0),
  Message('note_on', channel=9, note=61, velocity=0, time=0),
  Message('note_on', channel=9, note=70, velocity=64, time=119),
  Message('note_on', channel=9, note=70, velocity=0, time=1),
  Message('note_on', channel=9, note=70, velocity=120, time=119),
  Message('note_on', channel=9, note=61, velocity=82, time=0),
  Message('note_on', channel=9, note=70, velocity=0, time=1),
  Message('note_on', channel=9, note=61, velocity=0, time=0),
  Message('note_on', channel=0, note=36, velocity=0, time=99),
  Message('note_on', channel=0, note=43, velocity=84, time=20),
  Message('note_on', channel=9, note=70, velocity=120, time=0),
  Message('note_on', channel=9, note=61, velocity=82, time=0),
  Message('note_on', channel=9, note=70, velocity=0, time=1),
  Message('note_on', channel=9, note=61, velocity=0, time=0),
  Message('note_on', channel=9, note=70, velocity=78, time=119),
  Message('note_on', channel=9, note=70, velocity=0, time=1),
  Message('note_on', channel=9, note=70, velocity=64, time=119),
  Message('note_on', channel=9, note=70, velocity=0, time=1),
  Message('note_on', channel=0, note=43, velocity=0, time=99),
  Message('note_on', channel=0, note=42, velocity=74, time=20),
  Message('note_on', channel=9, note=70, velocity=120, time=0),
  Message('note_on', channel=9, note=60, velocity=110, time=0),
  Message('note_on', channel=9, note=70, velocity=0, time=1),
  Message('note_on', channel=9, note=60, velocity=0, time=0),
  Message('note_on', channel=9, note=70, velocity=120, time=119),
  Message('note_on', channel=9, note=70, velocity=0, time=1),
  Message('note_on', channel=0, note=42, velocity=0, time=99),
  Message('note_on', channel=0, note=41, velocity=74, time=20),
  Message('note_on', channel=9, note=70, velocity=78, time=0),
  Message('note_on', channel=9, note=70, velocity=0, time=1),
  Message('note_on', channel=9, note=70, velocity=64, time=119),
  Message('note_on', channel=9, note=70, velocity=0, time=1),
  Message('note_on', channel=9, note=70, velocity=120, time=119),
  Message('note_on', channel=9, note=61, velocity=96, time=0),
  Message('note_on', channel=9, note=70, velocity=0, time=1),
  Message('note_on', channel=9, note=61, velocity=0, time=0),
  Message('note_on', channel=0, note=41, velocity=0, time=99),
  Message('note_on', channel=0, note=39, velocity=74, time=20),
  Message('note_on', channel=9, note=70, velocity=120, time=0),
  Message('note_on', channel=9, note=61, velocity=96, time=0),
  Message('note_on', channel=9, note=70, velocity=0, time=1),
  Message('note_on', channel=9, note=61, velocity=0, time=0),
  Message('note_on', channel=9, note=70, velocity=78, time=119),
  Message('note_on', channel=9, note=70, velocity=0, time=1),
  Message('note_on', channel=9, note=70, velocity=64, time=119),
  Message('note_on', channel=9, note=61, velocity=96, time=0),
  Message('note_on', channel=9, note=70, velocity=0, time=1),
  Message('note_on', channel=9, note=61, velocity=0, time=0),
  Message('note_on', channel=0, note=39, velocity=0, time=99),
  Message('note_on', channel=0, note=34, velocity=74, time=20),
  Message('note_on', channel=9, note=70, velocity=120, time=0),
  Message('note_on', channel=9, note=70, velocity=0, time=1),
  Message('note_on', channel=9, note=70, velocity=120, time=119),
  Message('note_on', channel=9, note=70, velocity=0, time=1),
  Message('note_on', channel=0, note=34, velocity=0, time=99),
  Message('note_on', channel=0, note=36, velocity=74, time=20),
  Message('note_on', channel=9, note=70, velocity=78, time=0),
  Message('note_on', channel=9, note=61, velocity=96, time=0),
  Message('note_on', channel=9, note=70, velocity=0, time=1),
  Message('note_on', channel=9, note=61, velocity=0, time=0),
  Message('note_on', channel=9, note=61, velocity=96, time=59),
  Message('note_on', channel=9, note=61, velocity=0, time=1),
  Message('note_on', channel=9, note=70, velocity=64, time=59),
  Message('note_on', channel=9, note=61, velocity=96, time=0),
  Message('note_on', channel=9, note=70, velocity=0, time=1),
  Message('note_on', channel=9, note=61, velocity=0, time=0),
  Message('note_on', channel=9, note=61, velocity=96, time=59),
  Message('note_on', channel=9, note=61, velocity=0, time=1),
  Message('note_on', channel=9, note=70, velocity=120, time=59),
  Message('note_on', channel=9, note=70, velocity=0, time=1),
  Message('note_on', channel=0, note=36, velocity=0, time=99),
  Message('note_on', channel=0, note=43, velocity=84, time=20),
  Message('note_on', channel=9, note=70, velocity=120, time=0),
  Message('note_on', channel=9, note=70, velocity=0, time=1),
  Message('note_on', channel=9, note=70, velocity=78, time=119),
  Message('note_on', channel=9, note=60, velocity=96, time=0),
  Message('note_on', channel=9, note=70, velocity=0, time=1),
  Message('note_on', channel=9, note=60, velocity=0, time=0),
  Message('note_on', channel=9, note=70, velocity=64, time=119),
  Message('note_on', channel=9, note=70, velocity=0, time=1),
  Message('note_on', channel=0, note=43, velocity=0, time=99),
  Message('note_on', channel=0, note=42, velocity=74, time=20),
  Message('note_on', channel=9, note=70, velocity=120, time=0),
  Message('note_on', channel=9, note=61, velocity=96, time=0),
  Message('note_on', channel=9, note=70, velocity=0, time=1),
  Message('note_on', channel=9, note=61, velocity=0, time=0),
  Message('note_on', channel=9, note=70, velocity=120, time=119),
  Message('note_on', channel=9, note=60, velocity=110, time=0),
  Message('note_on', channel=9, note=70, velocity=0, time=1),
  Message('note_on', channel=9, note=60, velocity=0, time=0),
  Message('note_on', channel=0, note=42, velocity=0, time=99),
  Message('note_on', channel=0, note=41, velocity=74, time=20),
  Message('note_on', channel=9, note=70, velocity=78, time=0),
  Message('note_on', channel=9, note=70, velocity=0, time=1),
  Message('note_on', channel=9, note=70, velocity=64, time=119),
  Message('note_on', channel=9, note=60, velocity=110, time=0),
  Message('note_on', channel=9, note=70, velocity=0, time=1),
  Message('note_on', channel=9, note=60, velocity=0, time=0),
  Message('note_on', channel=9, note=70, velocity=120, time=119),
  Message('note_on', channel=9, note=60, velocity=110, time=0),
  Message('note_on', channel=9, note=70, velocity=0, time=1),
  Message('note_on', channel=9, note=60, velocity=0, time=0),
  Message('note_on', channel=0, note=41, velocity=0, time=99),
  Message('note_on', channel=0, note=39, velocity=74, time=20),
  Message('note_on', channel=9, note=70, velocity=120, time=0),
  Message('note_on', channel=9, note=70, velocity=0, time=1),
  Message('note_on', channel=9, note=70, velocity=78, time=119),
  Message('note_on', channel=9, note=60, velocity=110, time=0),
  Message('note_on', channel=9, note=70, velocity=0, time=1),
  Message('note_on', channel=9, note=60, velocity=0, time=0),
  Message('note_on', channel=9, note=70, velocity=64, time=119),
  Message('note_on', channel=9, note=60, velocity=110, time=0),
  Message('note_on', channel=9, note=70, velocity=0, time=1),
  Message('note_on', channel=9, note=60, velocity=0, time=0),
  Message('note_on', channel=0, note=39, velocity=0, time=99),
  Message('note_on', channel=0, note=34, velocity=74, time=20),
  Message('note_on', channel=9, note=70, velocity=120, time=0),
  Message('note_on', channel=9, note=61, velocity=96, time=0),
  Message('note_on', channel=9, note=70, velocity=0, time=1),
  Message('note_on', channel=9, note=61, velocity=0, time=0),
  Message('note_on', channel=9, note=70, velocity=120, time=119),
  Message('note_on', channel=9, note=60, velocity=110, time=0),
  Message('note_on', channel=9, note=70, velocity=0, time=1),
  Message('note_on', channel=9, note=60, velocity=0, time=0),
  Message('note_on', channel=0, note=34, velocity=0, time=99),
  Message('note_on', channel=0, note=36, velocity=74, time=20),
  Message('note_on', channel=9, note=70, velocity=78, time=0),
  Message('note_on', channel=9, note=61, velocity=82, time=0),
  Message('note_on', channel=9, note=70, velocity=0, time=1),
  Message('note_on', channel=9, note=61, velocity=0, time=0),
  Message('note_on', channel=9, note=61, velocity=82, time=59),
  Message('note_on', channel=9, note=61, velocity=0, time=1),
  Message('note_on', channel=9, note=70, velocity=64, time=59),
  Message('note_on', channel=9, note=61, velocity=82, time=0),
  Message('note_on', channel=9, note=70, velocity=0, time=1),
  Message('note_on', channel=9, note=61, velocity=0, time=0),
  Message('note_on', channel=9, note=61, velocity=82, time=59),
  Message('note_on', channel=9, note=61, velocity=0, time=1),
  Message('note_on', channel=9, note=70, velocity=120, time=59),
  Message('note_on', channel=9, note=61, velocity=82, time=0),
  Message('note_on', channel=9, note=70, velocity=0, time=1),
  Message('note_on', channel=9, note=61, velocity=0, time=0),
  Message('note_on', channel=0, note=36, velocity=0, time=99),
  Message('note_on', channel=0, note=43, velocity=84, time=20),
  Message('note_on', channel=9, note=70, velocity=120, time=0),
  Message('note_on', channel=9, note=70, velocity=0, time=1),
  Message('note_on', channel=9, note=70, velocity=78, time=119),
  Message('note_on', channel=9, note=60, velocity=96, time=0),
  Message('note_on', channel=9, note=70, velocity=0, time=1),
  Message('note_on', channel=9, note=60, velocity=0, time=0),
  Message('note_on', channel=9, note=70, velocity=64, time=119),
  Message('note_on', channel=9, note=60, velocity=96, time=0),
  Message('note_on', channel=9, note=70, velocity=0, time=1),
  Message('note_on', channel=9, note=60, velocity=0, time=0),
  Message('note_on', channel=0, note=43, velocity=0, time=99),
  Message('note_on', channel=0, note=42, velocity=74, time=20),
  Message('note_on', channel=9, note=70, velocity=120, time=0),
  Message('note_on', channel=9, note=70, velocity=0, time=1),
  Message('note_on', channel=9, note=70, velocity=120, time=119),
  Message('note_on', channel=9, note=60, velocity=96, time=0),
  Message('note_on', channel=9, note=70, velocity=0, time=1),
  Message('note_on', channel=9, note=60, velocity=0, time=0),
  Message('note_on', channel=0, note=42, velocity=0, time=99),
  Message('note_on', channel=0, note=41, velocity=74, time=20),
  Message('note_on', channel=9, note=70, velocity=78, time=0),
  Message('note_on', channel=9, note=70, velocity=0, time=1),
  Message('note_on', channel=9, note=70, velocity=64, time=119),
  Message('note_on', channel=9, note=60, velocity=96, time=0),
  Message('note_on', channel=9, note=70, velocity=0, time=1),
  Message('note_on', channel=9, note=60, velocity=0, time=0),
  Message('note_on', channel=9, note=70, velocity=120, time=119),
  Message('note_on', channel=9, note=60, velocity=96, time=0),
  Message('note_on', channel=9, note=70, velocity=0, time=1),
  Message('note_on', channel=9, note=60, velocity=0, time=0),
  Message('note_on', channel=0, note=41, velocity=0, time=99),
  Message('note_on', channel=0, note=39, velocity=74, time=20),
  Message('note_on', channel=9, note=70, velocity=120, time=0),
  Message('note_on', channel=9, note=70, velocity=0, time=1),
  Message('note_on', channel=9, note=70, velocity=78, time=119),
  Message('note_on', channel=9, note=60, velocity=96, time=0),
  Message('note_on', channel=9, note=70, velocity=0, time=1),
  Message('note_on', channel=9, note=60, velocity=0, time=0),
  Message('note_on', channel=9, note=70, velocity=64, time=119),
  Message('note_on', channel=9, note=60, velocity=96, time=0),
  Message('note_on', channel=9, note=70, velocity=0, time=1),
  Message('note_on', channel=9, note=60, velocity=0, time=0),
  Message('note_on', channel=0, note=39, velocity=0, time=99),
  Message('note_on', channel=0, note=34, velocity=74, time=20),
  Message('note_on', channel=9, note=70, velocity=120, time=0),
  Message('note_on', channel=9, note=61, velocity=96, time=0),
  Message('note_on', channel=9, note=70, velocity=0, time=1),
  Message('note_on', channel=9, note=61, velocity=0, time=0),
  Message('note_on', channel=9, note=61, velocity=96, time=59),
  Message('note_on', channel=9, note=61, velocity=0, time=1),
  Message('note_on', channel=9, note=70, velocity=120, time=59),
  Message('note_on', channel=9, note=60, velocity=96, time=0),
  Message('note_on', channel=9, note=70, velocity=0, time=1),
  Message('note_on', channel=9, note=60, velocity=0, time=0),
  Message('note_on', channel=0, note=34, velocity=0, time=99),
  Message('note_on', channel=0, note=36, velocity=74, time=20),
  Message('note_on', channel=9, note=70, velocity=78, time=0),
  Message('note_on', channel=9, note=61, velocity=96, time=0),
  Message('note_on', channel=9, note=70, velocity=0, time=1),
  Message('note_on', channel=9, note=61, velocity=0, time=0),
  Message('note_on', channel=9, note=70, velocity=64, time=119),
  Message('note_on', channel=9, note=61, velocity=96, time=0),
  Message('note_on', channel=9, note=70, velocity=0, time=1),
  Message('note_on', channel=9, note=61, velocity=0, time=0),
  Message('note_on', channel=9, note=70, velocity=120, time=119),
  Message('note_on', channel=9, note=61, velocity=96, time=0),
  Message('note_on', channel=9, note=70, velocity=0, time=1),
  Message('note_on', channel=9, note=61, velocity=0, time=0),
  Message('note_on', channel=0, note=36, velocity=0, time=99),
  Message('note_on', channel=0, note=43, velocity=84, time=20),
  Message('note_on', channel=9, note=70, velocity=120, time=0),
  Message('note_on', channel=9, note=70, velocity=0, time=1),
  Message('note_on', channel=9, note=70, velocity=78, time=119),
  Message('note_on', channel=9, note=60, velocity=96, time=0),
  Message('note_on', channel=9, note=70, velocity=0, time=1),
  Message('note_on', channel=9, note=60, velocity=0, time=0),
  Message('note_on', channel=9, note=70, velocity=64, time=119),
  Message('note_on', channel=9, note=60, velocity=96, time=0),
  Message('note_on', channel=9, note=70, velocity=0, time=1),
  Message('note_on', channel=9, note=60, velocity=0, time=0),
  Message('note_on', channel=0, note=43, velocity=0, time=99),
  Message('note_on', channel=0, note=42, velocity=74, time=20),
  Message('note_on', channel=9, note=70, velocity=120, time=0),
  Message('note_on', channel=9, note=70, velocity=0, time=1),
  Message('note_on', channel=9, note=70, velocity=120, time=119),
  Message('note_on', channel=9, note=60, velocity=96, time=0),
  Message('note_on', channel=9, note=70, velocity=0, time=1),
  Message('note_on', channel=9, note=60, velocity=0, time=0),
  Message('note_on', channel=0, note=42, velocity=0, time=99),
  Message('note_on', channel=0, note=41, velocity=74, time=20),
  Message('note_on', channel=9, note=70, velocity=78, time=0),
  Message('note_on', channel=9, note=70, velocity=0, time=1),
  Message('note_on', channel=9, note=70, velocity=64, time=119),
  Message('note_on', channel=9, note=61, velocity=96, time=0),
  Message('note_on', channel=9, note=70, velocity=0, time=1),
  Message('note_on', channel=9, note=61, velocity=0, time=0),
  Message('note_on', channel=9, note=70, velocity=120, time=119),
  Message('note_on', channel=9, note=61, velocity=96, time=0),
  Message('note_on', channel=9, note=70, velocity=0, time=1),
  Message('note_on', channel=9, note=61, velocity=0, time=0),
  Message('note_on', channel=0, note=41, velocity=0, time=99),
  Message('note_on', channel=0, note=39, velocity=74, time=20),
  Message('note_on', channel=9, note=70, velocity=120, time=0),
  Message('note_on', channel=9, note=70, velocity=0, time=1),
  Message('note_on', channel=9, note=70, velocity=78, time=119),
  Message('note_on', channel=9, note=60, velocity=96, time=0),
  Message('note_on', channel=9, note=70, velocity=0, time=1),
  Message('note_on', channel=9, note=60, velocity=0, time=0),
  Message('note_on', channel=9, note=40, velocity=64, time=119),
  Message('control_change', channel=9, control=7, value=127, time=0),
  Message('note_on', channel=9, note=70, velocity=64, time=0),
  Message('note_on', channel=9, note=60, velocity=96, time=0),
  Message('note_on', channel=9, note=40, velocity=0, time=1),
  Message('note_on', channel=9, note=70, velocity=0, time=0),
  Message('note_on', channel=9, note=60, velocity=0, time=0),
  Message('note_on', channel=0, note=39, velocity=0, time=99),
  Message('note_on', channel=0, note=34, velocity=74, time=20),
  Message('note_on', channel=9, note=40, velocity=64, time=0),
  Message('note_on', channel=9, note=70, velocity=120, time=0),
  Message('note_on', channel=9, note=61, velocity=96, time=0),
  Message('note_on', channel=9, note=40, velocity=0, time=1),
  Message('note_on', channel=9, note=70, velocity=0, time=0),
  Message('note_on', channel=9, note=61, velocity=0, time=0),
  Message('note_on', channel=9, note=40, velocity=64, time=119),
  Message('note_on', channel=9, note=70, velocity=120, time=0),
  Message('note_on', channel=9, note=60, velocity=110, time=0),
  Message('note_on', channel=9, note=40, velocity=0, time=1),
  Message('note_on', channel=9, note=70, velocity=0, time=0),
  Message('note_on', channel=9, note=60, velocity=0, time=0),
  Message('note_on', channel=0, note=34, velocity=0, time=99),
  Message('note_on', channel=0, note=36, velocity=74, time=20),
  Message('note_on', channel=9, note=40, velocity=50, time=0),
  Message('note_on', channel=9, note=70, velocity=78, time=0),
  Message('note_on', channel=9, note=60, velocity=96, time=0),
  Message('note_on', channel=9, note=40, velocity=0, time=1),
  Message('note_on', channel=9, note=70, velocity=0, time=0),
  Message('note_on', channel=9, note=60, velocity=0, time=0),
  Message('note_on', channel=9, note=70, velocity=64, time=119),
  Message('note_on', channel=9, note=60, velocity=96, time=0),
  Message('note_on', channel=9, note=70, velocity=0, time=1),
  Message('note_on', channel=9, note=60, velocity=0, time=0),
  Message('note_on', channel=9, note=70, velocity=120, time=119),
  Message('note_on', channel=9, note=70, velocity=0, time=1),
  Message('note_on', channel=0, note=36, velocity=0, time=99),
  Message('note_on', channel=0, note=43, velocity=84, time=20),
  Message('note_on', channel=9, note=70, velocity=120, time=0),
  Message('note_on', channel=9, note=60, velocity=96, time=0),
  Message('note_on', channel=9, note=70, velocity=0, time=1),
  Message('note_on', channel=9, note=60, velocity=0, time=0),
  Message('note_on', channel=9, note=70, velocity=78, time=119),
  Message('note_on', channel=9, note=70, velocity=0, time=1),
  Message('note_on', channel=9, note=70, velocity=64, time=119),
  Message('note_on', channel=9, note=60, velocity=96, time=0),
  Message('note_on', channel=9, note=70, velocity=0, time=1),
  Message('note_on', channel=9, note=60, velocity=0, time=0),
  Message('note_on', channel=0, note=43, velocity=0, time=99),
  Message('note_on', channel=0, note=42, velocity=74, time=20),
  Message('note_on', channel=9, note=70, velocity=120, time=0),
  Message('note_on', channel=9, note=60, velocity=96, time=0),
  Message('note_on', channel=9, note=70, velocity=0, time=1),
  Message('note_on', channel=9, note=60, velocity=0, time=0),
  Message('note_on', channel=9, note=70, velocity=120, time=119),
  Message('note_on', channel=9, note=70, velocity=0, time=1),
  Message('note_on', channel=0, note=42, velocity=0, time=99),
  Message('note_on', channel=0, note=41, velocity=74, time=20),
  Message('note_on', channel=9, note=70, velocity=78, time=0),
  Message('note_on', channel=9, note=70, velocity=0, time=1),
  Message('note_on', channel=9, note=70, velocity=64, time=119),
  Message('note_on', channel=9, note=60, velocity=96, time=0),
  Message('note_on', channel=9, note=70, velocity=0, time=1),
  Message('note_on', channel=9, note=60, velocity=0, time=0),
  Message('note_on', channel=9, note=70, velocity=120, time=119),
  Message('note_on', channel=9, note=60, velocity=96, time=0),
  Message('note_on', channel=9, note=70, velocity=0, time=1),
  Message('note_on', channel=9, note=60, velocity=0, time=0),
  Message('note_on', channel=0, note=41, velocity=0, time=99),
  Message('note_on', channel=0, note=39, velocity=74, time=20),
  Message('note_on', channel=9, note=70, velocity=120, time=0),
  Message('note_on', channel=9, note=70, velocity=0, time=1),
  Message('note_on', channel=9, note=70, velocity=78, time=119),
  Message('note_on', channel=9, note=60, velocity=82, time=0),
  Message('note_on', channel=9, note=70, velocity=0, time=1),
  Message('note_on', channel=9, note=60, velocity=0, time=0),
  Message('note_on', channel=9, note=70, velocity=64, time=119),
  Message('note_on', channel=9, note=60, velocity=82, time=0),
  Message('note_on', channel=9, note=70, velocity=0, time=1),
  Message('note_on', channel=9, note=60, velocity=0, time=0),
  Message('note_on', channel=0, note=39, velocity=0, time=99),
  Message('note_on', channel=0, note=34, velocity=74, time=20),
  Message('note_on', channel=9, note=70, velocity=120, time=0),
  Message('note_on', channel=9, note=61, velocity=96, time=0),
  Message('note_on', channel=9, note=70, velocity=0, time=1),
  Message('note_on', channel=9, note=61, velocity=0, time=0),
  Message('note_on', channel=9, note=70, velocity=120, time=119),
  Message('note_on', channel=9, note=60, velocity=96, time=0),
  Message('note_on', channel=9, note=70, velocity=0, time=1),
  Message('note_on', channel=9, note=60, velocity=0, time=0),
  Message('note_on', channel=0, note=34, velocity=0, time=99),
  Message('note_on', channel=0, note=36, velocity=74, time=20),
  Message('note_on', channel=9, note=70, velocity=78, time=0),
  Message('note_on', channel=9, note=61, velocity=96, time=0),
  Message('note_on', channel=9, note=70, velocity=0, time=1),
  Message('note_on', channel=9, note=61, velocity=0, time=0),
  Message('note_on', channel=9, note=61, velocity=96, time=59),
  Message('note_on', channel=9, note=61, velocity=0, time=1),
  Message('note_on', channel=9, note=70, velocity=64, time=59),
  Message('note_on', channel=9, note=61, velocity=96, time=0),
  Message('note_on', channel=9, note=70, velocity=0, time=1),
  Message('note_on', channel=9, note=61, velocity=0, time=0),
  Message('note_on', channel=9, note=61, velocity=96, time=59),
  Message('note_on', channel=9, note=61, velocity=0, time=1),
  Message('note_on', channel=9, note=70, velocity=120, time=59),
  Message('note_on', channel=9, note=70, velocity=0, time=1),
  Message('note_on', channel=0, note=36, velocity=0, time=99),
  Message('note_on', channel=0, note=43, velocity=84, time=20),
  Message('note_on', channel=9, note=70, velocity=120, time=0),
  Message('note_on', channel=9, note=70, velocity=0, time=1),
  Message('note_on', channel=9, note=70, velocity=78, time=119),
  Message('note_on', channel=9, note=60, velocity=96, time=0),
  Message('note_on', channel=9, note=70, velocity=0, time=1),
  Message('note_on', channel=9, note=60, velocity=0, time=0),
  Message('note_on', channel=9, note=70, velocity=64, time=119),
  Message('note_on', channel=9, note=70, velocity=0, time=1),
  Message('note_on', channel=0, note=43, velocity=0, time=99),
  Message('note_on', channel=0, note=42, velocity=74, time=20),
  Message('note_on', channel=9, note=70, velocity=120, time=0),
  Message('note_on', channel=9, note=61, velocity=96, time=0),
  Message('note_on', channel=9, note=70, velocity=0, time=1),
  Message('note_on', channel=9, note=61, velocity=0, time=0),
  Message('note_on', channel=9, note=70, velocity=120, time=119),
  Message('note_on', channel=9, note=60, velocity=110, time=0),
  Message('note_on', channel=9, note=70, velocity=0, time=1),
  Message('note_on', channel=9, note=60, velocity=0, time=0),
  Message('note_on', channel=0, note=42, velocity=0, time=99),
  Message('note_on', channel=0, note=41, velocity=74, time=20),
  Message('note_on', channel=9, note=70, velocity=78, time=0),
  Message('note_on', channel=9, note=70, velocity=0, time=1),
  Message('note_on', channel=9, note=70, velocity=64, time=119),
  Message('note_on', channel=9, note=60, velocity=110, time=0),
  Message('note_on', channel=9, note=70, velocity=0, time=1),
  Message('note_on', channel=9, note=60, velocity=0, time=0),
  Message('note_on', channel=9, note=70, velocity=120, time=119),
  Message('note_on', channel=9, note=60, velocity=110, time=0),
  Message('note_on', channel=9, note=70, velocity=0, time=1),
  Message('note_on', channel=9, note=60, velocity=0, time=0),
  Message('note_on', channel=0, note=41, velocity=0, time=99),
  Message('note_on', channel=0, note=39, velocity=74, time=20),
  Message('note_on', channel=9, note=70, velocity=120, time=0),
  Message('note_on', channel=9, note=70, velocity=0, time=1),
  Message('note_on', channel=9, note=70, velocity=78, time=119),
  Message('note_on', channel=9, note=60, velocity=110, time=0),
  Message('note_on', channel=9, note=70, velocity=0, time=1),
  Message('note_on', channel=9, note=60, velocity=0, time=0),
  Message('note_on', channel=9, note=70, velocity=64, time=119),
  Message('note_on', channel=9, note=60, velocity=110, time=0),
  Message('note_on', channel=9, note=70, velocity=0, time=1),
  Message('note_on', channel=9, note=60, velocity=0, time=0),
  Message('note_on', channel=0, note=39, velocity=0, time=99),
  Message('note_on', channel=0, note=34, velocity=74, time=20),
  Message('note_on', channel=9, note=70, velocity=120, time=0),
  Message('note_on', channel=9, note=61, velocity=96, time=0),
  Message('note_on', channel=9, note=70, velocity=0, time=1),
  Message('note_on', channel=9, note=61, velocity=0, time=0),
  Message('note_on', channel=9, note=70, velocity=120, time=119),
  Message('note_on', channel=9, note=60, velocity=110, time=0),
  Message('note_on', channel=9, note=70, velocity=0, time=1),
  Message('note_on', channel=9, note=60, velocity=0, time=0),
  Message('note_on', channel=0, note=34, velocity=0, time=99),
  Message('note_on', channel=0, note=36, velocity=64, time=20),
  Message('note_on', channel=9, note=70, velocity=78, time=0),
  Message('note_on', channel=9, note=61, velocity=82, time=0),
  Message('note_on', channel=9, note=70, velocity=0, time=1),
  Message('note_on', channel=9, note=61, velocity=0, time=0),
  Message('note_on', channel=9, note=61, velocity=82, time=59),
  Message('note_on', channel=9, note=61, velocity=0, time=1),
  Message('note_on', channel=9, note=70, velocity=64, time=59),
  Message('note_on', channel=9, note=61, velocity=82, time=0),
  Message('note_on', channel=9, note=70, velocity=0, time=1),
  Message('note_on', channel=9, note=61, velocity=0, time=0),
  Message('note_on', channel=9, note=61, velocity=82, time=59),
  Message('note_on', channel=9, note=61, velocity=0, time=1),
  Message('note_on', channel=9, note=70, velocity=120, time=59),
  Message('note_on', channel=9, note=61, velocity=82, time=0),
  Message('note_on', channel=9, note=70, velocity=0, time=1),
  Message('note_on', channel=9, note=61, velocity=0, time=0),
  Message('note_on', channel=0, note=36, velocity=0, time=99),
  Message('note_on', channel=0, note=43, velocity=74, time=20),
  Message('note_on', channel=9, note=70, velocity=120, time=0),
  Message('note_on', channel=9, note=70, velocity=0, time=1),
  Message('note_on', channel=9, note=70, velocity=78, time=119),
  Message('note_on', channel=9, note=60, velocity=96, time=0),
  Message('note_on', channel=9, note=70, velocity=0, time=1),
  Message('note_on', channel=9, note=60, velocity=0, time=0),
  Message('note_on', channel=9, note=70, velocity=64, time=119),
  Message('note_on', channel=9, note=60, velocity=96, time=0),
  Message('note_on', channel=9, note=70, velocity=0, time=1),
  Message('note_on', channel=9, note=60, velocity=0, time=0),
  Message('note_on', channel=0, note=43, velocity=0, time=99),
  Message('note_on', channel=0, note=42, velocity=64, time=20),
  Message('note_on', channel=9, note=70, velocity=120, time=0),
  Message('note_on', channel=9, note=70, velocity=0, time=1),
  Message('note_on', channel=9, note=70, velocity=120, time=119),
  Message('note_on', channel=9, note=60, velocity=96, time=0),
  Message('note_on', channel=9, note=70, velocity=0, time=1),
  Message('note_on', channel=9, note=60, velocity=0, time=0),
  Message('note_on', channel=0, note=42, velocity=0, time=99),
  Message('note_on', channel=0, note=41, velocity=64, time=20),
  Message('note_on', channel=9, note=70, velocity=78, time=0),
  Message('note_on', channel=9, note=70, velocity=0, time=1),
  Message('note_on', channel=9, note=70, velocity=64, time=119),
  Message('note_on', channel=9, note=60, velocity=96, time=0),
  Message('note_on', channel=9, note=70, velocity=0, time=1),
  Message('note_on', channel=9, note=60, velocity=0, time=0),
  Message('note_on', channel=9, note=70, velocity=120, time=119),
  Message('note_on', channel=9, note=60, velocity=96, time=0),
  Message('note_on', channel=9, note=70, velocity=0, time=1),
  Message('note_on', channel=9, note=60, velocity=0, time=0),
  Message('note_on', channel=0, note=41, velocity=0, time=99),
  Message('note_on', channel=0, note=39, velocity=64, time=20),
  Message('note_on', channel=9, note=70, velocity=120, time=0),
  Message('note_on', channel=9, note=70, velocity=0, time=1),
  Message('note_on', channel=9, note=70, velocity=78, time=119),
  Message('note_on', channel=9, note=60, velocity=96, time=0),
  Message('note_on', channel=9, note=70, velocity=0, time=1),
  Message('note_on', channel=9, note=60, velocity=0, time=0),
  Message('note_on', channel=9, note=70, velocity=64, time=119),
  Message('note_on', channel=9, note=60, velocity=96, time=0),
  Message('note_on', channel=9, note=70, velocity=0, time=1),
  Message('note_on', channel=9, note=60, velocity=0, time=0),
  Message('note_on', channel=0, note=39, velocity=0, time=99),
  Message('note_on', channel=0, note=34, velocity=64, time=20),
  Message('note_on', channel=9, note=70, velocity=120, time=0),
  Message('note_on', channel=9, note=61, velocity=96, time=0),
  Message('note_on', channel=9, note=70, velocity=0, time=1),
  Message('note_on', channel=9, note=61, velocity=0, time=0),
  Message('note_on', channel=9, note=61, velocity=96, time=59),
  Message('note_on', channel=9, note=61, velocity=0, time=1),
  Message('note_on', channel=9, note=70, velocity=120, time=59),
  Message('note_on', channel=9, note=60, velocity=96, time=0),
  Message('note_on', channel=9, note=70, velocity=0, time=1),
  Message('note_on', channel=9, note=60, velocity=0, time=0),
  Message('note_on', channel=0, note=34, velocity=0, time=99),
  Message('note_on', channel=0, note=36, velocity=64, time=20),
  Message('note_on', channel=9, note=70, velocity=78, time=0),
  Message('note_on', channel=9, note=61, velocity=96, time=0),
  Message('note_on', channel=9, note=70, velocity=0, time=1),
  Message('note_on', channel=9, note=61, velocity=0, time=0),
  Message('note_on', channel=9, note=70, velocity=64, time=119),
  Message('note_on', channel=9, note=61, velocity=96, time=0),
  Message('note_on', channel=9, note=70, velocity=0, time=1),
  Message('note_on', channel=9, note=61, velocity=0, time=0),
  Message('note_on', channel=9, note=70, velocity=120, time=119),
  Message('note_on', channel=9, note=61, velocity=96, time=0),
  Message('note_on', channel=9, note=70, velocity=0, time=1),
  Message('note_on', channel=9, note=61, velocity=0, time=0),
  Message('note_on', channel=0, note=36, velocity=0, time=99),
  Message('note_on', channel=0, note=43, velocity=74, time=20),
  Message('note_on', channel=9, note=70, velocity=120, time=0),
  Message('note_on', channel=9, note=70, velocity=0, time=1),
  Message('note_on', channel=9, note=70, velocity=78, time=119),
  Message('note_on', channel=9, note=60, velocity=96, time=0),
  Message('note_on', channel=9, note=70, velocity=0, time=1),
  Message('note_on', channel=9, note=60, velocity=0, time=0),
  Message('note_on', channel=9, note=70, velocity=64, time=119),
  Message('note_on', channel=9, note=60, velocity=96, time=0),
  Message('note_on', channel=9, note=70, velocity=0, time=1),
  Message('note_on', channel=9, note=60, velocity=0, time=0),
  Message('note_on', channel=0, note=43, velocity=0, time=99),
  Message('note_on', channel=0, note=42, velocity=64, time=20),
  Message('note_on', channel=9, note=70, velocity=120, time=0),
  Message('note_on', channel=9, note=70, velocity=0, time=1),
  Message('note_on', channel=9, note=70, velocity=120, time=119),
  Message('note_on', channel=9, note=60, velocity=96, time=0),
  Message('note_on', channel=9, note=70, velocity=0, time=1),
  Message('note_on', channel=9, note=60, velocity=0, time=0),
  Message('note_on', channel=0, note=42, velocity=0, time=99),
  Message('note_on', channel=0, note=41, velocity=64, time=20),
  Message('note_on', channel=9, note=70, velocity=78, time=0),
  Message('note_on', channel=9, note=70, velocity=0, time=1),
  Message('note_on', channel=9, note=70, velocity=64, time=119),
  Message('note_on', channel=9, note=61, velocity=96, time=0),
  Message('note_on', channel=9, note=70, velocity=0, time=1),
  Message('note_on', channel=9, note=61, velocity=0, time=0),
  Message('note_on', channel=9, note=70, velocity=120, time=119),
  Message('note_on', channel=9, note=61, velocity=96, time=0),
  Message('note_on', channel=9, note=70, velocity=0, time=1),
  Message('note_on', channel=9, note=61, velocity=0, time=0),
  Message('note_on', channel=0, note=41, velocity=0, time=99),
  Message('note_on', channel=0, note=39, velocity=64, time=20),
  Message('note_on', channel=9, note=70, velocity=120, time=0),
  Message('note_on', channel=9, note=70, velocity=0, time=1),
  Message('note_on', channel=9, note=70, velocity=78, time=119),
  Message('note_on', channel=9, note=60, velocity=96, time=0),
  Message('note_on', channel=9, note=70, velocity=0, time=1),
  Message('note_on', channel=9, note=60, velocity=0, time=0),
  Message('note_on', channel=9, note=40, velocity=64, time=119),
  Message('control_change', channel=9, control=7, value=127, time=0),
  Message('note_on', channel=9, note=70, velocity=64, time=0),
  Message('note_on', channel=9, note=60, velocity=96, time=0),
  Message('note_on', channel=9, note=40, velocity=0, time=1),
  Message('note_on', channel=9, note=70, velocity=0, time=0),
  Message('note_on', channel=9, note=60, velocity=0, time=0),
  Message('note_on', channel=0, note=39, velocity=0, time=99),
  Message('note_on', channel=0, note=34, velocity=64, time=20),
  Message('note_on', channel=9, note=40, velocity=64, time=0),
  Message('note_on', channel=9, note=70, velocity=120, time=0),
  Message('note_on', channel=9, note=61, velocity=96, time=0),
  Message('note_on', channel=9, note=40, velocity=0, time=1),
  Message('note_on', channel=9, note=70, velocity=0, time=0),
  Message('note_on', channel=9, note=61, velocity=0, time=0),
  Message('note_on', channel=9, note=40, velocity=64, time=119),
  Message('note_on', channel=9, note=70, velocity=120, time=0),
  Message('note_on', channel=9, note=60, velocity=110, time=0),
  Message('note_on', channel=9, note=40, velocity=0, time=1),
  Message('note_on', channel=9, note=70, velocity=0, time=0),
  Message('note_on', channel=9, note=60, velocity=0, time=0),
  Message('note_on', channel=0, note=34, velocity=0, time=99),
  Message('note_on', channel=0, note=36, velocity=64, time=20),
  Message('note_on', channel=4, note=48, velocity=104, time=0),
  Message('note_on', channel=7, note=36, velocity=89, time=0),
  Message('note_on', channel=9, note=40, velocity=50, time=0),
  Message('note_on', channel=9, note=70, velocity=78, time=0),
  Message('note_on', channel=9, note=61, velocity=68, time=0),
  Message('note_on', channel=12, note=60, velocity=104, time=0),
  Message('note_on', channel=13, note=60, velocity=104, time=0),
  Message('note_on', channel=14, note=48, velocity=99, time=0),
  Message('note_on', channel=9, note=40, velocity=0, time=1),
  Message('note_on', channel=9, note=70, velocity=0, time=0),
  Message('note_on', channel=9, note=61, velocity=0, time=0),
  Message('note_on', channel=4, note=48, velocity=0, time=99),
  Message('note_on', channel=7, note=36, velocity=0, time=0),
  Message('note_on', channel=12, note=60, velocity=0, time=0),
  Message('note_on', channel=13, note=60, velocity=0, time=0),
  Message('note_on', channel=14, note=48, velocity=0, time=0),
  Message('note_on', channel=4, note=55, velocity=104, time=20),
  Message('note_on', channel=7, note=43, velocity=89, time=0),
  Message('note_on', channel=9, note=70, velocity=64, time=0),
  Message('note_on', channel=9, note=61, velocity=68, time=0),
  Message('note_on', channel=12, note=67, velocity=104, time=0),
  Message('note_on', channel=13, note=67, velocity=104, time=0),
  Message('note_on', channel=14, note=55, velocity=99, time=0),
  Message('note_on', channel=9, note=70, velocity=0, time=1),
  Message('note_on', channel=9, note=61, velocity=0, time=0),
  Message('note_on', channel=4, note=55, velocity=0, time=99),
  Message('note_on', channel=7, note=43, velocity=0, time=0),
  Message('note_on', channel=12, note=67, velocity=0, time=0),
  Message('note_on', channel=13, note=67, velocity=0, time=0),
  Message('note_on', channel=14, note=55, velocity=0, time=0),
  Message('note_on', channel=9, note=70, velocity=120, time=20),
  Message('note_on', channel=9, note=70, velocity=0, time=1),
  Message('note_on', channel=0, note=36, velocity=0, time=99),
  Message('note_on', channel=0, note=43, velocity=74, time=20),
  Message('note_on', channel=4, note=48, velocity=104, time=0),
  Message('note_on', channel=7, note=36, velocity=89, time=0),
  Message('note_on', channel=9, note=70, velocity=120, time=0),
  Message('note_on', channel=12, note=60, velocity=104, time=0),
  Message('note_on', channel=13, note=60, velocity=104, time=0),
  Message('note_on', channel=14, note=48, velocity=99, time=0),
  Message('note_on', channel=9, note=70, velocity=0, time=1),
  Message('note_on', channel=4, note=48, velocity=0, time=99),
  Message('note_on', channel=7, note=36, velocity=0, time=0),
  Message('note_on', channel=12, note=60, velocity=0, time=0),
  Message('note_on', channel=13, note=60, velocity=0, time=0),
  Message('note_on', channel=14, note=48, velocity=0, time=0),
  Message('note_on', channel=4, note=54, velocity=104, time=20),
  Message('note_on', channel=7, note=42, velocity=89, time=0),
  Message('note_on', channel=9, note=70, velocity=78, time=0),
  Message('note_on', channel=9, note=60, velocity=110, time=0),
  Message('note_on', channel=12, note=66, velocity=104, time=0),
  Message('note_on', channel=13, note=66, velocity=104, time=0),
  Message('note_on', channel=14, note=54, velocity=99, time=0),
  Message('note_on', channel=9, note=70, velocity=0, time=1),
  Message('note_on', channel=9, note=60, velocity=0, time=0),
  Message('note_on', channel=4, note=54, velocity=0, time=99),
  Message('note_on', channel=7, note=42, velocity=0, time=0),
  Message('note_on', channel=12, note=66, velocity=0, time=0),
  Message('note_on', channel=13, note=66, velocity=0, time=0),
  Message('note_on', channel=14, note=54, velocity=0, time=0),
  Message('note_on', channel=9, note=70, velocity=64, time=20),
  Message('note_on', channel=9, note=70, velocity=0, time=1),
  Message('note_on', channel=0, note=43, velocity=0, time=99),
  Message('note_on', channel=0, note=42, velocity=64, time=20),
  Message('note_on', channel=4, note=48, velocity=104, time=0),
  Message('note_on', channel=7, note=36, velocity=89, time=0),
  Message('note_on', channel=9, note=70, velocity=120, time=0),
  Message('note_on', channel=9, note=61, velocity=68, time=0),
  Message('note_on', channel=12, note=60, velocity=104, time=0),
  Message('note_on', channel=13, note=60, velocity=104, time=0),
  Message('note_on', channel=14, note=48, velocity=99, time=0),
  Message('note_on', channel=9, note=70, velocity=0, time=1),
  Message('note_on', channel=9, note=61, velocity=0, time=0),
  Message('note_on', channel=4, note=48, velocity=0, time=99),
  Message('note_on', channel=7, note=36, velocity=0, time=0),
  Message('note_on', channel=12, note=60, velocity=0, time=0),
  Message('note_on', channel=13, note=60, velocity=0, time=0),
  Message('note_on', channel=14, note=48, velocity=0, time=0),
  Message('note_on', channel=4, note=51, velocity=104, time=20),
  Message('note_on', channel=7, note=39, velocity=89, time=0),
  Message('note_on', channel=9, note=70, velocity=120, time=0),
  Message('note_on', channel=9, note=61, velocity=82, time=0),
  Message('note_on', channel=12, note=63, velocity=104, time=0),
  Message('note_on', channel=13, note=63, velocity=104, time=0),
  Message('note_on', channel=14, note=51, velocity=99, time=0),
  Message('note_on', channel=9, note=70, velocity=0, time=1),
  Message('note_on', channel=9, note=61, velocity=0, time=0),
  Message('note_on', channel=0, note=42, velocity=0, time=99),
  Message('note_on', channel=4, note=51, velocity=0, time=0),
  Message('note_on', channel=7, note=39, velocity=0, time=0),
  Message('note_on', channel=12, note=63, velocity=0, time=0),
  Message('note_on', channel=13, note=63, velocity=0, time=0),
  Message('note_on', channel=14, note=51, velocity=0, time=0),
  Message('note_on', channel=0, note=41, velocity=64, time=20),
  Message('note_on', channel=9, note=70, velocity=78, time=0),
  Message('note_on', channel=9, note=70, velocity=0, time=1),
  Message('note_on', channel=4, note=48, velocity=104, time=119),
  Message('note_on', channel=7, note=36, velocity=89, time=0),
  Message('note_on', channel=9, note=70, velocity=64, time=0),
  Message('note_on', channel=9, note=61, velocity=68, time=0),
  Message('note_on', channel=12, note=60, velocity=104, time=0),
  Message('note_on', channel=13, note=60, velocity=104, time=0),
  Message('note_on', channel=14, note=48, velocity=99, time=0),
  Message('note_on', channel=9, note=70, velocity=0, time=1),
  Message('note_on', channel=9, note=61, velocity=0, time=0),
  Message('note_on', channel=9, note=61, velocity=82, time=59),
  Message('note_on', channel=9, note=61, velocity=0, time=1),
  Message('note_on', channel=4, note=48, velocity=0, time=39),
  Message('note_on', channel=7, note=36, velocity=0, time=0),
  Message('note_on', channel=12, note=60, velocity=0, time=0),
  Message('note_on', channel=13, note=60, velocity=0, time=0),
  Message('note_on', channel=14, note=48, velocity=0, time=0),
  Message('note_on', channel=4, note=46, velocity=104, time=20),
  Message('note_on', channel=7, note=34, velocity=89, time=0),
  Message('note_on', channel=9, note=70, velocity=120, time=0),
  Message('note_on', channel=9, note=61, velocity=68, time=0),
  Message('note_on', channel=12, note=58, velocity=104, time=0),
  Message('note_on', channel=13, note=58, velocity=104, time=0),
  Message('note_on', channel=14, note=46, velocity=99, time=0),
  Message('note_on', channel=9, note=70, velocity=0, time=1),
  Message('note_on', channel=9, note=61, velocity=0, time=0),
  Message('note_on', channel=0, note=41, velocity=0, time=99),
  Message('note_on', channel=0, note=39, velocity=64, time=20),
  Message('note_on', channel=9, note=70, velocity=120, time=0),
  Message('note_on', channel=9, note=60, velocity=110, time=0),
  Message('note_on', channel=9, note=70, velocity=0, time=1),
  Message('note_on', channel=9, note=60, velocity=0, time=0),
  Message('note_on', channel=9, note=70, velocity=78, time=119),
  Message('note_on', channel=9, note=61, velocity=68, time=0),
  Message('note_on', channel=9, note=70, velocity=0, time=1),
  Message('note_on', channel=9, note=61, velocity=0, time=0),
  Message('note_on', channel=9, note=70, velocity=64, time=119),
  Message('note_on', channel=9, note=70, velocity=0, time=1),
  Message('note_on', channel=0, note=39, velocity=0, time=99),
  Message('note_on', channel=4, note=46, velocity=0, time=0),
  Message('note_on', channel=7, note=34, velocity=0, time=0),
  Message('note_on', channel=12, note=58, velocity=0, time=0),
  Message('note_on', channel=13, note=58, velocity=0, time=0),
  Message('note_on', channel=14, note=46, velocity=0, time=0),
  Message('note_on', channel=0, note=34, velocity=64, time=20),
  Message('note_on', channel=4, note=48, velocity=104, time=0),
  Message('note_on', channel=7, note=36, velocity=89, time=0),
  Message('note_on', channel=9, note=70, velocity=120, time=0),
  Message('note_on', channel=9, note=61, velocity=54, time=0),
  Message('note_on', channel=12, note=60, velocity=104, time=0),
  Message('note_on', channel=13, note=60, velocity=104, time=0),
  Message('note_on', channel=14, note=48, velocity=99, time=0),
  Message('note_on', channel=9, note=70, velocity=0, time=1),
  Message('note_on', channel=9, note=61, velocity=0, time=0),
  Message('note_on', channel=9, note=70, velocity=120, time=119),
  Message('note_on', channel=9, note=70, velocity=0, time=1),
  Message('note_on', channel=0, note=34, velocity=0, time=99),
  Message('note_on', channel=0, note=36, velocity=64, time=20),
  Message('note_on', channel=9, note=70, velocity=78, time=0),
  Message('note_on', channel=9, note=61, velocity=68, time=0),
  Message('note_on', channel=9, note=70, velocity=0, time=1),
  Message('note_on', channel=9, note=61, velocity=0, time=0),
  Message('note_on', channel=9, note=70, velocity=64, time=119),
  Message('note_on', channel=9, note=61, velocity=68, time=0),
  Message('note_on', channel=9, note=70, velocity=0, time=1),
  Message('note_on', channel=9, note=61, velocity=0, time=0),
  Message('note_on', channel=9, note=70, velocity=120, time=119),
  Message('note_on', channel=9, note=70, velocity=0, time=1),
  Message('note_on', channel=0, note=36, velocity=0, time=99),
  Message('note_on', channel=0, note=43, velocity=74, time=20),
  Message('note_on', channel=9, note=70, velocity=120, time=0),
  Message('note_on', channel=9, note=70, velocity=0, time=1),
  Message('note_on', channel=9, note=70, velocity=78, time=119),
  Message('note_on', channel=9, note=60, velocity=96, time=0),
  Message('note_on', channel=9, note=70, velocity=0, time=1),
  Message('note_on', channel=9, note=60, velocity=0, time=0),
  Message('note_on', channel=9, note=70, velocity=64, time=119),
  Message('note_on', channel=9, note=70, velocity=0, time=1),
  Message('note_on', channel=0, note=43, velocity=0, time=99),
  Message('note_on', channel=0, note=42, velocity=64, time=20),
  Message('note_on', channel=9, note=70, velocity=120, time=0),
  Message('note_on', channel=9, note=61, velocity=68, time=0),
  Message('note_on', channel=9, note=70, velocity=0, time=1),
  Message('note_on', channel=9, note=61, velocity=0, time=0),
  Message('note_on', channel=9, note=70, velocity=120, time=119),
  Message('note_on', channel=9, note=61, velocity=110, time=0),
  Message('note_on', channel=9, note=70, velocity=0, time=1),
  Message('note_on', channel=9, note=61, velocity=0, time=0),
  Message('note_on', channel=0, note=42, velocity=0, time=99),
  Message('note_on', channel=0, note=41, velocity=64, time=20),
  Message('note_on', channel=9, note=70, velocity=78, time=0),
  Message('note_on', channel=9, note=60, velocity=68, time=0),
  Message('note_on', channel=9, note=70, velocity=0, time=1),
  Message('note_on', channel=9, note=60, velocity=0, time=0),
  Message('note_on', channel=9, note=70, velocity=64, time=119),
  Message('note_on', channel=9, note=60, velocity=68, time=0),
  Message('note_on', channel=9, note=70, velocity=0, time=1),
  Message('note_on', channel=9, note=60, velocity=0, time=0),
  Message('note_on', channel=9, note=70, velocity=120, time=119),
  Message('note_on', channel=9, note=61, velocity=96, time=0),
  Message('note_on', channel=9, note=70, velocity=0, time=1),
  Message('note_on', channel=9, note=61, velocity=0, time=0),
  Message('note_on', channel=0, note=41, velocity=0, time=99),
  Message('note_on', channel=0, note=39, velocity=64, time=20),
  Message('note_on', channel=9, note=70, velocity=120, time=0),
  Message('note_on', channel=9, note=61, velocity=96, time=0),
  Message('note_on', channel=9, note=70, velocity=0, time=1),
  Message('note_on', channel=9, note=61, velocity=0, time=0),
  Message('note_on', channel=4, note=48, velocity=0, time=119),
  Message('note_on', channel=7, note=36, velocity=0, time=0),
  Message('note_on', channel=9, note=70, velocity=78, time=0),
  Message('note_on', channel=9, note=60, velocity=68, time=0),
  Message('note_on', channel=12, note=60, velocity=0, time=0),
  Message('note_on', channel=13, note=60, velocity=0, time=0),
  Message('note_on', channel=14, note=48, velocity=0, time=0),
  Message('note_on', channel=9, note=70, velocity=0, time=1),
  Message('note_on', channel=9, note=60, velocity=0, time=0),
  Message('note_on', channel=9, note=70, velocity=64, time=119),
  Message('note_on', channel=9, note=60, velocity=68, time=0),
  Message('note_on', channel=9, note=70, velocity=0, time=1),
  Message('note_on', channel=9, note=60, velocity=0, time=0),
  Message('note_on', channel=0, note=39, velocity=0, time=99),
  Message('note_on', channel=0, note=34, velocity=64, time=20),
  Message('note_on', channel=9, note=70, velocity=120, time=0),
  Message('note_on', channel=9, note=61, velocity=96, time=0),
  Message('note_on', channel=9, note=70, velocity=0, time=1),
  Message('note_on', channel=9, note=61, velocity=0, time=0),
  Message('note_on', channel=9, note=70, velocity=120, time=119),
  Message('note_on', channel=9, note=61, velocity=96, time=0),
  Message('note_on', channel=9, note=70, velocity=0, time=1),
  Message('note_on', channel=9, note=61, velocity=0, time=0),
  Message('note_on', channel=0, note=34, velocity=0, time=99),
  Message('note_on', channel=0, note=36, velocity=64, time=20),
  Message('note_on', channel=4, note=48, velocity=104, time=0),
  Message('note_on', channel=7, note=36, velocity=89, time=0),
  Message('note_on', channel=9, note=70, velocity=78, time=0),
  Message('note_on', channel=9, note=61, velocity=68, time=0),
  Message('note_on', channel=12, note=60, velocity=104, time=0),
  Message('note_on', channel=13, note=60, velocity=104, time=0),
  Message('note_on', channel=14, note=48, velocity=99, time=0),
  Message('note_on', channel=9, note=70, velocity=0, time=1),
  Message('note_on', channel=9, note=61, velocity=0, time=0),
  Message('note_on', channel=4, note=48, velocity=0, time=99),
  Message('note_on', channel=7, note=36, velocity=0, time=0),
  Message('note_on', channel=12, note=60, velocity=0, time=0),
  Message('note_on', channel=13, note=60, velocity=0, time=0),
  Message('note_on', channel=14, note=48, velocity=0, time=0),
  Message('note_on', channel=4, note=55, velocity=104, time=20),
  Message('note_on', channel=7, note=43, velocity=89, time=0),
  Message('note_on', channel=9, note=70, velocity=64, time=0),
  Message('note_on', channel=9, note=61, velocity=68, time=0),
  Message('note_on', channel=12, note=67, velocity=104, time=0),
  Message('note_on', channel=13, note=67, velocity=104, time=0),
  Message('note_on', channel=14, note=55, velocity=99, time=0),
  Message('note_on', channel=9, note=70, velocity=0, time=1),
  Message('note_on', channel=9, note=61, velocity=0, time=0),
  Message('note_on', channel=4, note=55, velocity=0, time=99),
  Message('note_on', channel=7, note=43, velocity=0, time=0),
  Message('note_on', channel=12, note=67, velocity=0, time=0),
  Message('note_on', channel=13, note=67, velocity=0, time=0),
  Message('note_on', channel=14, note=55, velocity=0, time=0),
  Message('note_on', channel=9, note=70, velocity=120, time=20),
  Message('note_on', channel=9, note=70, velocity=0, time=1),
  Message('note_on', channel=0, note=36, velocity=0, time=99),
  Message('note_on', channel=0, note=43, velocity=74, time=20),
  Message('note_on', channel=4, note=48, velocity=104, time=0),
  Message('note_on', channel=7, note=36, velocity=89, time=0),
  Message('note_on', channel=9, note=70, velocity=120, time=0),
  Message('note_on', channel=12, note=60, velocity=104, time=0),
  Message('note_on', channel=13, note=60, velocity=104, time=0),
  Message('note_on', channel=14, note=48, velocity=99, time=0),
  Message('note_on', channel=9, note=70, velocity=0, time=1),
  Message('note_on', channel=4, note=48, velocity=0, time=99),
  Message('note_on', channel=7, note=36, velocity=0, time=0),
  Message('note_on', channel=12, note=60, velocity=0, time=0),
  Message('note_on', channel=13, note=60, velocity=0, time=0),
  Message('note_on', channel=14, note=48, velocity=0, time=0),
  Message('note_on', channel=4, note=54, velocity=104, time=20),
  Message('note_on', channel=7, note=42, velocity=89, time=0),
  Message('note_on', channel=9, note=70, velocity=78, time=0),
  Message('note_on', channel=9, note=60, velocity=110, time=0),
  Message('note_on', channel=12, note=66, velocity=104, time=0),
  Message('note_on', channel=13, note=66, velocity=104, time=0),
  Message('note_on', channel=14, note=54, velocity=99, time=0),
  Message('note_on', channel=9, note=70, velocity=0, time=1),
  Message('note_on', channel=9, note=60, velocity=0, time=0),
  Message('note_on', channel=4, note=54, velocity=0, time=99),
  Message('note_on', channel=7, note=42, velocity=0, time=0),
  Message('note_on', channel=12, note=66, velocity=0, time=0),
  Message('note_on', channel=13, note=66, velocity=0, time=0),
  Message('note_on', channel=14, note=54, velocity=0, time=0),
  Message('note_on', channel=9, note=70, velocity=64, time=20),
  Message('note_on', channel=9, note=70, velocity=0, time=1),
  Message('note_on', channel=0, note=43, velocity=0, time=99),
  Message('note_on', channel=0, note=42, velocity=64, time=20),
  Message('note_on', channel=4, note=48, velocity=104, time=0),
  Message('note_on', channel=7, note=36, velocity=89, time=0),
  Message('note_on', channel=9, note=70, velocity=120, time=0),
  Message('note_on', channel=9, note=61, velocity=68, time=0),
  Message('note_on', channel=12, note=60, velocity=104, time=0),
  Message('note_on', channel=13, note=60, velocity=104, time=0),
  Message('note_on', channel=14, note=48, velocity=99, time=0),
  Message('note_on', channel=9, note=70, velocity=0, time=1),
  Message('note_on', channel=9, note=61, velocity=0, time=0),
  Message('note_on', channel=4, note=48, velocity=0, time=99),
  Message('note_on', channel=7, note=36, velocity=0, time=0),
  Message('note_on', channel=12, note=60, velocity=0, time=0),
  Message('note_on', channel=13, note=60, velocity=0, time=0),
  Message('note_on', channel=14, note=48, velocity=0, time=0),
  Message('note_on', channel=4, note=51, velocity=104, time=20),
  Message('note_on', channel=7, note=39, velocity=89, time=0),
  Message('note_on', channel=9, note=70, velocity=120, time=0),
  Message('note_on', channel=9, note=61, velocity=82, time=0),
  Message('note_on', channel=12, note=63, velocity=104, time=0),
  Message('note_on', channel=13, note=63, velocity=104, time=0),
  Message('note_on', channel=14, note=51, velocity=99, time=0),
  Message('note_on', channel=9, note=70, velocity=0, time=1),
  Message('note_on', channel=9, note=61, velocity=0, time=0),
  Message('note_on', channel=0, note=42, velocity=0, time=99),
  Message('note_on', channel=4, note=51, velocity=0, time=0),
  Message('note_on', channel=7, note=39, velocity=0, time=0),
  Message('note_on', channel=12, note=63, velocity=0, time=0),
  Message('note_on', channel=13, note=63, velocity=0, time=0),
  Message('note_on', channel=14, note=51, velocity=0, time=0),
  Message('note_on', channel=0, note=41, velocity=64, time=20),
  Message('note_on', channel=9, note=70, velocity=78, time=0),
  Message('note_on', channel=9, note=70, velocity=0, time=1),
  Message('note_on', channel=4, note=48, velocity=104, time=119),
  Message('note_on', channel=7, note=36, velocity=89, time=0),
  Message('note_on', channel=9, note=70, velocity=64, time=0),
  Message('note_on', channel=9, note=61, velocity=68, time=0),
  Message('note_on', channel=12, note=60, velocity=104, time=0),
  Message('note_on', channel=13, note=60, velocity=104, time=0),
  Message('note_on', channel=14, note=48, velocity=99, time=0),
  Message('note_on', channel=9, note=70, velocity=0, time=1),
  Message('note_on', channel=9, note=61, velocity=0, time=0),
  Message('note_on', channel=9, note=61, velocity=82, time=59),
  Message('note_on', channel=9, note=61, velocity=0, time=1),
  Message('note_on', channel=4, note=48, velocity=0, time=39),
  Message('note_on', channel=7, note=36, velocity=0, time=0),
  Message('note_on', channel=12, note=60, velocity=0, time=0),
  Message('note_on', channel=13, note=60, velocity=0, time=0),
  Message('note_on', channel=14, note=48, velocity=0, time=0),
  Message('note_on', channel=4, note=46, velocity=104, time=20),
  Message('note_on', channel=7, note=34, velocity=89, time=0),
  Message('note_on', channel=9, note=70, velocity=120, time=0),
  Message('note_on', channel=9, note=61, velocity=68, time=0),
  Message('note_on', channel=12, note=58, velocity=104, time=0),
  Message('note_on', channel=13, note=58, velocity=104, time=0),
  Message('note_on', channel=14, note=46, velocity=99, time=0),
  Message('note_on', channel=9, note=70, velocity=0, time=1),
  Message('note_on', channel=9, note=61, velocity=0, time=0),
  Message('note_on', channel=0, note=41, velocity=0, time=99),
  Message('note_on', channel=0, note=39, velocity=64, time=20),
  Message('note_on', channel=9, note=70, velocity=120, time=0),
  Message('note_on', channel=9, note=60, velocity=110, time=0),
  Message('note_on', channel=9, note=70, velocity=0, time=1),
  Message('note_on', channel=9, note=60, velocity=0, time=0),
  Message('note_on', channel=9, note=70, velocity=78, time=119),
  Message('note_on', channel=9, note=61, velocity=68, time=0),
  Message('note_on', channel=9, note=70, velocity=0, time=1),
  Message('note_on', channel=9, note=61, velocity=0, time=0),
  Message('note_on', channel=9, note=70, velocity=64, time=119),
  Message('note_on', channel=9, note=70, velocity=0, time=1),
  Message('note_on', channel=0, note=39, velocity=0, time=99),
  Message('note_on', channel=4, note=46, velocity=0, time=0),
  Message('note_on', channel=7, note=34, velocity=0, time=0),
  Message('note_on', channel=12, note=58, velocity=0, time=0),
  Message('note_on', channel=13, note=58, velocity=0, time=0),
  Message('note_on', channel=14, note=46, velocity=0, time=0),
  Message('note_on', channel=0, note=34, velocity=64, time=20),
  Message('note_on', channel=4, note=48, velocity=104, time=0),
  Message('note_on', channel=7, note=36, velocity=89, time=0),
  Message('note_on', channel=9, note=70, velocity=120, time=0),
  Message('note_on', channel=9, note=61, velocity=54, time=0),
  Message('note_on', channel=12, note=60, velocity=104, time=0),
  Message('note_on', channel=13, note=60, velocity=104, time=0),
  Message('note_on', channel=14, note=48, velocity=99, time=0),
  Message('note_on', channel=9, note=70, velocity=0, time=1),
  Message('note_on', channel=9, note=61, velocity=0, time=0),
  Message('note_on', channel=9, note=70, velocity=120, time=119),
  Message('note_on', channel=9, note=70, velocity=0, time=1),
  Message('note_on', channel=0, note=34, velocity=0, time=99),
  Message('note_on', channel=0, note=36, velocity=64, time=20),
  Message('note_on', channel=9, note=70, velocity=78, time=0),
  Message('note_on', channel=9, note=61, velocity=68, time=0),
  Message('note_on', channel=9, note=70, velocity=0, time=1),
  Message('note_on', channel=9, note=61, velocity=0, time=0),
  Message('note_on', channel=9, note=70, velocity=64, time=119),
  Message('note_on', channel=9, note=61, velocity=68, time=0),
  Message('note_on', channel=9, note=70, velocity=0, time=1),
  Message('note_on', channel=9, note=61, velocity=0, time=0),
  Message('note_on', channel=9, note=70, velocity=120, time=119),
  Message('note_on', channel=9, note=70, velocity=0, time=1),
  Message('note_on', channel=0, note=36, velocity=0, time=99),
  Message('note_on', channel=0, note=43, velocity=74, time=20),
  Message('note_on', channel=9, note=70, velocity=120, time=0),
  Message('note_on', channel=9, note=70, velocity=0, time=1),
  Message('note_on', channel=9, note=70, velocity=78, time=119),
  Message('note_on', channel=9, note=60, velocity=96, time=0),
  Message('note_on', channel=9, note=70, velocity=0, time=1),
  Message('note_on', channel=9, note=60, velocity=0, time=0),
  Message('note_on', channel=9, note=70, velocity=64, time=119),
  Message('note_on', channel=9, note=70, velocity=0, time=1),
  Message('note_on', channel=0, note=43, velocity=0, time=99),
  Message('note_on', channel=0, note=42, velocity=64, time=20),
  Message('note_on', channel=9, note=70, velocity=120, time=0),
  Message('note_on', channel=9, note=61, velocity=68, time=0),
  Message('note_on', channel=9, note=70, velocity=0, time=1),
  Message('note_on', channel=9, note=61, velocity=0, time=0),
  Message('note_on', channel=9, note=70, velocity=120, time=119),
  Message('note_on', channel=9, note=61, velocity=110, time=0),
  Message('note_on', channel=9, note=70, velocity=0, time=1),
  Message('note_on', channel=9, note=61, velocity=0, time=0),
  Message('note_on', channel=0, note=42, velocity=0, time=99),
  Message('note_on', channel=0, note=41, velocity=64, time=20),
  Message('note_on', channel=9, note=70, velocity=78, time=0),
  Message('note_on', channel=9, note=60, velocity=68, time=0),
  Message('note_on', channel=9, note=70, velocity=0, time=1),
  Message('note_on', channel=9, note=60, velocity=0, time=0),
  Message('note_on', channel=9, note=70, velocity=64, time=119),
  Message('note_on', channel=9, note=60, velocity=68, time=0),
  Message('note_on', channel=9, note=70, velocity=0, time=1),
  Message('note_on', channel=9, note=60, velocity=0, time=0),
  Message('note_on', channel=9, note=70, velocity=120, time=119),
  Message('note_on', channel=9, note=61, velocity=96, time=0),
  Message('note_on', channel=9, note=70, velocity=0, time=1),
  Message('note_on', channel=9, note=61, velocity=0, time=0),
  Message('note_on', channel=0, note=41, velocity=0, time=99),
  Message('note_on', channel=0, note=39, velocity=64, time=20),
  Message('note_on', channel=9, note=70, velocity=120, time=0),
  Message('note_on', channel=9, note=61, velocity=96, time=0),
  Message('note_on', channel=9, note=70, velocity=0, time=1),
  Message('note_on', channel=9, note=61, velocity=0, time=0),
  Message('note_on', channel=4, note=48, velocity=0, time=119),
  Message('note_on', channel=7, note=36, velocity=0, time=0),
  Message('note_on', channel=9, note=70, velocity=78, time=0),
  Message('note_on', channel=9, note=60, velocity=68, time=0),
  Message('note_on', channel=12, note=60, velocity=0, time=0),
  Message('note_on', channel=13, note=60, velocity=0, time=0),
  Message('note_on', channel=14, note=48, velocity=0, time=0),
  Message('note_on', channel=9, note=70, velocity=0, time=1),
  Message('note_on', channel=9, note=60, velocity=0, time=0),
  Message('note_on', channel=9, note=70, velocity=64, time=119),
  Message('note_on', channel=9, note=60, velocity=68, time=0),
  Message('note_on', channel=9, note=70, velocity=0, time=1),
  Message('note_on', channel=9, note=60, velocity=0, time=0),
  Message('note_on', channel=0, note=39, velocity=0, time=99),
  Message('note_on', channel=0, note=34, velocity=64, time=20),
  Message('note_on', channel=9, note=70, velocity=120, time=0),
  Message('note_on', channel=9, note=61, velocity=96, time=0),
  Message('note_on', channel=9, note=70, velocity=0, time=1),
  Message('note_on', channel=9, note=61, velocity=0, time=0),
  Message('note_on', channel=9, note=70, velocity=120, time=119),
  Message('note_on', channel=9, note=61, velocity=96, time=0),
  Message('note_on', channel=9, note=70, velocity=0, time=1),
  Message('note_on', channel=9, note=61, velocity=0, time=0),
  Message('note_on', channel=0, note=34, velocity=0, time=99),
  Message('note_on', channel=0, note=41, velocity=64, time=20),
  Message('note_on', channel=4, note=53, velocity=104, time=0),
  Message('note_on', channel=7, note=41, velocity=89, time=0),
  Message('note_on', channel=9, note=70, velocity=78, time=0),
  Message('note_on', channel=9, note=61, velocity=68, time=0),
  Message('note_on', channel=12, note=65, velocity=104, time=0),
  Message('note_on', channel=13, note=65, velocity=104, time=0),
  Message('note_on', channel=14, note=53, velocity=99, time=0),
  Message('note_on', channel=9, note=70, velocity=0, time=1),
  Message('note_on', channel=9, note=61, velocity=0, time=0),
  Message('note_on', channel=4, note=53, velocity=0, time=99),
  Message('note_on', channel=7, note=41, velocity=0, time=0),
  Message('note_on', channel=12, note=65, velocity=0, time=0),
  Message('note_on', channel=13, note=65, velocity=0, time=0),
  Message('note_on', channel=14, note=53, velocity=0, time=0),
  Message('note_on', channel=4, note=60, velocity=104, time=20),
  Message('note_on', channel=7, note=48, velocity=89, time=0),
  Message('note_on', channel=9, note=70, velocity=64, time=0),
  Message('note_on', channel=9, note=61, velocity=68, time=0),
  Message('note_on', channel=12, note=72, velocity=104, time=0),
  Message('note_on', channel=13, note=72, velocity=104, time=0),
  Message('note_on', channel=14, note=60, velocity=99, time=0),
  Message('note_on', channel=9, note=70, velocity=0, time=1),
  Message('note_on', channel=9, note=61, velocity=0, time=0),
  Message('note_on', channel=4, note=60, velocity=0, time=99),
  Message('note_on', channel=7, note=48, velocity=0, time=0),
  Message('note_on', channel=12, note=72, velocity=0, time=0),
  Message('note_on', channel=13, note=72, velocity=0, time=0),
  Message('note_on', channel=14, note=60, velocity=0, time=0),
  Message('note_on', channel=9, note=70, velocity=120, time=20),
  Message('note_on', channel=9, note=70, velocity=0, time=1),
  Message('note_on', channel=0, note=41, velocity=0, time=99),
  Message('note_on', channel=0, note=48, velocity=74, time=20),
  Message('note_on', channel=4, note=53, velocity=104, time=0),
  Message('note_on', channel=7, note=41, velocity=89, time=0),
  Message('note_on', channel=9, note=70, velocity=120, time=0),
  Message('note_on', channel=12, note=65, velocity=104, time=0),
  Message('note_on', channel=13, note=65, velocity=104, time=0),
  Message('note_on', channel=14, note=53, velocity=99, time=0),
  Message('note_on', channel=9, note=70, velocity=0, time=1),
  Message('note_on', channel=4, note=53, velocity=0, time=99),
  Message('note_on', channel=7, note=41, velocity=0, time=0),
  Message('note_on', channel=12, note=65, velocity=0, time=0),
  Message('note_on', channel=13, note=65, velocity=0, time=0),
  Message('note_on', channel=14, note=53, velocity=0, time=0),
  Message('note_on', channel=4, note=59, velocity=104, time=20),
  Message('note_on', channel=7, note=47, velocity=89, time=0),
  Message('note_on', channel=9, note=70, velocity=78, time=0),
  Message('note_on', channel=9, note=60, velocity=110, time=0),
  Message('note_on', channel=12, note=71, velocity=104, time=0),
  Message('note_on', channel=13, note=71, velocity=104, time=0),
  Message('note_on', channel=14, note=59, velocity=99, time=0),
  Message('note_on', channel=9, note=70, velocity=0, time=1),
  Message('note_on', channel=9, note=60, velocity=0, time=0),
  Message('note_on', channel=4, note=59, velocity=0, time=99),
  Message('note_on', channel=7, note=47, velocity=0, time=0),
  Message('note_on', channel=12, note=71, velocity=0, time=0),
  Message('note_on', channel=13, note=71, velocity=0, time=0),
  Message('note_on', channel=14, note=59, velocity=0, time=0),
  Message('note_on', channel=9, note=70, velocity=64, time=20),
  Message('note_on', channel=9, note=70, velocity=0, time=1),
  Message('note_on', channel=0, note=48, velocity=0, time=99),
  Message('note_on', channel=0, note=47, velocity=64, time=20),
  Message('note_on', channel=4, note=53, velocity=104, time=0),
  Message('note_on', channel=7, note=41, velocity=89, time=0),
  Message('note_on', channel=9, note=70, velocity=120, time=0),
  Message('note_on', channel=9, note=61, velocity=68, time=0),
  Message('note_on', channel=12, note=65, velocity=104, time=0),
  Message('note_on', channel=13, note=65, velocity=104, time=0),
  Message('note_on', channel=14, note=53, velocity=99, time=0),
  Message('note_on', channel=9, note=70, velocity=0, time=1),
  Message('note_on', channel=9, note=61, velocity=0, time=0),
  Message('note_on', channel=4, note=53, velocity=0, time=99),
  Message('note_on', channel=7, note=41, velocity=0, time=0),
  Message('note_on', channel=12, note=65, velocity=0, time=0),
  Message('note_on', channel=13, note=65, velocity=0, time=0),
  Message('note_on', channel=14, note=53, velocity=0, time=0),
  Message('note_on', channel=4, note=56, velocity=104, time=20),
  Message('note_on', channel=7, note=44, velocity=89, time=0),
  Message('note_on', channel=9, note=70, velocity=120, time=0),
  Message('note_on', channel=9, note=61, velocity=82, time=0),
  Message('note_on', channel=12, note=68, velocity=104, time=0),
  Message('note_on', channel=13, note=68, velocity=104, time=0),
  Message('note_on', channel=14, note=56, velocity=99, time=0),
  Message('note_on', channel=9, note=70, velocity=0, time=1),
  Message('note_on', channel=9, note=61, velocity=0, time=0),
  Message('note_on', channel=0, note=47, velocity=0, time=99),
  Message('note_on', channel=4, note=56, velocity=0, time=0),
  Message('note_on', channel=7, note=44, velocity=0, time=0),
  Message('note_on', channel=12, note=68, velocity=0, time=0),
  Message('note_on', channel=13, note=68, velocity=0, time=0),
  Message('note_on', channel=14, note=56, velocity=0, time=0),
  Message('note_on', channel=0, note=46, velocity=64, time=20),
  Message('note_on', channel=9, note=70, velocity=78, time=0),
  Message('note_on', channel=9, note=70, velocity=0, time=1),
  Message('note_on', channel=4, note=53, velocity=104, time=119),
  Message('note_on', channel=7, note=41, velocity=89, time=0),
  Message('note_on', channel=9, note=70, velocity=64, time=0),
  Message('note_on', channel=9, note=61, velocity=68, time=0),
  Message('note_on', channel=12, note=65, velocity=104, time=0),
  Message('note_on', channel=13, note=65, velocity=104, time=0),
  Message('note_on', channel=14, note=53, velocity=99, time=0),
  Message('note_on', channel=9, note=70, velocity=0, time=1),
  Message('note_on', channel=9, note=61, velocity=0, time=0),
  Message('note_on', channel=9, note=61, velocity=82, time=59),
  Message('note_on', channel=9, note=61, velocity=0, time=1),
  Message('note_on', channel=4, note=53, velocity=0, time=39),
  Message('note_on', channel=7, note=41, velocity=0, time=0),
  Message('note_on', channel=12, note=65, velocity=0, time=0),
  Message('note_on', channel=13, note=65, velocity=0, time=0),
  Message('note_on', channel=14, note=53, velocity=0, time=0),
  Message('note_on', channel=4, note=51, velocity=104, time=20),
  Message('note_on', channel=7, note=39, velocity=89, time=0),
  Message('note_on', channel=9, note=70, velocity=120, time=0),
  Message('note_on', channel=9, note=61, velocity=68, time=0),
  Message('note_on', channel=12, note=63, velocity=104, time=0),
  Message('note_on', channel=13, note=63, velocity=104, time=0),
  Message('note_on', channel=14, note=51, velocity=99, time=0),
  Message('note_on', channel=9, note=70, velocity=0, time=1),
  Message('note_on', channel=9, note=61, velocity=0, time=0),
  Message('note_on', channel=0, note=46, velocity=0, time=99),
  Message('note_on', channel=0, note=44, velocity=64, time=20),
  Message('note_on', channel=9, note=70, velocity=120, time=0),
  Message('note_on', channel=9, note=60, velocity=110, time=0),
  Message('note_on', channel=9, note=70, velocity=0, time=1),
  Message('note_on', channel=9, note=60, velocity=0, time=0),
  Message('note_on', channel=9, note=70, velocity=78, time=119),
  Message('note_on', channel=9, note=61, velocity=68, time=0),
  Message('note_on', channel=9, note=70, velocity=0, time=1),
  Message('note_on', channel=9, note=61, velocity=0, time=0),
  Message('note_on', channel=9, note=70, velocity=64, time=119),
  Message('note_on', channel=9, note=70, velocity=0, time=1),
  Message('note_on', channel=0, note=44, velocity=0, time=99),
  Message('note_on', channel=4, note=51, velocity=0, time=0),
  Message('note_on', channel=7, note=39, velocity=0, time=0),
  Message('note_on', channel=12, note=63, velocity=0, time=0),
  Message('note_on', channel=13, note=63, velocity=0, time=0),
  Message('note_on', channel=14, note=51, velocity=0, time=0),
  Message('note_on', channel=0, note=39, velocity=64, time=20),
  Message('note_on', channel=4, note=53, velocity=104, time=0),
  Message('note_on', channel=7, note=41, velocity=89, time=0),
  Message('note_on', channel=9, note=70, velocity=120, time=0),
  Message('note_on', channel=9, note=61, velocity=54, time=0),
  Message('note_on', channel=12, note=65, velocity=104, time=0),
  Message('note_on', channel=13, note=65, velocity=104, time=0),
  Message('note_on', channel=14, note=53, velocity=99, time=0),
  Message('note_on', channel=9, note=70, velocity=0, time=1),
  Message('note_on', channel=9, note=61, velocity=0, time=0),
  Message('note_on', channel=9, note=70, velocity=120, time=119),
  Message('note_on', channel=9, note=70, velocity=0, time=1),
  Message('note_on', channel=0, note=39, velocity=0, time=99),
  Message('note_on', channel=0, note=41, velocity=64, time=20),
  Message('note_on', channel=9, note=70, velocity=78, time=0),
  Message('note_on', channel=9, note=61, velocity=68, time=0),
  Message('note_on', channel=9, note=70, velocity=0, time=1),
  Message('note_on', channel=9, note=61, velocity=0, time=0),
  Message('note_on', channel=9, note=70, velocity=64, time=119),
  Message('note_on', channel=9, note=61, velocity=68, time=0),
  Message('note_on', channel=9, note=70, velocity=0, time=1),
  Message('note_on', channel=9, note=61, velocity=0, time=0),
  Message('note_on', channel=9, note=70, velocity=120, time=119),
  Message('note_on', channel=9, note=70, velocity=0, time=1),
  Message('note_on', channel=0, note=41, velocity=0, time=99),
  Message('note_on', channel=0, note=48, velocity=74, time=20),
  Message('note_on', channel=9, note=70, velocity=120, time=0),
  Message('note_on', channel=9, note=70, velocity=0, time=1),
  Message('note_on', channel=9, note=70, velocity=78, time=119),
  Message('note_on', channel=9, note=60, velocity=96, time=0),
  Message('note_on', channel=9, note=70, velocity=0, time=1),
  Message('note_on', channel=9, note=60, velocity=0, time=0),
  Message('note_on', channel=9, note=70, velocity=64, time=119),
  Message('note_on', channel=9, note=70, velocity=0, time=1),
  Message('note_on', channel=0, note=48, velocity=0, time=99),
  Message('note_on', channel=0, note=47, velocity=64, time=20),
  Message('note_on', channel=9, note=70, velocity=120, time=0),
  Message('note_on', channel=9, note=61, velocity=68, time=0),
  Message('note_on', channel=9, note=70, velocity=0, time=1),
  Message('note_on', channel=9, note=61, velocity=0, time=0),
  Message('note_on', channel=9, note=70, velocity=120, time=119),
  Message('note_on', channel=9, note=61, velocity=110, time=0),
  Message('note_on', channel=9, note=70, velocity=0, time=1),
  Message('note_on', channel=9, note=61, velocity=0, time=0),
  Message('note_on', channel=0, note=47, velocity=0, time=99),
  Message('note_on', channel=0, note=46, velocity=64, time=20),
  Message('note_on', channel=9, note=70, velocity=78, time=0),
  Message('note_on', channel=9, note=60, velocity=68, time=0),
  Message('note_on', channel=9, note=70, velocity=0, time=1),
  Message('note_on', channel=9, note=60, velocity=0, time=0),
  Message('note_on', channel=9, note=70, velocity=64, time=119),
  Message('note_on', channel=9, note=60, velocity=68, time=0),
  Message('note_on', channel=9, note=70, velocity=0, time=1),
  Message('note_on', channel=9, note=60, velocity=0, time=0),
  Message('note_on', channel=9, note=70, velocity=120, time=119),
  Message('note_on', channel=9, note=61, velocity=96, time=0),
  Message('note_on', channel=9, note=70, velocity=0, time=1),
  Message('note_on', channel=9, note=61, velocity=0, time=0),
  Message('note_on', channel=0, note=46, velocity=0, time=99),
  Message('note_on', channel=0, note=44, velocity=64, time=20),
  Message('note_on', channel=9, note=70, velocity=120, time=0),
  Message('note_on', channel=9, note=61, velocity=96, time=0),
  Message('note_on', channel=9, note=70, velocity=0, time=1),
  Message('note_on', channel=9, note=61, velocity=0, time=0),
  Message('note_on', channel=4, note=53, velocity=0, time=119),
  Message('note_on', channel=7, note=41, velocity=0, time=0),
  Message('note_on', channel=9, note=70, velocity=78, time=0),
  Message('note_on', channel=9, note=60, velocity=68, time=0),
  Message('note_on', channel=12, note=65, velocity=0, time=0),
  Message('note_on', channel=13, note=65, velocity=0, time=0),
  Message('note_on', channel=14, note=53, velocity=0, time=0),
  Message('note_on', channel=9, note=70, velocity=0, time=1),
  Message('note_on', channel=9, note=60, velocity=0, time=0),
  Message('note_on', channel=9, note=70, velocity=64, time=119),
  Message('note_on', channel=9, note=60, velocity=68, time=0),
  Message('note_on', channel=9, note=70, velocity=0, time=1),
  Message('note_on', channel=9, note=60, velocity=0, time=0),
  Message('note_on', channel=0, note=44, velocity=0, time=99),
  Message('note_on', channel=0, note=39, velocity=64, time=20),
  Message('note_on', channel=9, note=70, velocity=120, time=0),
  Message('note_on', channel=9, note=61, velocity=96, time=0),
  Message('note_on', channel=9, note=70, velocity=0, time=1),
  Message('note_on', channel=9, note=61, velocity=0, time=0),
  Message('note_on', channel=9, note=70, velocity=120, time=119),
  Message('note_on', channel=9, note=61, velocity=96, time=0),
  Message('note_on', channel=9, note=70, velocity=0, time=1),
  Message('note_on', channel=9, note=61, velocity=0, time=0),
  Message('note_on', channel=0, note=39, velocity=0, time=99),
  Message('note_on', channel=0, note=36, velocity=64, time=20),
  Message('note_on', channel=4, note=48, velocity=104, time=0),
  Message('note_on', channel=7, note=36, velocity=89, time=0),
  Message('note_on', channel=9, note=70, velocity=78, time=0),
  Message('note_on', channel=9, note=61, velocity=68, time=0),
  Message('note_on', channel=12, note=60, velocity=104, time=0),
  Message('note_on', channel=13, note=60, velocity=104, time=0),
  Message('note_on', channel=14, note=48, velocity=99, time=0),
  Message('note_on', channel=9, note=70, velocity=0, time=1),
  Message('note_on', channel=9, note=61, velocity=0, time=0),
  Message('note_on', channel=4, note=48, velocity=0, time=99),
  Message('note_on', channel=7, note=36, velocity=0, time=0),
  Message('note_on', channel=12, note=60, velocity=0, time=0),
  Message('note_on', channel=13, note=60, velocity=0, time=0),
  Message('note_on', channel=14, note=48, velocity=0, time=0),
  Message('note_on', channel=4, note=55, velocity=104, time=20),
  Message('note_on', channel=7, note=43, velocity=89, time=0),
  Message('note_on', channel=9, note=70, velocity=64, time=0),
  Message('note_on', channel=9, note=61, velocity=68, time=0),
  Message('note_on', channel=12, note=67, velocity=104, time=0),
  Message('note_on', channel=13, note=67, velocity=104, time=0),
  Message('note_on', channel=14, note=55, velocity=99, time=0),
  Message('note_on', channel=9, note=70, velocity=0, time=1),
  Message('note_on', channel=9, note=61, velocity=0, time=0),
  Message('note_on', channel=4, note=55, velocity=0, time=99),
  Message('note_on', channel=7, note=43, velocity=0, time=0),
  Message('note_on', channel=12, note=67, velocity=0, time=0),
  Message('note_on', channel=13, note=67, velocity=0, time=0),
  Message('note_on', channel=14, note=55, velocity=0, time=0),
  Message('note_on', channel=9, note=70, velocity=120, time=20),
  Message('note_on', channel=9, note=70, velocity=0, time=1),
  Message('note_on', channel=0, note=36, velocity=0, time=99),
  Message('note_on', channel=0, note=43, velocity=74, time=20),
  Message('note_on', channel=4, note=48, velocity=104, time=0),
  Message('note_on', channel=7, note=36, velocity=89, time=0),
  Message('note_on', channel=9, note=70, velocity=120, time=0),
  Message('note_on', channel=12, note=60, velocity=104, time=0),
  Message('note_on', channel=13, note=60, velocity=104, time=0),
  Message('note_on', channel=14, note=48, velocity=99, time=0),
  Message('note_on', channel=9, note=70, velocity=0, time=1),
  Message('note_on', channel=4, note=48, velocity=0, time=99),
  Message('note_on', channel=7, note=36, velocity=0, time=0),
  Message('note_on', channel=12, note=60, velocity=0, time=0),
  Message('note_on', channel=13, note=60, velocity=0, time=0),
  Message('note_on', channel=14, note=48, velocity=0, time=0),
  Message('note_on', channel=4, note=54, velocity=104, time=20),
  Message('note_on', channel=7, note=42, velocity=89, time=0),
  Message('note_on', channel=9, note=70, velocity=78, time=0),
  Message('note_on', channel=9, note=60, velocity=110, time=0),
  Message('note_on', channel=12, note=66, velocity=104, time=0),
  Message('note_on', channel=13, note=66, velocity=104, time=0),
  Message('note_on', channel=14, note=54, velocity=99, time=0),
  Message('note_on', channel=9, note=70, velocity=0, time=1),
  Message('note_on', channel=9, note=60, velocity=0, time=0),
  Message('note_on', channel=4, note=54, velocity=0, time=99),
  Message('note_on', channel=7, note=42, velocity=0, time=0),
  Message('note_on', channel=12, note=66, velocity=0, time=0),
  Message('note_on', channel=13, note=66, velocity=0, time=0),
  Message('note_on', channel=14, note=54, velocity=0, time=0),
  Message('note_on', channel=9, note=70, velocity=64, time=20),
  Message('note_on', channel=9, note=70, velocity=0, time=1),
  Message('note_on', channel=0, note=43, velocity=0, time=99),
  Message('note_on', channel=0, note=42, velocity=64, time=20),
  Message('note_on', channel=4, note=48, velocity=104, time=0),
  Message('note_on', channel=7, note=36, velocity=89, time=0),
  Message('note_on', channel=9, note=70, velocity=120, time=0),
  Message('note_on', channel=9, note=61, velocity=68, time=0),
  Message('note_on', channel=12, note=60, velocity=104, time=0),
  Message('note_on', channel=13, note=60, velocity=104, time=0),
  Message('note_on', channel=14, note=48, velocity=99, time=0),
  Message('note_on', channel=9, note=70, velocity=0, time=1),
  Message('note_on', channel=9, note=61, velocity=0, time=0),
  Message('note_on', channel=4, note=48, velocity=0, time=99),
  Message('note_on', channel=7, note=36, velocity=0, time=0),
  Message('note_on', channel=12, note=60, velocity=0, time=0),
  Message('note_on', channel=13, note=60, velocity=0, time=0),
  Message('note_on', channel=14, note=48, velocity=0, time=0),
  Message('note_on', channel=4, note=51, velocity=104, time=20),
  Message('note_on', channel=7, note=39, velocity=89, time=0),
  Message('note_on', channel=9, note=70, velocity=120, time=0),
  Message('note_on', channel=9, note=61, velocity=82, time=0),
  Message('note_on', channel=12, note=63, velocity=104, time=0),
  Message('note_on', channel=13, note=63, velocity=104, time=0),
  Message('note_on', channel=14, note=51, velocity=99, time=0),
  Message('note_on', channel=9, note=70, velocity=0, time=1),
  Message('note_on', channel=9, note=61, velocity=0, time=0),
  Message('note_on', channel=0, note=42, velocity=0, time=99),
  Message('note_on', channel=4, note=51, velocity=0, time=0),
  Message('note_on', channel=7, note=39, velocity=0, time=0),
  Message('note_on', channel=12, note=63, velocity=0, time=0),
  Message('note_on', channel=13, note=63, velocity=0, time=0),
  Message('note_on', channel=14, note=51, velocity=0, time=0),
  Message('note_on', channel=0, note=41, velocity=64, time=20),
  Message('note_on', channel=9, note=70, velocity=78, time=0),
  Message('note_on', channel=9, note=70, velocity=0, time=1),
  Message('note_on', channel=4, note=48, velocity=104, time=119),
  Message('note_on', channel=7, note=36, velocity=89, time=0),
  Message('note_on', channel=9, note=70, velocity=64, time=0),
  Message('note_on', channel=9, note=61, velocity=68, time=0),
  Message('note_on', channel=12, note=60, velocity=104, time=0),
  Message('note_on', channel=13, note=60, velocity=104, time=0),
  Message('note_on', channel=14, note=48, velocity=99, time=0),
  Message('note_on', channel=9, note=70, velocity=0, time=1),
  Message('note_on', channel=9, note=61, velocity=0, time=0),
  Message('note_on', channel=9, note=61, velocity=82, time=59),
  Message('note_on', channel=9, note=61, velocity=0, time=1),
  Message('note_on', channel=4, note=48, velocity=0, time=39),
  Message('note_on', channel=7, note=36, velocity=0, time=0),
  Message('note_on', channel=12, note=60, velocity=0, time=0),
  Message('note_on', channel=13, note=60, velocity=0, time=0),
  Message('note_on', channel=14, note=48, velocity=0, time=0),
  Message('note_on', channel=4, note=46, velocity=104, time=20),
  Message('note_on', channel=7, note=34, velocity=89, time=0),
  Message('note_on', channel=9, note=70, velocity=120, time=0),
  Message('note_on', channel=9, note=61, velocity=68, time=0),
  Message('note_on', channel=12, note=58, velocity=104, time=0),
  Message('note_on', channel=13, note=58, velocity=104, time=0),
  Message('note_on', channel=14, note=46, velocity=99, time=0),
  Message('note_on', channel=9, note=70, velocity=0, time=1),
  Message('note_on', channel=9, note=61, velocity=0, time=0),
  Message('note_on', channel=0, note=41, velocity=0, time=99),
  Message('note_on', channel=0, note=39, velocity=64, time=20),
  Message('note_on', channel=9, note=70, velocity=120, time=0),
  Message('note_on', channel=9, note=60, velocity=110, time=0),
  Message('note_on', channel=9, note=70, velocity=0, time=1),
  Message('note_on', channel=9, note=60, velocity=0, time=0),
  Message('note_on', channel=9, note=70, velocity=78, time=119),
  Message('note_on', channel=9, note=61, velocity=68, time=0),
  Message('note_on', channel=9, note=70, velocity=0, time=1),
  Message('note_on', channel=9, note=61, velocity=0, time=0),
  Message('note_on', channel=9, note=70, velocity=64, time=119),
  Message('note_on', channel=9, note=70, velocity=0, time=1),
  Message('note_on', channel=0, note=39, velocity=0, time=99),
  Message('note_on', channel=4, note=46, velocity=0, time=0),
  Message('note_on', channel=7, note=34, velocity=0, time=0),
  Message('note_on', channel=12, note=58, velocity=0, time=0),
  Message('note_on', channel=13, note=58, velocity=0, time=0),
  Message('note_on', channel=14, note=46, velocity=0, time=0),
  Message('note_on', channel=0, note=34, velocity=64, time=20),
  Message('note_on', channel=4, note=48, velocity=104, time=0),
  Message('note_on', channel=7, note=36, velocity=89, time=0),
  Message('note_on', channel=9, note=70, velocity=120, time=0),
  Message('note_on', channel=9, note=61, velocity=54, time=0),
  Message('note_on', channel=12, note=60, velocity=104, time=0),
  Message('note_on', channel=13, note=60, velocity=104, time=0),
  Message('note_on', channel=14, note=48, velocity=99, time=0),
  Message('note_on', channel=9, note=70, velocity=0, time=1),
  Message('note_on', channel=9, note=61, velocity=0, time=0),
  Message('note_on', channel=9, note=70, velocity=120, time=119),
  Message('note_on', channel=9, note=70, velocity=0, time=1),
  Message('note_on', channel=0, note=34, velocity=0, time=99),
  Message('note_on', channel=0, note=36, velocity=64, time=20),
  Message('note_on', channel=9, note=70, velocity=78, time=0),
  Message('note_on', channel=9, note=61, velocity=68, time=0),
  Message('note_on', channel=9, note=70, velocity=0, time=1),
  Message('note_on', channel=9, note=61, velocity=0, time=0),
  Message('note_on', channel=9, note=70, velocity=64, time=119),
  Message('note_on', channel=9, note=61, velocity=68, time=0),
  Message('note_on', channel=9, note=70, velocity=0, time=1),
  Message('note_on', channel=9, note=61, velocity=0, time=0),
  Message('note_on', channel=9, note=70, velocity=120, time=119),
  Message('note_on', channel=9, note=70, velocity=0, time=1),
  Message('note_on', channel=0, note=36, velocity=0, time=99),
  Message('note_on', channel=0, note=43, velocity=74, time=20),
  Message('note_on', channel=9, note=70, velocity=120, time=0),
  Message('note_on', channel=9, note=70, velocity=0, time=1),
  Message('note_on', channel=9, note=70, velocity=78, time=119),
  Message('note_on', channel=9, note=60, velocity=96, time=0),
  Message('note_on', channel=9, note=70, velocity=0, time=1),
  Message('note_on', channel=9, note=60, velocity=0, time=0),
  Message('note_on', channel=9, note=70, velocity=64, time=119),
  Message('note_on', channel=9, note=70, velocity=0, time=1),
  Message('note_on', channel=0, note=43, velocity=0, time=99),
  Message('note_on', channel=0, note=42, velocity=64, time=20),
  Message('note_on', channel=9, note=70, velocity=120, time=0),
  Message('note_on', channel=9, note=61, velocity=68, time=0),
  Message('note_on', channel=9, note=70, velocity=0, time=1),
  Message('note_on', channel=9, note=61, velocity=0, time=0),
  Message('note_on', channel=9, note=70, velocity=120, time=119),
  Message('note_on', channel=9, note=61, velocity=110, time=0),
  Message('note_on', channel=9, note=70, velocity=0, time=1),
  Message('note_on', channel=9, note=61, velocity=0, time=0),
  Message('note_on', channel=0, note=42, velocity=0, time=99),
  Message('note_on', channel=0, note=41, velocity=64, time=20),
  Message('note_on', channel=9, note=70, velocity=78, time=0),
  Message('note_on', channel=9, note=60, velocity=68, time=0),
  Message('note_on', channel=9, note=70, velocity=0, time=1),
  Message('note_on', channel=9, note=60, velocity=0, time=0),
  Message('note_on', channel=9, note=70, velocity=64, time=119),
  Message('note_on', channel=9, note=60, velocity=68, time=0),
  Message('note_on', channel=9, note=70, velocity=0, time=1),
  Message('note_on', channel=9, note=60, velocity=0, time=0),
  Message('note_on', channel=9, note=70, velocity=120, time=119),
  Message('note_on', channel=9, note=61, velocity=96, time=0),
  Message('note_on', channel=9, note=70, velocity=0, time=1),
  Message('note_on', channel=9, note=61, velocity=0, time=0),
  Message('note_on', channel=0, note=41, velocity=0, time=99),
  Message('note_on', channel=0, note=39, velocity=64, time=20),
  Message('note_on', channel=9, note=70, velocity=120, time=0),
  Message('note_on', channel=9, note=61, velocity=96, time=0),
  Message('note_on', channel=9, note=70, velocity=0, time=1),
  Message('note_on', channel=9, note=61, velocity=0, time=0),
  Message('note_on', channel=4, note=48, velocity=0, time=119),
  Message('note_on', channel=7, note=36, velocity=0, time=0),
  Message('note_on', channel=9, note=70, velocity=78, time=0),
  Message('note_on', channel=9, note=60, velocity=68, time=0),
  Message('note_on', channel=12, note=60, velocity=0, time=0),
  Message('note_on', channel=13, note=60, velocity=0, time=0),
  Message('note_on', channel=14, note=48, velocity=0, time=0),
  Message('note_on', channel=9, note=70, velocity=0, time=1),
  Message('note_on', channel=9, note=60, velocity=0, time=0),
  Message('note_on', channel=9, note=70, velocity=64, time=119),
  Message('note_on', channel=9, note=60, velocity=68, time=0),
  Message('note_on', channel=9, note=70, velocity=0, time=1),
  Message('note_on', channel=9, note=60, velocity=0, time=0),
  Message('note_on', channel=0, note=39, velocity=0, time=99),
  Message('note_on', channel=0, note=34, velocity=64, time=20),
  Message('note_on', channel=9, note=70, velocity=120, time=0),
  Message('note_on', channel=9, note=61, velocity=96, time=0),
  Message('note_on', channel=9, note=70, velocity=0, time=1),
  Message('note_on', channel=9, note=61, velocity=0, time=0),
  Message('note_on', channel=9, note=70, velocity=120, time=119),
  Message('note_on', channel=9, note=61, velocity=96, time=0),
  Message('note_on', channel=9, note=70, velocity=0, time=1),
  Message('note_on', channel=9, note=61, velocity=0, time=0),
  Message('note_on', channel=0, note=34, velocity=0, time=99),
  Message('note_on', channel=0, note=31, velocity=64, time=20),
  Message('note_on', channel=1, note=71, velocity=127, time=0),
  Message('note_on', channel=1, note=74, velocity=127, time=0),
  Message('note_on', channel=1, note=78, velocity=127, time=0),
  Message('note_on', channel=4, note=59, velocity=127, time=0),
  Message('note_on', channel=4, note=62, velocity=127, time=0),
  Message('note_on', channel=4, note=66, velocity=127, time=0),
  Message('note_on', channel=6, note=71, velocity=99, time=0),
  Message('note_on', channel=6, note=74, velocity=99, time=0),
  Message('note_on', channel=6, note=78, velocity=99, time=0),
  Message('note_on', channel=7, note=47, velocity=89, time=0),
  Message('note_on', channel=7, note=50, velocity=89, time=0),
  Message('note_on', channel=7, note=54, velocity=89, time=0),
  Message('note_on', channel=9, note=70, velocity=78, time=0),
  Message('note_on', channel=9, note=60, velocity=96, time=0),
  Message('note_on', channel=9, note=70, velocity=0, time=1),
  Message('note_on', channel=9, note=60, velocity=0, time=0),
  Message('note_on', channel=1, note=71, velocity=0, time=99),
  Message('note_on', channel=1, note=74, velocity=0, time=0),
  Message('note_on', channel=1, note=78, velocity=0, time=0),
  Message('note_on', channel=4, note=59, velocity=0, time=0),
  Message('note_on', channel=4, note=62, velocity=0, time=0),
  Message('note_on', channel=4, note=66, velocity=0, time=0),
  Message('note_on', channel=6, note=71, velocity=0, time=0),
  Message('note_on', channel=6, note=74, velocity=0, time=0),
  Message('note_on', channel=6, note=78, velocity=0, time=0),
  Message('note_on', channel=7, note=47, velocity=0, time=0),
  Message('note_on', channel=7, note=50, velocity=0, time=0),
  Message('note_on', channel=7, note=54, velocity=0, time=0),
  Message('note_on', channel=1, note=71, velocity=127, time=20),
  Message('note_on', channel=1, note=76, velocity=127, time=0),
  Message('note_on', channel=1, note=79, velocity=127, time=0),
  Message('note_on', channel=4, note=59, velocity=127, time=0),
  Message('note_on', channel=4, note=64, velocity=127, time=0),
  Message('note_on', channel=4, note=67, velocity=127, time=0),
  Message('note_on', channel=6, note=71, velocity=99, time=0),
  Message('note_on', channel=6, note=76, velocity=99, time=0),
  Message('note_on', channel=6, note=79, velocity=99, time=0),
  Message('note_on', channel=7, note=47, velocity=89, time=0),
  Message('note_on', channel=7, note=52, velocity=89, time=0),
  Message('note_on', channel=7, note=55, velocity=89, time=0),
  Message('note_on', channel=9, note=70, velocity=64, time=0),
  Message('note_on', channel=9, note=60, velocity=96, time=0),
  Message('note_on', channel=9, note=70, velocity=0, time=1),
  Message('note_on', channel=9, note=60, velocity=0, time=0),
  Message('note_on', channel=1, note=71, velocity=0, time=99),
  Message('note_on', channel=1, note=76, velocity=0, time=0),
  Message('note_on', channel=1, note=79, velocity=0, time=0),
  Message('note_on', channel=4, note=59, velocity=0, time=0),
  Message('note_on', channel=4, note=64, velocity=0, time=0),
  Message('note_on', channel=4, note=67, velocity=0, time=0),
  Message('note_on', channel=6, note=71, velocity=0, time=0),
  Message('note_on', channel=6, note=76, velocity=0, time=0),
  Message('note_on', channel=6, note=79, velocity=0, time=0),
  Message('note_on', channel=7, note=47, velocity=0, time=0),
  Message('note_on', channel=7, note=52, velocity=0, time=0),
  Message('note_on', channel=7, note=55, velocity=0, time=0),
  Message('note_on', channel=9, note=70, velocity=120, time=20),
  Message('note_on', channel=9, note=70, velocity=0, time=1),
  Message('note_on', channel=0, note=31, velocity=0, time=99),
  Message('note_on', channel=0, note=43, velocity=74, time=20),
  Message('note_on', channel=7, note=43, velocity=99, time=0),
  Message('note_on', channel=9, note=70, velocity=120, time=0),
  Message('note_on', channel=9, note=61, velocity=82, time=0),
  Message('note_on', channel=9, note=70, velocity=0, time=1),
  Message('note_on', channel=9, note=61, velocity=0, time=0),
  Message('note_on', channel=9, note=70, velocity=78, time=119),
  Message('note_on', channel=9, note=61, velocity=82, time=0),
  Message('note_on', channel=9, note=70, velocity=0, time=1),
  Message('note_on', channel=9, note=61, velocity=0, time=0),
  Message('note_on', channel=7, note=43, velocity=0, time=79),
  Message('note_on', channel=9, note=70, velocity=64, time=40),
  Message('note_on', channel=9, note=70, velocity=0, time=1),
  Message('note_on', channel=0, note=43, velocity=0, time=99),
  Message('note_on', channel=0, note=31, velocity=64, time=20),
  Message('note_on', channel=1, note=70, velocity=127, time=0),
  Message('note_on', channel=1, note=74, velocity=127, time=0),
  Message('note_on', channel=1, note=78, velocity=127, time=0),
  Message('note_on', channel=4, note=58, velocity=127, time=0),
  Message('note_on', channel=4, note=62, velocity=127, time=0),
  Message('note_on', channel=4, note=66, velocity=127, time=0),
  Message('note_on', channel=6, note=70, velocity=99, time=0),
  Message('note_on', channel=6, note=74, velocity=99, time=0),
  Message('note_on', channel=6, note=78, velocity=99, time=0),
  Message('note_on', channel=7, note=46, velocity=89, time=0),
  Message('note_on', channel=7, note=50, velocity=89, time=0),
  Message('note_on', channel=7, note=54, velocity=89, time=0),
  Message('note_on', channel=9, note=70, velocity=120, time=0),
  Message('note_on', channel=9, note=60, velocity=96, time=0),
  Message('note_on', channel=9, note=61, velocity=82, time=0),
  Message('note_on', channel=9, note=70, velocity=0, time=1),
  Message('note_on', channel=9, note=60, velocity=0, time=0),
  Message('note_on', channel=9, note=61, velocity=0, time=0),
  Message('note_on', channel=1, note=70, velocity=0, time=99),
  Message('note_on', channel=1, note=74, velocity=0, time=0),
  Message('note_on', channel=1, note=78, velocity=0, time=0),
  Message('note_on', channel=4, note=58, velocity=0, time=0),
  Message('note_on', channel=4, note=62, velocity=0, time=0),
  Message('note_on', channel=4, note=66, velocity=0, time=0),
  Message('note_on', channel=6, note=70, velocity=0, time=0),
  Message('note_on', channel=6, note=74, velocity=0, time=0),
  Message('note_on', channel=6, note=78, velocity=0, time=0),
  Message('note_on', channel=7, note=46, velocity=0, time=0),
  Message('note_on', channel=7, note=50, velocity=0, time=0),
  Message('note_on', channel=7, note=54, velocity=0, time=0),
  Message('note_on', channel=1, note=71, velocity=127, time=20),
  Message('note_on', channel=1, note=76, velocity=127, time=0),
  Message('note_on', channel=1, note=79, velocity=127, time=0),
  Message('note_on', channel=4, note=59, velocity=127, time=0),
  Message('note_on', channel=4, note=64, velocity=127, time=0),
  Message('note_on', channel=4, note=67, velocity=127, time=0),
  Message('note_on', channel=6, note=71, velocity=99, time=0),
  Message('note_on', channel=6, note=76, velocity=99, time=0),
  Message('note_on', channel=6, note=79, velocity=99, time=0),
  Message('note_on', channel=7, note=47, velocity=89, time=0),
  Message('note_on', channel=7, note=52, velocity=89, time=0),
  Message('note_on', channel=7, note=55, velocity=89, time=0),
  Message('note_on', channel=9, note=70, velocity=120, time=0),
  Message('note_on', channel=9, note=60, velocity=54, time=0),
  Message('note_on', channel=9, note=70, velocity=0, time=1),
  Message('note_on', channel=1, note=71, velocity=0, time=99),
  Message('note_on', channel=1, note=76, velocity=0, time=0),
  Message('note_on', channel=1, note=79, velocity=0, time=0),
  Message('note_on', channel=4, note=59, velocity=0, time=0),
  Message('note_on', channel=4, note=64, velocity=0, time=0),
  Message('note_on', channel=4, note=67, velocity=0, time=0),
  Message('note_on', channel=6, note=71, velocity=0, time=0),
  Message('note_on', channel=6, note=76, velocity=0, time=0),
  Message('note_on', channel=6, note=79, velocity=0, time=0),
  Message('note_on', channel=7, note=47, velocity=0, time=0),
  Message('note_on', channel=7, note=52, velocity=0, time=0),
  Message('note_on', channel=7, note=55, velocity=0, time=0),
  Message('note_on', channel=9, note=70, velocity=78, time=20),
  Message('note_on', channel=9, note=70, velocity=0, time=1),
  Message('note_on', channel=9, note=60, velocity=0, time=99),
  Message('note_on', channel=7, note=43, velocity=89, time=20),
  Message('note_on', channel=9, note=70, velocity=64, time=0),
  Message('note_on', channel=9, note=61, velocity=82, time=0),
  Message('note_on', channel=9, note=70, velocity=0, time=1),
  Message('note_on', channel=9, note=61, velocity=0, time=0),
  Message('note_on', channel=0, note=31, velocity=0, time=79),
  Message('note_on', channel=0, note=43, velocity=74, time=40),
  Message('note_on', channel=9, note=70, velocity=120, time=0),
  Message('note_on', channel=9, note=61, velocity=82, time=0),
  Message('note_on', channel=9, note=70, velocity=0, time=1),
  Message('note_on', channel=9, note=61, velocity=0, time=0),
  Message('note_on', channel=7, note=43, velocity=0, time=99),
  Message('note_on', channel=9, note=70, velocity=120, time=20),
  Message('note_on', channel=9, note=70, velocity=0, time=1),
  Message('note_on', channel=0, note=43, velocity=0, time=79),
  Message('note_on', channel=0, note=33, velocity=64, time=40),
  Message('note_on', channel=1, note=74, velocity=127, time=0),
  Message('note_on', channel=1, note=78, velocity=127, time=0),
  Message('note_on', channel=1, note=82, velocity=127, time=0),
  Message('note_on', channel=4, note=62, velocity=127, time=0),
  Message('note_on', channel=4, note=66, velocity=127, time=0),
  Message('note_on', channel=4, note=70, velocity=127, time=0),
  Message('note_on', channel=6, note=74, velocity=99, time=0),
  Message('note_on', channel=6, note=78, velocity=99, time=0),
  Message('note_on', channel=6, note=82, velocity=99, time=0),
  Message('note_on', channel=7, note=50, velocity=89, time=0),
  Message('note_on', channel=7, note=54, velocity=89, time=0),
  Message('note_on', channel=7, note=58, velocity=89, time=0),
  Message('note_on', channel=9, note=70, velocity=78, time=0),
  Message('note_on', channel=9, note=60, velocity=96, time=0),
  Message('note_on', channel=9, note=70, velocity=0, time=1),
  Message('note_on', channel=9, note=60, velocity=0, time=0),
  Message('note_on', channel=1, note=74, velocity=0, time=99),
  Message('note_on', channel=1, note=78, velocity=0, time=0),
  Message('note_on', channel=1, note=82, velocity=0, time=0),
  Message('note_on', channel=4, note=62, velocity=0, time=0),
  Message('note_on', channel=4, note=66, velocity=0, time=0),
  Message('note_on', channel=4, note=70, velocity=0, time=0),
  Message('note_on', channel=6, note=74, velocity=0, time=0),
  Message('note_on', channel=6, note=78, velocity=0, time=0),
  Message('note_on', channel=6, note=82, velocity=0, time=0),
  Message('note_on', channel=7, note=50, velocity=0, time=0),
  Message('note_on', channel=7, note=54, velocity=0, time=0),
  Message('note_on', channel=7, note=58, velocity=0, time=0),
  Message('note_on', channel=1, note=73, velocity=127, time=20),
  Message('note_on', channel=1, note=78, velocity=127, time=0),
  Message('note_on', channel=1, note=81, velocity=127, time=0),
  Message('note_on', channel=4, note=61, velocity=127, time=0),
  Message('note_on', channel=4, note=66, velocity=127, time=0),
  Message('note_on', channel=4, note=69, velocity=127, time=0),
  Message('note_on', channel=6, note=73, velocity=99, time=0),
  Message('note_on', channel=6, note=78, velocity=99, time=0),
  Message('note_on', channel=6, note=81, velocity=99, time=0),
  Message('note_on', channel=7, note=49, velocity=89, time=0),
  Message('note_on', channel=7, note=54, velocity=89, time=0),
  Message('note_on', channel=7, note=57, velocity=89, time=0),
  Message('note_on', channel=9, note=70, velocity=64, time=0),
  Message('note_on', channel=9, note=60, velocity=96, time=0),
  Message('note_on', channel=9, note=70, velocity=0, time=1),
  Message('note_on', channel=9, note=60, velocity=0, time=0),
  Message('note_on', channel=0, note=33, velocity=0, time=79),
  Message('note_on', channel=1, note=73, velocity=0, time=20),
  Message('note_on', channel=1, note=78, velocity=0, time=0),
  Message('note_on', channel=1, note=81, velocity=0, time=0),
  Message('note_on', channel=4, note=61, velocity=0, time=0),
  Message('note_on', channel=4, note=66, velocity=0, time=0),
  Message('note_on', channel=4, note=69, velocity=0, time=0),
  Message('note_on', channel=6, note=73, velocity=0, time=0),
  Message('note_on', channel=6, note=78, velocity=0, time=0),
  Message('note_on', channel=6, note=81, velocity=0, time=0),
  Message('note_on', channel=7, note=49, velocity=0, time=0),
  Message('note_on', channel=7, note=54, velocity=0, time=0),
  Message('note_on', channel=7, note=57, velocity=0, time=0),
  Message('note_on', channel=0, note=45, velocity=74, time=20),
  Message('note_on', channel=9, note=70, velocity=120, time=0),
  Message('note_on', channel=9, note=70, velocity=0, time=1),
  Message('note_on', channel=9, note=70, velocity=120, time=119),
  Message('note_on', channel=9, note=70, velocity=0, time=1),
  Message('note_on', channel=0, note=45, velocity=0, time=79),
  Message('note_on', channel=0, note=33, velocity=64, time=40),
  Message('note_on', channel=1, note=72, velocity=127, time=0),
  Message('note_on', channel=1, note=76, velocity=127, time=0),
  Message('note_on', channel=1, note=80, velocity=127, time=0),
  Message('note_on', channel=4, note=60, velocity=127, time=0),
  Message('note_on', channel=4, note=64, velocity=127, time=0),
  Message('note_on', channel=4, note=68, velocity=127, time=0),
  Message('note_on', channel=6, note=72, velocity=99, time=0),
  Message('note_on', channel=6, note=76, velocity=99, time=0),
  Message('note_on', channel=6, note=80, velocity=99, time=0),
  Message('note_on', channel=7, note=48, velocity=89, time=0),
  Message('note_on', channel=7, note=52, velocity=89, time=0),
  Message('note_on', channel=7, note=56, velocity=89, time=0),
  Message('note_on', channel=9, note=70, velocity=78, time=0),
  Message('note_on', channel=9, note=60, velocity=96, time=0),
  Message('note_on', channel=9, note=70, velocity=0, time=1),
  Message('note_on', channel=9, note=60, velocity=0, time=0),
  Message('note_on', channel=1, note=72, velocity=0, time=99),
  Message('note_on', channel=1, note=76, velocity=0, time=0),
  Message('note_on', channel=1, note=80, velocity=0, time=0),
  Message('note_on', channel=4, note=60, velocity=0, time=0),
  Message('note_on', channel=4, note=64, velocity=0, time=0),
  Message('note_on', channel=4, note=68, velocity=0, time=0),
  Message('note_on', channel=6, note=72, velocity=0, time=0),
  Message('note_on', channel=6, note=76, velocity=0, time=0),
  Message('note_on', channel=6, note=80, velocity=0, time=0),
  Message('note_on', channel=7, note=48, velocity=0, time=0),
  Message('note_on', channel=7, note=52, velocity=0, time=0),
  Message('note_on', channel=7, note=56, velocity=0, time=0),
  Message('note_on', channel=1, note=73, velocity=127, time=20),
  Message('note_on', channel=1, note=77, velocity=127, time=0),
  Message('note_on', channel=1, note=81, velocity=127, time=0),
  Message('note_on', channel=4, note=61, velocity=127, time=0),
  Message('note_on', channel=4, note=65, velocity=127, time=0),
  Message('note_on', channel=4, note=69, velocity=127, time=0),
  Message('note_on', channel=6, note=73, velocity=99, time=0),
  Message('note_on', channel=6, note=77, velocity=99, time=0),
  Message('note_on', channel=6, note=81, velocity=99, time=0),
  Message('note_on', channel=7, note=49, velocity=89, time=0),
  Message('note_on', channel=7, note=53, velocity=89, time=0),
  Message('note_on', channel=7, note=57, velocity=89, time=0),
  Message('note_on', channel=9, note=70, velocity=64, time=0),
  Message('note_on', channel=9, note=60, velocity=96, time=0),
  Message('note_on', channel=9, note=70, velocity=0, time=1),
  Message('note_on', channel=9, note=60, velocity=0, time=0),
  Message('note_on', channel=1, note=73, velocity=0, time=99),
  Message('note_on', channel=1, note=77, velocity=0, time=0),
  Message('note_on', channel=1, note=81, velocity=0, time=0),
  Message('note_on', channel=4, note=61, velocity=0, time=0),
  Message('note_on', channel=4, note=65, velocity=0, time=0),
  Message('note_on', channel=4, note=69, velocity=0, time=0),
  Message('note_on', channel=6, note=73, velocity=0, time=0),
  Message('note_on', channel=6, note=77, velocity=0, time=0),
  Message('note_on', channel=6, note=81, velocity=0, time=0),
  Message('note_on', channel=7, note=49, velocity=0, time=0),
  Message('note_on', channel=7, note=53, velocity=0, time=0),
  Message('note_on', channel=7, note=57, velocity=0, time=0),
  Message('note_on', channel=9, note=70, velocity=120, time=20),
  Message('note_on', channel=9, note=70, velocity=0, time=1),
  Message('note_on', channel=0, note=33, velocity=0, time=99),
  Message('note_on', channel=0, note=45, velocity=74, time=20),
  Message('note_on', channel=7, note=43, velocity=89, time=0),
  Message('note_on', channel=9, note=70, velocity=120, time=0),
  Message('note_on', channel=9, note=61, velocity=82, time=0),
  Message('note_on', channel=9, note=70, velocity=0, time=1),
  Message('note_on', channel=9, note=61, velocity=0, time=0),
  Message('note_on', channel=9, note=70, velocity=78, time=119),
  Message('note_on', channel=9, note=61, velocity=82, time=0),
  Message('note_on', channel=9, note=70, velocity=0, time=1),
  Message('note_on', channel=9, note=61, velocity=0, time=0),
  Message('note_on', channel=7, note=43, velocity=0, time=79),
  Message('note_on', channel=9, note=70, velocity=64, time=40),
  Message('note_on', channel=9, note=70, velocity=0, time=1),
  Message('note_on', channel=0, note=45, velocity=0, time=99),
  Message('note_on', channel=0, note=33, velocity=64, time=20),
  Message('note_on', channel=1, note=72, velocity=127, time=0),
  Message('note_on', channel=1, note=76, velocity=127, time=0),
  Message('note_on', channel=1, note=80, velocity=127, time=0),
  Message('note_on', channel=4, note=60, velocity=127, time=0),
  Message('note_on', channel=4, note=64, velocity=127, time=0),
  Message('note_on', channel=4, note=68, velocity=127, time=0),
  Message('note_on', channel=6, note=72, velocity=99, time=0),
  Message('note_on', channel=6, note=76, velocity=99, time=0),
  Message('note_on', channel=6, note=80, velocity=99, time=0),
  Message('note_on', channel=7, note=48, velocity=89, time=0),
  Message('note_on', channel=7, note=52, velocity=89, time=0),
  Message('note_on', channel=7, note=56, velocity=89, time=0),
  Message('note_on', channel=9, note=70, velocity=120, time=0),
  Message('note_on', channel=9, note=60, velocity=96, time=0),
  Message('note_on', channel=9, note=70, velocity=0, time=1),
  Message('note_on', channel=9, note=60, velocity=0, time=0),
  Message('note_on', channel=1, note=72, velocity=0, time=99),
  Message('note_on', channel=1, note=76, velocity=0, time=0),
  Message('note_on', channel=1, note=80, velocity=0, time=0),
  Message('note_on', channel=4, note=60, velocity=0, time=0),
  Message('note_on', channel=4, note=64, velocity=0, time=0),
  Message('note_on', channel=4, note=68, velocity=0, time=0),
  Message('note_on', channel=6, note=72, velocity=0, time=0),
  Message('note_on', channel=6, note=76, velocity=0, time=0),
  Message('note_on', channel=6, note=80, velocity=0, time=0),
  Message('note_on', channel=7, note=48, velocity=0, time=0),
  Message('note_on', channel=7, note=52, velocity=0, time=0),
  Message('note_on', channel=7, note=56, velocity=0, time=0),
  Message('note_on', channel=1, note=73, velocity=127, time=20),
  Message('note_on', channel=1, note=77, velocity=127, time=0),
  Message('note_on', channel=1, note=81, velocity=127, time=0),
  Message('note_on', channel=4, note=61, velocity=127, time=0),
  Message('note_on', channel=4, note=65, velocity=127, time=0),
  Message('note_on', channel=4, note=69, velocity=127, time=0),
  Message('note_on', channel=6, note=73, velocity=99, time=0),
  Message('note_on', channel=6, note=77, velocity=99, time=0),
  Message('note_on', channel=6, note=81, velocity=99, time=0),
  Message('note_on', channel=7, note=49, velocity=89, time=0),
  Message('note_on', channel=7, note=53, velocity=89, time=0),
  Message('note_on', channel=7, note=57, velocity=89, time=0),
  Message('note_on', channel=9, note=70, velocity=120, time=0),
  Message('note_on', channel=9, note=60, velocity=96, time=0),
  Message('note_on', channel=9, note=70, velocity=0, time=1),
  Message('note_on', channel=9, note=60, velocity=0, time=0),
  Message('note_on', channel=1, note=73, velocity=0, time=99),
  Message('note_on', channel=1, note=77, velocity=0, time=0),
  Message('note_on', channel=1, note=81, velocity=0, time=0),
  Message('note_on', channel=4, note=61, velocity=0, time=0),
  Message('note_on', channel=4, note=65, velocity=0, time=0),
  Message('note_on', channel=4, note=69, velocity=0, time=0),
  Message('note_on', channel=6, note=73, velocity=0, time=0),
  Message('note_on', channel=6, note=77, velocity=0, time=0),
  Message('note_on', channel=6, note=81, velocity=0, time=0),
  Message('note_on', channel=7, note=49, velocity=0, time=0),
  Message('note_on', channel=7, note=53, velocity=0, time=0),
  Message('note_on', channel=7, note=57, velocity=0, time=0),
  Message('note_on', channel=9, note=70, velocity=78, time=20),
  Message('note_on', channel=9, note=70, velocity=0, time=1),
  Message('note_on', channel=7, note=43, velocity=89, time=119),
  Message('note_on', channel=9, note=70, velocity=64, time=0),
  Message('note_on', channel=9, note=61, velocity=82, time=0),
  Message('note_on', channel=9, note=70, velocity=0, time=1),
  Message('note_on', channel=9, note=61, velocity=0, time=0),
  Message('note_on', channel=0, note=33, velocity=0, time=79),
  Message('note_on', channel=0, note=45, velocity=74, time=40),
  Message('note_on', channel=9, note=70, velocity=120, time=0),
  Message('note_on', channel=9, note=61, velocity=82, time=0),
  Message('note_on', channel=9, note=70, velocity=0, time=1),
  Message('note_on', channel=9, note=61, velocity=0, time=0),
  Message('note_on', channel=7, note=43, velocity=0, time=79),
  Message('note_on', channel=9, note=70, velocity=120, time=40),
  Message('note_on', channel=9, note=70, velocity=0, time=1),
  Message('note_on', channel=0, note=45, velocity=0, time=79),
  Message('note_on', channel=0, note=35, velocity=64, time=40),
  Message('note_on', channel=1, note=76, velocity=127, time=0),
  Message('note_on', channel=1, note=80, velocity=127, time=0),
  Message('note_on', channel=1, note=84, velocity=127, time=0),
  Message('note_on', channel=4, note=64, velocity=127, time=0),
  Message('note_on', channel=4, note=68, velocity=127, time=0),
  Message('note_on', channel=4, note=72, velocity=127, time=0),
  Message('note_on', channel=6, note=76, velocity=99, time=0),
  Message('note_on', channel=6, note=80, velocity=99, time=0),
  Message('note_on', channel=6, note=84, velocity=99, time=0),
  Message('note_on', channel=7, note=52, velocity=89, time=0),
  Message('note_on', channel=7, note=56, velocity=89, time=0),
  Message('note_on', channel=7, note=60, velocity=89, time=0),
  Message('note_on', channel=9, note=70, velocity=78, time=0),
  Message('note_on', channel=9, note=60, velocity=96, time=0),
  Message('note_on', channel=9, note=70, velocity=0, time=1),
  Message('note_on', channel=9, note=60, velocity=0, time=0),
  Message('note_on', channel=9, note=60, velocity=96, time=59),
  Message('note_on', channel=9, note=60, velocity=0, time=1),
  Message('note_on', channel=1, note=76, velocity=0, time=39),
  Message('note_on', channel=1, note=80, velocity=0, time=0),
  Message('note_on', channel=1, note=84, velocity=0, time=0),
  Message('note_on', channel=4, note=64, velocity=0, time=0),
  Message('note_on', channel=4, note=68, velocity=0, time=0),
  Message('note_on', channel=4, note=72, velocity=0, time=0),
  Message('note_on', channel=6, note=76, velocity=0, time=0),
  Message('note_on', channel=6, note=80, velocity=0, time=0),
  Message('note_on', channel=6, note=84, velocity=0, time=0),
  Message('note_on', channel=7, note=52, velocity=0, time=0),
  Message('note_on', channel=7, note=56, velocity=0, time=0),
  Message('note_on', channel=7, note=60, velocity=0, time=0),
  Message('note_on', channel=1, note=75, velocity=127, time=20),
  Message('note_on', channel=1, note=80, velocity=127, time=0),
  Message('note_on', channel=1, note=83, velocity=127, time=0),
  Message('note_on', channel=4, note=63, velocity=127, time=0),
  Message('note_on', channel=4, note=68, velocity=127, time=0),
  Message('note_on', channel=4, note=71, velocity=127, time=0),
  Message('note_on', channel=6, note=75, velocity=99, time=0),
  Message('note_on', channel=6, note=80, velocity=99, time=0),
  Message('note_on', channel=6, note=83, velocity=99, time=0),
  Message('note_on', channel=7, note=51, velocity=89, time=0),
  Message('note_on', channel=7, note=56, velocity=89, time=0),
  Message('note_on', channel=7, note=59, velocity=89, time=0),
  Message('note_on', channel=9, note=70, velocity=64, time=0),
  Message('note_on', channel=9, note=60, velocity=96, time=0),
  Message('note_on', channel=9, note=70, velocity=0, time=1),
  Message('note_on', channel=9, note=60, velocity=0, time=0),
  Message('note_on', channel=9, note=60, velocity=96, time=59),
  Message('note_on', channel=9, note=60, velocity=0, time=1),
  Message('note_on', channel=0, note=35, velocity=0, time=19),
  Message('note_on', channel=1, note=75, velocity=0, time=20),
  Message('note_on', channel=1, note=80, velocity=0, time=0),
  Message('note_on', channel=1, note=83, velocity=0, time=0),
  Message('note_on', channel=4, note=63, velocity=0, time=0),
  Message('note_on', channel=4, note=68, velocity=0, time=0),
  Message('note_on', channel=4, note=71, velocity=0, time=0),
  Message('note_on', channel=6, note=75, velocity=0, time=0),
  Message('note_on', channel=6, note=80, velocity=0, time=0),
  Message('note_on', channel=6, note=83, velocity=0, time=0),
  Message('note_on', channel=7, note=51, velocity=0, time=0),
  Message('note_on', channel=7, note=56, velocity=0, time=0),
  Message('note_on', channel=7, note=59, velocity=0, time=0),
  Message('note_on', channel=0, note=47, velocity=74, time=20),
  Message('note_on', channel=9, note=70, velocity=120, time=0),
  Message('note_on', channel=9, note=60, velocity=96, time=0),
  Message('note_on', channel=9, note=70, velocity=0, time=1),
  Message('note_on', channel=9, note=60, velocity=0, time=0),
  Message('note_on', channel=9, note=70, velocity=120, time=119),
  Message('note_on', channel=9, note=60, velocity=96, time=0),
  Message('note_on', channel=9, note=70, velocity=0, time=1),
  Message('note_on', channel=9, note=60, velocity=0, time=0),
  Message('note_on', channel=0, note=47, velocity=0, time=79),
  Message('note_on', channel=0, note=36, velocity=64, time=40),
  Message('note_on', channel=4, note=48, velocity=97, time=0),
  Message('note_on', channel=6, note=60, velocity=99, time=0),
  Message('note_on', channel=7, note=36, velocity=89, time=0),
  Message('note_on', channel=9, note=70, velocity=78, time=0),
  Message('note_on', channel=9, note=61, velocity=82, time=0),
  Message('note_on', channel=12, note=60, velocity=104, time=0),
  Message('note_on', channel=13, note=60, velocity=104, time=0),
  Message('note_on', channel=14, note=48, velocity=99, time=0),
  Message('note_on', channel=9, note=70, velocity=0, time=1),
  Message('note_on', channel=9, note=61, velocity=0, time=0),
  Message('note_on', channel=4, note=48, velocity=0, time=99),
  Message('note_on', channel=6, note=60, velocity=0, time=0),
  Message('note_on', channel=7, note=36, velocity=0, time=0),
  Message('note_on', channel=12, note=60, velocity=0, time=0),
  Message('note_on', channel=13, note=60, velocity=0, time=0),
  Message('note_on', channel=14, note=48, velocity=0, time=0),
  Message('note_on', channel=4, note=55, velocity=97, time=20),
  Message('note_on', channel=6, note=67, velocity=99, time=0),
  Message('note_on', channel=7, note=43, velocity=89, time=0),
  Message('note_on', channel=9, note=70, velocity=64, time=0),
  Message('note_on', channel=12, note=67, velocity=104, time=0),
  Message('note_on', channel=13, note=67, velocity=104, time=0),
  Message('note_on', channel=14, note=55, velocity=99, time=0),
  Message('note_on', channel=9, note=70, velocity=0, time=1),
  Message('note_on', channel=4, note=55, velocity=0, time=99),
  Message('note_on', channel=6, note=67, velocity=0, time=0),
  Message('note_on', channel=7, note=43, velocity=0, time=0),
  Message('note_on', channel=12, note=67, velocity=0, time=0),
  Message('note_on', channel=13, note=67, velocity=0, time=0),
  Message('note_on', channel=14, note=55, velocity=0, time=0),
  Message('note_on', channel=9, note=70, velocity=120, time=20),
  Message('note_on', channel=9, note=61, velocity=82, time=0),
  Message('note_on', channel=9, note=70, velocity=0, time=1),
  Message('note_on', channel=9, note=61, velocity=0, time=0),
  Message('note_on', channel=0, note=36, velocity=0, time=99),
  Message('note_on', channel=0, note=43, velocity=74, time=20),
  Message('note_on', channel=4, note=48, velocity=97, time=0),
  Message('note_on', channel=6, note=60, velocity=99, time=0),
  Message('note_on', channel=7, note=36, velocity=89, time=0),
  Message('note_on', channel=9, note=70, velocity=120, time=0),
  Message('note_on', channel=12, note=60, velocity=104, time=0),
  Message('note_on', channel=13, note=60, velocity=104, time=0),
  Message('note_on', channel=14, note=48, velocity=99, time=0),
  Message('note_on', channel=9, note=70, velocity=0, time=1),
  Message('note_on', channel=4, note=48, velocity=0, time=99),
  Message('note_on', channel=6, note=60, velocity=0, time=0),
  Message('note_on', channel=7, note=36, velocity=0, time=0),
  Message('note_on', channel=12, note=60, velocity=0, time=0),
  Message('note_on', channel=13, note=60, velocity=0, time=0),
  Message('note_on', channel=14, note=48, velocity=0, time=0),
  Message('note_on', channel=4, note=54, velocity=97, time=20),
  Message('note_on', channel=6, note=66, velocity=99, time=0),
  Message('note_on', channel=7, note=42, velocity=89, time=0),
  Message('note_on', channel=9, note=70, velocity=78, time=0),
  Message('note_on', channel=9, note=60, velocity=96, time=0),
  Message('note_on', channel=12, note=66, velocity=104, time=0),
  Message('note_on', channel=13, note=66, velocity=104, time=0),
  Message('note_on', channel=14, note=54, velocity=99, time=0),
  Message('note_on', channel=9, note=70, velocity=0, time=1),
  Message('note_on', channel=9, note=60, velocity=0, time=0),
  Message('note_on', channel=4, note=54, velocity=0, time=99),
  Message('note_on', channel=6, note=66, velocity=0, time=0),
  Message('note_on', channel=7, note=42, velocity=0, time=0),
  Message('note_on', channel=12, note=66, velocity=0, time=0),
  Message('note_on', channel=13, note=66, velocity=0, time=0),
  Message('note_on', channel=14, note=54, velocity=0, time=0),
  Message('note_on', channel=9, note=70, velocity=64, time=20),
  Message('note_on', channel=9, note=70, velocity=0, time=1),
  Message('note_on', channel=0, note=43, velocity=0, time=99),
  Message('note_on', channel=0, note=42, velocity=64, time=20),
  Message('note_on', channel=4, note=48, velocity=97, time=0),
  Message('note_on', channel=6, note=60, velocity=99, time=0),
  Message('note_on', channel=7, note=36, velocity=89, time=0),
  Message('note_on', channel=9, note=70, velocity=120, time=0),
  Message('note_on', channel=9, note=61, velocity=54, time=0),
  Message('note_on', channel=12, note=60, velocity=104, time=0),
  Message('note_on', channel=13, note=60, velocity=104, time=0),
  Message('note_on', channel=14, note=48, velocity=99, time=0),
  Message('note_on', channel=9, note=70, velocity=0, time=1),
  Message('note_on', channel=9, note=61, velocity=0, time=0),
  Message('note_on', channel=4, note=48, velocity=0, time=99),
  Message('note_on', channel=6, note=60, velocity=0, time=0),
  Message('note_on', channel=7, note=36, velocity=0, time=0),
  Message('note_on', channel=12, note=60, velocity=0, time=0),
  Message('note_on', channel=13, note=60, velocity=0, time=0),
  Message('note_on', channel=14, note=48, velocity=0, time=0),
  Message('note_on', channel=4, note=51, velocity=97, time=20),
  Message('note_on', channel=6, note=63, velocity=99, time=0),
  Message('note_on', channel=7, note=39, velocity=89, time=0),
  Message('note_on', channel=9, note=70, velocity=120, time=0),
  Message('note_on', channel=9, note=61, velocity=82, time=0),
  Message('note_on', channel=12, note=63, velocity=104, time=0),
  Message('note_on', channel=13, note=63, velocity=104, time=0),
  Message('note_on', channel=14, note=51, velocity=99, time=0),
  Message('note_on', channel=9, note=70, velocity=0, time=1),
  Message('note_on', channel=9, note=61, velocity=0, time=0),
  Message('note_on', channel=0, note=42, velocity=0, time=99),
  Message('note_on', channel=4, note=51, velocity=0, time=0),
  Message('note_on', channel=6, note=63, velocity=0, time=0),
  Message('note_on', channel=7, note=39, velocity=0, time=0),
  Message('note_on', channel=12, note=63, velocity=0, time=0),
  Message('note_on', channel=13, note=63, velocity=0, time=0),
  Message('note_on', channel=14, note=51, velocity=0, time=0),
  Message('note_on', channel=0, note=41, velocity=64, time=20),
  Message('note_on', channel=9, note=70, velocity=78, time=0),
  Message('note_on', channel=9, note=61, velocity=82, time=0),
  Message('note_on', channel=9, note=70, velocity=0, time=1),
  Message('note_on', channel=9, note=61, velocity=0, time=0),
  Message('note_on', channel=4, note=48, velocity=97, time=119),
  Message('note_on', channel=6, note=60, velocity=99, time=0),
  Message('note_on', channel=7, note=36, velocity=89, time=0),
  Message('note_on', channel=9, note=70, velocity=64, time=0),
  Message('note_on', channel=9, note=60, velocity=82, time=0),
  Message('note_on', channel=12, note=60, velocity=104, time=0),
  Message('note_on', channel=13, note=60, velocity=104, time=0),
  Message('note_on', channel=14, note=48, velocity=99, time=0),
  Message('note_on', channel=9, note=70, velocity=0, time=1),
  Message('note_on', channel=9, note=60, velocity=0, time=0),
  Message('note_on', channel=4, note=48, velocity=0, time=99),
  Message('note_on', channel=6, note=60, velocity=0, time=0),
  Message('note_on', channel=7, note=36, velocity=0, time=0),
  Message('note_on', channel=12, note=60, velocity=0, time=0),
  Message('note_on', channel=13, note=60, velocity=0, time=0),
  Message('note_on', channel=14, note=48, velocity=0, time=0),
  Message('note_on', channel=4, note=46, velocity=97, time=20),
  Message('note_on', channel=6, note=58, velocity=99, time=0),
  Message('note_on', channel=7, note=34, velocity=89, time=0),
  Message('note_on', channel=9, note=70, velocity=120, time=0),
  Message('note_on', channel=9, note=60, velocity=82, time=0),
  Message('note_on', channel=12, note=58, velocity=104, time=0),
  Message('note_on', channel=13, note=58, velocity=104, time=0),
  Message('note_on', channel=14, note=46, velocity=99, time=0),
  Message('note_on', channel=9, note=70, velocity=0, time=1),
  Message('note_on', channel=9, note=60, velocity=0, time=0),
  Message('note_on', channel=0, note=41, velocity=0, time=99),
  Message('note_on', channel=0, note=39, velocity=64, time=20),
  Message('note_on', channel=9, note=70, velocity=120, time=0),
  Message('note_on', channel=9, note=60, velocity=82, time=0),
  Message('note_on', channel=9, note=70, velocity=0, time=1),
  Message('note_on', channel=9, note=60, velocity=0, time=0),
  Message('note_on', channel=9, note=70, velocity=78, time=119),
  Message('note_on', channel=9, note=60, velocity=82, time=0),
  Message('note_on', channel=9, note=70, velocity=0, time=1),
  Message('note_on', channel=9, note=60, velocity=0, time=0),
  Message('note_on', channel=9, note=70, velocity=64, time=119),
  Message('note_on', channel=9, note=70, velocity=0, time=1),
  Message('note_on', channel=0, note=39, velocity=0, time=99),
  Message('note_on', channel=4, note=46, velocity=0, time=0),
  Message('note_on', channel=6, note=58, velocity=0, time=0),
  Message('note_on', channel=7, note=34, velocity=0, time=0),
  Message('note_on', channel=12, note=58, velocity=0, time=0),
  Message('note_on', channel=13, note=58, velocity=0, time=0),
  Message('note_on', channel=14, note=46, velocity=0, time=0),
  Message('note_on', channel=0, note=34, velocity=64, time=20),
  Message('note_on', channel=4, note=48, velocity=97, time=0),
  Message('note_on', channel=6, note=60, velocity=99, time=0),
  Message('note_on', channel=7, note=36, velocity=89, time=0),
  Message('note_on', channel=9, note=70, velocity=120, time=0),
  Message('note_on', channel=9, note=60, velocity=82, time=0),
  Message('note_on', channel=12, note=60, velocity=104, time=0),
  Message('note_on', channel=13, note=60, velocity=104, time=0),
  Message('note_on', channel=14, note=48, velocity=99, time=0),
  Message('note_on', channel=9, note=70, velocity=0, time=1),
  Message('note_on', channel=9, note=60, velocity=0, time=0),
  Message('note_on', channel=9, note=70, velocity=120, time=119),
  Message('note_on', channel=9, note=60, velocity=82, time=0),
  Message('note_on', channel=9, note=70, velocity=0, time=1),
  Message('note_on', channel=9, note=60, velocity=0, time=0),
  Message('note_on', channel=0, note=34, velocity=0, time=99),
  Message('note_on', channel=4, note=48, velocity=0, time=30),
  Message('note_on', channel=6, note=60, velocity=0, time=0),
  Message('note_on', channel=7, note=36, velocity=0, time=0),
  Message('note_on', channel=12, note=60, velocity=0, time=0),
  Message('note_on', channel=13, note=60, velocity=0, time=0),
  Message('note_on', channel=14, note=48, velocity=0, time=0),
  Message('note_on', channel=0, note=43, velocity=64, time=230),
  Message('note_on', channel=1, note=79, velocity=114, time=0),
  Message('note_on', channel=4, note=67, velocity=117, time=0),
  Message('note_on', channel=6, note=79, velocity=99, time=0),
  Message('note_on', channel=7, note=55, velocity=89, time=0),
  Message('note_on', channel=9, note=40, velocity=92, time=0),
  Message('note_on', channel=9, note=70, velocity=92, time=0),
  Message('note_on', channel=9, note=60, velocity=82, time=0),
  Message('note_on', channel=9, note=40, velocity=0, time=1),
  Message('note_on', channel=9, note=70, velocity=0, time=0),
  Message('note_on', channel=9, note=60, velocity=0, time=0),
  Message('note_on', channel=0, note=43, velocity=0, time=99),
  Message('note_on', channel=1, note=79, velocity=0, time=0),
  Message('note_on', channel=4, note=67, velocity=0, time=0),
  Message('note_on', channel=6, note=79, velocity=0, time=0),
  Message('note_on', channel=7, note=55, velocity=0, time=0),
  Message('note_on', channel=0, note=43, velocity=64, time=140),
  Message('note_on', channel=1, note=79, velocity=114, time=0),
  Message('note_on', channel=4, note=67, velocity=117, time=0),
  Message('note_on', channel=6, note=79, velocity=99, time=0),
  Message('note_on', channel=7, note=55, velocity=89, time=0),
  Message('note_on', channel=9, note=40, velocity=92, time=0),
  Message('note_on', channel=9, note=70, velocity=92, time=0),
  Message('note_on', channel=9, note=60, velocity=82, time=0),
  Message('note_on', channel=9, note=40, velocity=0, time=1),
  Message('note_on', channel=9, note=70, velocity=0, time=0),
  Message('note_on', channel=9, note=60, velocity=0, time=0),
  Message('note_on', channel=0, note=43, velocity=0, time=99),
  Message('note_on', channel=1, note=79, velocity=0, time=0),
  Message('note_on', channel=4, note=67, velocity=0, time=0),
  Message('note_on', channel=6, note=79, velocity=0, time=0),
  Message('note_on', channel=7, note=55, velocity=0, time=0),
  Message('note_on', channel=0, note=43, velocity=64, time=140),
  Message('note_on', channel=1, note=79, velocity=114, time=0),
  Message('note_on', channel=4, note=67, velocity=117, time=0),
  Message('note_on', channel=6, note=79, velocity=99, time=0),
  Message('note_on', channel=7, note=55, velocity=89, time=0),
  Message('note_on', channel=9, note=40, velocity=92, time=0),
  Message('note_on', channel=9, note=70, velocity=92, time=0),
  Message('note_on', channel=9, note=60, velocity=82, time=0),
  Message('note_on', channel=9, note=40, velocity=0, time=1),
  Message('note_on', channel=9, note=70, velocity=0, time=0),
  Message('note_on', channel=9, note=60, velocity=0, time=0),
  Message('note_on', channel=0, note=43, velocity=0, time=99),
  Message('note_on', channel=1, note=79, velocity=0, time=0),
  Message('note_on', channel=4, note=67, velocity=0, time=0),
  Message('note_on', channel=6, note=79, velocity=0, time=0),
  Message('note_on', channel=7, note=55, velocity=0, time=0),
  Message('note_on', channel=0, note=43, velocity=64, time=140),
  Message('note_on', channel=1, note=79, velocity=114, time=0),
  Message('note_on', channel=4, note=67, velocity=117, time=0),
  Message('note_on', channel=6, note=79, velocity=99, time=0),
  Message('note_on', channel=7, note=55, velocity=89, time=0),
  Message('note_on', channel=9, note=40, velocity=92, time=0),
  Message('note_on', channel=9, note=70, velocity=92, time=0),
  Message('note_on', channel=9, note=60, velocity=82, time=0),
  Message('note_on', channel=9, note=40, velocity=0, time=1),
  Message('note_on', channel=9, note=70, velocity=0, time=0),
  Message('note_on', channel=9, note=60, velocity=0, time=0),
  Message('note_on', channel=0, note=43, velocity=0, time=99),
  Message('note_on', channel=1, note=79, velocity=0, time=0),
  Message('note_on', channel=4, note=67, velocity=0, time=0),
  Message('note_on', channel=6, note=79, velocity=0, time=0),
  Message('note_on', channel=7, note=55, velocity=0, time=0),
  Message('note_on', channel=0, note=43, velocity=64, time=140),
  Message('note_on', channel=1, note=79, velocity=114, time=0),
  Message('note_on', channel=4, note=67, velocity=117, time=0),
  Message('note_on', channel=6, note=79, velocity=99, time=0),
  Message('note_on', channel=7, note=55, velocity=89, time=0),
  Message('note_on', channel=9, note=40, velocity=92, time=0),
  Message('note_on', channel=9, note=70, velocity=92, time=0),
  Message('note_on', channel=9, note=60, velocity=82, time=0),
  Message('note_on', channel=9, note=40, velocity=0, time=1),
  Message('note_on', channel=9, note=70, velocity=0, time=0),
  Message('note_on', channel=9, note=60, velocity=0, time=0),
  Message('note_on', channel=0, note=43, velocity=0, time=99),
  Message('note_on', channel=1, note=79, velocity=0, time=0),
  Message('note_on', channel=4, note=67, velocity=0, time=0),
  Message('note_on', channel=6, note=79, velocity=0, time=0),
  Message('note_on', channel=7, note=55, velocity=0, time=0),
  Message('note_on', channel=0, note=50, velocity=74, time=140),
  Message('note_on', channel=0, note=43, velocity=74, time=0),
  Message('note_on', channel=1, note=71, velocity=127, time=0),
  Message('note_on', channel=1, note=73, velocity=127, time=0),
  Message('note_on', channel=1, note=75, velocity=127, time=0),
  Message('note_on', channel=1, note=79, velocity=127, time=0),
  Message('note_on', channel=4, note=59, velocity=127, time=0),
  Message('note_on', channel=4, note=61, velocity=127, time=0),
  Message('note_on', channel=4, note=63, velocity=127, time=0),
  Message('note_on', channel=4, note=67, velocity=127, time=0),
  Message('note_on', channel=6, note=71, velocity=99, time=0),
  Message('note_on', channel=6, note=73, velocity=99, time=0),
  Message('note_on', channel=6, note=75, velocity=99, time=0),
  Message('note_on', channel=6, note=79, velocity=99, time=0),
  Message('note_on', channel=7, note=47, velocity=89, time=0),
  Message('note_on', channel=7, note=49, velocity=89, time=0),
  Message('note_on', channel=7, note=51, velocity=89, time=0),
  Message('note_on', channel=7, note=55, velocity=89, time=0),
  Message('note_on', channel=9, note=40, velocity=120, time=0),
  Message('note_on', channel=9, note=70, velocity=120, time=0),
  Message('note_on', channel=9, note=61, velocity=110, time=0),
  Message('note_on', channel=9, note=60, velocity=110, time=0),
  Message('note_on', channel=9, note=40, velocity=0, time=1),
  Message('note_on', channel=9, note=70, velocity=0, time=0),
  Message('note_on', channel=9, note=61, velocity=0, time=0),
  Message('note_on', channel=9, note=60, velocity=0, time=0),
  Message('note_on', channel=0, note=50, velocity=0, time=99),
  Message('note_on', channel=0, note=43, velocity=0, time=0),
  Message('note_on', channel=1, note=71, velocity=0, time=0),
  Message('note_on', channel=1, note=73, velocity=0, time=0),
  Message('note_on', channel=1, note=75, velocity=0, time=0),
  Message('note_on', channel=1, note=79, velocity=0, time=0),
  Message('note_on', channel=4, note=59, velocity=0, time=0),
  Message('note_on', channel=4, note=61, velocity=0, time=0),
  Message('note_on', channel=4, note=63, velocity=0, time=0),
  Message('note_on', channel=4, note=67, velocity=0, time=0),
  Message('note_on', channel=6, note=71, velocity=0, time=0),
  Message('note_on', channel=6, note=73, velocity=0, time=0),
  Message('note_on', channel=6, note=75, velocity=0, time=0),
  Message('note_on', channel=6, note=79, velocity=0, time=0),
  Message('note_on', channel=7, note=47, velocity=0, time=0),
  Message('note_on', channel=7, note=49, velocity=0, time=0),
  Message('note_on', channel=7, note=51, velocity=0, time=0),
  Message('note_on', channel=7, note=55, velocity=0, time=0),
  Message('note_on', channel=0, note=50, velocity=74, time=20),
  Message('note_on', channel=0, note=43, velocity=74, time=0),
  Message('note_on', channel=1, note=71, velocity=127, time=0),
  Message('note_on', channel=1, note=73, velocity=127, time=0),
  Message('note_on', channel=1, note=75, velocity=127, time=0),
  Message('note_on', channel=1, note=79, velocity=127, time=0),
  Message('note_on', channel=4, note=59, velocity=127, time=0),
  Message('note_on', channel=4, note=61, velocity=127, time=0),
  Message('note_on', channel=4, note=63, velocity=127, time=0),
  Message('note_on', channel=4, note=67, velocity=127, time=0),
  Message('note_on', channel=6, note=71, velocity=99, time=0),
  Message('note_on', channel=6, note=73, velocity=99, time=0),
  Message('note_on', channel=6, note=75, velocity=99, time=0),
  Message('note_on', channel=6, note=79, velocity=99, time=0),
  Message('note_on', channel=7, note=47, velocity=89, time=0),
  Message('note_on', channel=7, note=49, velocity=89, time=0),
  Message('note_on', channel=7, note=51, velocity=89, time=0),
  Message('note_on', channel=7, note=55, velocity=89, time=0),
  Message('note_on', channel=9, note=40, velocity=120, time=0),
  Message('note_on', channel=9, note=70, velocity=120, time=0),
  Message('note_on', channel=9, note=61, velocity=110, time=0),
  Message('note_on', channel=9, note=60, velocity=110, time=0),
  Message('note_on', channel=9, note=40, velocity=0, time=1),
  Message('note_on', channel=9, note=70, velocity=0, time=0),
  Message('note_on', channel=9, note=61, velocity=0, time=0),
  Message('note_on', channel=9, note=60, velocity=0, time=0),
  Message('note_on', channel=0, note=50, velocity=0, time=99),
  Message('note_on', channel=0, note=43, velocity=0, time=0),
  Message('note_on', channel=1, note=71, velocity=0, time=0),
  Message('note_on', channel=1, note=73, velocity=0, time=0),
  Message('note_on', channel=1, note=75, velocity=0, time=0),
  Message('note_on', channel=1, note=79, velocity=0, time=0),
  Message('note_on', channel=4, note=59, velocity=0, time=0),
  Message('note_on', channel=4, note=61, velocity=0, time=0),
  Message('note_on', channel=4, note=63, velocity=0, time=0),
  Message('note_on', channel=4, note=67, velocity=0, time=0),
  Message('note_on', channel=6, note=71, velocity=0, time=0),
  Message('note_on', channel=6, note=73, velocity=0, time=0),
  Message('note_on', channel=6, note=75, velocity=0, time=0),
  Message('note_on', channel=6, note=79, velocity=0, time=0),
  Message('note_on', channel=7, note=47, velocity=0, time=0),
  Message('note_on', channel=7, note=49, velocity=0, time=0),
  Message('note_on', channel=7, note=51, velocity=0, time=0),
  Message('note_on', channel=7, note=55, velocity=0, time=0),
  Message('note_on', channel=0, note=36, velocity=64, time=260),
  Message('note_on', channel=1, note=72, velocity=104, time=0),
  Message('note_on', channel=4, note=60, velocity=104, time=0),
  Message('note_on', channel=6, note=72, velocity=99, time=0),
  Message('note_on', channel=7, note=48, velocity=89, time=0),
  Message('note_on', channel=9, note=42, velocity=92, time=0),
  Message('note_on', channel=9, note=70, velocity=78, time=0),
  Message('note_on', channel=9, note=61, velocity=68, time=0),
  Message('note_on', channel=9, note=42, velocity=0, time=1),
  Message('note_on', channel=9, note=70, velocity=0, time=0),
  Message('note_on', channel=9, note=61, velocity=0, time=0),
  Message('note_on', channel=1, note=72, velocity=0, time=99),
  Message('note_on', channel=4, note=60, velocity=0, time=0),
  Message('note_on', channel=6, note=72, velocity=0, time=0),
  Message('note_on', channel=7, note=48, velocity=0, time=0),
  Message('note_on', channel=1, note=79, velocity=104, time=20),
  Message('note_on', channel=4, note=67, velocity=104, time=0),
  Message('note_on', channel=6, note=79, velocity=99, time=0),
  Message('note_on', channel=7, note=55, velocity=89, time=0),
  Message('note_on', channel=9, note=70, velocity=64, time=0),
  Message('note_on', channel=9, note=61, velocity=68, time=0),
  Message('note_on', channel=9, note=70, velocity=0, time=1),
  Message('note_on', channel=9, note=61, velocity=0, time=0),
  Message('note_on', channel=1, note=79, velocity=0, time=99),
  Message('note_on', channel=4, note=67, velocity=0, time=0),
  Message('note_on', channel=6, note=79, velocity=0, time=0),
  Message('note_on', channel=7, note=55, velocity=0, time=0),
  Message('note_on', channel=9, note=70, velocity=120, time=20),
  Message('note_on', channel=9, note=70, velocity=0, time=1),
  Message('note_on', channel=0, note=36, velocity=0, time=99),
  Message('note_on', channel=0, note=43, velocity=64, time=20),
  Message('note_on', channel=1, note=72, velocity=104, time=0),
  Message('note_on', channel=4, note=60, velocity=104, time=0),
  Message('note_on', channel=6, note=72, velocity=99, time=0),
  Message('note_on', channel=7, note=48, velocity=89, time=0),
  Message('note_on', channel=9, note=70, velocity=120, time=0),
  Message('note_on', channel=9, note=70, velocity=0, time=1),
  Message('note_on', channel=1, note=72, velocity=0, time=99),
  Message('note_on', channel=4, note=60, velocity=0, time=0),
  Message('note_on', channel=6, note=72, velocity=0, time=0),
  Message('note_on', channel=7, note=48, velocity=0, time=0),
  Message('note_on', channel=1, note=78, velocity=104, time=20),
  Message('note_on', channel=4, note=66, velocity=104, time=0),
  Message('note_on', channel=6, note=78, velocity=99, time=0),
  Message('note_on', channel=7, note=54, velocity=89, time=0),
  Message('note_on', channel=9, note=42, velocity=92, time=0),
  Message('note_on', channel=9, note=70, velocity=78, time=0),
  Message('note_on', channel=9, note=60, velocity=96, time=0),
  Message('note_on', channel=9, note=42, velocity=0, time=1),
  Message('note_on', channel=9, note=70, velocity=0, time=0),
  Message('note_on', channel=9, note=60, velocity=0, time=0),
  Message('note_on', channel=1, note=78, velocity=0, time=99),
  Message('note_on', channel=4, note=66, velocity=0, time=0),
  Message('note_on', channel=6, note=78, velocity=0, time=0),
  Message('note_on', channel=7, note=54, velocity=0, time=0),
  Message('note_on', channel=9, note=70, velocity=64, time=20),
  Message('note_on', channel=9, note=70, velocity=0, time=1),
  Message('note_on', channel=0, note=43, velocity=0, time=99),
  Message('note_on', channel=0, note=42, velocity=64, time=20),
  Message('note_on', channel=1, note=72, velocity=104, time=0),
  Message('note_on', channel=4, note=60, velocity=104, time=0),
  Message('note_on', channel=6, note=72, velocity=99, time=0),
  Message('note_on', channel=7, note=48, velocity=89, time=0),
  Message('note_on', channel=9, note=70, velocity=120, time=0),
  Message('note_on', channel=9, note=61, velocity=68, time=0),
  Message('note_on', channel=9, note=70, velocity=0, time=1),
  Message('note_on', channel=9, note=61, velocity=0, time=0),
  Message('note_on', channel=1, note=72, velocity=0, time=99),
  Message('note_on', channel=4, note=60, velocity=0, time=0),
  Message('note_on', channel=6, note=72, velocity=0, time=0),
  Message('note_on', channel=7, note=48, velocity=0, time=0),
  Message('note_on', channel=1, note=75, velocity=104, time=20),
  Message('note_on', channel=4, note=63, velocity=104, time=0),
  Message('note_on', channel=6, note=75, velocity=99, time=0),
  Message('note_on', channel=7, note=51, velocity=89, time=0),
  Message('note_on', channel=9, note=70, velocity=120, time=0),
  Message('note_on', channel=9, note=60, velocity=96, time=0),
  Message('note_on', channel=9, note=70, velocity=0, time=1),
  Message('note_on', channel=9, note=60, velocity=0, time=0),
  Message('note_on', channel=0, note=42, velocity=0, time=99),
  Message('note_on', channel=1, note=75, velocity=0, time=0),
  Message('note_on', channel=4, note=63, velocity=0, time=0),
  Message('note_on', channel=6, note=75, velocity=0, time=0),
  Message('note_on', channel=7, note=51, velocity=0, time=0),
  Message('note_on', channel=0, note=41, velocity=64, time=20),
  Message('note_on', channel=9, note=42, velocity=92, time=0),
  Message('note_on', channel=9, note=70, velocity=78, time=0),
  Message('note_on', channel=9, note=42, velocity=0, time=1),
  Message('note_on', channel=9, note=70, velocity=0, time=0),
  Message('note_on', channel=1, note=72, velocity=104, time=119),
  Message('note_on', channel=4, note=60, velocity=104, time=0),
  Message('note_on', channel=6, note=72, velocity=99, time=0),
  Message('note_on', channel=7, note=48, velocity=89, time=0),
  Message('note_on', channel=9, note=70, velocity=64, time=0),
  Message('note_on', channel=9, note=61, velocity=68, time=0),
  Message('note_on', channel=9, note=70, velocity=0, time=1),
  Message('note_on', channel=9, note=61, velocity=0, time=0),
  Message('note_on', channel=1, note=72, velocity=0, time=99),
  Message('note_on', channel=4, note=60, velocity=0, time=0),
  Message('note_on', channel=6, note=72, velocity=0, time=0),
  Message('note_on', channel=7, note=48, velocity=0, time=0),
  Message('note_on', channel=1, note=70, velocity=104, time=20),
  Message('note_on', channel=4, note=58, velocity=104, time=0),
  Message('note_on', channel=6, note=70, velocity=99, time=0),
  Message('note_on', channel=7, note=46, velocity=89, time=0),
  Message('note_on', channel=9, note=70, velocity=120, time=0),
  Message('note_on', channel=9, note=61, velocity=68, time=0),
  Message('note_on', channel=9, note=70, velocity=0, time=1),
  Message('note_on', channel=9, note=61, velocity=0, time=0),
  Message('note_on', channel=0, note=41, velocity=0, time=99),
  Message('note_on', channel=0, note=39, velocity=64, time=20),
  Message('note_on', channel=9, note=70, velocity=120, time=0),
  Message('note_on', channel=9, note=60, velocity=96, time=0),
  Message('note_on', channel=9, note=70, velocity=0, time=1),
  Message('note_on', channel=9, note=60, velocity=0, time=0),
  Message('note_on', channel=9, note=42, velocity=92, time=119),
  Message('note_on', channel=9, note=70, velocity=78, time=0),
  Message('note_on', channel=9, note=61, velocity=68, time=0),
  Message('note_on', channel=9, note=42, velocity=0, time=1),
  Message('note_on', channel=9, note=70, velocity=0, time=0),
  Message('note_on', channel=9, note=61, velocity=0, time=0),
  Message('note_on', channel=9, note=70, velocity=64, time=119),
  Message('note_on', channel=9, note=70, velocity=0, time=1),
  Message('note_on', channel=0, note=39, velocity=0, time=99),
  Message('note_on', channel=1, note=70, velocity=0, time=0),
  Message('note_on', channel=4, note=58, velocity=0, time=0),
  Message('note_on', channel=6, note=70, velocity=0, time=0),
  Message('note_on', channel=7, note=46, velocity=0, time=0),
  Message('note_on', channel=0, note=34, velocity=64, time=20),
  Message('note_on', channel=1, note=72, velocity=104, time=0),
  Message('note_on', channel=4, note=60, velocity=104, time=0),
  Message('note_on', channel=6, note=72, velocity=99, time=0),
  Message('note_on', channel=7, note=48, velocity=89, time=0),
  Message('note_on', channel=9, note=70, velocity=120, time=0),
  Message('note_on', channel=9, note=61, velocity=68, time=0),
  Message('note_on', channel=9, note=70, velocity=0, time=1),
  Message('note_on', channel=9, note=61, velocity=0, time=0),
  Message('note_on', channel=9, note=70, velocity=120, time=119),
  Message('note_on', channel=9, note=70, velocity=0, time=1),
  Message('note_on', channel=0, note=34, velocity=0, time=99),
  Message('note_on', channel=0, note=36, velocity=64, time=20),
  Message('note_on', channel=9, note=42, velocity=92, time=0),
  Message('note_on', channel=9, note=70, velocity=78, time=0),
  Message('note_on', channel=9, note=60, velocity=96, time=0),
  Message('note_on', channel=9, note=42, velocity=0, time=1),
  Message('note_on', channel=9, note=70, velocity=0, time=0),
  Message('note_on', channel=9, note=60, velocity=0, time=0),
  Message('note_on', channel=9, note=60, velocity=96, time=59),
  Message('note_on', channel=9, note=60, velocity=0, time=1),
  Message('note_on', channel=9, note=70, velocity=64, time=59),
  Message('note_on', channel=9, note=60, velocity=96, time=0),
  Message('note_on', channel=9, note=70, velocity=0, time=1),
  Message('note_on', channel=9, note=60, velocity=0, time=0),
  Message('note_on', channel=9, note=60, velocity=96, time=59),
  Message('note_on', channel=9, note=60, velocity=0, time=1),
  Message('note_on', channel=9, note=70, velocity=120, time=59),
  Message('note_on', channel=9, note=60, velocity=82, time=0),
  Message('note_on', channel=9, note=70, velocity=0, time=1),
  Message('note_on', channel=9, note=60, velocity=0, time=0),
  Message('note_on', channel=9, note=60, velocity=82, time=59),
  Message('note_on', channel=9, note=60, velocity=0, time=1),
  Message('note_on', channel=0, note=36, velocity=0, time=39),
  Message('note_on', channel=0, note=43, velocity=74, time=20),
  Message('note_on', channel=9, note=70, velocity=120, time=0),
  Message('note_on', channel=9, note=60, velocity=82, time=0),
  Message('note_on', channel=9, note=70, velocity=0, time=1),
  Message('note_on', channel=9, note=60, velocity=0, time=0),
  Message('note_on', channel=9, note=60, velocity=82, time=59),
  Message('note_on', channel=9, note=60, velocity=0, time=1),
  Message('note_on', channel=9, note=42, velocity=92, time=59),
  Message('note_on', channel=9, note=70, velocity=78, time=0),
  Message('note_on', channel=9, note=60, velocity=68, time=0),
  Message('note_on', channel=9, note=42, velocity=0, time=1),
  Message('note_on', channel=9, note=70, velocity=0, time=0),
  Message('note_on', channel=9, note=60, velocity=0, time=0),
  Message('note_on', channel=9, note=60, velocity=68, time=59),
  Message('note_on', channel=9, note=60, velocity=0, time=1),
  Message('note_on', channel=9, note=70, velocity=64, time=59),
  Message('note_on', channel=9, note=60, velocity=68, time=0),
  Message('note_on', channel=9, note=70, velocity=0, time=1),
  Message('note_on', channel=9, note=60, velocity=0, time=0),
  Message('note_on', channel=9, note=60, velocity=68, time=59),
  Message('note_on', channel=9, note=60, velocity=0, time=1),
  Message('note_on', channel=0, note=43, velocity=0, time=39),
  Message('note_on', channel=0, note=42, velocity=64, time=20),
  Message('note_on', channel=9, note=70, velocity=120, time=0),
  Message('note_on', channel=9, note=60, velocity=54, time=0),
  Message('note_on', channel=9, note=70, velocity=0, time=1),
  Message('note_on', channel=9, note=60, velocity=0, time=0),
  Message('note_on', channel=9, note=60, velocity=54, time=59),
  Message('note_on', channel=9, note=60, velocity=0, time=1),
  Message('note_on', channel=9, note=70, velocity=120, time=59),
  Message('note_on', channel=9, note=60, velocity=54, time=0),
  Message('note_on', channel=9, note=70, velocity=0, time=1),
  Message('note_on', channel=9, note=60, velocity=0, time=0),
  Message('note_on', channel=9, note=60, velocity=54, time=59),
  Message('note_on', channel=9, note=60, velocity=0, time=1),
  Message('note_on', channel=0, note=42, velocity=0, time=39),
  Message('note_on', channel=0, note=41, velocity=64, time=20),
  Message('note_on', channel=9, note=46, velocity=92, time=0),
  Message('note_on', channel=9, note=70, velocity=78, time=0),
  Message('note_on', channel=9, note=60, velocity=54, time=0),
  Message('note_on', channel=9, note=46, velocity=0, time=1),
  Message('note_on', channel=9, note=70, velocity=0, time=0),
  Message('note_on', channel=9, note=60, velocity=0, time=0),
  Message('note_on', channel=9, note=60, velocity=54, time=59),
  Message('note_on', channel=9, note=60, velocity=0, time=1),
  Message('note_on', channel=9, note=70, velocity=64, time=59),
  Message('note_on', channel=9, note=60, velocity=54, time=0),
  Message('note_on', channel=9, note=70, velocity=0, time=1),
  Message('note_on', channel=9, note=60, velocity=0, time=0),
  Message('note_on', channel=9, note=60, velocity=54, time=59),
  Message('note_on', channel=9, note=60, velocity=0, time=1),
  Message('note_on', channel=9, note=70, velocity=120, time=59),
  Message('note_on', channel=9, note=60, velocity=54, time=0),
  Message('note_on', channel=9, note=70, velocity=0, time=1),
  Message('note_on', channel=9, note=60, velocity=0, time=0),
  Message('note_on', channel=9, note=60, velocity=54, time=59),
  Message('note_on', channel=9, note=60, velocity=0, time=1),
  Message('note_on', channel=0, note=41, velocity=0, time=39),
  Message('note_on', channel=0, note=39, velocity=64, time=20),
  Message('note_on', channel=9, note=70, velocity=120, time=0),
  Message('note_on', channel=9, note=60, velocity=54, time=0),
  Message('note_on', channel=9, note=70, velocity=0, time=1),
  Message('note_on', channel=9, note=60, velocity=0, time=0),
  Message('note_on', channel=9, note=60, velocity=54, time=59),
  Message('note_on', channel=9, note=60, velocity=0, time=1),
  Message('note_on', channel=1, note=72, velocity=0, time=59),
  Message('note_on', channel=4, note=60, velocity=0, time=0),
  Message('note_on', channel=6, note=72, velocity=0, time=0),
  Message('note_on', channel=7, note=48, velocity=0, time=0),
  Message('note_on', channel=9, note=46, velocity=92, time=0),
  Message('note_on', channel=9, note=70, velocity=78, time=0),
  Message('note_on', channel=9, note=61, velocity=68, time=0),
  Message('note_on', channel=9, note=46, velocity=0, time=1),
  Message('note_on', channel=9, note=70, velocity=0, time=0),
  Message('note_on', channel=9, note=61, velocity=0, time=0),
  Message('note_on', channel=9, note=70, velocity=64, time=119),
  Message('note_on', channel=9, note=60, velocity=82, time=0),
  Message('note_on', channel=9, note=70, velocity=0, time=1),
  Message('note_on', channel=9, note=60, velocity=0, time=0),
  Message('note_on', channel=0, note=39, velocity=0, time=99),
  Message('note_on', channel=0, note=34, velocity=64, time=20),
  Message('note_on', channel=9, note=70, velocity=120, time=0),
  Message('note_on', channel=9, note=61, velocity=68, time=0),
  Message('note_on', channel=9, note=70, velocity=0, time=1),
  Message('note_on', channel=9, note=61, velocity=0, time=0),
  Message('note_on', channel=9, note=70, velocity=120, time=119),
  Message('note_on', channel=9, note=60, velocity=82, time=0),
  Message('note_on', channel=9, note=70, velocity=0, time=1),
  Message('note_on', channel=9, note=60, velocity=0, time=0),
  Message('note_on', channel=0, note=34, velocity=0, time=99),
  Message('note_on', channel=0, note=36, velocity=64, time=20),
  Message('note_on', channel=1, note=72, velocity=104, time=0),
  Message('note_on', channel=4, note=60, velocity=104, time=0),
  Message('note_on', channel=6, note=72, velocity=99, time=0),
  Message('note_on', channel=7, note=48, velocity=89, time=0),
  Message('note_on', channel=9, note=42, velocity=92, time=0),
  Message('note_on', channel=9, note=70, velocity=78, time=0),
  Message('note_on', channel=9, note=61, velocity=68, time=0),
  Message('note_on', channel=9, note=42, velocity=0, time=1),
  Message('note_on', channel=9, note=70, velocity=0, time=0),
  Message('note_on', channel=9, note=61, velocity=0, time=0),
  Message('note_on', channel=1, note=72, velocity=0, time=99),
  Message('note_on', channel=4, note=60, velocity=0, time=0),
  Message('note_on', channel=6, note=72, velocity=0, time=0),
  Message('note_on', channel=7, note=48, velocity=0, time=0),
  Message('note_on', channel=1, note=79, velocity=104, time=20),
  Message('note_on', channel=4, note=67, velocity=104, time=0),
  Message('note_on', channel=6, note=79, velocity=99, time=0),
  Message('note_on', channel=7, note=55, velocity=89, time=0),
  Message('note_on', channel=9, note=70, velocity=64, time=0),
  Message('note_on', channel=9, note=70, velocity=0, time=1),
  Message('note_on', channel=1, note=79, velocity=0, time=99),
  Message('note_on', channel=4, note=67, velocity=0, time=0),
  Message('note_on', channel=6, note=79, velocity=0, time=0),
  Message('note_on', channel=7, note=55, velocity=0, time=0),
  Message('note_on', channel=9, note=70, velocity=120, time=20),
  Message('note_on', channel=9, note=61, velocity=68, time=0),
  Message('note_on', channel=9, note=70, velocity=0, time=1),
  Message('note_on', channel=9, note=61, velocity=0, time=0),
  Message('note_on', channel=0, note=36, velocity=0, time=99),
  Message('note_on', channel=0, note=43, velocity=74, time=20),
  Message('note_on', channel=1, note=72, velocity=104, time=0),
  Message('note_on', channel=4, note=60, velocity=104, time=0),
  Message('note_on', channel=6, note=72, velocity=99, time=0),
  Message('note_on', channel=7, note=48, velocity=89, time=0),
  Message('note_on', channel=9, note=70, velocity=120, time=0),
  Message('note_on', channel=9, note=70, velocity=0, time=1),
  Message('note_on', channel=1, note=72, velocity=0, time=99),
  Message('note_on', channel=4, note=60, velocity=0, time=0),
  Message('note_on', channel=6, note=72, velocity=0, time=0),
  Message('note_on', channel=7, note=48, velocity=0, time=0),
  Message('note_on', channel=1, note=78, velocity=104, time=20),
  Message('note_on', channel=4, note=66, velocity=104, time=0),
  Message('note_on', channel=6, note=78, velocity=99, time=0),
  Message('note_on', channel=7, note=54, velocity=89, time=0),
  Message('note_on', channel=9, note=42, velocity=92, time=0),
  Message('note_on', channel=9, note=70, velocity=78, time=0),
  Message('note_on', channel=9, note=60, velocity=96, time=0),
  Message('note_on', channel=9, note=42, velocity=0, time=1),
  Message('note_on', channel=9, note=70, velocity=0, time=0),
  Message('note_on', channel=9, note=60, velocity=0, time=0),
  Message('note_on', channel=1, note=78, velocity=0, time=99),
  Message('note_on', channel=4, note=66, velocity=0, time=0),
  Message('note_on', channel=6, note=78, velocity=0, time=0),
  Message('note_on', channel=7, note=54, velocity=0, time=0),
  Message('note_on', channel=9, note=70, velocity=64, time=20),
  Message('note_on', channel=9, note=70, velocity=0, time=1),
  Message('note_on', channel=0, note=43, velocity=0, time=99),
  Message('note_on', channel=0, note=42, velocity=64, time=20),
  Message('note_on', channel=1, note=72, velocity=104, time=0),
  Message('note_on', channel=4, note=60, velocity=104, time=0),
  Message('note_on', channel=6, note=72, velocity=99, time=0),
  Message('note_on', channel=7, note=48, velocity=89, time=0),
  Message('note_on', channel=9, note=70, velocity=120, time=0),
  Message('note_on', channel=9, note=60, velocity=96, time=0),
  Message('note_on', channel=9, note=70, velocity=0, time=1),
  Message('note_on', channel=9, note=60, velocity=0, time=0),
  Message('note_on', channel=1, note=72, velocity=0, time=99),
  Message('note_on', channel=4, note=60, velocity=0, time=0),
  Message('note_on', channel=6, note=72, velocity=0, time=0),
  Message('note_on', channel=7, note=48, velocity=0, time=0),
  Message('note_on', channel=1, note=75, velocity=104, time=20),
  Message('note_on', channel=4, note=63, velocity=104, time=0),
  Message('note_on', channel=6, note=75, velocity=99, time=0),
  Message('note_on', channel=7, note=51, velocity=89, time=0),
  Message('note_on', channel=9, note=70, velocity=120, time=0),
  Message('note_on', channel=9, note=60, velocity=96, time=0),
  Message('note_on', channel=9, note=70, velocity=0, time=1),
  Message('note_on', channel=9, note=60, velocity=0, time=0),
  Message('note_on', channel=0, note=42, velocity=0, time=99),
  Message('note_on', channel=1, note=75, velocity=0, time=0),
  Message('note_on', channel=4, note=63, velocity=0, time=0),
  Message('note_on', channel=6, note=75, velocity=0, time=0),
  Message('note_on', channel=7, note=51, velocity=0, time=0),
  Message('note_on', channel=0, note=41, velocity=64, time=20),
  Message('note_on', channel=9, note=42, velocity=92, time=0),
  Message('note_on', channel=9, note=70, velocity=78, time=0),
  Message('note_on', channel=9, note=61, velocity=68, time=0),
  Message('note_on', channel=9, note=42, velocity=0, time=1),
  Message('note_on', channel=9, note=70, velocity=0, time=0),
  Message('note_on', channel=9, note=61, velocity=0, time=0),
  Message('note_on', channel=1, note=72, velocity=104, time=119),
  Message('note_on', channel=4, note=60, velocity=104, time=0),
  Message('note_on', channel=6, note=72, velocity=99, time=0),
  Message('note_on', channel=7, note=48, velocity=89, time=0),
  Message('note_on', channel=9, note=70, velocity=64, time=0),
  Message('note_on', channel=9, note=61, velocity=68, time=0),
  Message('note_on', channel=9, note=70, velocity=0, time=1),
  Message('note_on', channel=9, note=61, velocity=0, time=0),
  Message('note_on', channel=1, note=72, velocity=0, time=99),
  Message('note_on', channel=4, note=60, velocity=0, time=0),
  Message('note_on', channel=6, note=72, velocity=0, time=0),
  Message('note_on', channel=7, note=48, velocity=0, time=0),
  Message('note_on', channel=1, note=70, velocity=104, time=20),
  Message('note_on', channel=4, note=58, velocity=104, time=0),
  Message('note_on', channel=6, note=70, velocity=99, time=0),
  Message('note_on', channel=7, note=46, velocity=89, time=0),
  Message('note_on', channel=9, note=70, velocity=120, time=0),
  Message('note_on', channel=9, note=70, velocity=0, time=1),
  Message('note_on', channel=0, note=41, velocity=0, time=99),
  Message('note_on', channel=0, note=39, velocity=64, time=20),
  Message('note_on', channel=9, note=70, velocity=120, time=0),
  Message('note_on', channel=9, note=60, velocity=96, time=0),
  Message('note_on', channel=9, note=70, velocity=0, time=1),
  Message('note_on', channel=9, note=60, velocity=0, time=0),
  Message('note_on', channel=9, note=42, velocity=92, time=119),
  Message('note_on', channel=9, note=70, velocity=78, time=0),
  Message('note_on', channel=9, note=61, velocity=68, time=0),
  Message('note_on', channel=9, note=42, velocity=0, time=1),
  Message('note_on', channel=9, note=70, velocity=0, time=0),
  Message('note_on', channel=9, note=61, velocity=0, time=0),
  Message('note_on', channel=9, note=70, velocity=64, time=119),
  Message('note_on', channel=9, note=70, velocity=0, time=1),
  Message('note_on', channel=0, note=39, velocity=0, time=99),
  Message('note_on', channel=1, note=70, velocity=0, time=0),
  Message('note_on', channel=4, note=58, velocity=0, time=0),
  Message('note_on', channel=6, note=70, velocity=0, time=0),
  Message('note_on', channel=7, note=46, velocity=0, time=0),
  Message('note_on', channel=0, note=34, velocity=64, time=20),
  Message('note_on', channel=1, note=72, velocity=104, time=0),
  Message('note_on', channel=4, note=60, velocity=104, time=0),
  Message('note_on', channel=6, note=72, velocity=99, time=0),
  Message('note_on', channel=7, note=48, velocity=89, time=0),
  Message('note_on', channel=9, note=70, velocity=120, time=0),
  Message('note_on', channel=9, note=60, velocity=96, time=0),
  Message('note_on', channel=9, note=70, velocity=0, time=1),
  Message('note_on', channel=9, note=60, velocity=0, time=0),
  Message('note_on', channel=9, note=70, velocity=120, time=119),
  Message('note_on', channel=9, note=60, velocity=96, time=0),
  Message('note_on', channel=9, note=70, velocity=0, time=1),
  Message('note_on', channel=9, note=60, velocity=0, time=0),
  Message('note_on', channel=0, note=34, velocity=0, time=99),
  Message('note_on', channel=0, note=36, velocity=64, time=20),
  Message('note_on', channel=9, note=42, velocity=92, time=0),
  Message('note_on', channel=9, note=70, velocity=78, time=0),
  Message('note_on', channel=9, note=61, velocity=68, time=0),
  Message('note_on', channel=9, note=42, velocity=0, time=1),
  Message('note_on', channel=9, note=70, velocity=0, time=0),
  Message('note_on', channel=9, note=61, velocity=0, time=0),
  Message('note_on', channel=9, note=70, velocity=64, time=119),
  Message('note_on', channel=9, note=61, velocity=68, time=0),
  Message('note_on', channel=9, note=70, velocity=0, time=1),
  Message('note_on', channel=9, note=61, velocity=0, time=0),
  Message('note_on', channel=9, note=70, velocity=120, time=119),
  Message('note_on', channel=9, note=60, velocity=96, time=0),
  Message('note_on', channel=9, note=70, velocity=0, time=1),
  Message('note_on', channel=9, note=60, velocity=0, time=0),
  Message('note_on', channel=0, note=36, velocity=0, time=99),
  Message('note_on', channel=0, note=43, velocity=74, time=20),
  Message('note_on', channel=9, note=70, velocity=120, time=0),
  Message('note_on', channel=9, note=60, velocity=96, time=0),
  Message('note_on', channel=9, note=70, velocity=0, time=1),
  Message('note_on', channel=9, note=60, velocity=0, time=0),
  Message('note_on', channel=9, note=42, velocity=92, time=119),
  Message('note_on', channel=9, note=70, velocity=78, time=0),
  Message('note_on', channel=9, note=61, velocity=68, time=0),
  Message('note_on', channel=9, note=42, velocity=0, time=1),
  Message('note_on', channel=9, note=70, velocity=0, time=0),
  Message('note_on', channel=9, note=61, velocity=0, time=0),
  Message('note_on', channel=9, note=70, velocity=64, time=119),
  Message('note_on', channel=9, note=61, velocity=68, time=0),
  Message('note_on', channel=9, note=70, velocity=0, time=1),
  Message('note_on', channel=9, note=61, velocity=0, time=0),
  Message('note_on', channel=0, note=43, velocity=0, time=99),
  Message('note_on', channel=0, note=42, velocity=64, time=20),
  Message('note_on', channel=9, note=70, velocity=120, time=0),
  Message('note_on', channel=9, note=60, velocity=96, time=0),
  Message('note_on', channel=9, note=70, velocity=0, time=1),
  Message('note_on', channel=9, note=60, velocity=0, time=0),
  Message('note_on', channel=9, note=70, velocity=120, time=119),
  Message('note_on', channel=9, note=60, velocity=96, time=0),
  Message('note_on', channel=9, note=70, velocity=0, time=1),
  Message('note_on', channel=9, note=60, velocity=0, time=0),
  Message('note_on', channel=0, note=42, velocity=0, time=99),
  Message('note_on', channel=0, note=41, velocity=64, time=20),
  Message('note_on', channel=9, note=46, velocity=92, time=0),
  Message('note_on', channel=9, note=70, velocity=78, time=0),
  Message('note_on', channel=9, note=61, velocity=68, time=0),
  Message('note_on', channel=9, note=46, velocity=0, time=1),
  Message('note_on', channel=9, note=70, velocity=0, time=0),
  Message('note_on', channel=9, note=61, velocity=0, time=0),
  Message('note_on', channel=9, note=70, velocity=64, time=119),
  Message('note_on', channel=9, note=61, velocity=68, time=0),
  Message('note_on', channel=9, note=70, velocity=0, time=1),
  Message('note_on', channel=9, note=61, velocity=0, time=0),
  Message('note_on', channel=9, note=70, velocity=120, time=119),
  Message('note_on', channel=9, note=60, velocity=96, time=0),
  Message('note_on', channel=9, note=70, velocity=0, time=1),
  Message('note_on', channel=9, note=60, velocity=0, time=0),
  Message('note_on', channel=0, note=41, velocity=0, time=99),
  Message('note_on', channel=0, note=39, velocity=64, time=20),
  Message('note_on', channel=9, note=70, velocity=120, time=0),
  Message('note_on', channel=9, note=60, velocity=96, time=0),
  Message('note_on', channel=9, note=70, velocity=0, time=1),
  Message('note_on', channel=9, note=60, velocity=0, time=0),
  Message('note_on', channel=1, note=72, velocity=0, time=119),
  Message('note_on', channel=4, note=60, velocity=0, time=0),
  Message('note_on', channel=6, note=72, velocity=0, time=0),
  Message('note_on', channel=7, note=48, velocity=0, time=0),
  Message('note_on', channel=9, note=40, velocity=78, time=0),
  Message('note_on', channel=9, note=70, velocity=78, time=0),
  Message('note_on', channel=9, note=61, velocity=68, time=0),
  Message('note_on', channel=9, note=40, velocity=0, time=1),
  Message('note_on', channel=9, note=70, velocity=0, time=0),
  Message('note_on', channel=9, note=61, velocity=0, time=0),
  Message('note_on', channel=9, note=61, velocity=68, time=59),
  Message('note_on', channel=9, note=61, velocity=0, time=1),
  Message('note_on', channel=9, note=40, velocity=78, time=59),
  Message('note_on', channel=9, note=70, velocity=64, time=0),
  Message('note_on', channel=9, note=61, velocity=68, time=0),
  Message('note_on', channel=9, note=40, velocity=0, time=1),
  Message('note_on', channel=9, note=70, velocity=0, time=0),
  Message('note_on', channel=9, note=61, velocity=0, time=0),
  Message('note_on', channel=9, note=61, velocity=68, time=59),
  Message('note_on', channel=9, note=61, velocity=0, time=1),
  Message('note_on', channel=0, note=39, velocity=0, time=39),
  Message('note_on', channel=0, note=34, velocity=64, time=20),
  Message('note_on', channel=9, note=40, velocity=50, time=0),
  Message('note_on', channel=9, note=70, velocity=120, time=0),
  Message('note_on', channel=9, note=61, velocity=68, time=0),
  Message('note_on', channel=9, note=40, velocity=0, time=1),
  Message('note_on', channel=9, note=70, velocity=0, time=0),
  Message('note_on', channel=9, note=61, velocity=0, time=0),
  Message('note_on', channel=9, note=61, velocity=68, time=59),
  Message('note_on', channel=9, note=61, velocity=0, time=1),
  Message('note_on', channel=9, note=40, velocity=78, time=59),
  Message('note_on', channel=9, note=70, velocity=120, time=0),
  Message('note_on', channel=9, note=60, velocity=96, time=0),
  Message('note_on', channel=9, note=40, velocity=0, time=1),
  Message('note_on', channel=9, note=70, velocity=0, time=0),
  Message('note_on', channel=9, note=60, velocity=0, time=0),
  Message('note_on', channel=0, note=34, velocity=0, time=99),
  Message('note_on', channel=0, note=41, velocity=64, time=20),
  Message('note_on', channel=1, note=77, velocity=104, time=0),
  Message('note_on', channel=4, note=65, velocity=104, time=0),
  Message('note_on', channel=6, note=77, velocity=99, time=0),
  Message('note_on', channel=7, note=53, velocity=89, time=0),
  Message('note_on', channel=9, note=42, velocity=92, time=0),
  Message('note_on', channel=9, note=70, velocity=78, time=0),
  Message('note_on', channel=9, note=61, velocity=68, time=0),
  Message('note_on', channel=9, note=42, velocity=0, time=1),
  Message('note_on', channel=9, note=70, velocity=0, time=0),
  Message('note_on', channel=9, note=61, velocity=0, time=0),
  Message('note_on', channel=1, note=77, velocity=0, time=99),
  Message('note_on', channel=4, note=65, velocity=0, time=0),
  Message('note_on', channel=6, note=77, velocity=0, time=0),
  Message('note_on', channel=7, note=53, velocity=0, time=0),
  Message('note_on', channel=1, note=84, velocity=104, time=20),
  Message('note_on', channel=4, note=72, velocity=104, time=0),
  Message('note_on', channel=6, note=84, velocity=99, time=0),
  Message('note_on', channel=7, note=60, velocity=89, time=0),
  Message('note_on', channel=9, note=70, velocity=64, time=0),
  Message('note_on', channel=9, note=61, velocity=68, time=0),
  Message('note_on', channel=9, note=70, velocity=0, time=1),
  Message('note_on', channel=9, note=61, velocity=0, time=0),
  Message('note_on', channel=1, note=84, velocity=0, time=99),
  Message('note_on', channel=4, note=72, velocity=0, time=0),
  Message('note_on', channel=6, note=84, velocity=0, time=0),
  Message('note_on', channel=7, note=60, velocity=0, time=0),
  Message('note_on', channel=9, note=70, velocity=120, time=20),
  Message('note_on', channel=9, note=70, velocity=0, time=1),
  Message('note_on', channel=0, note=41, velocity=0, time=99),
  Message('note_on', channel=0, note=48, velocity=74, time=20),
  Message('note_on', channel=1, note=77, velocity=104, time=0),
  Message('note_on', channel=4, note=65, velocity=104, time=0),
  Message('note_on', channel=6, note=77, velocity=99, time=0),
  Message('note_on', channel=7, note=53, velocity=89, time=0),
  Message('note_on', channel=9, note=70, velocity=120, time=0),
  Message('note_on', channel=9, note=60, velocity=96, time=0),
  Message('note_on', channel=9, note=70, velocity=0, time=1),
  Message('note_on', channel=9, note=60, velocity=0, time=0),
  Message('note_on', channel=1, note=77, velocity=0, time=99),
  Message('note_on', channel=4, note=65, velocity=0, time=0),
  Message('note_on', channel=6, note=77, velocity=0, time=0),
  Message('note_on', channel=7, note=53, velocity=0, time=0),
  Message('note_on', channel=1, note=83, velocity=104, time=20),
  Message('note_on', channel=4, note=71, velocity=104, time=0),
  Message('note_on', channel=6, note=83, velocity=99, time=0),
  Message('note_on', channel=7, note=59, velocity=89, time=0),
  Message('note_on', channel=9, note=42, velocity=92, time=0),
  Message('note_on', channel=9, note=70, velocity=78, time=0),
  Message('note_on', channel=9, note=42, velocity=0, time=1),
  Message('note_on', channel=9, note=70, velocity=0, time=0),
  Message('note_on', channel=1, note=83, velocity=0, time=99),
  Message('note_on', channel=4, note=71, velocity=0, time=0),
  Message('note_on', channel=6, note=83, velocity=0, time=0),
  Message('note_on', channel=7, note=59, velocity=0, time=0),
  Message('note_on', channel=9, note=70, velocity=64, time=20),
  Message('note_on', channel=9, note=70, velocity=0, time=1),
  Message('note_on', channel=0, note=48, velocity=0, time=99),
  Message('note_on', channel=0, note=47, velocity=64, time=20),
  Message('note_on', channel=1, note=77, velocity=104, time=0),
  Message('note_on', channel=4, note=65, velocity=104, time=0),
  Message('note_on', channel=6, note=77, velocity=99, time=0),
  Message('note_on', channel=7, note=53, velocity=89, time=0),
  Message('note_on', channel=9, note=70, velocity=120, time=0),
  Message('note_on', channel=9, note=61, velocity=68, time=0),
  Message('note_on', channel=9, note=70, velocity=0, time=1),
  Message('note_on', channel=9, note=61, velocity=0, time=0),
  Message('note_on', channel=1, note=77, velocity=0, time=99),
  Message('note_on', channel=4, note=65, velocity=0, time=0),
  Message('note_on', channel=6, note=77, velocity=0, time=0),
  Message('note_on', channel=7, note=53, velocity=0, time=0),
  Message('note_on', channel=1, note=80, velocity=104, time=20),
  Message('note_on', channel=4, note=68, velocity=104, time=0),
  Message('note_on', channel=6, note=80, velocity=99, time=0),
  Message('note_on', channel=7, note=56, velocity=89, time=0),
  Message('note_on', channel=9, note=70, velocity=120, time=0),
  Message('note_on', channel=9, note=61, velocity=96, time=0),
  Message('note_on', channel=9, note=70, velocity=0, time=1),
  Message('note_on', channel=9, note=61, velocity=0, time=0),
  Message('note_on', channel=0, note=47, velocity=0, time=99),
  Message('note_on', channel=1, note=80, velocity=0, time=0),
  Message('note_on', channel=4, note=68, velocity=0, time=0),
  Message('note_on', channel=6, note=80, velocity=0, time=0),
  Message('note_on', channel=7, note=56, velocity=0, time=0),
  Message('note_on', channel=0, note=46, velocity=64, time=20),
  Message('note_on', channel=9, note=42, velocity=92, time=0),
  Message('note_on', channel=9, note=70, velocity=78, time=0),
  Message('note_on', channel=9, note=42, velocity=0, time=1),
  Message('note_on', channel=9, note=70, velocity=0, time=0),
  Message('note_on', channel=1, note=77, velocity=104, time=119),
  Message('note_on', channel=4, note=65, velocity=104, time=0),
  Message('note_on', channel=6, note=77, velocity=99, time=0),
  Message('note_on', channel=7, note=53, velocity=89, time=0),
  Message('note_on', channel=9, note=70, velocity=64, time=0),
  Message('note_on', channel=9, note=60, velocity=96, time=0),
  Message('note_on', channel=9, note=70, velocity=0, time=1),
  Message('note_on', channel=9, note=60, velocity=0, time=0),
  Message('note_on', channel=1, note=77, velocity=0, time=99),
  Message('note_on', channel=4, note=65, velocity=0, time=0),
  Message('note_on', channel=6, note=77, velocity=0, time=0),
  Message('note_on', channel=7, note=53, velocity=0, time=0),
  Message('note_on', channel=1, note=75, velocity=104, time=20),
  Message('note_on', channel=4, note=63, velocity=104, time=0),
  Message('note_on', channel=6, note=75, velocity=99, time=0),
  Message('note_on', channel=7, note=51, velocity=89, time=0),
  Message('note_on', channel=9, note=70, velocity=120, time=0),
  Message('note_on', channel=9, note=60, velocity=96, time=0),
  Message('note_on', channel=9, note=70, velocity=0, time=1),
  Message('note_on', channel=9, note=60, velocity=0, time=0),
  Message('note_on', channel=0, note=46, velocity=0, time=99),
  Message('note_on', channel=0, note=44, velocity=64, time=20),
  Message('note_on', channel=9, note=70, velocity=120, time=0),
  Message('note_on', channel=9, note=70, velocity=0, time=1),
  Message('note_on', channel=9, note=42, velocity=92, time=119),
  Message('note_on', channel=9, note=70, velocity=78, time=0),
  Message('note_on', channel=9, note=60, velocity=96, time=0),
  Message('note_on', channel=9, note=42, velocity=0, time=1),
  Message('note_on', channel=9, note=70, velocity=0, time=0),
  Message('note_on', channel=9, note=60, velocity=0, time=0),
  Message('note_on', channel=9, note=70, velocity=64, time=119),
  Message('note_on', channel=9, note=61, velocity=68, time=0),
  Message('note_on', channel=9, note=70, velocity=0, time=1),
  Message('note_on', channel=9, note=61, velocity=0, time=0),
  Message('note_on', channel=0, note=44, velocity=0, time=99),
  Message('note_on', channel=1, note=75, velocity=0, time=0),
  Message('note_on', channel=4, note=63, velocity=0, time=0),
  Message('note_on', channel=6, note=75, velocity=0, time=0),
  Message('note_on', channel=7, note=51, velocity=0, time=0),
  Message('note_on', channel=0, note=39, velocity=64, time=20),
  Message('note_on', channel=1, note=77, velocity=104, time=0),
  Message('note_on', channel=4, note=65, velocity=104, time=0),
  Message('note_on', channel=6, note=77, velocity=99, time=0),
  Message('note_on', channel=7, note=53, velocity=89, time=0),
  Message('note_on', channel=9, note=70, velocity=120, time=0),
  Message('note_on', channel=9, note=61, velocity=68, time=0),
  Message('note_on', channel=9, note=70, velocity=0, time=1),
  Message('note_on', channel=9, note=61, velocity=0, time=0),
  Message('note_on', channel=9, note=70, velocity=120, time=119),
  Message('note_on', channel=9, note=61, velocity=68, time=0),
  Message('note_on', channel=9, note=70, velocity=0, time=1),
  Message('note_on', channel=9, note=61, velocity=0, time=0),
  Message('note_on', channel=0, note=39, velocity=0, time=99),
  Message('note_on', channel=0, note=41, velocity=64, time=20),
  Message('note_on', channel=9, note=42, velocity=92, time=0),
  Message('note_on', channel=9, note=70, velocity=78, time=0),
  Message('note_on', channel=9, note=61, velocity=82, time=0),
  Message('note_on', channel=9, note=42, velocity=0, time=1),
  Message('note_on', channel=9, note=70, velocity=0, time=0),
  Message('note_on', channel=9, note=61, velocity=0, time=0),
  Message('note_on', channel=9, note=70, velocity=64, time=119),
  Message('note_on', channel=9, note=60, velocity=96, time=0),
  Message('note_on', channel=9, note=70, velocity=0, time=1),
  Message('note_on', channel=9, note=60, velocity=0, time=0),
  Message('note_on', channel=9, note=70, velocity=120, time=119),
  Message('note_on', channel=9, note=60, velocity=96, time=0),
  Message('note_on', channel=9, note=70, velocity=0, time=1),
  Message('note_on', channel=9, note=60, velocity=0, time=0),
  Message('note_on', channel=0, note=41, velocity=0, time=99),
  Message('note_on', channel=0, note=48, velocity=74, time=20),
  Message('note_on', channel=9, note=70, velocity=120, time=0),
  Message('note_on', channel=9, note=60, velocity=96, time=0),
  Message('note_on', channel=9, note=70, velocity=0, time=1),
  Message('note_on', channel=9, note=60, velocity=0, time=0),
  Message('note_on', channel=9, note=42, velocity=92, time=119),
  Message('note_on', channel=9, note=70, velocity=78, time=0),
  Message('note_on', channel=9, note=60, velocity=96, time=0),
  Message('note_on', channel=9, note=42, velocity=0, time=1),
  Message('note_on', channel=9, note=70, velocity=0, time=0),
  Message('note_on', channel=9, note=60, velocity=0, time=0),
  Message('note_on', channel=9, note=70, velocity=64, time=119),
  Message('note_on', channel=9, note=60, velocity=96, time=0),
  Message('note_on', channel=9, note=70, velocity=0, time=1),
  Message('note_on', channel=9, note=60, velocity=0, time=0),
  Message('note_on', channel=0, note=48, velocity=0, time=99),
  Message('note_on', channel=0, note=47, velocity=64, time=20),
  Message('note_on', channel=9, note=70, velocity=120, time=0),
  Message('note_on', channel=9, note=60, velocity=96, time=0),
  Message('note_on', channel=9, note=70, velocity=0, time=1),
  Message('note_on', channel=9, note=60, velocity=0, time=0),
  Message('note_on', channel=9, note=70, velocity=120, time=119),
  Message('note_on', channel=9, note=70, velocity=0, time=1),
  Message('note_on', channel=0, note=47, velocity=0, time=99),
  Message('note_on', channel=0, note=46, velocity=64, time=20),
  Message('note_on', channel=9, note=42, velocity=92, time=0),
  Message('note_on', channel=9, note=70, velocity=78, time=0),
  Message('note_on', channel=9, note=60, velocity=82, time=0),
  Message('note_on', channel=9, note=42, velocity=0, time=1),
  Message('note_on', channel=9, note=70, velocity=0, time=0),
  Message('note_on', channel=9, note=60, velocity=0, time=0),
  Message('note_on', channel=9, note=70, velocity=64, time=119),
  Message('note_on', channel=9, note=70, velocity=0, time=1),
  Message('note_on', channel=9, note=70, velocity=120, time=119),
  Message('note_on', channel=9, note=70, velocity=0, time=1),
  Message('note_on', channel=0, note=46, velocity=0, time=99),
  Message('note_on', channel=0, note=44, velocity=64, time=20),
  Message('note_on', channel=9, note=70, velocity=120, time=0),
  Message('note_on', channel=9, note=60, velocity=82, time=0),
  Message('note_on', channel=9, note=70, velocity=0, time=1),
  Message('note_on', channel=9, note=60, velocity=0, time=0),
  Message('note_on', channel=1, note=77, velocity=0, time=119),
  Message('note_on', channel=4, note=65, velocity=0, time=0),
  Message('note_on', channel=6, note=77, velocity=0, time=0),
  Message('note_on', channel=7, note=53, velocity=0, time=0),
  Message('note_on', channel=9, note=42, velocity=92, time=0),
  Message('note_on', channel=9, note=70, velocity=78, time=0),
  Message('note_on', channel=9, note=61, velocity=82, time=0),
  Message('note_on', channel=9, note=42, velocity=0, time=1),
  Message('note_on', channel=9, note=70, velocity=0, time=0),
  Message('note_on', channel=9, note=61, velocity=0, time=0),
  Message('note_on', channel=9, note=70, velocity=64, time=119),
  Message('note_on', channel=9, note=61, velocity=82, time=0),
  Message('note_on', channel=9, note=70, velocity=0, time=1),
  Message('note_on', channel=9, note=61, velocity=0, time=0),
  Message('note_on', channel=0, note=44, velocity=0, time=99),
  Message('note_on', channel=0, note=39, velocity=64, time=20),
  Message('note_on', channel=9, note=70, velocity=120, time=0),
  Message('note_on', channel=9, note=61, velocity=82, time=0),
  Message('note_on', channel=9, note=70, velocity=0, time=1),
  Message('note_on', channel=9, note=61, velocity=0, time=0),
  Message('note_on', channel=9, note=70, velocity=120, time=119),
  Message('note_on', channel=9, note=70, velocity=0, time=1),
  Message('note_on', channel=0, note=39, velocity=0, time=99),
  Message('note_on', channel=0, note=36, velocity=64, time=20),
  Message('note_on', channel=1, note=72, velocity=104, time=0),
  Message('note_on', channel=4, note=60, velocity=104, time=0),
  Message('note_on', channel=6, note=72, velocity=99, time=0),
  Message('note_on', channel=7, note=48, velocity=89, time=0),
  Message('note_on', channel=9, note=42, velocity=92, time=0),
  Message('note_on', channel=9, note=70, velocity=78, time=0),
  Message('note_on', channel=9, note=61, velocity=68, time=0),
  Message('note_on', channel=9, note=42, velocity=0, time=1),
  Message('note_on', channel=9, note=70, velocity=0, time=0),
  Message('note_on', channel=9, note=61, velocity=0, time=0),
  Message('note_on', channel=1, note=72, velocity=0, time=99),
  Message('note_on', channel=4, note=60, velocity=0, time=0),
  Message('note_on', channel=6, note=72, velocity=0, time=0),
  Message('note_on', channel=7, note=48, velocity=0, time=0),
  Message('note_on', channel=1, note=79, velocity=104, time=20),
  Message('note_on', channel=4, note=67, velocity=104, time=0),
  Message('note_on', channel=6, note=79, velocity=99, time=0),
  Message('note_on', channel=7, note=55, velocity=89, time=0),
  Message('note_on', channel=9, note=70, velocity=64, time=0),
  Message('note_on', channel=9, note=70, velocity=0, time=1),
  Message('note_on', channel=1, note=79, velocity=0, time=99),
  Message('note_on', channel=4, note=67, velocity=0, time=0),
  Message('note_on', channel=6, note=79, velocity=0, time=0),
  Message('note_on', channel=7, note=55, velocity=0, time=0),
  Message('note_on', channel=9, note=70, velocity=120, time=20),
  Message('note_on', channel=9, note=61, velocity=68, time=0),
  Message('note_on', channel=9, note=70, velocity=0, time=1),
  Message('note_on', channel=9, note=61, velocity=0, time=0),
  Message('note_on', channel=0, note=36, velocity=0, time=99),
  Message('note_on', channel=0, note=43, velocity=74, time=20),
  Message('note_on', channel=1, note=72, velocity=104, time=0),
  Message('note_on', channel=4, note=60, velocity=104, time=0),
  Message('note_on', channel=6, note=72, velocity=99, time=0),
  Message('note_on', channel=7, note=48, velocity=89, time=0),
  Message('note_on', channel=9, note=70, velocity=120, time=0),
  Message('note_on', channel=9, note=70, velocity=0, time=1),
  Message('note_on', channel=1, note=72, velocity=0, time=99),
  Message('note_on', channel=4, note=60, velocity=0, time=0),
  Message('note_on', channel=6, note=72, velocity=0, time=0),
  Message('note_on', channel=7, note=48, velocity=0, time=0),
  Message('note_on', channel=1, note=78, velocity=104, time=20),
  Message('note_on', channel=4, note=66, velocity=104, time=0),
  Message('note_on', channel=6, note=78, velocity=99, time=0),
  Message('note_on', channel=7, note=54, velocity=89, time=0),
  Message('note_on', channel=9, note=42, velocity=92, time=0),
  Message('note_on', channel=9, note=70, velocity=78, time=0),
  Message('note_on', channel=9, note=60, velocity=96, time=0),
  Message('note_on', channel=9, note=42, velocity=0, time=1),
  Message('note_on', channel=9, note=70, velocity=0, time=0),
  Message('note_on', channel=9, note=60, velocity=0, time=0),
  Message('note_on', channel=1, note=78, velocity=0, time=99),
  Message('note_on', channel=4, note=66, velocity=0, time=0),
  Message('note_on', channel=6, note=78, velocity=0, time=0),
  Message('note_on', channel=7, note=54, velocity=0, time=0),
  Message('note_on', channel=9, note=70, velocity=64, time=20),
  Message('note_on', channel=9, note=70, velocity=0, time=1),
  Message('note_on', channel=0, note=43, velocity=0, time=99),
  Message('note_on', channel=0, note=42, velocity=64, time=20),
  Message('note_on', channel=1, note=72, velocity=104, time=0),
  Message('note_on', channel=4, note=60, velocity=104, time=0),
  Message('note_on', channel=6, note=72, velocity=99, time=0),
  Message('note_on', channel=7, note=48, velocity=89, time=0),
  Message('note_on', channel=9, note=70, velocity=120, time=0),
  Message('note_on', channel=9, note=60, velocity=96, time=0),
  Message('note_on', channel=9, note=70, velocity=0, time=1),
  Message('note_on', channel=9, note=60, velocity=0, time=0),
  Message('note_on', channel=1, note=72, velocity=0, time=99),
  Message('note_on', channel=4, note=60, velocity=0, time=0),
  Message('note_on', channel=6, note=72, velocity=0, time=0),
  Message('note_on', channel=7, note=48, velocity=0, time=0),
  Message('note_on', channel=1, note=75, velocity=104, time=20),
  Message('note_on', channel=4, note=63, velocity=104, time=0),
  Message('note_on', channel=6, note=75, velocity=99, time=0),
  Message('note_on', channel=7, note=51, velocity=89, time=0),
  Message('note_on', channel=9, note=70, velocity=120, time=0),
  Message('note_on', channel=9, note=60, velocity=96, time=0),
  Message('note_on', channel=9, note=70, velocity=0, time=1),
  Message('note_on', channel=9, note=60, velocity=0, time=0),
  Message('note_on', channel=0, note=42, velocity=0, time=99),
  Message('note_on', channel=1, note=75, velocity=0, time=0),
  Message('note_on', channel=4, note=63, velocity=0, time=0),
  Message('note_on', channel=6, note=75, velocity=0, time=0),
  Message('note_on', channel=7, note=51, velocity=0, time=0),
  Message('note_on', channel=0, note=41, velocity=64, time=20),
  Message('note_on', channel=9, note=42, velocity=92, time=0),
  Message('note_on', channel=9, note=70, velocity=78, time=0),
  Message('note_on', channel=9, note=61, velocity=68, time=0),
  Message('note_on', channel=9, note=42, velocity=0, time=1),
  Message('note_on', channel=9, note=70, velocity=0, time=0),
  Message('note_on', channel=9, note=61, velocity=0, time=0),
  Message('note_on', channel=1, note=72, velocity=104, time=119),
  Message('note_on', channel=4, note=60, velocity=104, time=0),
  Message('note_on', channel=6, note=72, velocity=99, time=0),
  Message('note_on', channel=7, note=48, velocity=89, time=0),
  Message('note_on', channel=9, note=70, velocity=64, time=0),
  Message('note_on', channel=9, note=61, velocity=68, time=0),
  Message('note_on', channel=9, note=70, velocity=0, time=1),
  Message('note_on', channel=9, note=61, velocity=0, time=0),
  Message('note_on', channel=1, note=72, velocity=0, time=99),
  Message('note_on', channel=4, note=60, velocity=0, time=0),
  Message('note_on', channel=6, note=72, velocity=0, time=0),
  Message('note_on', channel=7, note=48, velocity=0, time=0),
  Message('note_on', channel=1, note=70, velocity=104, time=20),
  Message('note_on', channel=4, note=58, velocity=104, time=0),
  Message('note_on', channel=6, note=70, velocity=99, time=0),
  Message('note_on', channel=7, note=46, velocity=89, time=0),
  Message('note_on', channel=9, note=70, velocity=120, time=0),
  Message('note_on', channel=9, note=70, velocity=0, time=1),
  Message('note_on', channel=0, note=41, velocity=0, time=99),
  Message('note_on', channel=0, note=39, velocity=64, time=20),
  Message('note_on', channel=9, note=70, velocity=120, time=0),
  Message('note_on', channel=9, note=60, velocity=96, time=0),
  Message('note_on', channel=9, note=70, velocity=0, time=1),
  Message('note_on', channel=9, note=60, velocity=0, time=0),
  Message('note_on', channel=9, note=42, velocity=92, time=119),
  Message('note_on', channel=9, note=70, velocity=78, time=0),
  Message('note_on', channel=9, note=61, velocity=68, time=0),
  Message('note_on', channel=9, note=42, velocity=0, time=1),
  Message('note_on', channel=9, note=70, velocity=0, time=0),
  Message('note_on', channel=9, note=61, velocity=0, time=0),
  Message('note_on', channel=9, note=70, velocity=64, time=119),
  Message('note_on', channel=9, note=70, velocity=0, time=1),
  Message('note_on', channel=0, note=39, velocity=0, time=99),
  Message('note_on', channel=1, note=70, velocity=0, time=0),
  Message('note_on', channel=4, note=58, velocity=0, time=0),
  Message('note_on', channel=6, note=70, velocity=0, time=0),
  Message('note_on', channel=7, note=46, velocity=0, time=0),
  Message('note_on', channel=0, note=34, velocity=64, time=20),
  Message('note_on', channel=1, note=72, velocity=104, time=0),
  Message('note_on', channel=4, note=60, velocity=104, time=0),
  Message('note_on', channel=6, note=72, velocity=99, time=0),
  Message('note_on', channel=7, note=48, velocity=89, time=0),
  Message('note_on', channel=9, note=70, velocity=120, time=0),
  Message('note_on', channel=9, note=60, velocity=96, time=0),
  Message('note_on', channel=9, note=70, velocity=0, time=1),
  Message('note_on', channel=9, note=60, velocity=0, time=0),
  Message('note_on', channel=9, note=70, velocity=120, time=119),
  Message('note_on', channel=9, note=60, velocity=96, time=0),
  Message('note_on', channel=9, note=70, velocity=0, time=1),
  Message('note_on', channel=9, note=60, velocity=0, time=0),
  Message('note_on', channel=0, note=34, velocity=0, time=99),
  Message('note_on', channel=0, note=36, velocity=64, time=20),
  Message('note_on', channel=9, note=42, velocity=92, time=0),
  Message('note_on', channel=9, note=70, velocity=78, time=0),
  Message('note_on', channel=9, note=61, velocity=68, time=0),
  Message('note_on', channel=9, note=42, velocity=0, time=1),
  Message('note_on', channel=9, note=70, velocity=0, time=0),
  Message('note_on', channel=9, note=61, velocity=0, time=0),
  Message('note_on', channel=9, note=70, velocity=64, time=119),
  Message('note_on', channel=9, note=61, velocity=68, time=0),
  Message('note_on', channel=9, note=70, velocity=0, time=1),
  Message('note_on', channel=9, note=61, velocity=0, time=0),
  Message('note_on', channel=9, note=70, velocity=120, time=119),
  Message('note_on', channel=9, note=60, velocity=96, time=0),
  Message('note_on', channel=9, note=70, velocity=0, time=1),
  Message('note_on', channel=9, note=60, velocity=0, time=0),
  Message('note_on', channel=0, note=36, velocity=0, time=99),
  Message('note_on', channel=0, note=43, velocity=74, time=20),
  Message('note_on', channel=9, note=70, velocity=120, time=0),
  Message('note_on', channel=9, note=60, velocity=96, time=0),
  Message('note_on', channel=9, note=70, velocity=0, time=1),
  Message('note_on', channel=9, note=60, velocity=0, time=0),
  Message('note_on', channel=9, note=42, velocity=92, time=119),
  Message('note_on', channel=9, note=70, velocity=78, time=0),
  Message('note_on', channel=9, note=61, velocity=68, time=0),
  Message('note_on', channel=9, note=42, velocity=0, time=1),
  Message('note_on', channel=9, note=70, velocity=0, time=0),
  Message('note_on', channel=9, note=61, velocity=0, time=0),
  Message('note_on', channel=9, note=70, velocity=64, time=119),
  Message('note_on', channel=9, note=61, velocity=68, time=0),
  Message('note_on', channel=9, note=70, velocity=0, time=1),
  Message('note_on', channel=9, note=61, velocity=0, time=0),
  Message('note_on', channel=0, note=43, velocity=0, time=99),
  Message('note_on', channel=0, note=42, velocity=64, time=20),
  Message('note_on', channel=9, note=70, velocity=120, time=0),
  Message('note_on', channel=9, note=60, velocity=96, time=0),
  Message('note_on', channel=9, note=70, velocity=0, time=1),
  Message('note_on', channel=9, note=60, velocity=0, time=0),
  Message('note_on', channel=9, note=70, velocity=120, time=119),
  Message('note_on', channel=9, note=60, velocity=96, time=0),
  Message('note_on', channel=9, note=70, velocity=0, time=1),
  Message('note_on', channel=9, note=60, velocity=0, time=0),
  Message('note_on', channel=0, note=42, velocity=0, time=99),
  Message('note_on', channel=0, note=41, velocity=64, time=20),
  Message('note_on', channel=9, note=42, velocity=92, time=0),
  Message('note_on', channel=9, note=70, velocity=78, time=0),
  Message('note_on', channel=9, note=61, velocity=68, time=0),
  Message('note_on', channel=9, note=42, velocity=0, time=1),
  Message('note_on', channel=9, note=70, velocity=0, time=0),
  Message('note_on', channel=9, note=61, velocity=0, time=0),
  Message('note_on', channel=9, note=70, velocity=64, time=119),
  Message('note_on', channel=9, note=61, velocity=68, time=0),
  Message('note_on', channel=9, note=70, velocity=0, time=1),
  Message('note_on', channel=9, note=61, velocity=0, time=0),
  Message('note_on', channel=9, note=70, velocity=120, time=119),
  Message('note_on', channel=9, note=60, velocity=96, time=0),
  Message('note_on', channel=9, note=70, velocity=0, time=1),
  Message('note_on', channel=9, note=60, velocity=0, time=0),
  Message('note_on', channel=0, note=41, velocity=0, time=99),
  Message('note_on', channel=0, note=39, velocity=64, time=20),
  Message('note_on', channel=9, note=70, velocity=120, time=0),
  Message('note_on', channel=9, note=60, velocity=96, time=0),
  Message('note_on', channel=9, note=70, velocity=0, time=1),
  Message('note_on', channel=9, note=60, velocity=0, time=0),
  Message('note_on', channel=1, note=72, velocity=0, time=119),
  Message('note_on', channel=4, note=60, velocity=0, time=0),
  Message('note_on', channel=6, note=72, velocity=0, time=0),
  Message('note_on', channel=7, note=48, velocity=0, time=0),
  Message('note_on', channel=9, note=46, velocity=92, time=0),
  Message('note_on', channel=9, note=70, velocity=78, time=0),
  Message('note_on', channel=9, note=61, velocity=68, time=0),
  Message('note_on', channel=9, note=46, velocity=0, time=1),
  Message('note_on', channel=9, note=70, velocity=0, time=0),
  Message('note_on', channel=9, note=61, velocity=0, time=0),
  Message('note_on', channel=9, note=61, velocity=68, time=59),
  Message('note_on', channel=9, note=61, velocity=0, time=1),
  Message('note_on', channel=9, note=70, velocity=64, time=59),
  Message('note_on', channel=9, note=61, velocity=68, time=0),
  Message('note_on', channel=9, note=70, velocity=0, time=1),
  Message('note_on', channel=9, note=61, velocity=0, time=0),
  Message('note_on', channel=9, note=61, velocity=68, time=59),
  Message('note_on', channel=9, note=61, velocity=0, time=1),
  Message('note_on', channel=0, note=39, velocity=0, time=39),
  Message('note_on', channel=0, note=34, velocity=64, time=20),
  Message('note_on', channel=9, note=70, velocity=120, time=0),
  Message('note_on', channel=9, note=61, velocity=68, time=0),
  Message('note_on', channel=9, note=70, velocity=0, time=1),
  Message('note_on', channel=9, note=61, velocity=0, time=0),
  Message('note_on', channel=9, note=61, velocity=68, time=59),
  Message('note_on', channel=9, note=61, velocity=0, time=1),
  Message('note_on', channel=9, note=42, velocity=92, time=59),
  Message('note_on', channel=9, note=70, velocity=120, time=0),
  Message('note_on', channel=9, note=60, velocity=96, time=0),
  Message('note_on', channel=9, note=42, velocity=0, time=1),
  Message('note_on', channel=9, note=70, velocity=0, time=0),
  Message('note_on', channel=9, note=60, velocity=0, time=0),
  Message('note_on', channel=0, note=34, velocity=0, time=99),
  Message('note_on', channel=0, note=31, velocity=64, time=20),
  Message('note_on', channel=1, note=71, velocity=127, time=0),
  Message('note_on', channel=1, note=74, velocity=127, time=0),
  Message('note_on', channel=1, note=78, velocity=127, time=0),
  Message('note_on', channel=4, note=59, velocity=127, time=0),
  Message('note_on', channel=4, note=62, velocity=127, time=0),
  Message('note_on', channel=4, note=66, velocity=127, time=0),
  Message('note_on', channel=6, note=71, velocity=99, time=0),
  Message('note_on', channel=6, note=74, velocity=99, time=0),
  Message('note_on', channel=6, note=78, velocity=99, time=0),
  Message('note_on', channel=7, note=47, velocity=89, time=0),
  Message('note_on', channel=7, note=50, velocity=89, time=0),
  Message('note_on', channel=7, note=54, velocity=89, time=0),
  Message('note_on', channel=9, note=40, velocity=106, time=0),
  Message('note_on', channel=9, note=70, velocity=78, time=0),
  Message('note_on', channel=9, note=60, velocity=96, time=0),
  Message('note_on', channel=9, note=40, velocity=0, time=1),
  Message('note_on', channel=9, note=70, velocity=0, time=0),
  Message('note_on', channel=9, note=60, velocity=0, time=0),
  Message('note_on', channel=1, note=71, velocity=0, time=99),
  Message('note_on', channel=1, note=74, velocity=0, time=0),
  Message('note_on', channel=1, note=78, velocity=0, time=0),
  Message('note_on', channel=4, note=59, velocity=0, time=0),
  Message('note_on', channel=4, note=62, velocity=0, time=0),
  Message('note_on', channel=4, note=66, velocity=0, time=0),
  Message('note_on', channel=6, note=71, velocity=0, time=0),
  Message('note_on', channel=6, note=74, velocity=0, time=0),
  Message('note_on', channel=6, note=78, velocity=0, time=0),
  Message('note_on', channel=7, note=47, velocity=0, time=0),
  Message('note_on', channel=7, note=50, velocity=0, time=0),
  Message('note_on', channel=7, note=54, velocity=0, time=0),
  Message('note_on', channel=1, note=71, velocity=127, time=20),
  Message('note_on', channel=1, note=76, velocity=127, time=0),
  Message('note_on', channel=1, note=79, velocity=127, time=0),
  Message('note_on', channel=4, note=59, velocity=127, time=0),
  Message('note_on', channel=4, note=64, velocity=127, time=0),
  Message('note_on', channel=4, note=67, velocity=127, time=0),
  Message('note_on', channel=6, note=71, velocity=99, time=0),
  Message('note_on', channel=6, note=76, velocity=99, time=0),
  Message('note_on', channel=6, note=79, velocity=99, time=0),
  Message('note_on', channel=7, note=47, velocity=89, time=0),
  Message('note_on', channel=7, note=52, velocity=89, time=0),
  Message('note_on', channel=7, note=55, velocity=89, time=0),
  Message('note_on', channel=9, note=40, velocity=106, time=0),
  Message('note_on', channel=9, note=70, velocity=64, time=0),
  Message('note_on', channel=9, note=60, velocity=96, time=0),
  Message('note_on', channel=9, note=40, velocity=0, time=1),
  Message('note_on', channel=9, note=70, velocity=0, time=0),
  Message('note_on', channel=9, note=60, velocity=0, time=0),
  Message('note_on', channel=1, note=71, velocity=0, time=99),
  Message('note_on', channel=1, note=76, velocity=0, time=0),
  Message('note_on', channel=1, note=79, velocity=0, time=0),
  Message('note_on', channel=4, note=59, velocity=0, time=0),
  Message('note_on', channel=4, note=64, velocity=0, time=0),
  Message('note_on', channel=4, note=67, velocity=0, time=0),
  Message('note_on', channel=6, note=71, velocity=0, time=0),
  Message('note_on', channel=6, note=76, velocity=0, time=0),
  Message('note_on', channel=6, note=79, velocity=0, time=0),
  Message('note_on', channel=7, note=47, velocity=0, time=0),
  Message('note_on', channel=7, note=52, velocity=0, time=0),
  Message('note_on', channel=7, note=55, velocity=0, time=0),
  Message('note_on', channel=9, note=70, velocity=120, time=20),
  Message('note_on', channel=9, note=70, velocity=0, time=1),
  Message('note_on', channel=0, note=31, velocity=0, time=99),
  Message('note_on', channel=0, note=43, velocity=74, time=20),
  Message('note_on', channel=9, note=70, velocity=120, time=0),
  Message('note_on', channel=9, note=61, velocity=82, time=0),
  Message('note_on', channel=9, note=70, velocity=0, time=1),
  Message('note_on', channel=9, note=61, velocity=0, time=0),
  Message('note_on', channel=9, note=46, velocity=106, time=119),
  Message('note_on', channel=9, note=70, velocity=78, time=0),
  Message('note_on', channel=9, note=61, velocity=82, time=0),
  Message('note_on', channel=9, note=46, velocity=0, time=1),
  Message('note_on', channel=9, note=70, velocity=0, time=0),
  Message('note_on', channel=9, note=61, velocity=0, time=0),
  Message('note_on', channel=9, note=70, velocity=64, time=119),
  Message('note_on', channel=9, note=70, velocity=0, time=1),
  Message('note_on', channel=0, note=43, velocity=0, time=99),
  Message('note_on', channel=0, note=31, velocity=64, time=20),
  Message('note_on', channel=1, note=70, velocity=127, time=0),
  Message('note_on', channel=1, note=74, velocity=127, time=0),
  Message('note_on', channel=1, note=78, velocity=127, time=0),
  Message('note_on', channel=4, note=58, velocity=127, time=0),
  Message('note_on', channel=4, note=62, velocity=127, time=0),
  Message('note_on', channel=4, note=66, velocity=127, time=0),
  Message('note_on', channel=6, note=70, velocity=99, time=0),
  Message('note_on', channel=6, note=74, velocity=99, time=0),
  Message('note_on', channel=6, note=78, velocity=99, time=0),
  Message('note_on', channel=7, note=46, velocity=89, time=0),
  Message('note_on', channel=7, note=50, velocity=89, time=0),
  Message('note_on', channel=7, note=54, velocity=89, time=0),
  Message('note_on', channel=9, note=40, velocity=106, time=0),
  Message('note_on', channel=9, note=70, velocity=120, time=0),
  Message('note_on', channel=9, note=60, velocity=96, time=0),
  Message('note_on', channel=9, note=61, velocity=82, time=0),
  Message('note_on', channel=9, note=40, velocity=0, time=1),
  Message('note_on', channel=9, note=70, velocity=0, time=0),
  Message('note_on', channel=9, note=60, velocity=0, time=0),
  Message('note_on', channel=9, note=61, velocity=0, time=0),
  Message('note_on', channel=1, note=70, velocity=0, time=99),
  Message('note_on', channel=1, note=74, velocity=0, time=0),
  Message('note_on', channel=1, note=78, velocity=0, time=0),
  Message('note_on', channel=4, note=58, velocity=0, time=0),
  Message('note_on', channel=4, note=62, velocity=0, time=0),
  Message('note_on', channel=4, note=66, velocity=0, time=0),
  Message('note_on', channel=6, note=70, velocity=0, time=0),
  Message('note_on', channel=6, note=74, velocity=0, time=0),
  Message('note_on', channel=6, note=78, velocity=0, time=0),
  Message('note_on', channel=7, note=46, velocity=0, time=0),
  Message('note_on', channel=7, note=50, velocity=0, time=0),
  Message('note_on', channel=7, note=54, velocity=0, time=0),
  Message('note_on', channel=1, note=71, velocity=127, time=20),
  Message('note_on', channel=1, note=76, velocity=127, time=0),
  Message('note_on', channel=1, note=79, velocity=127, time=0),
  Message('note_on', channel=4, note=59, velocity=127, time=0),
  Message('note_on', channel=4, note=64, velocity=127, time=0),
  Message('note_on', channel=4, note=67, velocity=127, time=0),
  Message('note_on', channel=6, note=71, velocity=99, time=0),
  Message('note_on', channel=6, note=76, velocity=99, time=0),
  Message('note_on', channel=6, note=79, velocity=99, time=0),
  Message('note_on', channel=7, note=47, velocity=89, time=0),
  Message('note_on', channel=7, note=52, velocity=89, time=0),
  Message('note_on', channel=7, note=55, velocity=89, time=0),
  Message('note_on', channel=9, note=40, velocity=106, time=0),
  Message('note_on', channel=9, note=70, velocity=120, time=0),
  Message('note_on', channel=9, note=60, velocity=54, time=0),
  Message('note_on', channel=9, note=40, velocity=0, time=1),
  Message('note_on', channel=9, note=70, velocity=0, time=0),
  Message('note_on', channel=1, note=71, velocity=0, time=99),
  Message('note_on', channel=1, note=76, velocity=0, time=0),
  Message('note_on', channel=1, note=79, velocity=0, time=0),
  Message('note_on', channel=4, note=59, velocity=0, time=0),
  Message('note_on', channel=4, note=64, velocity=0, time=0),
  Message('note_on', channel=4, note=67, velocity=0, time=0),
  Message('note_on', channel=6, note=71, velocity=0, time=0),
  Message('note_on', channel=6, note=76, velocity=0, time=0),
  Message('note_on', channel=6, note=79, velocity=0, time=0),
  Message('note_on', channel=7, note=47, velocity=0, time=0),
  Message('note_on', channel=7, note=52, velocity=0, time=0),
  Message('note_on', channel=7, note=55, velocity=0, time=0),
  Message('note_on', channel=9, note=70, velocity=78, time=20),
  Message('note_on', channel=9, note=70, velocity=0, time=1),
  Message('note_on', channel=9, note=60, velocity=0, time=99),
  Message('note_on', channel=9, note=70, velocity=64, time=20),
  Message('note_on', channel=9, note=61, velocity=82, time=0),
  Message('note_on', channel=9, note=70, velocity=0, time=1),
  Message('note_on', channel=9, note=61, velocity=0, time=0),
  Message('note_on', channel=0, note=31, velocity=0, time=79),
  Message('note_on', channel=0, note=43, velocity=74, time=40),
  Message('note_on', channel=9, note=46, velocity=106, time=0),
  Message('note_on', channel=9, note=70, velocity=120, time=0),
  Message('note_on', channel=9, note=61, velocity=82, time=0),
  Message('note_on', channel=9, note=46, velocity=0, time=1),
  Message('note_on', channel=9, note=70, velocity=0, time=0),
  Message('note_on', channel=9, note=61, velocity=0, time=0),
  Message('note_on', channel=9, note=70, velocity=120, time=119),
  Message('note_on', channel=9, note=70, velocity=0, time=1),
  Message('note_on', channel=0, note=43, velocity=0, time=79),
  Message('note_on', channel=0, note=33, velocity=64, time=40),
  Message('note_on', channel=1, note=74, velocity=127, time=0),
  Message('note_on', channel=1, note=78, velocity=127, time=0),
  Message('note_on', channel=1, note=82, velocity=127, time=0),
  Message('note_on', channel=4, note=62, velocity=127, time=0),
  Message('note_on', channel=4, note=66, velocity=127, time=0),
  Message('note_on', channel=4, note=70, velocity=127, time=0),
  Message('note_on', channel=6, note=74, velocity=99, time=0),
  Message('note_on', channel=6, note=78, velocity=99, time=0),
  Message('note_on', channel=6, note=82, velocity=99, time=0),
  Message('note_on', channel=7, note=50, velocity=89, time=0),
  Message('note_on', channel=7, note=54, velocity=89, time=0),
  Message('note_on', channel=7, note=58, velocity=89, time=0),
  Message('note_on', channel=9, note=40, velocity=106, time=0),
  Message('note_on', channel=9, note=70, velocity=78, time=0),
  Message('note_on', channel=9, note=60, velocity=96, time=0),
  Message('note_on', channel=9, note=40, velocity=0, time=1),
  Message('note_on', channel=9, note=70, velocity=0, time=0),
  Message('note_on', channel=9, note=60, velocity=0, time=0),
  Message('note_on', channel=1, note=74, velocity=0, time=99),
  Message('note_on', channel=1, note=78, velocity=0, time=0),
  Message('note_on', channel=1, note=82, velocity=0, time=0),
  Message('note_on', channel=4, note=62, velocity=0, time=0),
  Message('note_on', channel=4, note=66, velocity=0, time=0),
  Message('note_on', channel=4, note=70, velocity=0, time=0),
  Message('note_on', channel=6, note=74, velocity=0, time=0),
  Message('note_on', channel=6, note=78, velocity=0, time=0),
  Message('note_on', channel=6, note=82, velocity=0, time=0),
  Message('note_on', channel=7, note=50, velocity=0, time=0),
  Message('note_on', channel=7, note=54, velocity=0, time=0),
  Message('note_on', channel=7, note=58, velocity=0, time=0),
  Message('note_on', channel=1, note=73, velocity=127, time=20),
  Message('note_on', channel=1, note=78, velocity=127, time=0),
  Message('note_on', channel=1, note=81, velocity=127, time=0),
  Message('note_on', channel=4, note=61, velocity=127, time=0),
  Message('note_on', channel=4, note=66, velocity=127, time=0),
  Message('note_on', channel=4, note=69, velocity=127, time=0),
  Message('note_on', channel=6, note=73, velocity=99, time=0),
  Message('note_on', channel=6, note=78, velocity=99, time=0),
  Message('note_on', channel=6, note=81, velocity=99, time=0),
  Message('note_on', channel=7, note=49, velocity=89, time=0),
  Message('note_on', channel=7, note=54, velocity=89, time=0),
  Message('note_on', channel=7, note=57, velocity=89, time=0),
  Message('note_on', channel=9, note=40, velocity=106, time=0),
  Message('note_on', channel=9, note=70, velocity=64, time=0),
  Message('note_on', channel=9, note=60, velocity=96, time=0),
  Message('note_on', channel=9, note=40, velocity=0, time=1),
  Message('note_on', channel=9, note=70, velocity=0, time=0),
  Message('note_on', channel=9, note=60, velocity=0, time=0),
  Message('note_on', channel=0, note=33, velocity=0, time=79),
  Message('note_on', channel=1, note=73, velocity=0, time=20),
  Message('note_on', channel=1, note=78, velocity=0, time=0),
  Message('note_on', channel=1, note=81, velocity=0, time=0),
  Message('note_on', channel=4, note=61, velocity=0, time=0),
  Message('note_on', channel=4, note=66, velocity=0, time=0),
  Message('note_on', channel=4, note=69, velocity=0, time=0),
  Message('note_on', channel=6, note=73, velocity=0, time=0),
  Message('note_on', channel=6, note=78, velocity=0, time=0),
  Message('note_on', channel=6, note=81, velocity=0, time=0),
  Message('note_on', channel=7, note=49, velocity=0, time=0),
  Message('note_on', channel=7, note=54, velocity=0, time=0),
  Message('note_on', channel=7, note=57, velocity=0, time=0),
  Message('note_on', channel=0, note=45, velocity=74, time=20),
  Message('note_on', channel=9, note=70, velocity=120, time=0),
  Message('note_on', channel=9, note=70, velocity=0, time=1),
  Message('note_on', channel=9, note=70, velocity=120, time=119),
  Message('note_on', channel=9, note=70, velocity=0, time=1),
  Message('note_on', channel=0, note=45, velocity=0, time=79),
  Message('note_on', channel=0, note=33, velocity=64, time=40),
  Message('note_on', channel=1, note=72, velocity=127, time=0),
  Message('note_on', channel=1, note=76, velocity=127, time=0),
  Message('note_on', channel=1, note=80, velocity=127, time=0),
  Message('note_on', channel=4, note=60, velocity=127, time=0),
  Message('note_on', channel=4, note=64, velocity=127, time=0),
  Message('note_on', channel=4, note=68, velocity=127, time=0),
  Message('note_on', channel=6, note=72, velocity=99, time=0),
  Message('note_on', channel=6, note=76, velocity=99, time=0),
  Message('note_on', channel=6, note=80, velocity=99, time=0),
  Message('note_on', channel=7, note=48, velocity=89, time=0),
  Message('note_on', channel=7, note=52, velocity=89, time=0),
  Message('note_on', channel=7, note=56, velocity=89, time=0),
  Message('note_on', channel=9, note=40, velocity=106, time=0),
  Message('note_on', channel=9, note=70, velocity=78, time=0),
  Message('note_on', channel=9, note=60, velocity=96, time=0),
  Message('note_on', channel=9, note=40, velocity=0, time=1),
  Message('note_on', channel=9, note=70, velocity=0, time=0),
  Message('note_on', channel=9, note=60, velocity=0, time=0),
  Message('note_on', channel=1, note=72, velocity=0, time=99),
  Message('note_on', channel=1, note=76, velocity=0, time=0),
  Message('note_on', channel=1, note=80, velocity=0, time=0),
  Message('note_on', channel=4, note=60, velocity=0, time=0),
  Message('note_on', channel=4, note=64, velocity=0, time=0),
  Message('note_on', channel=4, note=68, velocity=0, time=0),
  Message('note_on', channel=6, note=72, velocity=0, time=0),
  Message('note_on', channel=6, note=76, velocity=0, time=0),
  Message('note_on', channel=6, note=80, velocity=0, time=0),
  Message('note_on', channel=7, note=48, velocity=0, time=0),
  Message('note_on', channel=7, note=52, velocity=0, time=0),
  Message('note_on', channel=7, note=56, velocity=0, time=0),
  Message('note_on', channel=1, note=73, velocity=127, time=20),
  Message('note_on', channel=1, note=77, velocity=127, time=0),
  Message('note_on', channel=1, note=81, velocity=127, time=0),
  Message('note_on', channel=4, note=61, velocity=127, time=0),
  Message('note_on', channel=4, note=65, velocity=127, time=0),
  Message('note_on', channel=4, note=69, velocity=127, time=0),
  Message('note_on', channel=6, note=73, velocity=99, time=0),
  Message('note_on', channel=6, note=77, velocity=99, time=0),
  Message('note_on', channel=6, note=81, velocity=99, time=0),
  Message('note_on', channel=7, note=49, velocity=89, time=0),
  Message('note_on', channel=7, note=53, velocity=89, time=0),
  Message('note_on', channel=7, note=57, velocity=89, time=0),
  Message('note_on', channel=9, note=40, velocity=106, time=0),
  Message('note_on', channel=9, note=70, velocity=64, time=0),
  Message('note_on', channel=9, note=60, velocity=96, time=0),
  Message('note_on', channel=9, note=40, velocity=0, time=1),
  Message('note_on', channel=9, note=70, velocity=0, time=0),
  Message('note_on', channel=9, note=60, velocity=0, time=0),
  Message('note_on', channel=1, note=73, velocity=0, time=99),
  Message('note_on', channel=1, note=77, velocity=0, time=0),
  Message('note_on', channel=1, note=81, velocity=0, time=0),
  Message('note_on', channel=4, note=61, velocity=0, time=0),
  Message('note_on', channel=4, note=65, velocity=0, time=0),
  Message('note_on', channel=4, note=69, velocity=0, time=0),
  Message('note_on', channel=6, note=73, velocity=0, time=0),
  Message('note_on', channel=6, note=77, velocity=0, time=0),
  Message('note_on', channel=6, note=81, velocity=0, time=0),
  Message('note_on', channel=7, note=49, velocity=0, time=0),
  Message('note_on', channel=7, note=53, velocity=0, time=0),
  Message('note_on', channel=7, note=57, velocity=0, time=0),
  Message('note_on', channel=9, note=70, velocity=120, time=20),
  Message('note_on', channel=9, note=70, velocity=0, time=1),
  Message('note_on', channel=0, note=33, velocity=0, time=99),
  Message('note_on', channel=0, note=45, velocity=74, time=20),
  Message('note_on', channel=9, note=70, velocity=120, time=0),
  Message('note_on', channel=9, note=61, velocity=82, time=0),
  Message('note_on', channel=9, note=70, velocity=0, time=1),
  Message('note_on', channel=9, note=61, velocity=0, time=0),
  Message('note_on', channel=9, note=46, velocity=106, time=119),
  Message('note_on', channel=9, note=70, velocity=78, time=0),
  Message('note_on', channel=9, note=61, velocity=82, time=0),
  Message('note_on', channel=9, note=46, velocity=0, time=1),
  Message('note_on', channel=9, note=70, velocity=0, time=0),
  Message('note_on', channel=9, note=61, velocity=0, time=0),
  Message('note_on', channel=9, note=70, velocity=64, time=119),
  Message('note_on', channel=9, note=70, velocity=0, time=1),
  Message('note_on', channel=0, note=45, velocity=0, time=99),
  Message('note_on', channel=0, note=33, velocity=64, time=20),
  Message('note_on', channel=1, note=72, velocity=127, time=0),
  Message('note_on', channel=1, note=76, velocity=127, time=0),
  Message('note_on', channel=1, note=80, velocity=127, time=0),
  Message('note_on', channel=4, note=60, velocity=127, time=0),
  Message('note_on', channel=4, note=64, velocity=127, time=0),
  Message('note_on', channel=4, note=68, velocity=127, time=0),
  Message('note_on', channel=6, note=72, velocity=99, time=0),
  Message('note_on', channel=6, note=76, velocity=99, time=0),
  Message('note_on', channel=6, note=80, velocity=99, time=0),
  Message('note_on', channel=7, note=48, velocity=89, time=0),
  Message('note_on', channel=7, note=52, velocity=89, time=0),
  Message('note_on', channel=7, note=56, velocity=89, time=0),
  Message('note_on', channel=9, note=40, velocity=106, time=0),
  Message('note_on', channel=9, note=70, velocity=120, time=0),
  Message('note_on', channel=9, note=60, velocity=96, time=0),
  Message('note_on', channel=9, note=40, velocity=0, time=1),
  Message('note_on', channel=9, note=70, velocity=0, time=0),
  Message('note_on', channel=9, note=60, velocity=0, time=0),
  Message('note_on', channel=1, note=72, velocity=0, time=99),
  Message('note_on', channel=1, note=76, velocity=0, time=0),
  Message('note_on', channel=1, note=80, velocity=0, time=0),
  Message('note_on', channel=4, note=60, velocity=0, time=0),
  Message('note_on', channel=4, note=64, velocity=0, time=0),
  Message('note_on', channel=4, note=68, velocity=0, time=0),
  Message('note_on', channel=6, note=72, velocity=0, time=0),
  Message('note_on', channel=6, note=76, velocity=0, time=0),
  Message('note_on', channel=6, note=80, velocity=0, time=0),
  Message('note_on', channel=7, note=48, velocity=0, time=0),
  Message('note_on', channel=7, note=52, velocity=0, time=0),
  Message('note_on', channel=7, note=56, velocity=0, time=0),
  Message('note_on', channel=1, note=73, velocity=127, time=20),
  Message('note_on', channel=1, note=77, velocity=127, time=0),
  Message('note_on', channel=1, note=81, velocity=127, time=0),
  Message('note_on', channel=4, note=61, velocity=127, time=0),
  Message('note_on', channel=4, note=65, velocity=127, time=0),
  Message('note_on', channel=4, note=69, velocity=127, time=0),
  Message('note_on', channel=6, note=73, velocity=99, time=0),
  Message('note_on', channel=6, note=77, velocity=99, time=0),
  Message('note_on', channel=6, note=81, velocity=99, time=0),
  Message('note_on', channel=7, note=49, velocity=89, time=0),
  Message('note_on', channel=7, note=53, velocity=89, time=0),
  Message('note_on', channel=7, note=57, velocity=89, time=0),
  Message('note_on', channel=9, note=40, velocity=106, time=0),
  Message('note_on', channel=9, note=70, velocity=120, time=0),
  Message('note_on', channel=9, note=60, velocity=96, time=0),
  Message('note_on', channel=9, note=40, velocity=0, time=1),
  Message('note_on', channel=9, note=70, velocity=0, time=0),
  Message('note_on', channel=9, note=60, velocity=0, time=0),
  Message('note_on', channel=1, note=73, velocity=0, time=99),
  Message('note_on', channel=1, note=77, velocity=0, time=0),
  Message('note_on', channel=1, note=81, velocity=0, time=0),
  Message('note_on', channel=4, note=61, velocity=0, time=0),
  Message('note_on', channel=4, note=65, velocity=0, time=0),
  Message('note_on', channel=4, note=69, velocity=0, time=0),
  Message('note_on', channel=6, note=73, velocity=0, time=0),
  Message('note_on', channel=6, note=77, velocity=0, time=0),
  Message('note_on', channel=6, note=81, velocity=0, time=0),
  Message('note_on', channel=7, note=49, velocity=0, time=0),
  Message('note_on', channel=7, note=53, velocity=0, time=0),
  Message('note_on', channel=7, note=57, velocity=0, time=0),
  Message('note_on', channel=9, note=70, velocity=78, time=20),
  Message('note_on', channel=9, note=70, velocity=0, time=1),
  Message('note_on', channel=9, note=70, velocity=64, time=119),
  Message('note_on', channel=9, note=61, velocity=82, time=0),
  Message('note_on', channel=9, note=70, velocity=0, time=1),
  Message('note_on', channel=9, note=61, velocity=0, time=0),
  Message('note_on', channel=0, note=33, velocity=0, time=79),
  Message('note_on', channel=0, note=45, velocity=74, time=40),
  Message('note_on', channel=9, note=46, velocity=106, time=0),
  Message('note_on', channel=9, note=70, velocity=120, time=0),
  Message('note_on', channel=9, note=61, velocity=82, time=0),
  Message('note_on', channel=9, note=46, velocity=0, time=1),
  Message('note_on', channel=9, note=70, velocity=0, time=0),
  Message('note_on', channel=9, note=61, velocity=0, time=0),
  Message('note_on', channel=9, note=70, velocity=120, time=119),
  Message('note_on', channel=9, note=70, velocity=0, time=1),
  Message('note_on', channel=0, note=45, velocity=0, time=79),
  Message('note_on', channel=0, note=35, velocity=64, time=40),
  Message('note_on', channel=1, note=76, velocity=127, time=0),
  Message('note_on', channel=1, note=80, velocity=127, time=0),
  Message('note_on', channel=1, note=84, velocity=127, time=0),
  Message('note_on', channel=4, note=64, velocity=127, time=0),
  Message('note_on', channel=4, note=68, velocity=127, time=0),
  Message('note_on', channel=4, note=72, velocity=127, time=0),
  Message('note_on', channel=6, note=76, velocity=99, time=0),
  Message('note_on', channel=6, note=80, velocity=99, time=0),
  Message('note_on', channel=6, note=84, velocity=99, time=0),
  Message('note_on', channel=7, note=52, velocity=89, time=0),
  Message('note_on', channel=7, note=56, velocity=89, time=0),
  Message('note_on', channel=7, note=60, velocity=89, time=0),
  Message('note_on', channel=9, note=40, velocity=78, time=0),
  Message('note_on', channel=9, note=70, velocity=78, time=0),
  Message('note_on', channel=9, note=60, velocity=96, time=0),
  Message('note_on', channel=9, note=40, velocity=0, time=1),
  Message('note_on', channel=9, note=70, velocity=0, time=0),
  Message('note_on', channel=9, note=60, velocity=0, time=0),
  Message('note_on', channel=9, note=40, velocity=78, time=59),
  Message('note_on', channel=9, note=60, velocity=96, time=0),
  Message('note_on', channel=9, note=40, velocity=0, time=1),
  Message('note_on', channel=9, note=60, velocity=0, time=0),
  Message('note_on', channel=1, note=76, velocity=0, time=39),
  Message('note_on', channel=1, note=80, velocity=0, time=0),
  Message('note_on', channel=1, note=84, velocity=0, time=0),
  Message('note_on', channel=4, note=64, velocity=0, time=0),
  Message('note_on', channel=4, note=68, velocity=0, time=0),
  Message('note_on', channel=4, note=72, velocity=0, time=0),
  Message('note_on', channel=6, note=76, velocity=0, time=0),
  Message('note_on', channel=6, note=80, velocity=0, time=0),
  Message('note_on', channel=6, note=84, velocity=0, time=0),
  Message('note_on', channel=7, note=52, velocity=0, time=0),
  Message('note_on', channel=7, note=56, velocity=0, time=0),
  Message('note_on', channel=7, note=60, velocity=0, time=0),
  Message('note_on', channel=1, note=75, velocity=127, time=20),
  Message('note_on', channel=1, note=80, velocity=127, time=0),
  Message('note_on', channel=1, note=83, velocity=127, time=0),
  Message('note_on', channel=4, note=63, velocity=127, time=0),
  Message('note_on', channel=4, note=68, velocity=127, time=0),
  Message('note_on', channel=4, note=71, velocity=127, time=0),
  Message('note_on', channel=6, note=75, velocity=99, time=0),
  Message('note_on', channel=6, note=80, velocity=99, time=0),
  Message('note_on', channel=6, note=83, velocity=99, time=0),
  Message('note_on', channel=7, note=51, velocity=89, time=0),
  Message('note_on', channel=7, note=56, velocity=89, time=0),
  Message('note_on', channel=7, note=59, velocity=89, time=0),
  Message('note_on', channel=9, note=40, velocity=78, time=0),
  Message('note_on', channel=9, note=70, velocity=64, time=0),
  Message('note_on', channel=9, note=60, velocity=96, time=0),
  Message('note_on', channel=9, note=40, velocity=0, time=1),
  Message('note_on', channel=9, note=70, velocity=0, time=0),
  Message('note_on', channel=9, note=60, velocity=0, time=0),
  Message('note_on', channel=9, note=40, velocity=78, time=59),
  Message('note_on', channel=9, note=60, velocity=96, time=0),
  Message('note_on', channel=9, note=40, velocity=0, time=1),
  Message('note_on', channel=9, note=60, velocity=0, time=0),
  Message('note_on', channel=0, note=35, velocity=0, time=19),
  Message('note_on', channel=1, note=75, velocity=0, time=20),
  Message('note_on', channel=1, note=80, velocity=0, time=0),
  Message('note_on', channel=1, note=83, velocity=0, time=0),
  Message('note_on', channel=4, note=63, velocity=0, time=0),
  Message('note_on', channel=4, note=68, velocity=0, time=0),
  Message('note_on', channel=4, note=71, velocity=0, time=0),
  Message('note_on', channel=6, note=75, velocity=0, time=0),
  Message('note_on', channel=6, note=80, velocity=0, time=0),
  Message('note_on', channel=6, note=83, velocity=0, time=0),
  Message('note_on', channel=7, note=51, velocity=0, time=0),
  Message('note_on', channel=7, note=56, velocity=0, time=0),
  Message('note_on', channel=7, note=59, velocity=0, time=0),
  Message('note_on', channel=0, note=47, velocity=74, time=20),
  Message('note_on', channel=9, note=40, velocity=120, time=0),
  Message('note_on', channel=9, note=70, velocity=120, time=0),
  Message('note_on', channel=9, note=60, velocity=96, time=0),
  Message('note_on', channel=9, note=40, velocity=0, time=1),
  Message('note_on', channel=9, note=70, velocity=0, time=0),
  Message('note_on', channel=9, note=60, velocity=0, time=0),
  Message('note_on', channel=9, note=40, velocity=120, time=119),
  Message('note_on', channel=9, note=70, velocity=120, time=0),
  Message('note_on', channel=9, note=60, velocity=96, time=0),
  Message('note_on', channel=9, note=40, velocity=0, time=1),
  Message('note_on', channel=9, note=70, velocity=0, time=0),
  Message('note_on', channel=9, note=60, velocity=0, time=0),
  Message('note_on', channel=0, note=47, velocity=0, time=79),
  Message('note_on', channel=0, note=36, velocity=64, time=40),
  Message('note_on', channel=1, note=72, velocity=114, time=0),
  Message('note_on', channel=4, note=60, velocity=114, time=0),
  Message('note_on', channel=6, note=72, velocity=99, time=0),
  Message('note_on', channel=7, note=48, velocity=89, time=0),
  Message('note_on', channel=9, note=49, velocity=120, time=0),
  Message('note_on', channel=9, note=70, velocity=78, time=0),
  Message('note_on', channel=9, note=61, velocity=82, time=0),
  Message('note_on', channel=9, note=49, velocity=0, time=1),
  Message('note_on', channel=9, note=70, velocity=0, time=0),
  Message('note_on', channel=9, note=61, velocity=0, time=0),
  Message('note_on', channel=1, note=72, velocity=0, time=99),
  Message('note_on', channel=4, note=60, velocity=0, time=0),
  Message('note_on', channel=6, note=72, velocity=0, time=0),
  Message('note_on', channel=7, note=48, velocity=0, time=0),
  Message('note_on', channel=1, note=79, velocity=114, time=20),
  Message('note_on', channel=4, note=67, velocity=114, time=0),
  Message('note_on', channel=6, note=79, velocity=99, time=0),
  Message('note_on', channel=7, note=55, velocity=89, time=0),
  Message('note_on', channel=9, note=70, velocity=64, time=0),
  Message('note_on', channel=9, note=70, velocity=0, time=1),
  Message('note_on', channel=1, note=79, velocity=0, time=99),
  Message('note_on', channel=4, note=67, velocity=0, time=0),
  Message('note_on', channel=6, note=79, velocity=0, time=0),
  Message('note_on', channel=7, note=55, velocity=0, time=0),
  Message('note_on', channel=9, note=70, velocity=120, time=20),
  Message('note_on', channel=9, note=61, velocity=82, time=0),
  Message('note_on', channel=9, note=70, velocity=0, time=1),
  Message('note_on', channel=9, note=61, velocity=0, time=0),
  Message('note_on', channel=0, note=36, velocity=0, time=99),
  Message('note_on', channel=0, note=43, velocity=74, time=20),
  Message('note_on', channel=1, note=72, velocity=114, time=0),
  Message('note_on', channel=4, note=60, velocity=114, time=0),
  Message('note_on', channel=6, note=72, velocity=99, time=0),
  Message('note_on', channel=7, note=48, velocity=89, time=0),
  Message('note_on', channel=9, note=70, velocity=120, time=0),
  Message('note_on', channel=9, note=70, velocity=0, time=1),
  Message('note_on', channel=1, note=72, velocity=0, time=99),
  Message('note_on', channel=4, note=60, velocity=0, time=0),
  Message('note_on', channel=6, note=72, velocity=0, time=0),
  Message('note_on', channel=7, note=48, velocity=0, time=0),
  Message('note_on', channel=1, note=78, velocity=114, time=20),
  Message('note_on', channel=4, note=66, velocity=114, time=0),
  Message('note_on', channel=6, note=78, velocity=99, time=0),
  Message('note_on', channel=7, note=54, velocity=89, time=0),
  Message('note_on', channel=9, note=42, velocity=92, time=0),
  Message('note_on', channel=9, note=70, velocity=78, time=0),
  Message('note_on', channel=9, note=60, velocity=96, time=0),
  Message('note_on', channel=9, note=42, velocity=0, time=1),
  Message('note_on', channel=9, note=70, velocity=0, time=0),
  Message('note_on', channel=9, note=60, velocity=0, time=0),
  Message('note_on', channel=1, note=78, velocity=0, time=99),
  Message('note_on', channel=4, note=66, velocity=0, time=0),
  Message('note_on', channel=6, note=78, velocity=0, time=0),
  Message('note_on', channel=7, note=54, velocity=0, time=0),
  Message('note_on', channel=9, note=70, velocity=64, time=20),
  Message('note_on', channel=9, note=70, velocity=0, time=1),
  Message('note_on', channel=0, note=43, velocity=0, time=99),
  Message('note_on', channel=0, note=42, velocity=64, time=20),
  Message('note_on', channel=1, note=72, velocity=114, time=0),
  Message('note_on', channel=4, note=60, velocity=114, time=0),
  Message('note_on', channel=6, note=72, velocity=99, time=0),
  Message('note_on', channel=7, note=48, velocity=89, time=0),
  Message('note_on', channel=9, note=70, velocity=120, time=0),
  Message('note_on', channel=9, note=61, velocity=54, time=0),
  Message('note_on', channel=9, note=70, velocity=0, time=1),
  Message('note_on', channel=9, note=61, velocity=0, time=0),
  Message('note_on', channel=1, note=72, velocity=0, time=99),
  Message('note_on', channel=4, note=60, velocity=0, time=0),
  Message('note_on', channel=6, note=72, velocity=0, time=0),
  Message('note_on', channel=7, note=48, velocity=0, time=0),
  Message('note_on', channel=1, note=75, velocity=114, time=20),
  Message('note_on', channel=4, note=63, velocity=114, time=0),
  Message('note_on', channel=6, note=75, velocity=99, time=0),
  Message('note_on', channel=7, note=51, velocity=89, time=0),
  Message('note_on', channel=9, note=70, velocity=120, time=0),
  Message('note_on', channel=9, note=61, velocity=82, time=0),
  Message('note_on', channel=9, note=70, velocity=0, time=1),
  Message('note_on', channel=9, note=61, velocity=0, time=0),
  Message('note_on', channel=0, note=42, velocity=0, time=99),
  Message('note_on', channel=1, note=75, velocity=0, time=0),
  Message('note_on', channel=4, note=63, velocity=0, time=0),
  Message('note_on', channel=6, note=75, velocity=0, time=0),
  Message('note_on', channel=7, note=51, velocity=0, time=0),
  Message('note_on', channel=0, note=41, velocity=64, time=20),
  Message('note_on', channel=9, note=42, velocity=92, time=0),
  Message('note_on', channel=9, note=70, velocity=78, time=0),
  Message('note_on', channel=9, note=61, velocity=82, time=0),
  Message('note_on', channel=9, note=42, velocity=0, time=1),
  Message('note_on', channel=9, note=70, velocity=0, time=0),
  Message('note_on', channel=9, note=61, velocity=0, time=0),
  Message('note_on', channel=1, note=72, velocity=114, time=119),
  Message('note_on', channel=4, note=60, velocity=114, time=0),
  Message('note_on', channel=6, note=72, velocity=99, time=0),
  Message('note_on', channel=7, note=48, velocity=89, time=0),
  Message('note_on', channel=9, note=70, velocity=64, time=0),
  Message('note_on', channel=9, note=60, velocity=82, time=0),
  Message('note_on', channel=9, note=70, velocity=0, time=1),
  Message('note_on', channel=9, note=60, velocity=0, time=0),
  Message('note_on', channel=1, note=72, velocity=0, time=99),
  Message('note_on', channel=4, note=60, velocity=0, time=0),
  Message('note_on', channel=6, note=72, velocity=0, time=0),
  Message('note_on', channel=7, note=48, velocity=0, time=0),
  Message('note_on', channel=1, note=70, velocity=114, time=20),
  Message('note_on', channel=4, note=58, velocity=114, time=0),
  Message('note_on', channel=6, note=70, velocity=99, time=0),
  Message('note_on', channel=7, note=46, velocity=89, time=0),
  Message('note_on', channel=9, note=70, velocity=120, time=0),
  Message('note_on', channel=9, note=60, velocity=82, time=0),
  Message('note_on', channel=9, note=70, velocity=0, time=1),
  Message('note_on', channel=9, note=60, velocity=0, time=0),
  Message('note_on', channel=0, note=41, velocity=0, time=99),
  Message('note_on', channel=0, note=39, velocity=64, time=20),
  Message('note_on', channel=9, note=70, velocity=120, time=0),
  Message('note_on', channel=9, note=60, velocity=82, time=0),
  Message('note_on', channel=9, note=70, velocity=0, time=1),
  Message('note_on', channel=9, note=60, velocity=0, time=0),
  Message('note_on', channel=9, note=46, velocity=92, time=119),
  Message('note_on', channel=9, note=70, velocity=78, time=0),
  Message('note_on', channel=9, note=60, velocity=82, time=0),
  Message('note_on', channel=9, note=46, velocity=0, time=1),
  Message('note_on', channel=9, note=70, velocity=0, time=0),
  Message('note_on', channel=9, note=60, velocity=0, time=0),
  Message('note_on', channel=9, note=70, velocity=64, time=119),
  Message('note_on', channel=9, note=70, velocity=0, time=1),
  Message('note_on', channel=0, note=39, velocity=0, time=99),
  Message('note_on', channel=1, note=70, velocity=0, time=0),
  Message('note_on', channel=4, note=58, velocity=0, time=0),
  Message('note_on', channel=6, note=70, velocity=0, time=0),
  Message('note_on', channel=7, note=46, velocity=0, time=0),
  Message('note_on', channel=0, note=34, velocity=64, time=20),
  Message('note_on', channel=1, note=72, velocity=114, time=0),
  Message('note_on', channel=4, note=60, velocity=114, time=0),
  Message('note_on', channel=6, note=72, velocity=99, time=0),
  Message('note_on', channel=7, note=48, velocity=89, time=0),
  Message('note_on', channel=9, note=70, velocity=120, time=0),
  Message('note_on', channel=9, note=60, velocity=82, time=0),
  Message('note_on', channel=9, note=70, velocity=0, time=1),
  Message('note_on', channel=9, note=60, velocity=0, time=0),
  Message('note_on', channel=9, note=42, velocity=92, time=119),
  Message('note_on', channel=9, note=70, velocity=120, time=0),
  Message('note_on', channel=9, note=60, velocity=82, time=0),
  Message('note_on', channel=9, note=42, velocity=0, time=1),
  Message('note_on', channel=9, note=70, velocity=0, time=0),
  Message('note_on', channel=9, note=60, velocity=0, time=0),
  Message('note_on', channel=0, note=34, velocity=0, time=99),
  Message('note_on', channel=1, note=72, velocity=0, time=0),
  Message('note_on', channel=4, note=60, velocity=0, time=0),
  Message('note_on', channel=6, note=72, velocity=0, time=0),
  Message('note_on', channel=7, note=48, velocity=0, time=0),
  Message('note_on', channel=0, note=36, velocity=74, time=20),
  Message('note_on', channel=0, note=36, velocity=0, time=450),
  Message('note_on', channel=0, note=31, velocity=74, time=30),
  Message('note_on', channel=1, note=68, velocity=114, time=0),
  Message('note_on', channel=1, note=74, velocity=114, time=0),
  Message('note_on', channel=1, note=79, velocity=114, time=0),
  Message('note_on', channel=4, note=56, velocity=114, time=0),
  Message('note_on', channel=4, note=62, velocity=114, time=0),
  Message('note_on', channel=4, note=67, velocity=114, time=0),
  Message('note_on', channel=6, note=68, velocity=99, time=0),
  Message('note_on', channel=6, note=74, velocity=99, time=0),
  Message('note_on', channel=6, note=79, velocity=99, time=0),
  Message('note_on', channel=7, note=44, velocity=89, time=0),
  Message('note_on', channel=7, note=50, velocity=89, time=0),
  Message('note_on', channel=7, note=55, velocity=89, time=0),
  Message('note_on', channel=9, note=40, velocity=120, time=0),
  Message('note_on', channel=9, note=70, velocity=120, time=0),
  Message('note_on', channel=9, note=61, velocity=96, time=0),
  Message('note_on', channel=9, note=40, velocity=0, time=1),
  Message('note_on', channel=9, note=70, velocity=0, time=0),
  Message('note_on', channel=9, note=61, velocity=0, time=0),
  Message('note_on', channel=6, note=68, velocity=0, time=199),
  Message('note_on', channel=6, note=74, velocity=0, time=0),
  Message('note_on', channel=6, note=79, velocity=0, time=0),
  Message('note_on', channel=1, note=68, velocity=0, time=20),
  Message('note_on', channel=1, note=74, velocity=0, time=0),
  Message('note_on', channel=1, note=79, velocity=0, time=0),
  Message('note_on', channel=4, note=56, velocity=0, time=0),
  Message('note_on', channel=4, note=62, velocity=0, time=0),
  Message('note_on', channel=4, note=67, velocity=0, time=0),
  Message('note_on', channel=7, note=44, velocity=0, time=0),
  Message('note_on', channel=7, note=50, velocity=0, time=0),
  Message('note_on', channel=7, note=55, velocity=0, time=0),
  Message('note_on', channel=0, note=31, velocity=0, time=230),
  Message('note_on', channel=0, note=34, velocity=74, time=30),
  Message('note_on', channel=0, note=44, velocity=74, time=0),
  Message('note_on', channel=1, note=72, velocity=114, time=0),
  Message('note_on', channel=1, note=75, velocity=114, time=0),
  Message('note_on', channel=1, note=79, velocity=114, time=0),
  Message('note_on', channel=1, note=82, velocity=114, time=0),
  Message('note_on', channel=4, note=60, velocity=114, time=0),
  Message('note_on', channel=4, note=63, velocity=114, time=0),
  Message('note_on', channel=4, note=67, velocity=114, time=0),
  Message('note_on', channel=4, note=70, velocity=114, time=0),
  Message('note_on', channel=6, note=72, velocity=99, time=0),
  Message('note_on', channel=6, note=75, velocity=99, time=0),
  Message('note_on', channel=6, note=79, velocity=99, time=0),
  Message('note_on', channel=6, note=82, velocity=99, time=0),
  Message('note_on', channel=7, note=48, velocity=89, time=0),
  Message('note_on', channel=7, note=51, velocity=89, time=0),
  Message('note_on', channel=7, note=55, velocity=89, time=0),
  Message('note_on', channel=7, note=58, velocity=89, time=0),
  Message('note_on', channel=9, note=40, velocity=120, time=0),
  Message('note_on', channel=9, note=70, velocity=120, time=0),
  Message('note_on', channel=9, note=60, velocity=96, time=0),
  Message('note_on', channel=9, note=40, velocity=0, time=1),
  Message('note_on', channel=9, note=70, velocity=0, time=0),
  Message('note_on', channel=9, note=60, velocity=0, time=0),
  Message('note_on', channel=0, note=34, velocity=0, time=219),
  Message('note_on', channel=0, note=44, velocity=0, time=0),
  Message('note_on', channel=1, note=72, velocity=0, time=0),
  Message('note_on', channel=1, note=75, velocity=0, time=0),
  Message('note_on', channel=1, note=79, velocity=0, time=0),
  Message('note_on', channel=1, note=82, velocity=0, time=0),
  Message('note_on', channel=4, note=60, velocity=0, time=0),
  Message('note_on', channel=4, note=63, velocity=0, time=0),
  Message('note_on', channel=4, note=67, velocity=0, time=0),
  Message('note_on', channel=4, note=70, velocity=0, time=0),
  Message('note_on', channel=6, note=72, velocity=0, time=0),
  Message('note_on', channel=6, note=75, velocity=0, time=0),
  Message('note_on', channel=6, note=79, velocity=0, time=0),
  Message('note_on', channel=6, note=82, velocity=0, time=0),
  Message('note_on', channel=7, note=48, velocity=0, time=0),
  Message('note_on', channel=7, note=51, velocity=0, time=0),
  Message('note_on', channel=7, note=55, velocity=0, time=0),
  Message('note_on', channel=7, note=58, velocity=0, time=0),
  Message('note_on', channel=0, note=35, velocity=74, time=20),
  Message('note_on', channel=0, note=45, velocity=74, time=0),
  Message('note_on', channel=1, note=73, velocity=114, time=0),
  Message('note_on', channel=1, note=76, velocity=114, time=0),
  Message('note_on', channel=1, note=79, velocity=114, time=0),
  Message('note_on', channel=1, note=83, velocity=114, time=0),
  Message('note_on', channel=4, note=61, velocity=114, time=0),
  Message('note_on', channel=4, note=64, velocity=114, time=0),
  Message('note_on', channel=4, note=67, velocity=114, time=0),
  Message('note_on', channel=4, note=71, velocity=114, time=0),
  Message('note_on', channel=6, note=73, velocity=99, time=0),
  Message('note_on', channel=6, note=76, velocity=99, time=0),
  Message('note_on', channel=6, note=79, velocity=99, time=0),
  Message('note_on', channel=6, note=83, velocity=99, time=0),
  Message('note_on', channel=7, note=49, velocity=89, time=0),
  Message('note_on', channel=7, note=52, velocity=89, time=0),
  Message('note_on', channel=7, note=55, velocity=89, time=0),
  Message('note_on', channel=7, note=59, velocity=89, time=0),
  Message('note_on', channel=9, note=42, velocity=120, time=0),
  Message('note_on', channel=9, note=40, velocity=120, time=0),
  Message('note_on', channel=9, note=70, velocity=120, time=0),
  Message('note_on', channel=9, note=61, velocity=96, time=0),
  Message('note_on', channel=9, note=42, velocity=0, time=1),
  Message('note_on', channel=9, note=40, velocity=0, time=0),
  Message('note_on', channel=9, note=70, velocity=0, time=0),
  Message('note_on', channel=9, note=61, velocity=0, time=0),
  Message('note_on', channel=0, note=35, velocity=0, time=219),
  Message('note_on', channel=0, note=45, velocity=0, time=0),
  Message('note_on', channel=1, note=73, velocity=0, time=0),
  Message('note_on', channel=1, note=76, velocity=0, time=0),
  Message('note_on', channel=1, note=79, velocity=0, time=0),
  Message('note_on', channel=1, note=83, velocity=0, time=0),
  Message('note_on', channel=4, note=61, velocity=0, time=0),
  Message('note_on', channel=4, note=64, velocity=0, time=0),
  Message('note_on', channel=4, note=67, velocity=0, time=0),
  Message('note_on', channel=4, note=71, velocity=0, time=0),
  Message('note_on', channel=6, note=73, velocity=0, time=0),
  Message('note_on', channel=6, note=76, velocity=0, time=0),
  Message('note_on', channel=6, note=79, velocity=0, time=0),
  Message('note_on', channel=6, note=83, velocity=0, time=0),
  Message('note_on', channel=7, note=49, velocity=0, time=0),
  Message('note_on', channel=7, note=52, velocity=0, time=0),
  Message('note_on', channel=7, note=55, velocity=0, time=0),
  Message('note_on', channel=7, note=59, velocity=0, time=0),
  Message('note_on', channel=0, note=36, velocity=74, time=260),
  Message('note_on', channel=0, note=46, velocity=74, time=0),
  Message('note_on', channel=1, note=73, velocity=127, time=0),
  Message('note_on', channel=1, note=77, velocity=127, time=0),
  Message('note_on', channel=1, note=81, velocity=127, time=0),
  Message('note_on', channel=1, note=84, velocity=127, time=0),
  Message('note_on', channel=4, note=61, velocity=127, time=0),
  Message('note_on', channel=4, note=65, velocity=127, time=0),
  Message('note_on', channel=4, note=69, velocity=127, time=0),
  Message('note_on', channel=4, note=72, velocity=127, time=0),
  Message('note_on', channel=6, note=73, velocity=99, time=0),
  Message('note_on', channel=6, note=77, velocity=99, time=0),
  Message('note_on', channel=6, note=81, velocity=99, time=0),
  Message('note_on', channel=6, note=84, velocity=99, time=0),
  Message('note_on', channel=7, note=49, velocity=89, time=0),
  Message('note_on', channel=7, note=53, velocity=89, time=0),
  Message('note_on', channel=7, note=57, velocity=89, time=0),
  Message('note_on', channel=7, note=60, velocity=89, time=0),
  Message('note_on', channel=9, note=60, velocity=96, time=0),
  Message('note_on', channel=9, note=60, velocity=0, time=1),
  Message('note_on', channel=9, note=60, velocity=82, time=59),
  Message('note_on', channel=9, note=60, velocity=0, time=1),
  Message('note_on', channel=9, note=60, velocity=96, time=59),
  Message('note_on', channel=9, note=60, velocity=0, time=1),
  Message('note_on', channel=9, note=60, velocity=82, time=59),
  Message('note_on', channel=9, note=60, velocity=0, time=1),
  Message('note_on', channel=9, note=70, velocity=78, time=59),
  Message('note_on', channel=9, note=60, velocity=96, time=0),
  Message('note_on', channel=9, note=70, velocity=0, time=1),
  Message('note_on', channel=9, note=60, velocity=0, time=0),
  Message('note_on', channel=9, note=60, velocity=82, time=59),
  Message('note_on', channel=9, note=60, velocity=0, time=1),
  Message('note_on', channel=9, note=70, velocity=64, time=59),
  Message('note_on', channel=9, note=60, velocity=96, time=0),
  Message('note_on', channel=9, note=70, velocity=0, time=1),
  Message('note_on', channel=9, note=60, velocity=0, time=0),
  Message('note_on', channel=9, note=60, velocity=82, time=59),
  Message('note_on', channel=9, note=60, velocity=0, time=1),
  Message('note_on', channel=9, note=70, velocity=120, time=59),
  Message('note_on', channel=9, note=60, velocity=96, time=0),
  Message('note_on', channel=9, note=70, velocity=0, time=1),
  Message('note_on', channel=9, note=60, velocity=0, time=0),
  Message('note_on', channel=9, note=60, velocity=82, time=59),
  Message('note_on', channel=9, note=60, velocity=0, time=1),
  Message('note_on', channel=0, note=36, velocity=0, time=39),
  Message('note_on', channel=0, note=46, velocity=0, time=0),
  Message('note_on', channel=0, note=36, velocity=64, time=20),
  Message('note_on', channel=9, note=70, velocity=120, time=0),
  Message('note_on', channel=9, note=60, velocity=96, time=0),
  Message('note_on', channel=9, note=70, velocity=0, time=1),
  Message('note_on', channel=9, note=60, velocity=0, time=0),
  Message('note_on', channel=9, note=60, velocity=82, time=59),
  Message('note_on', channel=9, note=60, velocity=0, time=1),
  Message('note_on', channel=9, note=42, velocity=92, time=59),
  Message('note_on', channel=9, note=70, velocity=78, time=0),
  Message('note_on', channel=9, note=60, velocity=96, time=0),
  Message('note_on', channel=9, note=42, velocity=0, time=1),
  Message('note_on', channel=9, note=70, velocity=0, time=0),
  Message('note_on', channel=9, note=60, velocity=0, time=0),
  Message('note_on', channel=9, note=60, velocity=82, time=59),
  Message('note_on', channel=9, note=60, velocity=0, time=1),
  Message('note_on', channel=9, note=70, velocity=64, time=59),
  Message('note_on', channel=9, note=60, velocity=82, time=0),
  Message('note_on', channel=9, note=70, velocity=0, time=1),
  Message('note_on', channel=9, note=60, velocity=0, time=0),
  Message('note_on', channel=9, note=60, velocity=68, time=59),
  Message('note_on', channel=9, note=60, velocity=0, time=1),
  Message('note_on', channel=0, note=36, velocity=0, time=39),
  Message('note_on', channel=0, note=43, velocity=64, time=20),
  Message('note_on', channel=9, note=70, velocity=120, time=0),
  Message('note_on', channel=9, note=60, velocity=82, time=0),
  Message('note_on', channel=9, note=70, velocity=0, time=1),
  Message('note_on', channel=9, note=60, velocity=0, time=0),
  Message('note_on', channel=9, note=60, velocity=68, time=59),
  Message('note_on', channel=9, note=60, velocity=0, time=1),
  Message('note_on', channel=9, note=70, velocity=120, time=59),
  Message('note_on', channel=9, note=60, velocity=82, time=0),
  Message('note_on', channel=9, note=70, velocity=0, time=1),
  Message('note_on', channel=9, note=60, velocity=0, time=0),
  Message('note_on', channel=9, note=60, velocity=68, time=59),
  Message('note_on', channel=9, note=60, velocity=0, time=1),
  Message('note_on', channel=0, note=43, velocity=0, time=39),
  Message('note_on', channel=0, note=48, velocity=64, time=20),
  Message('note_on', channel=9, note=42, velocity=92, time=0),
  Message('note_on', channel=9, note=70, velocity=78, time=0),
  Message('note_on', channel=9, note=60, velocity=82, time=0),
  Message('note_on', channel=9, note=42, velocity=0, time=1),
  Message('note_on', channel=9, note=70, velocity=0, time=0),
  Message('note_on', channel=9, note=60, velocity=0, time=0),
  Message('note_on', channel=9, note=60, velocity=68, time=59),
  Message('note_on', channel=9, note=60, velocity=0, time=1),
  Message('note_on', channel=9, note=70, velocity=64, time=59),
  Message('note_on', channel=9, note=60, velocity=68, time=0),
  Message('note_on', channel=9, note=70, velocity=0, time=1),
  Message('note_on', channel=9, note=60, velocity=0, time=0),
  Message('note_on', channel=9, note=60, velocity=54, time=59),
  Message('note_on', channel=9, note=60, velocity=0, time=1),
  Message('note_on', channel=9, note=70, velocity=120, time=59),
  Message('note_on', channel=9, note=60, velocity=68, time=0),
  Message('note_on', channel=9, note=70, velocity=0, time=1),
  Message('note_on', channel=9, note=60, velocity=0, time=0),
  Message('note_on', channel=9, note=60, velocity=54, time=59),
  Message('note_on', channel=9, note=60, velocity=0, time=1),
  Message('note_on', channel=0, note=48, velocity=0, time=39),
  Message('note_on', channel=0, note=48, velocity=64, time=20),
  Message('note_on', channel=9, note=70, velocity=120, time=0),
  Message('note_on', channel=9, note=60, velocity=68, time=0),
  Message('note_on', channel=9, note=70, velocity=0, time=1),
  Message('note_on', channel=9, note=60, velocity=0, time=0),
  Message('note_on', channel=9, note=60, velocity=54, time=59),
  Message('note_on', channel=9, note=60, velocity=0, time=1),
  Message('note_on', channel=9, note=46, velocity=92, time=59),
  Message('note_on', channel=9, note=70, velocity=78, time=0),
  Message('note_on', channel=9, note=46, velocity=0, time=1),
  Message('note_on', channel=9, note=70, velocity=0, time=0),
  Message('note_on', channel=9, note=70, velocity=64, time=119),
  Message('note_on', channel=9, note=70, velocity=0, time=1),
  Message('note_on', channel=0, note=48, velocity=0, time=99),
  Message('note_on', channel=0, note=43, velocity=64, time=20),
  Message('note_on', channel=1, note=73, velocity=0, time=0),
  Message('note_on', channel=1, note=77, velocity=0, time=0),
  Message('note_on', channel=1, note=81, velocity=0, time=0),
  Message('note_on', channel=1, note=84, velocity=0, time=0),
  Message('note_on', channel=1, note=72, velocity=104, time=0),
  Message('note_on', channel=6, note=73, velocity=0, time=0),
  Message('note_on', channel=6, note=77, velocity=0, time=0),
  Message('note_on', channel=6, note=81, velocity=0, time=0),
  Message('note_on', channel=6, note=84, velocity=0, time=0),
  Message('note_on', channel=6, note=72, velocity=99, time=0),
  Message('note_on', channel=9, note=70, velocity=120, time=0),
  Message('note_on', channel=9, note=70, velocity=0, time=1),
  Message('note_on', channel=9, note=70, velocity=120, time=119),
  Message('note_on', channel=9, note=60, velocity=96, time=0),
  Message('note_on', channel=9, note=70, velocity=0, time=1),
  Message('note_on', channel=9, note=60, velocity=0, time=0),
  Message('note_on', channel=0, note=43, velocity=0, time=99),
  Message('note_on', channel=1, note=72, velocity=0, time=0),
  Message('note_on', channel=4, note=61, velocity=0, time=0),
  Message('note_on', channel=4, note=65, velocity=0, time=0),
  Message('note_on', channel=4, note=69, velocity=0, time=0),
  Message('note_on', channel=4, note=72, velocity=0, time=0),
  Message('note_on', channel=6, note=72, velocity=0, time=0),
  Message('note_on', channel=7, note=49, velocity=0, time=0),
  Message('note_on', channel=7, note=53, velocity=0, time=0),
  Message('note_on', channel=7, note=57, velocity=0, time=0),
  Message('note_on', channel=7, note=60, velocity=0, time=0),
  Message('note_on', channel=0, note=36, velocity=64, time=20),
  Message('note_on', channel=1, note=67, velocity=104, time=0),
  Message('note_on', channel=1, note=71, velocity=104, time=0),
  Message('note_on', channel=4, note=55, velocity=114, time=0),
  Message('note_on', channel=4, note=59, velocity=114, time=0),
  Message('note_on', channel=6, note=67, velocity=99, time=0),
  Message('note_on', channel=6, note=71, velocity=99, time=0),
  Message('note_on', channel=7, note=43, velocity=79, time=0),
  Message('note_on', channel=7, note=47, velocity=79, time=0),
  Message('note_on', channel=9, note=42, velocity=92, time=0),
  Message('note_on', channel=9, note=70, velocity=78, time=0),
  Message('note_on', channel=9, note=60, velocity=96, time=0),
  Message('note_on', channel=9, note=42, velocity=0, time=1),
  Message('note_on', channel=9, note=70, velocity=0, time=0),
  Message('note_on', channel=9, note=60, velocity=0, time=0),
  Message('note_on', channel=9, note=70, velocity=64, time=119),
  Message('note_on', channel=9, note=70, velocity=0, time=1),
  Message('note_on', channel=9, note=70, velocity=120, time=119),
  Message('note_on', channel=9, note=60, velocity=96, time=0),
  Message('note_on', channel=9, note=70, velocity=0, time=1),
  Message('note_on', channel=9, note=60, velocity=0, time=0),
  Message('note_on', channel=0, note=36, velocity=0, time=99),
  Message('note_on', channel=1, note=67, velocity=0, time=0),
  Message('note_on', channel=1, note=71, velocity=0, time=0),
  Message('note_on', channel=4, note=55, velocity=0, time=0),
  Message('note_on', channel=4, note=59, velocity=0, time=0),
  Message('note_on', channel=6, note=67, velocity=0, time=0),
  Message('note_on', channel=6, note=71, velocity=0, time=0),
  Message('note_on', channel=7, note=43, velocity=0, time=0),
  Message('note_on', channel=7, note=47, velocity=0, time=0),
  Message('note_on', channel=0, note=36, velocity=64, time=20),
  Message('note_on', channel=1, note=64, velocity=104, time=0),
  Message('note_on', channel=4, note=52, velocity=114, time=0),
  Message('note_on', channel=6, note=64, velocity=99, time=0),
  Message('note_on', channel=7, note=40, velocity=79, time=0),
  Message('note_on', channel=9, note=70, velocity=120, time=0),
  Message('note_on', channel=9, note=70, velocity=0, time=1),
  Message('note_on', channel=9, note=46, velocity=92, time=119),
  Message('note_on', channel=9, note=70, velocity=78, time=0),
  Message('note_on', channel=9, note=61, velocity=68, time=0),
  Message('note_on', channel=9, note=46, velocity=0, time=1),
  Message('note_on', channel=9, note=70, velocity=0, time=0),
  Message('note_on', channel=9, note=61, velocity=0, time=0),
  Message('note_on', channel=9, note=70, velocity=64, time=119),
  Message('note_on', channel=9, note=61, velocity=68, time=0),
  Message('note_on', channel=9, note=70, velocity=0, time=1),
  Message('note_on', channel=9, note=61, velocity=0, time=0),
  Message('note_on', channel=1, note=64, velocity=0, time=99),
  Message('note_on', channel=4, note=52, velocity=0, time=0),
  Message('note_on', channel=6, note=64, velocity=0, time=0),
  Message('note_on', channel=7, note=40, velocity=0, time=0),
  Message('note_on', channel=1, note=71, velocity=104, time=20),
  Message('note_on', channel=4, note=59, velocity=114, time=0),
  Message('note_on', channel=6, note=71, velocity=99, time=0),
  Message('note_on', channel=7, note=47, velocity=79, time=0),
  Message('note_on', channel=9, note=70, velocity=120, time=0),
  Message('note_on', channel=9, note=70, velocity=0, time=1),
  Message('note_on', channel=9, note=70, velocity=120, time=119),
  Message('note_on', channel=9, note=70, velocity=0, time=1),
  Message('note_on', channel=1, note=71, velocity=0, time=99),
  Message('note_on', channel=4, note=59, velocity=0, time=0),
  Message('note_on', channel=6, note=71, velocity=0, time=0),
  Message('note_on', channel=7, note=47, velocity=0, time=0),
  Message('note_on', channel=1, note=70, velocity=104, time=20),
  Message('note_on', channel=4, note=58, velocity=114, time=0),
  Message('note_on', channel=6, note=70, velocity=99, time=0),
  Message('note_on', channel=7, note=46, velocity=79, time=0),
  Message('note_on', channel=9, note=46, velocity=92, time=0),
  Message('note_on', channel=9, note=70, velocity=78, time=0),
  Message('note_on', channel=9, note=60, velocity=96, time=0),
  Message('note_on', channel=9, note=46, velocity=0, time=1),
  Message('note_on', channel=9, note=70, velocity=0, time=0),
  Message('note_on', channel=9, note=60, velocity=0, time=0),
  Message('note_on', channel=9, note=70, velocity=64, time=119),
  Message('note_on', channel=9, note=70, velocity=0, time=1),
  Message('note_on', channel=9, note=70, velocity=120, time=119),
  Message('note_on', channel=9, note=70, velocity=0, time=1),
  Message('note_on', channel=1, note=70, velocity=0, time=99),
  Message('note_on', channel=4, note=58, velocity=0, time=0),
  Message('note_on', channel=6, note=70, velocity=0, time=0),
  Message('note_on', channel=7, note=46, velocity=0, time=0),
  Message('note_on', channel=1, note=60, velocity=104, time=20),
  Message('note_on', channel=4, note=48, velocity=114, time=0),
  Message('note_on', channel=6, note=60, velocity=99, time=0),
  Message('note_on', channel=7, note=36, velocity=79, time=0),
  Message('note_on', channel=9, note=70, velocity=120, time=0),
  Message('note_on', channel=9, note=60, velocity=96, time=0),
  Message('note_on', channel=9, note=70, velocity=0, time=1),
  Message('note_on', channel=9, note=60, velocity=0, time=0),
  Message('note_on', channel=0, note=36, velocity=0, time=79),
  Message('note_on', channel=0, note=36, velocity=64, time=40),
  Message('note_on', channel=9, note=46, velocity=92, time=0),
  Message('note_on', channel=9, note=70, velocity=78, time=0),
  Message('note_on', channel=9, note=61, velocity=82, time=0),
  Message('note_on', channel=9, note=46, velocity=0, time=1),
  Message('note_on', channel=9, note=70, velocity=0, time=0),
  Message('note_on', channel=9, note=61, velocity=0, time=0),
  Message('note_on', channel=9, note=70, velocity=64, time=119),
  Message('note_on', channel=9, note=61, velocity=82, time=0),
  Message('note_on', channel=9, note=70, velocity=0, time=1),
  Message('note_on', channel=9, note=61, velocity=0, time=0),
  Message('note_on', channel=1, note=60, velocity=0, time=99),
  Message('note_on', channel=4, note=48, velocity=0, time=0),
  Message('note_on', channel=6, note=60, velocity=0, time=0),
  Message('note_on', channel=7, note=36, velocity=0, time=0),
  Message('note_on', channel=1, note=70, velocity=104, time=20),
  Message('note_on', channel=4, note=58, velocity=114, time=0),
  Message('note_on', channel=6, note=70, velocity=99, time=0),
  Message('note_on', channel=7, note=46, velocity=79, time=0),
  Message('note_on', channel=9, note=70, velocity=120, time=0),
  Message('note_on', channel=9, note=61, velocity=82, time=0),
  Message('note_on', channel=9, note=70, velocity=0, time=1),
  Message('note_on', channel=9, note=61, velocity=0, time=0),
  Message('note_on', channel=9, note=40, velocity=78, time=119),
  Message('note_on', channel=9, note=70, velocity=120, time=0),
  Message('note_on', channel=9, note=60, velocity=96, time=0),
  Message('note_on', channel=9, note=40, velocity=0, time=1),
  Message('note_on', channel=9, note=70, velocity=0, time=0),
  Message('note_on', channel=9, note=60, velocity=0, time=0),
  Message('note_on', channel=0, note=36, velocity=0, time=89),
  Message('note_on', channel=1, note=70, velocity=0, time=10),
  Message('note_on', channel=4, note=58, velocity=0, time=0),
  Message('note_on', channel=6, note=70, velocity=0, time=0),
  Message('note_on', channel=7, note=46, velocity=0, time=0),
  Message('note_on', channel=0, note=24, velocity=64, time=20),
  Message('note_on', channel=1, note=67, velocity=104, time=0),
  Message('note_on', channel=4, note=67, velocity=114, time=0),
  Message('note_on', channel=4, note=64, velocity=114, time=0),
  Message('note_on', channel=4, note=57, velocity=114, time=0),
  Message('note_on', channel=6, note=67, velocity=99, time=0),
  Message('note_on', channel=6, note=64, velocity=99, time=0),
  Message('note_on', channel=6, note=57, velocity=99, time=0),
  Message('note_on', channel=7, note=43, velocity=79, time=0),
  Message('note_on', channel=7, note=40, velocity=79, time=0),
  Message('note_on', channel=7, note=33, velocity=79, time=0),
  Message('note_on', channel=9, note=70, velocity=78, time=0),
  Message('note_on', channel=9, note=60, velocity=96, time=0),
  Message('note_on', channel=9, note=70, velocity=0, time=1),
  Message('note_on', channel=9, note=60, velocity=0, time=0),
  Message('note_on', channel=9, note=70, velocity=64, time=119),
  Message('note_on', channel=9, note=70, velocity=0, time=1),
  Message('note_on', channel=0, note=24, velocity=0, time=99),
  Message('note_on', channel=4, note=64, velocity=0, time=0),
  Message('note_on', channel=4, note=57, velocity=0, time=0),
  Message('note_on', channel=6, note=64, velocity=0, time=0),
  Message('note_on', channel=6, note=57, velocity=0, time=0),
  Message('note_on', channel=7, note=43, velocity=0, time=0),
  Message('note_on', channel=7, note=40, velocity=0, time=0),
  Message('note_on', channel=7, note=33, velocity=0, time=0),
  Message('note_on', channel=9, note=70, velocity=120, time=20),
  Message('note_on', channel=9, note=70, velocity=0, time=1),
  Message('note_on', channel=0, note=24, velocity=64, time=119),
  Message('note_on', channel=4, note=64, velocity=114, time=0),
  Message('note_on', channel=4, note=57, velocity=114, time=0),
  Message('note_on', channel=6, note=64, velocity=99, time=0),
  Message('note_on', channel=6, note=57, velocity=99, time=0),
  Message('note_on', channel=7, note=40, velocity=79, time=0),
  Message('note_on', channel=7, note=33, velocity=79, time=0),
  Message('note_on', channel=9, note=70, velocity=120, time=0),
  Message('note_on', channel=9, note=60, velocity=96, time=0),
  Message('note_on', channel=9, note=70, velocity=0, time=1),
  Message('note_on', channel=9, note=60, velocity=0, time=0),
  Message('note_on', channel=9, note=46, velocity=78, time=119),
  Message('note_on', channel=9, note=70, velocity=78, time=0),
  Message('note_on', channel=9, note=61, velocity=82, time=0),
  Message('note_on', channel=9, note=46, velocity=0, time=1),
  Message('note_on', channel=9, note=70, velocity=0, time=0),
  Message('note_on', channel=9, note=61, velocity=0, time=0),
  Message('note_on', channel=9, note=70, velocity=64, time=119),
  Message('note_on', channel=9, note=61, velocity=82, time=0),
  Message('note_on', channel=9, note=70, velocity=0, time=1),
  Message('note_on', channel=9, note=61, velocity=0, time=0),
  Message('note_on', channel=9, note=70, velocity=120, time=119),
  Message('note_on', channel=9, note=61, velocity=82, time=0),
  Message('note_on', channel=9, note=70, velocity=0, time=1),
  Message('note_on', channel=9, note=61, velocity=0, time=0),
  Message('note_on', channel=9, note=40, velocity=78, time=119),
  Message('note_on', channel=9, note=70, velocity=120, time=0),
  Message('note_on', channel=9, note=40, velocity=0, time=1),
  Message('note_on', channel=9, note=70, velocity=0, time=0),
  Message('note_on', channel=0, note=24, velocity=0, time=89),
  Message('note_on', channel=4, note=64, velocity=0, time=0),
  Message('note_on', channel=4, note=57, velocity=0, time=0),
  Message('note_on', channel=6, note=64, velocity=0, time=0),
  Message('note_on', channel=6, note=57, velocity=0, time=0),
  Message('note_on', channel=7, note=40, velocity=0, time=0),
  Message('note_on', channel=7, note=33, velocity=0, time=0),
  Message('note_on', channel=0, note=36, velocity=64, time=30),
  Message('note_on', channel=4, note=65, velocity=114, time=0),
  Message('note_on', channel=4, note=59, velocity=114, time=0),
  Message('note_on', channel=6, note=65, velocity=99, time=0),
  Message('note_on', channel=6, note=59, velocity=99, time=0),
  Message('note_on', channel=7, note=41, velocity=79, time=0),
  Message('note_on', channel=7, note=35, velocity=79, time=0),
  Message('note_on', channel=9, note=70, velocity=78, time=0),
  Message('note_on', channel=9, note=60, velocity=96, time=0),
  Message('note_on', channel=9, note=70, velocity=0, time=1),
  Message('note_on', channel=9, note=60, velocity=0, time=0),
  Message('note_on', channel=9, note=70, velocity=64, time=119),
  Message('note_on', channel=9, note=70, velocity=0, time=1),
  Message('note_on', channel=0, note=36, velocity=0, time=99),
  Message('note_on', channel=4, note=65, velocity=0, time=0),
  Message('note_on', channel=4, note=59, velocity=0, time=0),
  Message('note_on', channel=6, note=65, velocity=0, time=0),
  Message('note_on', channel=6, note=59, velocity=0, time=0),
  Message('note_on', channel=7, note=41, velocity=0, time=0),
  Message('note_on', channel=7, note=35, velocity=0, time=0),
  Message('note_on', channel=9, note=70, velocity=120, time=20),
  Message('note_on', channel=9, note=70, velocity=0, time=1),
  Message('note_on', channel=0, note=36, velocity=64, time=119),
  Message('note_on', channel=4, note=65, velocity=114, time=0),
  Message('note_on', channel=4, note=59, velocity=114, time=0),
  Message('note_on', channel=6, note=65, velocity=99, time=0),
  Message('note_on', channel=6, note=59, velocity=99, time=0),
  Message('note_on', channel=7, note=41, velocity=79, time=0),
  Message('note_on', channel=7, note=35, velocity=79, time=0),
  Message('note_on', channel=9, note=70, velocity=120, time=0),
  Message('note_on', channel=9, note=60, velocity=96, time=0),
  Message('note_on', channel=9, note=70, velocity=0, time=1),
  Message('note_on', channel=9, note=60, velocity=0, time=0),
  Message('note_on', channel=9, note=46, velocity=78, time=119),
  Message('note_on', channel=9, note=70, velocity=78, time=0),
  Message('note_on', channel=9, note=61, velocity=82, time=0),
  Message('note_on', channel=9, note=46, velocity=0, time=1),
  Message('note_on', channel=9, note=70, velocity=0, time=0),
  Message('note_on', channel=9, note=61, velocity=0, time=0),
  Message('note_on', channel=9, note=70, velocity=64, time=119),
  Message('note_on', channel=9, note=61, velocity=82, time=0),
  Message('note_on', channel=9, note=70, velocity=0, time=1),
  Message('note_on', channel=9, note=61, velocity=0, time=0),
  Message('note_on', channel=0, note=36, velocity=0, time=99),
  Message('note_on', channel=0, note=29, velocity=64, time=20),
  Message('note_on', channel=9, note=70, velocity=120, time=0),
  Message('note_on', channel=9, note=61, velocity=82, time=0),
  Message('note_on', channel=9, note=70, velocity=0, time=1),
  Message('note_on', channel=9, note=61, velocity=0, time=0),
  Message('note_on', channel=9, note=40, velocity=78, time=119),
  Message('note_on', channel=9, note=70, velocity=120, time=0),
  Message('note_on', channel=9, note=40, velocity=0, time=1),
  Message('note_on', channel=9, note=70, velocity=0, time=0),
  Message('note_on', channel=4, note=65, velocity=0, time=89),
  Message('note_on', channel=4, note=59, velocity=0, time=0),
  Message('note_on', channel=6, note=65, velocity=0, time=0),
  Message('note_on', channel=6, note=59, velocity=0, time=0),
  Message('note_on', channel=7, note=41, velocity=0, time=0),
  Message('note_on', channel=7, note=35, velocity=0, time=0),
  Message('note_on', channel=0, note=29, velocity=0, time=10),
  Message('note_on', channel=0, note=24, velocity=64, time=20),
  Message('note_on', channel=4, note=64, velocity=114, time=0),
  Message('note_on', channel=4, note=57, velocity=114, time=0),
  Message('note_on', channel=6, note=64, velocity=99, time=0),
  Message('note_on', channel=6, note=57, velocity=99, time=0),
  Message('note_on', channel=7, note=43, velocity=79, time=0),
  Message('note_on', channel=7, note=40, velocity=79, time=0),
  Message('note_on', channel=7, note=33, velocity=79, time=0),
  Message('note_on', channel=9, note=70, velocity=78, time=0),
  Message('note_on', channel=9, note=60, velocity=96, time=0),
  Message('note_on', channel=9, note=70, velocity=0, time=1),
  Message('note_on', channel=9, note=60, velocity=0, time=0),
  Message('note_on', channel=1, note=67, velocity=0, time=9),
  Message('note_on', channel=9, note=70, velocity=64, time=110),
  Message('note_on', channel=9, note=70, velocity=0, time=1),
  Message('note_on', channel=0, note=24, velocity=0, time=99),
  Message('note_on', channel=4, note=64, velocity=0, time=0),
  Message('note_on', channel=4, note=57, velocity=0, time=0),
  Message('note_on', channel=6, note=64, velocity=0, time=0),
  Message('note_on', channel=6, note=57, velocity=0, time=0),
  Message('note_on', channel=7, note=40, velocity=0, time=0),
  Message('note_on', channel=7, note=33, velocity=0, time=0),
  Message('note_on', channel=9, note=70, velocity=120, time=20),
  Message('note_on', channel=9, note=70, velocity=0, time=1),
  Message('note_on', channel=0, note=24, velocity=64, time=119),
  Message('note_on', channel=4, note=64, velocity=114, time=0),
  Message('note_on', channel=4, note=57, velocity=114, time=0),
  Message('note_on', channel=6, note=64, velocity=99, time=0),
  Message('note_on', channel=6, note=57, velocity=99, time=0),
  Message('note_on', channel=7, note=40, velocity=79, time=0),
  Message('note_on', channel=7, note=33, velocity=79, time=0),
  Message('note_on', channel=9, note=70, velocity=120, time=0),
  Message('note_on', channel=9, note=60, velocity=96, time=0),
  Message('note_on', channel=9, note=70, velocity=0, time=1),
  Message('note_on', channel=9, note=60, velocity=0, time=0),
  Message('note_on', channel=4, note=67, velocity=0, time=119),
  Message('note_on', channel=6, note=67, velocity=0, time=0),
  Message('note_on', channel=7, note=43, velocity=0, time=0),
  Message('note_on', channel=9, note=46, velocity=78, time=0),
  Message('note_on', channel=9, note=70, velocity=78, time=0),
  Message('note_on', channel=9, note=61, velocity=82, time=0),
  Message('note_on', channel=9, note=46, velocity=0, time=1),
  Message('note_on', channel=9, note=70, velocity=0, time=0),
  Message('note_on', channel=9, note=61, velocity=0, time=0),
  Message('note_on', channel=9, note=70, velocity=64, time=119),
  Message('note_on', channel=9, note=61, velocity=82, time=0),
  Message('note_on', channel=9, note=70, velocity=0, time=1),
  Message('note_on', channel=9, note=61, velocity=0, time=0),
  Message('note_on', channel=0, note=24, velocity=0, time=99),
  Message('note_on', channel=0, note=36, velocity=64, time=20),
  Message('note_on', channel=1, note=65, velocity=104, time=0),
  Message('note_on', channel=6, note=64, velocity=0, time=0),
  Message('note_on', channel=6, note=57, velocity=0, time=0),
  Message('note_on', channel=6, note=65, velocity=99, time=0),
  Message('note_on', channel=9, note=70, velocity=120, time=0),
  Message('note_on', channel=9, note=61, velocity=82, time=0),
  Message('note_on', channel=9, note=70, velocity=0, time=1),
  Message('note_on', channel=9, note=61, velocity=0, time=0),
  Message('note_on', channel=9, note=40, velocity=78, time=119),
  Message('note_on', channel=9, note=70, velocity=120, time=0),
  Message('note_on', channel=9, note=40, velocity=0, time=1),
  Message('note_on', channel=9, note=70, velocity=0, time=0),
  Message('note_on', channel=1, note=65, velocity=0, time=99),
  Message('note_on', channel=6, note=65, velocity=0, time=0),
  Message('note_on', channel=1, note=67, velocity=104, time=20),
  Message('note_on', channel=6, note=67, velocity=99, time=0),
  Message('note_on', channel=9, note=70, velocity=78, time=0),
  Message('note_on', channel=9, note=61, velocity=96, time=0),
  Message('note_on', channel=9, note=70, velocity=0, time=1),
  Message('note_on', channel=9, note=61, velocity=0, time=0),
  Message('note_on', channel=9, note=70, velocity=64, time=119),
  Message('note_on', channel=9, note=70, velocity=0, time=1),
  Message('note_on', channel=0, note=36, velocity=0, time=99),
  Message('note_on', channel=1, note=67, velocity=0, time=0),
  Message('note_on', channel=6, note=67, velocity=0, time=0),
  Message('note_on', channel=0, note=29, velocity=64, time=20),
  Message('note_on', channel=1, note=69, velocity=104, time=0),
  Message('note_on', channel=6, note=69, velocity=99, time=0),
  Message('note_on', channel=9, note=70, velocity=120, time=0),
  Message('note_on', channel=9, note=61, velocity=96, time=0),
  Message('note_on', channel=9, note=70, velocity=0, time=1),
  Message('note_on', channel=9, note=61, velocity=0, time=0),
  Message('note_on', channel=9, note=70, velocity=120, time=119),
  Message('note_on', channel=9, note=70, velocity=0, time=1),
  Message('note_on', channel=0, note=29, velocity=0, time=99),
  Message('note_on', channel=1, note=69, velocity=0, time=0),
  Message('note_on', channel=6, note=69, velocity=0, time=0),
  Message('note_on', channel=0, note=24, velocity=64, time=20),
  Message('note_on', channel=1, note=67, velocity=104, time=0),
  Message('note_on', channel=6, note=67, velocity=99, time=0),
  Message('note_on', channel=9, note=46, velocity=78, time=0),
  Message('note_on', channel=9, note=70, velocity=78, time=0),
  Message('note_on', channel=9, note=60, velocity=96, time=0),
  Message('note_on', channel=9, note=46, velocity=0, time=1),
  Message('note_on', channel=9, note=70, velocity=0, time=0),
  Message('note_on', channel=9, note=60, velocity=0, time=0),
  Message('note_on', channel=9, note=70, velocity=64, time=119),
  Message('note_on', channel=9, note=60, velocity=96, time=0),
  Message('note_on', channel=9, note=70, velocity=0, time=1),
  Message('note_on', channel=9, note=60, velocity=0, time=0),
  Message('note_on', channel=1, note=67, velocity=0, time=99),
  Message('note_on', channel=6, note=67, velocity=0, time=0),
  Message('note_on', channel=1, note=65, velocity=104, time=20),
  Message('note_on', channel=6, note=65, velocity=99, time=0),
  Message('note_on', channel=9, note=70, velocity=120, time=0),
  Message('note_on', channel=9, note=61, velocity=96, time=0),
  Message('note_on', channel=9, note=70, velocity=0, time=1),
  Message('note_on', channel=9, note=61, velocity=0, time=0),
  Message('note_on', channel=9, note=40, velocity=78, time=119),
  Message('note_on', channel=9, note=70, velocity=120, time=0),
  Message('note_on', channel=9, note=60, velocity=96, time=0),
  Message('note_on', channel=9, note=40, velocity=0, time=1),
  Message('note_on', channel=9, note=70, velocity=0, time=0),
  Message('note_on', channel=9, note=60, velocity=0, time=0),
  Message('note_on', channel=0, note=24, velocity=0, time=89),
  Message('note_on', channel=1, note=65, velocity=0, time=10),
  Message('note_on', channel=4, note=64, velocity=0, time=0),
  Message('note_on', channel=4, note=57, velocity=0, time=0),
  Message('note_on', channel=6, note=65, velocity=0, time=0),
  Message('note_on', channel=7, note=40, velocity=0, time=0),
  Message('note_on', channel=7, note=33, velocity=0, time=0),
  Message('note_on', channel=0, note=27, velocity=64, time=20),
  Message('note_on', channel=1, note=64, velocity=104, time=0),
  Message('note_on', channel=4, note=56, velocity=114, time=0),
  Message('note_on', channel=4, note=60, velocity=114, time=0),
  Message('note_on', channel=4, note=64, velocity=114, time=0),
  Message('note_on', channel=6, note=56, velocity=99, time=0),
  Message('note_on', channel=6, note=60, velocity=99, time=0),
  Message('note_on', channel=6, note=64, velocity=99, time=0),
  Message('note_on', channel=7, note=32, velocity=79, time=0),
  Message('note_on', channel=7, note=36, velocity=79, time=0),
  Message('note_on', channel=7, note=40, velocity=79, time=0),
  Message('note_on', channel=9, note=49, velocity=120, time=0),
  Message('note_on', channel=9, note=70, velocity=78, time=0),
  Message('note_on', channel=9, note=60, velocity=96, time=0),
  Message('note_on', channel=9, note=49, velocity=0, time=1),
  Message('note_on', channel=9, note=70, velocity=0, time=0),
  Message('note_on', channel=9, note=60, velocity=0, time=0),
  Message('note_on', channel=9, note=70, velocity=64, time=119),
  Message('note_on', channel=9, note=60, velocity=96, time=0),
  Message('note_on', channel=9, note=70, velocity=0, time=1),
  Message('note_on', channel=9, note=60, velocity=0, time=0),
  Message('note_on', channel=9, note=70, velocity=120, time=119),
  Message('note_on', channel=9, note=70, velocity=0, time=1),
  Message('note_on', channel=0, note=27, velocity=0, time=99),
  Message('note_on', channel=1, note=64, velocity=0, time=0),
  Message('note_on', channel=6, note=56, velocity=0, time=0),
  Message('note_on', channel=6, note=60, velocity=0, time=0),
  Message('note_on', channel=6, note=64, velocity=0, time=0),
  Message('note_on', channel=0, note=27, velocity=64, time=20),
  Message('note_on', channel=1, note=60, velocity=104, time=0),
  Message('note_on', channel=6, note=60, velocity=99, time=0),
  Message('note_on', channel=9, note=70, velocity=120, time=0),
  Message('note_on', channel=9, note=70, velocity=0, time=1),
  Message('note_on', channel=9, note=42, velocity=92, time=119),
  Message('note_on', channel=9, note=70, velocity=78, time=0),
  Message('note_on', channel=9, note=60, velocity=96, time=0),
  Message('note_on', channel=9, note=42, velocity=0, time=1),
  Message('note_on', channel=9, note=70, velocity=0, time=0),
  Message('note_on', channel=9, note=60, velocity=0, time=0),
  Message('note_on', channel=9, note=70, velocity=64, time=119),
  Message('note_on', channel=9, note=70, velocity=0, time=1),
  Message('note_on', channel=9, note=70, velocity=120, time=119),
  Message('note_on', channel=9, note=61, velocity=96, time=0),
  Message('note_on', channel=9, note=70, velocity=0, time=1),
  Message('note_on', channel=9, note=61, velocity=0, time=0),
  Message('note_on', channel=9, note=70, velocity=120, time=119),
  Message('note_on', channel=9, note=61, velocity=96, time=0),
  Message('note_on', channel=9, note=70, velocity=0, time=1),
  Message('note_on', channel=9, note=61, velocity=0, time=0),
  Message('note_on', channel=0, note=27, velocity=0, time=89),
  Message('note_on', channel=1, note=60, velocity=0, time=0),
  Message('note_on', channel=6, note=60, velocity=0, time=0),
  Message('note_on', channel=0, note=39, velocity=64, time=30),
  Message('note_on', channel=1, note=72, velocity=104, time=0),
  Message('note_on', channel=4, note=56, velocity=0, time=0),
  Message('note_on', channel=4, note=60, velocity=0, time=0),
  Message('note_on', channel=4, note=64, velocity=0, time=0),
  Message('note_on', channel=4, note=64, velocity=114, time=0),
  Message('note_on', channel=4, note=69, velocity=114, time=0),
  Message('note_on', channel=4, note=72, velocity=114, time=0),
  Message('note_on', channel=6, note=64, velocity=99, time=0),
  Message('note_on', channel=6, note=69, velocity=99, time=0),
  Message('note_on', channel=6, note=72, velocity=99, time=0),
  Message('note_on', channel=7, note=32, velocity=0, time=0),
  Message('note_on', channel=7, note=36, velocity=0, time=0),
  Message('note_on', channel=7, note=40, velocity=0, time=0),
  Message('note_on', channel=7, note=40, velocity=79, time=0),
  Message('note_on', channel=7, note=45, velocity=79, time=0),
  Message('note_on', channel=7, note=48, velocity=79, time=0),
  Message('note_on', channel=9, note=42, velocity=92, time=0),
  Message('note_on', channel=9, note=70, velocity=78, time=0),
  Message('note_on', channel=9, note=60, velocity=96, time=0),
  Message('note_on', channel=9, note=42, velocity=0, time=1),
  Message('note_on', channel=9, note=70, velocity=0, time=0),
  Message('note_on', channel=9, note=60, velocity=0, time=0),
  Message('note_on', channel=9, note=70, velocity=64, time=119),
  Message('note_on', channel=9, note=60, velocity=96, time=0),
  Message('note_on', channel=9, note=70, velocity=0, time=1),
  Message('note_on', channel=9, note=60, velocity=0, time=0),
  Message('note_on', channel=9, note=70, velocity=120, time=119),
  Message('note_on', channel=9, note=70, velocity=0, time=1),
  Message('note_on', channel=0, note=39, velocity=0, time=99),
  Message('note_on', channel=1, note=72, velocity=0, time=0),
  Message('note_on', channel=6, note=64, velocity=0, time=0),
  Message('note_on', channel=6, note=69, velocity=0, time=0),
  Message('note_on', channel=6, note=72, velocity=0, time=0),
  Message('note_on', channel=0, note=36, velocity=64, time=20),
  Message('note_on', channel=1, note=69, velocity=104, time=0),
  Message('note_on', channel=6, note=69, velocity=99, time=0),
  Message('note_on', channel=9, note=70, velocity=120, time=0),
  Message('note_on', channel=9, note=70, velocity=0, time=1),
  Message('note_on', channel=9, note=46, velocity=92, time=119),
  Message('note_on', channel=9, note=70, velocity=78, time=0),
  Message('note_on', channel=9, note=60, velocity=96, time=0),
  Message('note_on', channel=9, note=46, velocity=0, time=1),
  Message('note_on', channel=9, note=70, velocity=0, time=0),
  Message('note_on', channel=9, note=60, velocity=0, time=0),
  Message('note_on', channel=9, note=70, velocity=64, time=119),
  Message('note_on', channel=9, note=70, velocity=0, time=1),
  Message('note_on', channel=0, note=36, velocity=0, time=99),
  Message('note_on', channel=1, note=69, velocity=0, time=0),
  Message('note_on', channel=6, note=69, velocity=0, time=0),
  Message('note_on', channel=0, note=27, velocity=64, time=20),
  Message('note_on', channel=1, note=64, velocity=104, time=0),
  Message('note_on', channel=6, note=64, velocity=99, time=0),
  Message('note_on', channel=9, note=70, velocity=120, time=0),
  Message('note_on', channel=9, note=61, velocity=96, time=0),
  Message('note_on', channel=9, note=70, velocity=0, time=1),
  Message('note_on', channel=9, note=61, velocity=0, time=0),
  Message('note_on', channel=9, note=70, velocity=120, time=119),
  Message('note_on', channel=9, note=61, velocity=96, time=0),
  Message('note_on', channel=9, note=70, velocity=0, time=1),
  Message('note_on', channel=9, note=61, velocity=0, time=0),
  Message('note_on', channel=7, note=40, velocity=0, time=79),
  Message('note_on', channel=7, note=45, velocity=0, time=0),
  Message('note_on', channel=7, note=48, velocity=0, time=0),
  Message('note_on', channel=0, note=27, velocity=0, time=20),
  Message('note_on', channel=1, note=64, velocity=0, time=0),
  Message('note_on', channel=6, note=64, velocity=0, time=0),
  Message('note_on', channel=0, note=27, velocity=64, time=20),
  Message('note_on', channel=1, note=68, velocity=104, time=0),
  Message('note_on', channel=4, note=64, velocity=0, time=0),
  Message('note_on', channel=4, note=69, velocity=0, time=0),
  Message('note_on', channel=4, note=72, velocity=0, time=0),
  Message('note_on', channel=4, note=62, velocity=114, time=0),
  Message('note_on', channel=4, note=68, velocity=114, time=0),
  Message('note_on', channel=6, note=62, velocity=99, time=0),
  Message('note_on', channel=6, note=68, velocity=99, time=0),
  Message('note_on', channel=7, note=38, velocity=79, time=0),
  Message('note_on', channel=7, note=44, velocity=79, time=0),
  Message('note_on', channel=9, note=70, velocity=78, time=0),
  Message('note_on', channel=9, note=60, velocity=96, time=0),
  Message('note_on', channel=9, note=70, velocity=0, time=1),
  Message('note_on', channel=9, note=60, velocity=0, time=0),
  Message('note_on', channel=9, note=70, velocity=64, time=119),
  Message('note_on', channel=9, note=60, velocity=96, time=0),
  Message('note_on', channel=9, note=70, velocity=0, time=1),
  Message('note_on', channel=9, note=60, velocity=0, time=0),
  Message('note_on', channel=9, note=70, velocity=120, time=119),
  Message('note_on', channel=9, note=70, velocity=0, time=1),
  Message('note_on', channel=0, note=27, velocity=0, time=99),
  Message('note_on', channel=1, note=68, velocity=0, time=0),
  Message('note_on', channel=6, note=62, velocity=0, time=0),
  Message('note_on', channel=6, note=68, velocity=0, time=0),
  Message('note_on', channel=0, note=27, velocity=64, time=20),
  Message('note_on', channel=1, note=82, velocity=114, time=0),
  Message('note_on', channel=6, note=82, velocity=99, time=0),
  Message('note_on', channel=9, note=70, velocity=120, time=0),
  Message('note_on', channel=9, note=70, velocity=0, time=1),
  Message('note_on', channel=9, note=42, velocity=92, time=119),
  Message('note_on', channel=9, note=70, velocity=78, time=0),
  Message('note_on', channel=9, note=60, velocity=96, time=0),
  Message('note_on', channel=9, note=42, velocity=0, time=1),
  Message('note_on', channel=9, note=70, velocity=0, time=0),
  Message('note_on', channel=9, note=60, velocity=0, time=0),
  Message('note_on', channel=9, note=70, velocity=64, time=119),
  Message('note_on', channel=9, note=70, velocity=0, time=1),
  Message('note_on', channel=1, note=82, velocity=0, time=99),
  Message('note_on', channel=6, note=82, velocity=0, time=0),
  Message('note_on', channel=1, note=84, velocity=114, time=20),
  Message('note_on', channel=6, note=84, velocity=99, time=0),
  Message('note_on', channel=9, note=70, velocity=120, time=0),
  Message('note_on', channel=9, note=61, velocity=96, time=0),
  Message('note_on', channel=9, note=70, velocity=0, time=1),
  Message('note_on', channel=9, note=61, velocity=0, time=0),
  Message('note_on', channel=9, note=70, velocity=120, time=119),
  Message('note_on', channel=9, note=61, velocity=96, time=0),
  Message('note_on', channel=9, note=70, velocity=0, time=1),
  Message('note_on', channel=9, note=61, velocity=0, time=0),
  Message('note_on', channel=0, note=27, velocity=0, time=89),
  Message('note_on', channel=1, note=84, velocity=0, time=10),
  Message('note_on', channel=6, note=84, velocity=0, time=0),
  Message('note_on', channel=0, note=27, velocity=64, time=20),
  Message('note_on', channel=1, note=86, velocity=114, time=0),
  Message('note_on', channel=6, note=86, velocity=99, time=0),
  Message('note_on', channel=9, note=46, velocity=92, time=0),
  Message('note_on', channel=9, note=70, velocity=78, time=0),
  Message('note_on', channel=9, note=60, velocity=96, time=0),
  Message('note_on', channel=9, note=46, velocity=0, time=1),
  Message('note_on', channel=9, note=70, velocity=0, time=0),
  Message('note_on', channel=9, note=60, velocity=0, time=0),
  Message('note_on', channel=9, note=70, velocity=64, time=119),
  Message('note_on', channel=9, note=60, velocity=96, time=0),
  Message('note_on', channel=9, note=70, velocity=0, time=1),
  Message('note_on', channel=9, note=60, velocity=0, time=0),
  Message('note_on', channel=9, note=70, velocity=120, time=119),
  Message('note_on', channel=9, note=70, velocity=0, time=1),
  Message('note_on', channel=0, note=27, velocity=0, time=99),
  Message('note_on', channel=1, note=86, velocity=0, time=0),
  Message('note_on', channel=6, note=86, velocity=0, time=0),
  Message('note_on', channel=0, note=27, velocity=64, time=20),
  Message('note_on', channel=1, note=84, velocity=114, time=0),
  Message('note_on', channel=6, note=84, velocity=99, time=0),
  Message('note_on', channel=9, note=70, velocity=120, time=0),
  Message('note_on', channel=9, note=70, velocity=0, time=1),
  Message('note_on', channel=9, note=40, velocity=78, time=119),
  Message('note_on', channel=9, note=70, velocity=78, time=0),
  Message('note_on', channel=9, note=60, velocity=96, time=0),
  Message('note_on', channel=9, note=40, velocity=0, time=1),
  Message('note_on', channel=9, note=70, velocity=0, time=0),
  Message('note_on', channel=9, note=60, velocity=0, time=0),
  Message('note_on', channel=9, note=40, velocity=106, time=119),
  Message('note_on', channel=9, note=70, velocity=64, time=0),
  Message('note_on', channel=9, note=40, velocity=0, time=1),
  Message('note_on', channel=9, note=70, velocity=0, time=0),
  Message('note_on', channel=1, note=84, velocity=0, time=99),
  Message('note_on', channel=6, note=84, velocity=0, time=0),
  Message('note_on', channel=1, note=82, velocity=114, time=20),
  Message('note_on', channel=6, note=82, velocity=99, time=0),
  Message('note_on', channel=9, note=46, velocity=92, time=0),
  Message('note_on', channel=9, note=70, velocity=120, time=0),
  Message('note_on', channel=9, note=61, velocity=96, time=0),
  Message('note_on', channel=9, note=46, velocity=0, time=1),
  Message('note_on', channel=9, note=70, velocity=0, time=0),
  Message('note_on', channel=9, note=61, velocity=0, time=0),
  Message('note_on', channel=9, note=70, velocity=120, time=119),
  Message('note_on', channel=9, note=60, velocity=96, time=0),
  Message('note_on', channel=9, note=70, velocity=0, time=1),
  Message('note_on', channel=9, note=60, velocity=0, time=0),
  Message('note_on', channel=0, note=27, velocity=0, time=89),
  Message('note_on', channel=1, note=82, velocity=0, time=10),
  Message('note_on', channel=4, note=62, velocity=0, time=0),
  Message('note_on', channel=4, note=68, velocity=0, time=0),
  Message('note_on', channel=6, note=82, velocity=0, time=0),
  Message('note_on', channel=7, note=38, velocity=0, time=0),
  Message('note_on', channel=7, note=44, velocity=0, time=0),
  Message('note_on', channel=0, note=32, velocity=64, time=20),
  Message('note_on', channel=0, note=43, velocity=64, time=0),
  Message('note_on', channel=1, note=73, velocity=114, time=0),
  Message('note_on', channel=1, note=78, velocity=114, time=0),
  Message('note_on', channel=1, note=81, velocity=114, time=0),
  Message('note_on', channel=4, note=61, velocity=127, time=0),
  Message('note_on', channel=4, note=66, velocity=127, time=0),
  Message('note_on', channel=4, note=69, velocity=127, time=0),
  Message('note_on', channel=6, note=73, velocity=99, time=0),
  Message('note_on', channel=6, note=78, velocity=99, time=0),
  Message('note_on', channel=6, note=81, velocity=99, time=0),
  Message('note_on', channel=7, note=49, velocity=89, time=0),
  Message('note_on', channel=7, note=54, velocity=89, time=0),
  Message('note_on', channel=7, note=57, velocity=89, time=0),
  Message('note_on', channel=9, note=40, velocity=106, time=0),
  Message('note_on', channel=9, note=70, velocity=78, time=0),
  Message('note_on', channel=9, note=60, velocity=96, time=0),
  Message('note_on', channel=9, note=40, velocity=0, time=1),
  Message('note_on', channel=9, note=70, velocity=0, time=0),
  Message('note_on', channel=9, note=60, velocity=0, time=0),
  Message('note_on', channel=9, note=70, velocity=64, time=119),
  Message('note_on', channel=9, note=70, velocity=0, time=1),
  Message('note_on', channel=0, note=32, velocity=0, time=99),
  Message('note_on', channel=0, note=43, velocity=0, time=0),
  Message('note_on', channel=1, note=73, velocity=0, time=0),
  Message('note_on', channel=1, note=78, velocity=0, time=0),
  Message('note_on', channel=1, note=81, velocity=0, time=0),
  Message('note_on', channel=4, note=61, velocity=0, time=0),
  Message('note_on', channel=4, note=66, velocity=0, time=0),
  Message('note_on', channel=4, note=69, velocity=0, time=0),
  Message('note_on', channel=6, note=73, velocity=0, time=0),
  Message('note_on', channel=6, note=78, velocity=0, time=0),
  Message('note_on', channel=6, note=81, velocity=0, time=0),
  Message('note_on', channel=7, note=49, velocity=0, time=0),
  Message('note_on', channel=7, note=54, velocity=0, time=0),
  Message('note_on', channel=7, note=57, velocity=0, time=0),
  Message('note_on', channel=9, note=70, velocity=120, time=20),
  Message('note_on', channel=9, note=70, velocity=0, time=1),
  Message('note_on', channel=0, note=32, velocity=64, time=119),
  Message('note_on', channel=0, note=43, velocity=64, time=0),
  Message('note_on', channel=1, note=73, velocity=114, time=0),
  Message('note_on', channel=1, note=78, velocity=114, time=0),
  Message('note_on', channel=1, note=81, velocity=114, time=0),
  Message('note_on', channel=4, note=61, velocity=127, time=0),
  Message('note_on', channel=4, note=66, velocity=127, time=0),
  Message('note_on', channel=4, note=69, velocity=127, time=0),
  Message('note_on', channel=6, note=73, velocity=99, time=0),
  Message('note_on', channel=6, note=78, velocity=99, time=0),
  Message('note_on', channel=6, note=81, velocity=99, time=0),
  Message('note_on', channel=7, note=49, velocity=89, time=0),
  Message('note_on', channel=7, note=54, velocity=89, time=0),
  Message('note_on', channel=7, note=57, velocity=89, time=0),
  Message('note_on', channel=9, note=46, velocity=106, time=0),
  Message('note_on', channel=9, note=70, velocity=120, time=0),
  Message('note_on', channel=9, note=60, velocity=96, time=0),
  Message('note_on', channel=9, note=46, velocity=0, time=1),
  Message('note_on', channel=9, note=70, velocity=0, time=0),
  Message('note_on', channel=9, note=60, velocity=0, time=0),
  Message('note_on', channel=9, note=70, velocity=78, time=119),
  Message('note_on', channel=9, note=70, velocity=0, time=1),
  Message('note_on', channel=9, note=70, velocity=64, time=119),
  Message('note_on', channel=9, note=70, velocity=0, time=1),
  Message('note_on', channel=1, note=73, velocity=0, time=99),
  Message('note_on', channel=1, note=78, velocity=0, time=0),
  Message('note_on', channel=1, note=81, velocity=0, time=0),
  Message('note_on', channel=4, note=61, velocity=0, time=0),
  Message('note_on', channel=4, note=66, velocity=0, time=0),
  Message('note_on', channel=4, note=69, velocity=0, time=0),
  Message('note_on', channel=6, note=73, velocity=0, time=0),
  Message('note_on', channel=6, note=78, velocity=0, time=0),
  Message('note_on', channel=6, note=81, velocity=0, time=0),
  Message('note_on', channel=7, note=49, velocity=0, time=0),
  Message('note_on', channel=7, note=54, velocity=0, time=0),
  Message('note_on', channel=7, note=57, velocity=0, time=0),
  Message('note_on', channel=1, note=80, velocity=114, time=20),
  Message('note_on', channel=4, note=68, velocity=127, time=0),
  Message('note_on', channel=6, note=80, velocity=99, time=0),
  Message('note_on', channel=7, note=56, velocity=89, time=0),
  Message('note_on', channel=9, note=40, velocity=78, time=0),
  Message('note_on', channel=9, note=70, velocity=120, time=0),
  Message('note_on', channel=9, note=61, velocity=96, time=0),
  Message('note_on', channel=9, note=40, velocity=0, time=1),
  Message('note_on', channel=9, note=70, velocity=0, time=0),
  Message('note_on', channel=9, note=61, velocity=0, time=0),
  Message('note_on', channel=1, note=80, velocity=0, time=99),
  Message('note_on', channel=4, note=68, velocity=0, time=0),
  Message('note_on', channel=6, note=80, velocity=0, time=0),
  Message('note_on', channel=7, note=56, velocity=0, time=0),
  Message('note_on', channel=1, note=81, velocity=114, time=20),
  Message('note_on', channel=4, note=69, velocity=127, time=0),
  Message('note_on', channel=6, note=81, velocity=99, time=0),
  Message('note_on', channel=7, note=57, velocity=89, time=0),
  Message('note_on', channel=9, note=40, velocity=92, time=0),
  Message('note_on', channel=9, note=70, velocity=120, time=0),
  Message('note_on', channel=9, note=61, velocity=96, time=0),
  Message('note_on', channel=9, note=40, velocity=0, time=1),
  Message('note_on', channel=9, note=70, velocity=0, time=0),
  Message('note_on', channel=9, note=61, velocity=0, time=0),
  Message('note_on', channel=0, note=32, velocity=0, time=89),
  Message('note_on', channel=0, note=43, velocity=0, time=0),
  Message('note_on', channel=1, note=81, velocity=0, time=10),
  Message('note_on', channel=4, note=69, velocity=0, time=0),
  Message('note_on', channel=6, note=81, velocity=0, time=0),
  Message('note_on', channel=7, note=57, velocity=0, time=0),
  Message('note_on', channel=0, note=32, velocity=64, time=20),
  Message('note_on', channel=0, note=43, velocity=64, time=0),
  Message('note_on', channel=1, note=72, velocity=114, time=0),
  Message('note_on', channel=1, note=77, velocity=114, time=0),
  Message('note_on', channel=1, note=83, velocity=114, time=0),
  Message('note_on', channel=4, note=60, velocity=127, time=0),
  Message('note_on', channel=4, note=65, velocity=127, time=0),
  Message('note_on', channel=4, note=71, velocity=127, time=0),
  Message('note_on', channel=6, note=72, velocity=99, time=0),
  Message('note_on', channel=6, note=77, velocity=99, time=0),
  Message('note_on', channel=6, note=83, velocity=99, time=0),
  Message('note_on', channel=7, note=48, velocity=89, time=0),
  Message('note_on', channel=7, note=53, velocity=89, time=0),
  Message('note_on', channel=7, note=59, velocity=89, time=0),
  Message('note_on', channel=9, note=40, velocity=106, time=0),
  Message('note_on', channel=9, note=70, velocity=78, time=0),
  Message('note_on', channel=9, note=60, velocity=96, time=0),
  Message('note_on', channel=9, note=40, velocity=0, time=1),
  Message('note_on', channel=9, note=70, velocity=0, time=0),
  Message('note_on', channel=9, note=60, velocity=0, time=0),
  Message('note_on', channel=9, note=70, velocity=64, time=119),
  Message('note_on', channel=9, note=70, velocity=0, time=1),
  Message('note_on', channel=0, note=32, velocity=0, time=99),
  Message('note_on', channel=0, note=43, velocity=0, time=0),
  Message('note_on', channel=1, note=72, velocity=0, time=0),
  Message('note_on', channel=1, note=77, velocity=0, time=0),
  Message('note_on', channel=1, note=83, velocity=0, time=0),
  Message('note_on', channel=4, note=60, velocity=0, time=0),
  Message('note_on', channel=4, note=65, velocity=0, time=0),
  Message('note_on', channel=4, note=71, velocity=0, time=0),
  Message('note_on', channel=6, note=72, velocity=0, time=0),
  Message('note_on', channel=6, note=77, velocity=0, time=0),
  Message('note_on', channel=6, note=83, velocity=0, time=0),
  Message('note_on', channel=7, note=48, velocity=0, time=0),
  Message('note_on', channel=7, note=53, velocity=0, time=0),
  Message('note_on', channel=7, note=59, velocity=0, time=0),
  Message('note_on', channel=9, note=70, velocity=120, time=20),
  Message('note_on', channel=9, note=70, velocity=0, time=1),
  Message('note_on', channel=0, note=32, velocity=64, time=119),
  Message('note_on', channel=0, note=43, velocity=64, time=0),
  Message('note_on', channel=1, note=72, velocity=114, time=0),
  Message('note_on', channel=1, note=77, velocity=114, time=0),
  Message('note_on', channel=1, note=83, velocity=114, time=0),
  Message('note_on', channel=4, note=60, velocity=127, time=0),
  Message('note_on', channel=4, note=65, velocity=127, time=0),
  Message('note_on', channel=4, note=71, velocity=127, time=0),
  Message('note_on', channel=6, note=72, velocity=99, time=0),
  Message('note_on', channel=6, note=77, velocity=99, time=0),
  Message('note_on', channel=6, note=83, velocity=99, time=0),
  Message('note_on', channel=7, note=48, velocity=89, time=0),
  Message('note_on', channel=7, note=53, velocity=89, time=0),
  Message('note_on', channel=7, note=59, velocity=89, time=0),
  Message('note_on', channel=9, note=46, velocity=106, time=0),
  Message('note_on', channel=9, note=70, velocity=120, time=0),
  Message('note_on', channel=9, note=60, velocity=96, time=0),
  Message('note_on', channel=9, note=46, velocity=0, time=1),
  Message('note_on', channel=9, note=70, velocity=0, time=0),
  Message('note_on', channel=9, note=60, velocity=0, time=0),
  Message('note_on', channel=9, note=70, velocity=78, time=119),
  Message('note_on', channel=9, note=70, velocity=0, time=1),
  Message('note_on', channel=9, note=70, velocity=64, time=119),
  Message('note_on', channel=9, note=70, velocity=0, time=1),
  Message('note_on', channel=1, note=72, velocity=0, time=99),
  Message('note_on', channel=1, note=77, velocity=0, time=0),
  Message('note_on', channel=1, note=83, velocity=0, time=0),
  Message('note_on', channel=4, note=60, velocity=0, time=0),
  Message('note_on', channel=4, note=65, velocity=0, time=0),
  Message('note_on', channel=4, note=71, velocity=0, time=0),
  Message('note_on', channel=6, note=72, velocity=0, time=0),
  Message('note_on', channel=6, note=77, velocity=0, time=0),
  Message('note_on', channel=6, note=83, velocity=0, time=0),
  Message('note_on', channel=7, note=48, velocity=0, time=0),
  Message('note_on', channel=7, note=53, velocity=0, time=0),
  Message('note_on', channel=7, note=59, velocity=0, time=0),
  Message('note_on', channel=1, note=81, velocity=114, time=20),
  Message('note_on', channel=4, note=69, velocity=127, time=0),
  Message('note_on', channel=6, note=81, velocity=99, time=0),
  Message('note_on', channel=7, note=57, velocity=89, time=0),
  Message('note_on', channel=9, note=40, velocity=78, time=0),
  Message('note_on', channel=9, note=70, velocity=120, time=0),
  Message('note_on', channel=9, note=61, velocity=96, time=0),
  Message('note_on', channel=9, note=40, velocity=0, time=1),
  Message('note_on', channel=9, note=70, velocity=0, time=0),
  Message('note_on', channel=9, note=61, velocity=0, time=0),
  Message('note_on', channel=1, note=81, velocity=0, time=99),
  Message('note_on', channel=4, note=69, velocity=0, time=0),
  Message('note_on', channel=6, note=81, velocity=0, time=0),
  Message('note_on', channel=7, note=57, velocity=0, time=0),
  Message('note_on', channel=1, note=82, velocity=114, time=20),
  Message('note_on', channel=4, note=70, velocity=127, time=0),
  Message('note_on', channel=6, note=82, velocity=99, time=0),
  Message('note_on', channel=7, note=58, velocity=89, time=0),
  Message('note_on', channel=9, note=40, velocity=92, time=0),
  Message('note_on', channel=9, note=70, velocity=120, time=0),
  Message('note_on', channel=9, note=60, velocity=96, time=0),
  Message('note_on', channel=9, note=40, velocity=0, time=1),
  Message('note_on', channel=9, note=70, velocity=0, time=0),
  Message('note_on', channel=9, note=60, velocity=0, time=0),
  Message('note_on', channel=0, note=32, velocity=0, time=89),
  Message('note_on', channel=0, note=43, velocity=0, time=0),
  Message('note_on', channel=1, note=82, velocity=0, time=10),
  Message('note_on', channel=4, note=70, velocity=0, time=0),
  Message('note_on', channel=6, note=82, velocity=0, time=0),
  Message('note_on', channel=7, note=58, velocity=0, time=0),
  Message('note_on', channel=0, note=31, velocity=64, time=20),
  Message('note_on', channel=0, note=41, velocity=64, time=0),
  Message('note_on', channel=1, note=71, velocity=114, time=0),
  Message('note_on', channel=1, note=76, velocity=114, time=0),
  Message('note_on', channel=1, note=83, velocity=114, time=0),
  Message('note_on', channel=4, note=59, velocity=127, time=0),
  Message('note_on', channel=4, note=64, velocity=127, time=0),
  Message('note_on', channel=4, note=71, velocity=127, time=0),
  Message('note_on', channel=6, note=71, velocity=99, time=0),
  Message('note_on', channel=6, note=76, velocity=99, time=0),
  Message('note_on', channel=6, note=83, velocity=99, time=0),
  Message('note_on', channel=7, note=47, velocity=89, time=0),
  Message('note_on', channel=7, note=52, velocity=89, time=0),
  Message('note_on', channel=7, note=59, velocity=89, time=0),
  Message('note_on', channel=9, note=40, velocity=106, time=0),
  Message('note_on', channel=9, note=70, velocity=78, time=0),
  Message('note_on', channel=9, note=60, velocity=96, time=0),
  Message('note_on', channel=9, note=40, velocity=0, time=1),
  Message('note_on', channel=9, note=70, velocity=0, time=0),
  Message('note_on', channel=9, note=60, velocity=0, time=0),
  Message('note_on', channel=9, note=70, velocity=64, time=119),
  Message('note_on', channel=9, note=70, velocity=0, time=1),
  Message('note_on', channel=0, note=31, velocity=0, time=99),
  Message('note_on', channel=0, note=41, velocity=0, time=0),
  Message('note_on', channel=9, note=70, velocity=120, time=20),
  Message('note_on', channel=9, note=70, velocity=0, time=1),
  Message('note_on', channel=0, note=31, velocity=64, time=119),
  Message('note_on', channel=0, note=41, velocity=64, time=0),
  Message('note_on', channel=9, note=46, velocity=106, time=0),
  Message('note_on', channel=9, note=70, velocity=120, time=0),
  Message('note_on', channel=9, note=60, velocity=96, time=0),
  Message('note_on', channel=9, note=46, velocity=0, time=1),
  Message('note_on', channel=9, note=70, velocity=0, time=0),
  Message('note_on', channel=9, note=60, velocity=0, time=0),
  Message('note_on', channel=9, note=70, velocity=78, time=119),
  Message('note_on', channel=9, note=70, velocity=0, time=1),
  Message('note_on', channel=9, note=70, velocity=64, time=119),
  Message('note_on', channel=9, note=70, velocity=0, time=1),
  Message('note_on', channel=0, note=31, velocity=0, time=119),
  Message('note_on', channel=0, note=41, velocity=0, time=0),
  Message('note_on', channel=0, note=38, velocity=64, time=0),
  Message('note_on', channel=9, note=40, velocity=78, time=0),
  Message('note_on', channel=9, note=70, velocity=120, time=0),
  Message('note_on', channel=9, note=61, velocity=96, time=0),
  Message('note_on', channel=9, note=40, velocity=0, time=1),
  Message('note_on', channel=9, note=70, velocity=0, time=0),
  Message('note_on', channel=9, note=61, velocity=0, time=0),
  Message('note_on', channel=9, note=40, velocity=92, time=119),
  Message('note_on', channel=9, note=70, velocity=120, time=0),
  Message('note_on', channel=9, note=61, velocity=96, time=0),
  Message('note_on', channel=9, note=40, velocity=0, time=1),
  Message('note_on', channel=9, note=70, velocity=0, time=0),
  Message('note_on', channel=9, note=61, velocity=0, time=0),
  Message('note_on', channel=9, note=40, velocity=106, time=119),
  Message('note_on', channel=9, note=70, velocity=78, time=0),
  Message('note_on', channel=9, note=61, velocity=96, time=0),
  Message('note_on', channel=9, note=40, velocity=0, time=1),
  Message('note_on', channel=9, note=70, velocity=0, time=0),
  Message('note_on', channel=9, note=61, velocity=0, time=0),
  Message('note_on', channel=9, note=61, velocity=96, time=59),
  Message('note_on', channel=9, note=61, velocity=0, time=1),
  Message('note_on', channel=9, note=40, velocity=92, time=59),
  Message('note_on', channel=9, note=70, velocity=64, time=0),
  Message('note_on', channel=9, note=61, velocity=96, time=0),
  Message('note_on', channel=9, note=40, velocity=0, time=1),
  Message('note_on', channel=9, note=70, velocity=0, time=0),
  Message('note_on', channel=9, note=61, velocity=0, time=0),
  Message('note_on', channel=9, note=61, velocity=96, time=59),
  Message('note_on', channel=9, note=61, velocity=0, time=1),
  Message('note_on', channel=0, note=38, velocity=0, time=39),
  Message('note_on', channel=0, note=31, velocity=64, time=20),
  Message('note_on', channel=9, note=40, velocity=106, time=0),
  Message('note_on', channel=9, note=70, velocity=120, time=0),
  Message('note_on', channel=9, note=61, velocity=96, time=0),
  Message('note_on', channel=9, note=40, velocity=0, time=1),
  Message('note_on', channel=9, note=70, velocity=0, time=0),
  Message('note_on', channel=9, note=61, velocity=0, time=0),
  Message('note_on', channel=9, note=40, velocity=78, time=119),
  Message('note_on', channel=9, note=70, velocity=120, time=0),
  Message('note_on', channel=9, note=61, velocity=96, time=0),
  Message('note_on', channel=9, note=40, velocity=0, time=1),
  Message('note_on', channel=9, note=70, velocity=0, time=0),
  Message('note_on', channel=9, note=61, velocity=0, time=0),
  Message('note_on', channel=0, note=31, velocity=0, time=99),
  Message('note_on', channel=0, note=38, velocity=64, time=20),
  Message('note_on', channel=9, note=40, velocity=78, time=0),
  Message('note_on', channel=9, note=70, velocity=78, time=0),
  Message('note_on', channel=9, note=60, velocity=96, time=0),
  Message('note_on', channel=9, note=40, velocity=0, time=1),
  Message('note_on', channel=9, note=70, velocity=0, time=0),
  Message('note_on', channel=9, note=60, velocity=0, time=0),
  Message('note_on', channel=9, note=70, velocity=64, time=119),
  Message('note_on', channel=9, note=60, velocity=96, time=0),
  Message('note_on', channel=9, note=70, velocity=0, time=1),
  Message('note_on', channel=9, note=60, velocity=0, time=0),
  Message('note_on', channel=9, note=46, velocity=120, time=119),
  Message('note_on', channel=9, note=70, velocity=120, time=0),
  Message('note_on', channel=9, note=60, velocity=110, time=0),
  Message('note_on', channel=9, note=46, velocity=0, time=1),
  Message('note_on', channel=9, note=70, velocity=0, time=0),
  Message('note_on', channel=9, note=60, velocity=0, time=0),
  Message('note_on', channel=9, note=70, velocity=120, time=119),
  Message('note_on', channel=9, note=70, velocity=0, time=1),
  Message('note_on', channel=0, note=38, velocity=0, time=89),
  Message('note_on', channel=1, note=71, velocity=0, time=10),
  Message('note_on', channel=1, note=76, velocity=0, time=0),
  Message('note_on', channel=1, note=83, velocity=0, time=0),
  Message('note_on', channel=4, note=59, velocity=0, time=0),
  Message('note_on', channel=4, note=64, velocity=0, time=0),
  Message('note_on', channel=4, note=71, velocity=0, time=0),
  Message('note_on', channel=6, note=71, velocity=0, time=0),
  Message('note_on', channel=6, note=76, velocity=0, time=0),
  Message('note_on', channel=6, note=83, velocity=0, time=0),
  Message('note_on', channel=7, note=47, velocity=0, time=0),
  Message('note_on', channel=7, note=52, velocity=0, time=0),
  Message('note_on', channel=7, note=59, velocity=0, time=0),
  Message('note_on', channel=0, note=36, velocity=64, time=20),
  Message('note_on', channel=1, note=60, velocity=114, time=0),
  Message('note_on', channel=4, note=48, velocity=104, time=0),
  Message('note_on', channel=6, note=60, velocity=99, time=0),
  Message('note_on', channel=7, note=36, velocity=89, time=0),
  Message('note_on', channel=9, note=70, velocity=78, time=0),
  Message('note_on', channel=9, note=60, velocity=82, time=0),
  Message('note_on', channel=9, note=70, velocity=0, time=1),
  Message('note_on', channel=9, note=60, velocity=0, time=0),
  Message('note_on', channel=1, note=60, velocity=0, time=99),
  Message('note_on', channel=4, note=48, velocity=0, time=0),
  Message('note_on', channel=6, note=60, velocity=0, time=0),
  Message('note_on', channel=7, note=36, velocity=0, time=0),
  Message('note_on', channel=1, note=67, velocity=114, time=20),
  Message('note_on', channel=4, note=55, velocity=104, time=0),
  Message('note_on', channel=6, note=67, velocity=99, time=0),
  Message('note_on', channel=7, note=43, velocity=89, time=0),
  Message('note_on', channel=9, note=70, velocity=64, time=0),
  Message('note_on', channel=9, note=60, velocity=82, time=0),
  Message('note_on', channel=9, note=70, velocity=0, time=1),
  Message('note_on', channel=9, note=60, velocity=0, time=0),
  Message('note_on', channel=1, note=67, velocity=0, time=99),
  Message('note_on', channel=4, note=55, velocity=0, time=0),
  Message('note_on', channel=6, note=67, velocity=0, time=0),
  Message('note_on', channel=7, note=43, velocity=0, time=0),
  Message('note_on', channel=9, note=70, velocity=120, time=20),
  Message('note_on', channel=9, note=60, velocity=96, time=0),
  Message('note_on', channel=9, note=70, velocity=0, time=1),
  Message('note_on', channel=9, note=60, velocity=0, time=0),
  Message('note_on', channel=0, note=36, velocity=0, time=99),
  Message('note_on', channel=0, note=43, velocity=64, time=20),
  Message('note_on', channel=1, note=60, velocity=114, time=0),
  Message('note_on', channel=4, note=48, velocity=104, time=0),
  Message('note_on', channel=6, note=60, velocity=99, time=0),
  Message('note_on', channel=7, note=36, velocity=89, time=0),
  Message('note_on', channel=9, note=70, velocity=120, time=0),
  Message('note_on', channel=9, note=70, velocity=0, time=1),
  Message('note_on', channel=1, note=60, velocity=0, time=99),
  Message('note_on', channel=4, note=48, velocity=0, time=0),
  Message('note_on', channel=6, note=60, velocity=0, time=0),
  Message('note_on', channel=7, note=36, velocity=0, time=0),
  Message('note_on', channel=1, note=66, velocity=114, time=20),
  Message('note_on', channel=4, note=54, velocity=104, time=0),
  Message('note_on', channel=6, note=66, velocity=99, time=0),
  Message('note_on', channel=7, note=42, velocity=89, time=0),
  Message('note_on', channel=9, note=70, velocity=78, time=0),
  Message('note_on', channel=9, note=60, velocity=96, time=0),
  Message('note_on', channel=9, note=70, velocity=0, time=1),
  Message('note_on', channel=9, note=60, velocity=0, time=0),
  Message('note_on', channel=1, note=66, velocity=0, time=99),
  Message('note_on', channel=4, note=54, velocity=0, time=0),
  Message('note_on', channel=6, note=66, velocity=0, time=0),
  Message('note_on', channel=7, note=42, velocity=0, time=0),
  Message('note_on', channel=9, note=70, velocity=64, time=20),
  Message('note_on', channel=9, note=70, velocity=0, time=1),
  Message('note_on', channel=0, note=43, velocity=0, time=99),
  Message('note_on', channel=0, note=42, velocity=64, time=20),
  Message('note_on', channel=1, note=60, velocity=114, time=0),
  Message('note_on', channel=4, note=48, velocity=104, time=0),
  Message('note_on', channel=6, note=60, velocity=99, time=0),
  Message('note_on', channel=7, note=36, velocity=89, time=0),
  Message('note_on', channel=9, note=70, velocity=120, time=0),
  Message('note_on', channel=9, note=61, velocity=96, time=0),
  Message('note_on', channel=9, note=70, velocity=0, time=1),
  Message('note_on', channel=9, note=61, velocity=0, time=0),
  Message('note_on', channel=1, note=60, velocity=0, time=99),
  Message('note_on', channel=4, note=48, velocity=0, time=0),
  Message('note_on', channel=6, note=60, velocity=0, time=0),
  Message('note_on', channel=7, note=36, velocity=0, time=0),
  Message('note_on', channel=1, note=63, velocity=114, time=20),
  Message('note_on', channel=4, note=51, velocity=104, time=0),
  Message('note_on', channel=6, note=63, velocity=99, time=0),
  Message('note_on', channel=7, note=39, velocity=89, time=0),
  Message('note_on', channel=9, note=70, velocity=120, time=0),
  Message('note_on', channel=9, note=61, velocity=96, time=0),
  Message('note_on', channel=9, note=70, velocity=0, time=1),
  Message('note_on', channel=9, note=61, velocity=0, time=0),
  Message('note_on', channel=0, note=42, velocity=0, time=99),
  Message('note_on', channel=1, note=63, velocity=0, time=0),
  Message('note_on', channel=4, note=51, velocity=0, time=0),
  Message('note_on', channel=6, note=63, velocity=0, time=0),
  Message('note_on', channel=7, note=39, velocity=0, time=0),
  Message('note_on', channel=0, note=41, velocity=64, time=20),
  Message('note_on', channel=9, note=42, velocity=92, time=0),
  Message('note_on', channel=9, note=70, velocity=78, time=0),
  Message('note_on', channel=9, note=60, velocity=82, time=0),
  Message('note_on', channel=9, note=42, velocity=0, time=1),
  Message('note_on', channel=9, note=70, velocity=0, time=0),
  Message('note_on', channel=9, note=60, velocity=0, time=0),
  Message('note_on', channel=1, note=60, velocity=114, time=119),
  Message('note_on', channel=4, note=48, velocity=104, time=0),
  Message('note_on', channel=6, note=60, velocity=99, time=0),
  Message('note_on', channel=7, note=36, velocity=89, time=0),
  Message('note_on', channel=9, note=70, velocity=64, time=0),
  Message('note_on', channel=9, note=60, velocity=82, time=0),
  Message('note_on', channel=9, note=70, velocity=0, time=1),
  Message('note_on', channel=9, note=60, velocity=0, time=0),
  Message('note_on', channel=1, note=60, velocity=0, time=99),
  Message('note_on', channel=4, note=48, velocity=0, time=0),
  Message('note_on', channel=6, note=60, velocity=0, time=0),
  Message('note_on', channel=7, note=36, velocity=0, time=0),
  Message('note_on', channel=1, note=58, velocity=114, time=20),
  Message('note_on', channel=4, note=46, velocity=104, time=0),
  Message('note_on', channel=6, note=58, velocity=99, time=0),
  Message('note_on', channel=7, note=34, velocity=89, time=0),
  Message('note_on', channel=9, note=70, velocity=120, time=0),
  Message('note_on', channel=9, note=60, velocity=96, time=0),
  Message('note_on', channel=9, note=70, velocity=0, time=1),
  Message('note_on', channel=9, note=60, velocity=0, time=0),
  Message('note_on', channel=0, note=41, velocity=0, time=99),
  Message('note_on', channel=0, note=39, velocity=64, time=20),
  Message('note_on', channel=9, note=70, velocity=120, time=0),
  Message('note_on', channel=9, note=70, velocity=0, time=1),
  Message('note_on', channel=9, note=42, velocity=92, time=119),
  Message('note_on', channel=9, note=70, velocity=78, time=0),
  Message('note_on', channel=9, note=60, velocity=96, time=0),
  Message('note_on', channel=9, note=42, velocity=0, time=1),
  Message('note_on', channel=9, note=70, velocity=0, time=0),
  Message('note_on', channel=9, note=60, velocity=0, time=0),
  Message('note_on', channel=9, note=70, velocity=64, time=119),
  Message('note_on', channel=9, note=70, velocity=0, time=1),
  Message('note_on', channel=0, note=39, velocity=0, time=99),
  Message('note_on', channel=1, note=58, velocity=0, time=0),
  Message('note_on', channel=4, note=46, velocity=0, time=0),
  Message('note_on', channel=6, note=58, velocity=0, time=0),
  Message('note_on', channel=7, note=34, velocity=0, time=0),
  Message('note_on', channel=0, note=34, velocity=64, time=20),
  Message('note_on', channel=1, note=60, velocity=114, time=0),
  Message('note_on', channel=4, note=48, velocity=104, time=0),
  Message('note_on', channel=6, note=60, velocity=99, time=0),
  Message('note_on', channel=7, note=36, velocity=89, time=0),
  Message('note_on', channel=9, note=70, velocity=120, time=0),
  Message('note_on', channel=9, note=61, velocity=96, time=0),
  Message('note_on', channel=9, note=70, velocity=0, time=1),
  Message('note_on', channel=9, note=61, velocity=0, time=0),
  Message('note_on', channel=9, note=70, velocity=120, time=119),
  Message('note_on', channel=9, note=61, velocity=96, time=0),
  Message('note_on', channel=9, note=70, velocity=0, time=1),
  Message('note_on', channel=9, note=61, velocity=0, time=0),
  Message('note_on', channel=0, note=34, velocity=0, time=99),
  Message('note_on', channel=0, note=36, velocity=64, time=20),
  Message('note_on', channel=2, note=87, velocity=127, time=0),
  Message('note_on', channel=5, note=87, velocity=107, time=0),
  Message('note_on', channel=9, note=70, velocity=78, time=0),
  Message('note_on', channel=9, note=60, velocity=96, time=0),
  Message('note_on', channel=9, note=70, velocity=0, time=1),
  Message('note_on', channel=9, note=60, velocity=0, time=0),
  Message('note_on', channel=9, note=70, velocity=64, time=119),
  Message('note_on', channel=9, note=60, velocity=96, time=0),
  Message('note_on', channel=9, note=70, velocity=0, time=1),
  Message('note_on', channel=9, note=60, velocity=0, time=0),
  Message('note_on', channel=2, note=87, velocity=0, time=99),
  Message('note_on', channel=5, note=87, velocity=0, time=0),
  Message('note_on', channel=2, note=87, velocity=127, time=20),
  Message('note_on', channel=5, note=87, velocity=107, time=0),
  Message('note_on', channel=9, note=70, velocity=120, time=0),
  Message('note_on', channel=9, note=60, velocity=96, time=0),
  Message('note_on', channel=9, note=70, velocity=0, time=1),
  Message('note_on', channel=9, note=60, velocity=0, time=0),
  Message('note_on', channel=0, note=36, velocity=0, time=99),
  Message('note_on', channel=0, note=43, velocity=64, time=20),
  Message('note_on', channel=9, note=70, velocity=120, time=0),
  Message('note_on', channel=9, note=60, velocity=96, time=0),
  Message('note_on', channel=9, note=70, velocity=0, time=1),
  Message('note_on', channel=9, note=60, velocity=0, time=0),
  Message('note_on', channel=2, note=87, velocity=0, time=99),
  Message('note_on', channel=5, note=87, velocity=0, time=0),
  Message('note_on', channel=2, note=84, velocity=127, time=20),
  Message('note_on', channel=5, note=84, velocity=107, time=0),
  Message('note_on', channel=9, note=42, velocity=92, time=0),
  Message('note_on', channel=9, note=70, velocity=78, time=0),
  Message('note_on', channel=9, note=61, velocity=82, time=0),
  Message('note_on', channel=9, note=42, velocity=0, time=1),
  Message('note_on', channel=9, note=70, velocity=0, time=0),
  Message('note_on', channel=9, note=61, velocity=0, time=0),
  Message('note_on', channel=2, note=84, velocity=0, time=99),
  Message('note_on', channel=5, note=84, velocity=0, time=0),
  Message('note_on', channel=2, note=82, velocity=127, time=20),
  Message('note_on', channel=5, note=82, velocity=107, time=0),
  Message('note_on', channel=9, note=70, velocity=64, time=0),
  Message('note_on', channel=9, note=61, velocity=82, time=0),
  Message('note_on', channel=9, note=70, velocity=0, time=1),
  Message('note_on', channel=9, note=61, velocity=0, time=0),
  Message('note_on', channel=0, note=43, velocity=0, time=99),
  Message('note_on', channel=2, note=82, velocity=0, time=0),
  Message('note_on', channel=5, note=82, velocity=0, time=0),
  Message('note_on', channel=0, note=42, velocity=64, time=20),
  Message('note_on', channel=2, note=79, velocity=127, time=0),
  Message('note_on', channel=5, note=79, velocity=107, time=0),
  Message('note_on', channel=9, note=70, velocity=120, time=0),
  Message('note_on', channel=9, note=61, velocity=82, time=0),
  Message('note_on', channel=9, note=70, velocity=0, time=1),
  Message('note_on', channel=9, note=61, velocity=0, time=0),
  Message('note_on', channel=2, note=79, velocity=0, time=99),
  Message('note_on', channel=5, note=79, velocity=0, time=0),
  Message('note_on', channel=2, note=79, velocity=127, time=20),
  Message('note_on', channel=5, note=79, velocity=107, time=0),
  Message('note_on', channel=9, note=70, velocity=120, time=0),
  Message('note_on', channel=9, note=61, velocity=82, time=0),
  Message('note_on', channel=9, note=70, velocity=0, time=1),
  Message('note_on', channel=9, note=61, velocity=0, time=0),
  Message('note_on', channel=0, note=42, velocity=0, time=99),
  Message('note_on', channel=2, note=79, velocity=0, time=0),
  Message('note_on', channel=5, note=79, velocity=0, time=0),
  Message('note_on', channel=0, note=41, velocity=64, time=20),
  Message('note_on', channel=2, note=77, velocity=127, time=0),
  Message('note_on', channel=5, note=77, velocity=107, time=0),
  Message('note_on', channel=9, note=42, velocity=92, time=0),
  Message('note_on', channel=9, note=70, velocity=78, time=0),
  Message('note_on', channel=9, note=61, velocity=110, time=0),
  Message('note_on', channel=9, note=42, velocity=0, time=1),
  Message('note_on', channel=9, note=70, velocity=0, time=0),
  Message('note_on', channel=9, note=61, velocity=0, time=0),
  Message('note_on', channel=2, note=77, velocity=0, time=99),
  Message('note_on', channel=5, note=77, velocity=0, time=0),
  Message('note_on', channel=2, note=75, velocity=127, time=20),
  Message('note_on', channel=5, note=75, velocity=107, time=0),
  Message('note_on', channel=9, note=70, velocity=64, time=0),
  Message('note_on', channel=9, note=60, velocity=96, time=0),
  Message('note_on', channel=9, note=70, velocity=0, time=1),
  Message('note_on', channel=9, note=60, velocity=0, time=0),
  Message('note_on', channel=2, note=75, velocity=0, time=99),
  Message('note_on', channel=5, note=75, velocity=0, time=0),
  Message('note_on', channel=2, note=72, velocity=127, time=20),
  Message('note_on', channel=5, note=72, velocity=107, time=0),
  Message('note_on', channel=9, note=70, velocity=120, time=0),
  Message('note_on', channel=9, note=60, velocity=96, time=0),
  Message('note_on', channel=9, note=70, velocity=0, time=1),
  Message('note_on', channel=9, note=60, velocity=0, time=0),
  Message('note_on', channel=0, note=41, velocity=0, time=99),
  Message('note_on', channel=2, note=72, velocity=0, time=0),
  Message('note_on', channel=5, note=72, velocity=0, time=0),
  Message('note_on', channel=0, note=39, velocity=64, time=20),
  Message('note_on', channel=2, note=67, velocity=127, time=0),
  Message('note_on', channel=5, note=67, velocity=107, time=0),
  Message('note_on', channel=9, note=70, velocity=120, time=0),
  Message('note_on', channel=9, note=70, velocity=0, time=1),
  Message('note_on', channel=2, note=67, velocity=0, time=99),
  Message('note_on', channel=5, note=67, velocity=0, time=0),
  Message('note_on', channel=1, note=60, velocity=0, time=20),
  Message('note_on', channel=2, note=70, velocity=127, time=0),
  Message('note_on', channel=4, note=48, velocity=0, time=0),
  Message('note_on', channel=5, note=70, velocity=107, time=0),
  Message('note_on', channel=6, note=60, velocity=0, time=0),
  Message('note_on', channel=7, note=36, velocity=0, time=0),
  Message('note_on', channel=9, note=42, velocity=92, time=0),
  Message('note_on', channel=9, note=70, velocity=78, time=0),
  Message('note_on', channel=9, note=60, velocity=96, time=0),
  Message('note_on', channel=9, note=42, velocity=0, time=1),
  Message('note_on', channel=9, note=70, velocity=0, time=0),
  Message('note_on', channel=9, note=60, velocity=0, time=0),
  Message('note_on', channel=2, note=70, velocity=0, time=99),
  Message('note_on', channel=5, note=70, velocity=0, time=0),
  Message('note_on', channel=2, note=69, velocity=127, time=20),
  Message('note_on', channel=5, note=69, velocity=107, time=0),
  Message('note_on', channel=9, note=70, velocity=64, time=0),
  Message('note_on', channel=9, note=70, velocity=0, time=1),
  Message('note_on', channel=0, note=39, velocity=0, time=99),
  Message('note_on', channel=0, note=34, velocity=64, time=20),
  Message('note_on', channel=9, note=70, velocity=120, time=0),
  Message('note_on', channel=9, note=61, velocity=96, time=0),
  Message('note_on', channel=9, note=70, velocity=0, time=1),
  Message('note_on', channel=9, note=61, velocity=0, time=0),
  Message('note_on', channel=9, note=70, velocity=120, time=119),
  Message('note_on', channel=9, note=60, velocity=96, time=0),
  Message('note_on', channel=9, note=70, velocity=0, time=1),
  Message('note_on', channel=9, note=60, velocity=0, time=0),
  Message('note_on', channel=0, note=34, velocity=0, time=99),
  Message('note_on', channel=2, note=69, velocity=0, time=0),
  Message('note_on', channel=5, note=69, velocity=0, time=0),
  Message('note_on', channel=0, note=36, velocity=64, time=20),
  Message('note_on', channel=1, note=60, velocity=114, time=0),
  Message('note_on', channel=4, note=48, velocity=104, time=0),
  Message('note_on', channel=6, note=60, velocity=99, time=0),
  Message('note_on', channel=7, note=36, velocity=89, time=0),
  Message('note_on', channel=9, note=42, velocity=92, time=0),
  Message('note_on', channel=9, note=70, velocity=78, time=0),
  Message('note_on', channel=9, note=60, velocity=82, time=0),
  Message('note_on', channel=9, note=42, velocity=0, time=1),
  Message('note_on', channel=9, note=70, velocity=0, time=0),
  Message('note_on', channel=9, note=60, velocity=0, time=0),
  Message('note_on', channel=1, note=60, velocity=0, time=99),
  Message('note_on', channel=4, note=48, velocity=0, time=0),
  Message('note_on', channel=6, note=60, velocity=0, time=0),
  Message('note_on', channel=7, note=36, velocity=0, time=0),
  Message('note_on', channel=1, note=67, velocity=114, time=20),
  Message('note_on', channel=4, note=55, velocity=104, time=0),
  Message('note_on', channel=6, note=67, velocity=99, time=0),
  Message('note_on', channel=7, note=43, velocity=89, time=0),
  Message('note_on', channel=9, note=70, velocity=64, time=0),
  Message('note_on', channel=9, note=60, velocity=82, time=0),
  Message('note_on', channel=9, note=70, velocity=0, time=1),
  Message('note_on', channel=9, note=60, velocity=0, time=0),
  Message('note_on', channel=1, note=67, velocity=0, time=99),
  Message('note_on', channel=4, note=55, velocity=0, time=0),
  Message('note_on', channel=6, note=67, velocity=0, time=0),
  Message('note_on', channel=7, note=43, velocity=0, time=0),
  Message('note_on', channel=9, note=70, velocity=120, time=20),
  Message('note_on', channel=9, note=60, velocity=96, time=0),
  Message('note_on', channel=9, note=70, velocity=0, time=1),
  Message('note_on', channel=9, note=60, velocity=0, time=0),
  Message('note_on', channel=0, note=36, velocity=0, time=99),
  Message('note_on', channel=0, note=43, velocity=64, time=20),
  Message('note_on', channel=1, note=60, velocity=114, time=0),
  Message('note_on', channel=4, note=48, velocity=104, time=0),
  Message('note_on', channel=6, note=60, velocity=99, time=0),
  Message('note_on', channel=7, note=36, velocity=89, time=0),
  Message('note_on', channel=9, note=70, velocity=120, time=0),
  Message('note_on', channel=9, note=70, velocity=0, time=1),
  Message('note_on', channel=1, note=60, velocity=0, time=99),
  Message('note_on', channel=4, note=48, velocity=0, time=0),
  Message('note_on', channel=6, note=60, velocity=0, time=0),
  Message('note_on', channel=7, note=36, velocity=0, time=0),
  Message('note_on', channel=1, note=66, velocity=114, time=20),
  Message('note_on', channel=4, note=54, velocity=104, time=0),
  Message('note_on', channel=6, note=66, velocity=99, time=0),
  Message('note_on', channel=7, note=42, velocity=89, time=0),
  Message('note_on', channel=9, note=42, velocity=92, time=0),
  Message('note_on', channel=9, note=70, velocity=78, time=0),
  Message('note_on', channel=9, note=60, velocity=96, time=0),
  Message('note_on', channel=9, note=42, velocity=0, time=1),
  Message('note_on', channel=9, note=70, velocity=0, time=0),
  Message('note_on', channel=9, note=60, velocity=0, time=0),
  Message('note_on', channel=1, note=66, velocity=0, time=99),
  Message('note_on', channel=4, note=54, velocity=0, time=0),
  Message('note_on', channel=6, note=66, velocity=0, time=0),
  Message('note_on', channel=7, note=42, velocity=0, time=0),
  Message('note_on', channel=9, note=70, velocity=64, time=20),
  Message('note_on', channel=9, note=70, velocity=0, time=1),
  Message('note_on', channel=0, note=43, velocity=0, time=99),
  Message('note_on', channel=0, note=42, velocity=64, time=20),
  Message('note_on', channel=1, note=60, velocity=114, time=0),
  Message('note_on', channel=4, note=48, velocity=104, time=0),
  Message('note_on', channel=6, note=60, velocity=99, time=0),
  Message('note_on', channel=7, note=36, velocity=89, time=0),
  Message('note_on', channel=9, note=70, velocity=120, time=0),
  Message('note_on', channel=9, note=61, velocity=96, time=0),
  Message('note_on', channel=9, note=70, velocity=0, time=1),
  Message('note_on', channel=9, note=61, velocity=0, time=0),
  Message('note_on', channel=1, note=60, velocity=0, time=99),
  Message('note_on', channel=4, note=48, velocity=0, time=0),
  Message('note_on', channel=6, note=60, velocity=0, time=0),
  Message('note_on', channel=7, note=36, velocity=0, time=0),
  Message('note_on', channel=1, note=63, velocity=114, time=20),
  Message('note_on', channel=4, note=51, velocity=104, time=0),
  Message('note_on', channel=6, note=63, velocity=99, time=0),
  Message('note_on', channel=7, note=39, velocity=89, time=0),
  Message('note_on', channel=9, note=70, velocity=120, time=0),
  Message('note_on', channel=9, note=61, velocity=96, time=0),
  Message('note_on', channel=9, note=70, velocity=0, time=1),
  Message('note_on', channel=9, note=61, velocity=0, time=0),
  Message('note_on', channel=0, note=42, velocity=0, time=99),
  Message('note_on', channel=1, note=63, velocity=0, time=0),
  Message('note_on', channel=4, note=51, velocity=0, time=0),
  Message('note_on', channel=6, note=63, velocity=0, time=0),
  Message('note_on', channel=7, note=39, velocity=0, time=0),
  Message('note_on', channel=0, note=41, velocity=64, time=20),
  Message('note_on', channel=9, note=46, velocity=92, time=0),
  Message('note_on', channel=9, note=70, velocity=78, time=0),
  Message('note_on', channel=9, note=60, velocity=82, time=0),
  Message('note_on', channel=9, note=46, velocity=0, time=1),
  Message('note_on', channel=9, note=70, velocity=0, time=0),
  Message('note_on', channel=9, note=60, velocity=0, time=0),
  Message('note_on', channel=1, note=60, velocity=114, time=119),
  Message('note_on', channel=4, note=48, velocity=104, time=0),
  Message('note_on', channel=6, note=60, velocity=99, time=0),
  Message('note_on', channel=7, note=36, velocity=89, time=0),
  Message('note_on', channel=9, note=70, velocity=64, time=0),
  Message('note_on', channel=9, note=60, velocity=82, time=0),
  Message('note_on', channel=9, note=70, velocity=0, time=1),
  Message('note_on', channel=9, note=60, velocity=0, time=0),
  Message('note_on', channel=1, note=60, velocity=0, time=99),
  Message('note_on', channel=4, note=48, velocity=0, time=0),
  Message('note_on', channel=6, note=60, velocity=0, time=0),
  Message('note_on', channel=7, note=36, velocity=0, time=0),
  Message('note_on', channel=1, note=58, velocity=114, time=20),
  Message('note_on', channel=4, note=46, velocity=104, time=0),
  Message('note_on', channel=6, note=58, velocity=99, time=0),
  Message('note_on', channel=7, note=34, velocity=89, time=0),
  Message('note_on', channel=9, note=70, velocity=120, time=0),
  Message('note_on', channel=9, note=60, velocity=96, time=0),
  Message('note_on', channel=9, note=70, velocity=0, time=1),
  Message('note_on', channel=9, note=60, velocity=0, time=0),
  Message('note_on', channel=0, note=41, velocity=0, time=99),
  Message('note_on', channel=0, note=39, velocity=64, time=20),
  Message('note_on', channel=9, note=70, velocity=120, time=0),
  Message('note_on', channel=9, note=70, velocity=0, time=1),
  Message('note_on', channel=9, note=42, velocity=92, time=119),
  Message('note_on', channel=9, note=70, velocity=78, time=0),
  Message('note_on', channel=9, note=60, velocity=96, time=0),
  Message('note_on', channel=9, note=42, velocity=0, time=1),
  Message('note_on', channel=9, note=70, velocity=0, time=0),
  Message('note_on', channel=9, note=60, velocity=0, time=0),
  Message('note_on', channel=9, note=70, velocity=64, time=119),
  Message('note_on', channel=9, note=70, velocity=0, time=1),
  Message('note_on', channel=0, note=39, velocity=0, time=99),
  Message('note_on', channel=1, note=58, velocity=0, time=0),
  Message('note_on', channel=4, note=46, velocity=0, time=0),
  Message('note_on', channel=6, note=58, velocity=0, time=0),
  Message('note_on', channel=7, note=34, velocity=0, time=0),
  Message('note_on', channel=0, note=34, velocity=64, time=20),
  Message('note_on', channel=1, note=60, velocity=114, time=0),
  Message('note_on', channel=4, note=48, velocity=104, time=0),
  Message('note_on', channel=6, note=60, velocity=99, time=0),
  Message('note_on', channel=7, note=36, velocity=89, time=0),
  Message('note_on', channel=9, note=70, velocity=120, time=0),
  Message('note_on', channel=9, note=61, velocity=96, time=0),
  Message('note_on', channel=9, note=70, velocity=0, time=1),
  Message('note_on', channel=9, note=61, velocity=0, time=0),
  Message('note_on', channel=9, note=70, velocity=120, time=119),
  Message('note_on', channel=9, note=61, velocity=96, time=0),
  Message('note_on', channel=9, note=70, velocity=0, time=1),
  Message('note_on', channel=9, note=61, velocity=0, time=0),
  Message('note_on', channel=0, note=34, velocity=0, time=99),
  Message('note_on', channel=0, note=36, velocity=64, time=20),
  Message('note_on', channel=2, note=63, velocity=127, time=0),
  Message('note_on', channel=5, note=63, velocity=107, time=0),
  Message('note_on', channel=9, note=40, velocity=106, time=0),
  Message('note_on', channel=9, note=70, velocity=78, time=0),
  Message('note_on', channel=9, note=60, velocity=96, time=0),
  Message('note_on', channel=9, note=40, velocity=0, time=1),
  Message('note_on', channel=9, note=70, velocity=0, time=0),
  Message('note_on', channel=9, note=60, velocity=0, time=0),
  Message('note_on', channel=2, note=63, velocity=0, time=99),
  Message('note_on', channel=5, note=63, velocity=0, time=0),
  Message('note_on', channel=2, note=65, velocity=127, time=20),
  Message('note_on', channel=5, note=65, velocity=107, time=0),
  Message('note_on', channel=9, note=40, velocity=106, time=0),
  Message('note_on', channel=9, note=70, velocity=64, time=0),
  Message('note_on', channel=9, note=60, velocity=96, time=0),
  Message('note_on', channel=9, note=40, velocity=0, time=1),
  Message('note_on', channel=9, note=70, velocity=0, time=0),
  Message('note_on', channel=9, note=60, velocity=0, time=0),
  Message('note_on', channel=2, note=65, velocity=0, time=99),
  Message('note_on', channel=5, note=65, velocity=0, time=0),
  Message('note_on', channel=9, note=70, velocity=120, time=20),
  Message('note_on', channel=9, note=70, velocity=0, time=1),
  Message('note_on', channel=0, note=36, velocity=0, time=99),
  Message('note_on', channel=0, note=43, velocity=64, time=20),
  Message('note_on', channel=2, note=67, velocity=127, time=0),
  Message('note_on', channel=5, note=67, velocity=107, time=0),
  Message('note_on', channel=9, note=40, velocity=106, time=0),
  Message('note_on', channel=9, note=70, velocity=120, time=0),
  Message('note_on', channel=9, note=60, velocity=96, time=0),
  Message('note_on', channel=9, note=40, velocity=0, time=1),
  Message('note_on', channel=9, note=70, velocity=0, time=0),
  Message('note_on', channel=9, note=60, velocity=0, time=0),
  Message('note_on', channel=2, note=67, velocity=0, time=99),
  Message('note_on', channel=5, note=67, velocity=0, time=0),
  Message('note_on', channel=9, note=70, velocity=78, time=20),
  Message('note_on', channel=9, note=70, velocity=0, time=1),
  Message('note_on', channel=2, note=70, velocity=127, time=119),
  Message('note_on', channel=5, note=70, velocity=107, time=0),
  Message('note_on', channel=9, note=40, velocity=106, time=0),
  Message('note_on', channel=9, note=70, velocity=64, time=0),
  Message('note_on', channel=9, note=60, velocity=96, time=0),
  Message('note_on', channel=9, note=40, velocity=0, time=1),
  Message('note_on', channel=9, note=70, velocity=0, time=0),
  Message('note_on', channel=9, note=60, velocity=0, time=0),
  Message('note_on', channel=0, note=43, velocity=0, time=99),
  Message('note_on', channel=2, note=70, velocity=0, time=0),
  Message('note_on', channel=5, note=70, velocity=0, time=0),
  Message('note_on', channel=0, note=42, velocity=64, time=20),
  Message('note_on', channel=9, note=70, velocity=120, time=0),
  Message('note_on', channel=9, note=70, velocity=0, time=1),
  Message('note_on', channel=2, note=72, velocity=127, time=119),
  Message('note_on', channel=5, note=72, velocity=107, time=0),
  Message('note_on', channel=9, note=40, velocity=106, time=0),
  Message('note_on', channel=9, note=70, velocity=120, time=0),
  Message('note_on', channel=9, note=60, velocity=96, time=0),
  Message('note_on', channel=9, note=40, velocity=0, time=1),
  Message('note_on', channel=9, note=70, velocity=0, time=0),
  Message('note_on', channel=9, note=60, velocity=0, time=0),
  Message('note_on', channel=0, note=42, velocity=0, time=99),
  Message('note_on', channel=2, note=72, velocity=0, time=0),
  Message('note_on', channel=5, note=72, velocity=0, time=0),
  Message('note_on', channel=0, note=41, velocity=64, time=20),
  Message('note_on', channel=9, note=70, velocity=78, time=0),
  Message('note_on', channel=9, note=70, velocity=0, time=1),
  Message('note_on', channel=2, note=75, velocity=127, time=119),
  Message('note_on', channel=5, note=75, velocity=107, time=0),
  Message('note_on', channel=9, note=40, velocity=106, time=0),
  Message('note_on', channel=9, note=70, velocity=64, time=0),
  Message('note_on', channel=9, note=60, velocity=96, time=0),
  Message('note_on', channel=9, note=40, velocity=0, time=1),
  Message('note_on', channel=9, note=70, velocity=0, time=0),
  Message('note_on', channel=9, note=60, velocity=0, time=0),
  Message('note_on', channel=2, note=75, velocity=0, time=99),
  Message('note_on', channel=5, note=75, velocity=0, time=0),
  Message('note_on', channel=9, note=70, velocity=120, time=20),
  Message('note_on', channel=9, note=70, velocity=0, time=1),
  Message('note_on', channel=0, note=41, velocity=0, time=99),
  Message('note_on', channel=0, note=39, velocity=64, time=20),
  Message('note_on', channel=2, note=77, velocity=127, time=0),
  Message('note_on', channel=5, note=77, velocity=107, time=0),
  Message('note_on', channel=9, note=40, velocity=106, time=0),
  Message('note_on', channel=9, note=70, velocity=120, time=0),
  Message('note_on', channel=9, note=60, velocity=96, time=0),
  Message('note_on', channel=9, note=40, velocity=0, time=1),
  Message('note_on', channel=9, note=70, velocity=0, time=0),
  Message('note_on', channel=9, note=60, velocity=0, time=0),
  Message('note_on', channel=2, note=77, velocity=0, time=99),
  Message('note_on', channel=5, note=77, velocity=0, time=0),
  Message('note_on', channel=1, note=60, velocity=0, time=20),
  Message('note_on', channel=2, note=79, velocity=127, time=0),
  Message('note_on', channel=4, note=48, velocity=0, time=0),
  Message('note_on', channel=5, note=79, velocity=107, time=0),
  Message('note_on', channel=6, note=60, velocity=0, time=0),
  Message('note_on', channel=7, note=36, velocity=0, time=0),
  Message('note_on', channel=9, note=40, velocity=106, time=0),
  Message('note_on', channel=9, note=70, velocity=78, time=0),
  Message('note_on', channel=9, note=61, velocity=96, time=0),
  Message('note_on', channel=9, note=40, velocity=0, time=1),
  Message('note_on', channel=9, note=70, velocity=0, time=0),
  Message('note_on', channel=9, note=61, velocity=0, time=0),
  Message('note_on', channel=9, note=70, velocity=64, time=119),
  Message('note_on', channel=9, note=70, velocity=0, time=1),
  Message('note_on', channel=0, note=39, velocity=0, time=99),
  Message('note_on', channel=2, note=79, velocity=0, time=0),
  Message('note_on', channel=5, note=79, velocity=0, time=0),
  Message('note_on', channel=0, note=34, velocity=64, time=20),
  Message('note_on', channel=2, note=82, velocity=127, time=0),
  Message('note_on', channel=5, note=82, velocity=107, time=0),
  Message('note_on', channel=9, note=40, velocity=106, time=0),
  Message('note_on', channel=9, note=70, velocity=120, time=0),
  Message('note_on', channel=9, note=60, velocity=96, time=0),
  Message('note_on', channel=9, note=40, velocity=0, time=1),
  Message('note_on', channel=9, note=70, velocity=0, time=0),
  Message('note_on', channel=9, note=60, velocity=0, time=0),
  Message('note_on', channel=9, note=70, velocity=120, time=119),
  Message('note_on', channel=9, note=70, velocity=0, time=1),
  Message('note_on', channel=0, note=34, velocity=0, time=99),
  Message('note_on', channel=2, note=82, velocity=0, time=0),
  Message('note_on', channel=5, note=82, velocity=0, time=0),
  Message('note_on', channel=0, note=41, velocity=64, time=20),
  Message('note_on', channel=1, note=65, velocity=114, time=0),
  Message('note_on', channel=4, note=53, velocity=104, time=0),
  Message('note_on', channel=6, note=65, velocity=99, time=0),
  Message('note_on', channel=7, note=41, velocity=89, time=0),
  Message('note_on', channel=9, note=49, velocity=120, time=0),
  Message('note_on', channel=9, note=70, velocity=78, time=0),
  Message('note_on', channel=9, note=60, velocity=82, time=0),
  Message('note_on', channel=9, note=49, velocity=0, time=1),
  Message('note_on', channel=9, note=70, velocity=0, time=0),
  Message('note_on', channel=9, note=60, velocity=0, time=0),
  Message('note_on', channel=1, note=65, velocity=0, time=99),
  Message('note_on', channel=4, note=53, velocity=0, time=0),
  Message('note_on', channel=6, note=65, velocity=0, time=0),
  Message('note_on', channel=7, note=41, velocity=0, time=0),
  Message('note_on', channel=1, note=72, velocity=114, time=20),
  Message('note_on', channel=4, note=60, velocity=104, time=0),
  Message('note_on', channel=6, note=72, velocity=99, time=0),
  Message('note_on', channel=7, note=48, velocity=89, time=0),
  Message('note_on', channel=9, note=70, velocity=64, time=0),
  Message('note_on', channel=9, note=60, velocity=82, time=0),
  Message('note_on', channel=9, note=70, velocity=0, time=1),
  Message('note_on', channel=9, note=60, velocity=0, time=0),
  Message('note_on', channel=1, note=72, velocity=0, time=99),
  Message('note_on', channel=4, note=60, velocity=0, time=0),
  Message('note_on', channel=6, note=72, velocity=0, time=0),
  Message('note_on', channel=7, note=48, velocity=0, time=0),
  Message('note_on', channel=9, note=70, velocity=120, time=20),
  Message('note_on', channel=9, note=60, velocity=96, time=0),
  Message('note_on', channel=9, note=70, velocity=0, time=1),
  Message('note_on', channel=9, note=60, velocity=0, time=0),
  Message('note_on', channel=0, note=41, velocity=0, time=99),
  Message('note_on', channel=0, note=48, velocity=64, time=20),
  Message('note_on', channel=1, note=65, velocity=114, time=0),
  Message('note_on', channel=4, note=53, velocity=104, time=0),
  Message('note_on', channel=6, note=65, velocity=99, time=0),
  Message('note_on', channel=7, note=41, velocity=89, time=0),
  Message('note_on', channel=9, note=70, velocity=120, time=0),
  Message('note_on', channel=9, note=70, velocity=0, time=1),
  Message('note_on', channel=1, note=65, velocity=0, time=99),
  Message('note_on', channel=4, note=53, velocity=0, time=0),
  Message('note_on', channel=6, note=65, velocity=0, time=0),
  Message('note_on', channel=7, note=41, velocity=0, time=0),
  Message('note_on', channel=1, note=71, velocity=114, time=20),
  Message('note_on', channel=4, note=59, velocity=104, time=0),
  Message('note_on', channel=6, note=71, velocity=99, time=0),
  Message('note_on', channel=7, note=47, velocity=89, time=0),
  Message('note_on', channel=9, note=42, velocity=92, time=0),
  Message('note_on', channel=9, note=70, velocity=78, time=0),
  Message('note_on', channel=9, note=60, velocity=96, time=0),
  Message('note_on', channel=9, note=42, velocity=0, time=1),
  Message('note_on', channel=9, note=70, velocity=0, time=0),
  Message('note_on', channel=9, note=60, velocity=0, time=0),
  Message('note_on', channel=1, note=71, velocity=0, time=99),
  Message('note_on', channel=4, note=59, velocity=0, time=0),
  Message('note_on', channel=6, note=71, velocity=0, time=0),
  Message('note_on', channel=7, note=47, velocity=0, time=0),
  Message('note_on', channel=9, note=70, velocity=64, time=20),
  Message('note_on', channel=9, note=70, velocity=0, time=1),
  Message('note_on', channel=0, note=48, velocity=0, time=99),
  Message('note_on', channel=0, note=47, velocity=64, time=20),
  Message('note_on', channel=1, note=65, velocity=114, time=0),
  Message('note_on', channel=4, note=53, velocity=104, time=0),
  Message('note_on', channel=6, note=65, velocity=99, time=0),
  Message('note_on', channel=7, note=41, velocity=89, time=0),
  Message('note_on', channel=9, note=70, velocity=120, time=0),
  Message('note_on', channel=9, note=61, velocity=96, time=0),
  Message('note_on', channel=9, note=70, velocity=0, time=1),
  Message('note_on', channel=9, note=61, velocity=0, time=0),
  Message('note_on', channel=1, note=65, velocity=0, time=99),
  Message('note_on', channel=4, note=53, velocity=0, time=0),
  Message('note_on', channel=6, note=65, velocity=0, time=0),
  Message('note_on', channel=7, note=41, velocity=0, time=0),
  Message('note_on', channel=1, note=68, velocity=114, time=20),
  Message('note_on', channel=4, note=56, velocity=104, time=0),
  Message('note_on', channel=6, note=68, velocity=99, time=0),
  Message('note_on', channel=7, note=44, velocity=89, time=0),
  Message('note_on', channel=9, note=70, velocity=120, time=0),
  Message('note_on', channel=9, note=61, velocity=96, time=0),
  Message('note_on', channel=9, note=70, velocity=0, time=1),
  Message('note_on', channel=9, note=61, velocity=0, time=0),
  Message('note_on', channel=0, note=47, velocity=0, time=99),
  Message('note_on', channel=1, note=68, velocity=0, time=0),
  Message('note_on', channel=4, note=56, velocity=0, time=0),
  Message('note_on', channel=6, note=68, velocity=0, time=0),
  Message('note_on', channel=7, note=44, velocity=0, time=0),
  Message('note_on', channel=0, note=46, velocity=64, time=20),
  Message('note_on', channel=9, note=42, velocity=92, time=0),
  Message('note_on', channel=9, note=70, velocity=78, time=0),
  Message('note_on', channel=9, note=60, velocity=82, time=0),
  Message('note_on', channel=9, note=42, velocity=0, time=1),
  Message('note_on', channel=9, note=70, velocity=0, time=0),
  Message('note_on', channel=9, note=60, velocity=0, time=0),
  Message('note_on', channel=1, note=65, velocity=114, time=119),
  Message('note_on', channel=4, note=53, velocity=104, time=0),
  Message('note_on', channel=6, note=65, velocity=99, time=0),
  Message('note_on', channel=7, note=41, velocity=89, time=0),
  Message('note_on', channel=9, note=70, velocity=64, time=0),
  Message('note_on', channel=9, note=60, velocity=82, time=0),
  Message('note_on', channel=9, note=70, velocity=0, time=1),
  Message('note_on', channel=9, note=60, velocity=0, time=0),
  Message('note_on', channel=1, note=65, velocity=0, time=99),
  Message('note_on', channel=4, note=53, velocity=0, time=0),
  Message('note_on', channel=6, note=65, velocity=0, time=0),
  Message('note_on', channel=7, note=41, velocity=0, time=0),
  Message('note_on', channel=1, note=63, velocity=114, time=20),
  Message('note_on', channel=4, note=51, velocity=104, time=0),
  Message('note_on', channel=6, note=63, velocity=99, time=0),
  Message('note_on', channel=7, note=39, velocity=89, time=0),
  Message('note_on', channel=9, note=70, velocity=120, time=0),
  Message('note_on', channel=9, note=60, velocity=96, time=0),
  Message('note_on', channel=9, note=70, velocity=0, time=1),
  Message('note_on', channel=9, note=60, velocity=0, time=0),
  Message('note_on', channel=0, note=46, velocity=0, time=99),
  Message('note_on', channel=0, note=44, velocity=64, time=20),
  Message('note_on', channel=9, note=70, velocity=120, time=0),
  Message('note_on', channel=9, note=70, velocity=0, time=1),
  Message('note_on', channel=9, note=42, velocity=92, time=119),
  Message('note_on', channel=9, note=70, velocity=78, time=0),
  Message('note_on', channel=9, note=60, velocity=96, time=0),
  Message('note_on', channel=9, note=42, velocity=0, time=1),
  Message('note_on', channel=9, note=70, velocity=0, time=0),
  Message('note_on', channel=9, note=60, velocity=0, time=0),
  Message('note_on', channel=9, note=70, velocity=64, time=119),
  Message('note_on', channel=9, note=70, velocity=0, time=1),
  Message('note_on', channel=0, note=44, velocity=0, time=99),
  Message('note_on', channel=1, note=63, velocity=0, time=0),
  Message('note_on', channel=4, note=51, velocity=0, time=0),
  Message('note_on', channel=6, note=63, velocity=0, time=0),
  Message('note_on', channel=7, note=39, velocity=0, time=0),
  Message('note_on', channel=0, note=39, velocity=64, time=20),
  Message('note_on', channel=1, note=65, velocity=114, time=0),
  Message('note_on', channel=4, note=53, velocity=104, time=0),
  Message('note_on', channel=6, note=65, velocity=99, time=0),
  Message('note_on', channel=7, note=41, velocity=89, time=0),
  Message('note_on', channel=9, note=70, velocity=120, time=0),
  Message('note_on', channel=9, note=61, velocity=96, time=0),
  Message('note_on', channel=9, note=70, velocity=0, time=1),
  Message('note_on', channel=9, note=61, velocity=0, time=0),
  Message('note_on', channel=9, note=70, velocity=120, time=119),
  Message('note_on', channel=9, note=61, velocity=96, time=0),
  Message('note_on', channel=9, note=70, velocity=0, time=1),
  Message('note_on', channel=9, note=61, velocity=0, time=0),
  Message('note_on', channel=0, note=39, velocity=0, time=99),
  Message('note_on', channel=0, note=41, velocity=64, time=20),
  Message('note_on', channel=2, note=89, velocity=127, time=0),
  Message('note_on', channel=5, note=89, velocity=107, time=0),
  Message('note_on', channel=9, note=42, velocity=92, time=0),
  Message('note_on', channel=9, note=70, velocity=78, time=0),
  Message('note_on', channel=9, note=60, velocity=96, time=0),
  Message('note_on', channel=9, note=42, velocity=0, time=1),
  Message('note_on', channel=9, note=70, velocity=0, time=0),
  Message('note_on', channel=9, note=60, velocity=0, time=0),
  Message('note_on', channel=2, note=89, velocity=0, time=99),
  Message('note_on', channel=5, note=89, velocity=0, time=0),
  Message('note_on', channel=2, note=88, velocity=127, time=20),
  Message('note_on', channel=5, note=88, velocity=107, time=0),
  Message('note_on', channel=9, note=70, velocity=64, time=0),
  Message('note_on', channel=9, note=60, velocity=96, time=0),
  Message('note_on', channel=9, note=70, velocity=0, time=1),
  Message('note_on', channel=9, note=60, velocity=0, time=0),
  Message('note_on', channel=2, note=88, velocity=0, time=99),
  Message('note_on', channel=5, note=88, velocity=0, time=0),
  Message('note_on', channel=2, note=87, velocity=127, time=20),
  Message('note_on', channel=5, note=87, velocity=107, time=0),
  Message('note_on', channel=9, note=70, velocity=120, time=0),
  Message('note_on', channel=9, note=60, velocity=96, time=0),
  Message('note_on', channel=9, note=70, velocity=0, time=1),
  Message('note_on', channel=9, note=60, velocity=0, time=0),
  Message('note_on', channel=0, note=41, velocity=0, time=99),
  Message('note_on', channel=2, note=87, velocity=0, time=0),
  Message('note_on', channel=5, note=87, velocity=0, time=0),
  Message('note_on', channel=0, note=48, velocity=64, time=20),
  Message('note_on', channel=2, note=84, velocity=127, time=0),
  Message('note_on', channel=5, note=84, velocity=107, time=0),
  Message('note_on', channel=9, note=70, velocity=120, time=0),
  Message('note_on', channel=9, note=60, velocity=96, time=0),
  Message('note_on', channel=9, note=70, velocity=0, time=1),
  Message('note_on', channel=9, note=60, velocity=0, time=0),
  Message('note_on', channel=2, note=84, velocity=0, time=99),
  Message('note_on', channel=5, note=84, velocity=0, time=0),
  Message('note_on', channel=2, note=83, velocity=127, time=20),
  Message('note_on', channel=5, note=83, velocity=107, time=0),
  Message('note_on', channel=9, note=42, velocity=92, time=0),
  Message('note_on', channel=9, note=70, velocity=78, time=0),
  Message('note_on', channel=9, note=61, velocity=82, time=0),
  Message('note_on', channel=9, note=42, velocity=0, time=1),
  Message('note_on', channel=9, note=70, velocity=0, time=0),
  Message('note_on', channel=9, note=61, velocity=0, time=0),
  Message('note_on', channel=2, note=83, velocity=0, time=99),
  Message('note_on', channel=5, note=83, velocity=0, time=0),
  Message('note_on', channel=2, note=82, velocity=127, time=20),
  Message('note_on', channel=5, note=82, velocity=107, time=0),
  Message('note_on', channel=9, note=70, velocity=64, time=0),
  Message('note_on', channel=9, note=61, velocity=82, time=0),
  Message('note_on', channel=9, note=70, velocity=0, time=1),
  Message('note_on', channel=9, note=61, velocity=0, time=0),
  Message('note_on', channel=0, note=48, velocity=0, time=99),
  Message('note_on', channel=2, note=82, velocity=0, time=0),
  Message('note_on', channel=5, note=82, velocity=0, time=0),
  Message('note_on', channel=0, note=47, velocity=64, time=20),
  Message('note_on', channel=2, note=80, velocity=127, time=0),
  Message('note_on', channel=5, note=80, velocity=107, time=0),
  Message('note_on', channel=9, note=70, velocity=120, time=0),
  Message('note_on', channel=9, note=61, velocity=82, time=0),
  Message('note_on', channel=9, note=70, velocity=0, time=1),
  Message('note_on', channel=9, note=61, velocity=0, time=0),
  Message('note_on', channel=2, note=80, velocity=0, time=99),
  Message('note_on', channel=5, note=80, velocity=0, time=0),
  Message('note_on', channel=2, note=77, velocity=127, time=20),
  Message('note_on', channel=5, note=77, velocity=107, time=0),
  Message('note_on', channel=9, note=70, velocity=120, time=0),
  Message('note_on', channel=9, note=61, velocity=82, time=0),
  Message('note_on', channel=9, note=70, velocity=0, time=1),
  Message('note_on', channel=9, note=61, velocity=0, time=0),
  Message('note_on', channel=0, note=47, velocity=0, time=99),
  Message('note_on', channel=2, note=77, velocity=0, time=0),
  Message('note_on', channel=5, note=77, velocity=0, time=0),
  Message('note_on', channel=0, note=46, velocity=64, time=20),
  Message('note_on', channel=2, note=75, velocity=127, time=0),
  Message('note_on', channel=5, note=75, velocity=107, time=0),
  Message('note_on', channel=9, note=42, velocity=92, time=0),
  Message('note_on', channel=9, note=70, velocity=78, time=0),
  Message('note_on', channel=9, note=61, velocity=110, time=0),
  Message('note_on', channel=9, note=42, velocity=0, time=1),
  Message('note_on', channel=9, note=70, velocity=0, time=0),
  Message('note_on', channel=9, note=61, velocity=0, time=0),
  Message('note_on', channel=2, note=75, velocity=0, time=99),
  Message('note_on', channel=5, note=75, velocity=0, time=0),
  Message('note_on', channel=2, note=72, velocity=127, time=20),
  Message('note_on', channel=5, note=72, velocity=107, time=0),
  Message('note_on', channel=9, note=70, velocity=64, time=0),
  Message('note_on', channel=9, note=60, velocity=96, time=0),
  Message('note_on', channel=9, note=70, velocity=0, time=1),
  Message('note_on', channel=9, note=60, velocity=0, time=0),
  Message('note_on', channel=2, note=72, velocity=0, time=99),
  Message('note_on', channel=5, note=72, velocity=0, time=0),
  Message('note_on', channel=2, note=71, velocity=127, time=20),
  Message('note_on', channel=5, note=71, velocity=107, time=0),
  Message('note_on', channel=9, note=70, velocity=120, time=0),
  Message('note_on', channel=9, note=60, velocity=96, time=0),
  Message('note_on', channel=9, note=70, velocity=0, time=1),
  Message('note_on', channel=9, note=60, velocity=0, time=0),
  Message('note_on', channel=0, note=46, velocity=0, time=99),
  Message('note_on', channel=2, note=71, velocity=0, time=0),
  Message('note_on', channel=5, note=71, velocity=0, time=0),
  Message('note_on', channel=0, note=44, velocity=64, time=20),
  Message('note_on', channel=2, note=70, velocity=127, time=0),
  Message('note_on', channel=5, note=70, velocity=107, time=0),
  Message('note_on', channel=9, note=70, velocity=120, time=0),
  Message('note_on', channel=9, note=70, velocity=0, time=1),
  Message('note_on', channel=2, note=70, velocity=0, time=99),
  Message('note_on', channel=5, note=70, velocity=0, time=0),
  Message('note_on', channel=1, note=65, velocity=0, time=20),
  Message('note_on', channel=2, note=68, velocity=127, time=0),
  Message('note_on', channel=4, note=53, velocity=0, time=0),
  Message('note_on', channel=5, note=68, velocity=107, time=0),
  Message('note_on', channel=6, note=65, velocity=0, time=0),
  Message('note_on', channel=7, note=41, velocity=0, time=0),
  Message('note_on', channel=9, note=46, velocity=92, time=0),
  Message('note_on', channel=9, note=70, velocity=78, time=0),
  Message('note_on', channel=9, note=60, velocity=96, time=0),
  Message('note_on', channel=9, note=46, velocity=0, time=1),
  Message('note_on', channel=9, note=70, velocity=0, time=0),
  Message('note_on', channel=9, note=60, velocity=0, time=0),
  Message('note_on', channel=2, note=68, velocity=0, time=99),
  Message('note_on', channel=5, note=68, velocity=0, time=0),
  Message('note_on', channel=2, note=65, velocity=127, time=20),
  Message('note_on', channel=5, note=65, velocity=107, time=0),
  Message('note_on', channel=9, note=70, velocity=64, time=0),
  Message('note_on', channel=9, note=70, velocity=0, time=1),
  Message('note_on', channel=0, note=44, velocity=0, time=99),
  Message('note_on', channel=0, note=39, velocity=64, time=20),
  Message('note_on', channel=9, note=70, velocity=120, time=0),
  Message('note_on', channel=9, note=61, velocity=96, time=0),
  Message('note_on', channel=9, note=70, velocity=0, time=1),
  Message('note_on', channel=9, note=61, velocity=0, time=0),
  Message('note_on', channel=9, note=70, velocity=120, time=119),
  Message('note_on', channel=9, note=60, velocity=96, time=0),
  Message('note_on', channel=9, note=70, velocity=0, time=1),
  Message('note_on', channel=9, note=60, velocity=0, time=0),
  Message('note_on', channel=0, note=39, velocity=0, time=99),
  Message('note_on', channel=2, note=65, velocity=0, time=0),
  Message('note_on', channel=5, note=65, velocity=0, time=0),
  Message('note_on', channel=0, note=36, velocity=64, time=20),
  Message('note_on', channel=1, note=60, velocity=114, time=0),
  Message('note_on', channel=4, note=48, velocity=104, time=0),
  Message('note_on', channel=6, note=60, velocity=99, time=0),
  Message('note_on', channel=7, note=36, velocity=89, time=0),
  Message('note_on', channel=9, note=70, velocity=78, time=0),
  Message('note_on', channel=9, note=60, velocity=82, time=0),
  Message('note_on', channel=9, note=70, velocity=0, time=1),
  Message('note_on', channel=9, note=60, velocity=0, time=0),
  Message('note_on', channel=1, note=60, velocity=0, time=99),
  Message('note_on', channel=4, note=48, velocity=0, time=0),
  Message('note_on', channel=6, note=60, velocity=0, time=0),
  Message('note_on', channel=7, note=36, velocity=0, time=0),
  Message('note_on', channel=1, note=67, velocity=114, time=20),
  Message('note_on', channel=4, note=55, velocity=104, time=0),
  Message('note_on', channel=6, note=67, velocity=99, time=0),
  Message('note_on', channel=7, note=43, velocity=89, time=0),
  Message('note_on', channel=9, note=70, velocity=64, time=0),
  Message('note_on', channel=9, note=60, velocity=82, time=0),
  Message('note_on', channel=9, note=70, velocity=0, time=1),
  Message('note_on', channel=9, note=60, velocity=0, time=0),
  Message('note_on', channel=1, note=67, velocity=0, time=99),
  Message('note_on', channel=4, note=55, velocity=0, time=0),
  Message('note_on', channel=6, note=67, velocity=0, time=0),
  Message('note_on', channel=7, note=43, velocity=0, time=0),
  Message('note_on', channel=9, note=70, velocity=120, time=20),
  Message('note_on', channel=9, note=60, velocity=96, time=0),
  Message('note_on', channel=9, note=70, velocity=0, time=1),
  Message('note_on', channel=9, note=60, velocity=0, time=0),
  Message('note_on', channel=0, note=36, velocity=0, time=99),
  Message('note_on', channel=0, note=43, velocity=64, time=20),
  Message('note_on', channel=1, note=60, velocity=114, time=0),
  Message('note_on', channel=4, note=48, velocity=104, time=0),
  Message('note_on', channel=6, note=60, velocity=99, time=0),
  Message('note_on', channel=7, note=36, velocity=89, time=0),
  Message('note_on', channel=9, note=70, velocity=120, time=0),
  Message('note_on', channel=9, note=70, velocity=0, time=1),
  Message('note_on', channel=1, note=60, velocity=0, time=99),
  Message('note_on', channel=4, note=48, velocity=0, time=0),
  Message('note_on', channel=6, note=60, velocity=0, time=0),
  Message('note_on', channel=7, note=36, velocity=0, time=0),
  Message('note_on', channel=1, note=66, velocity=114, time=20),
  Message('note_on', channel=4, note=54, velocity=104, time=0),
  Message('note_on', channel=6, note=66, velocity=99, time=0),
  Message('note_on', channel=7, note=42, velocity=89, time=0),
  Message('note_on', channel=9, note=42, velocity=92, time=0),
  Message('note_on', channel=9, note=70, velocity=78, time=0),
  Message('note_on', channel=9, note=60, velocity=96, time=0),
  Message('note_on', channel=9, note=42, velocity=0, time=1),
  Message('note_on', channel=9, note=70, velocity=0, time=0),
  Message('note_on', channel=9, note=60, velocity=0, time=0),
  Message('note_on', channel=1, note=66, velocity=0, time=99),
  Message('note_on', channel=4, note=54, velocity=0, time=0),
  Message('note_on', channel=6, note=66, velocity=0, time=0),
  Message('note_on', channel=7, note=42, velocity=0, time=0),
  Message('note_on', channel=9, note=70, velocity=64, time=20),
  Message('note_on', channel=9, note=70, velocity=0, time=1),
  Message('note_on', channel=0, note=43, velocity=0, time=99),
  Message('note_on', channel=0, note=42, velocity=64, time=20),
  Message('note_on', channel=1, note=60, velocity=114, time=0),
  Message('note_on', channel=4, note=48, velocity=104, time=0),
  Message('note_on', channel=6, note=60, velocity=99, time=0),
  Message('note_on', channel=7, note=36, velocity=89, time=0),
  Message('note_on', channel=9, note=70, velocity=120, time=0),
  Message('note_on', channel=9, note=61, velocity=96, time=0),
  Message('note_on', channel=9, note=70, velocity=0, time=1),
  Message('note_on', channel=9, note=61, velocity=0, time=0),
  Message('note_on', channel=1, note=60, velocity=0, time=99),
  Message('note_on', channel=4, note=48, velocity=0, time=0),
  Message('note_on', channel=6, note=60, velocity=0, time=0),
  Message('note_on', channel=7, note=36, velocity=0, time=0),
  Message('note_on', channel=1, note=63, velocity=114, time=20),
  Message('note_on', channel=4, note=51, velocity=104, time=0),
  Message('note_on', channel=6, note=63, velocity=99, time=0),
  Message('note_on', channel=7, note=39, velocity=89, time=0),
  Message('note_on', channel=9, note=70, velocity=120, time=0),
  Message('note_on', channel=9, note=61, velocity=96, time=0),
  Message('note_on', channel=9, note=70, velocity=0, time=1),
  Message('note_on', channel=9, note=61, velocity=0, time=0),
  Message('note_on', channel=0, note=42, velocity=0, time=99),
  Message('note_on', channel=1, note=63, velocity=0, time=0),
  Message('note_on', channel=4, note=51, velocity=0, time=0),
  Message('note_on', channel=6, note=63, velocity=0, time=0),
  Message('note_on', channel=7, note=39, velocity=0, time=0),
  Message('note_on', channel=0, note=41, velocity=64, time=20),
  Message('note_on', channel=9, note=42, velocity=92, time=0),
  Message('note_on', channel=9, note=70, velocity=78, time=0),
  Message('note_on', channel=9, note=60, velocity=82, time=0),
  Message('note_on', channel=9, note=42, velocity=0, time=1),
  Message('note_on', channel=9, note=70, velocity=0, time=0),
  Message('note_on', channel=9, note=60, velocity=0, time=0),
  Message('note_on', channel=1, note=60, velocity=114, time=119),
  Message('note_on', channel=4, note=48, velocity=104, time=0),
  Message('note_on', channel=6, note=60, velocity=99, time=0),
  Message('note_on', channel=7, note=36, velocity=89, time=0),
  Message('note_on', channel=9, note=70, velocity=64, time=0),
  Message('note_on', channel=9, note=60, velocity=82, time=0),
  Message('note_on', channel=9, note=70, velocity=0, time=1),
  Message('note_on', channel=9, note=60, velocity=0, time=0),
  Message('note_on', channel=1, note=60, velocity=0, time=99),
  Message('note_on', channel=4, note=48, velocity=0, time=0),
  Message('note_on', channel=6, note=60, velocity=0, time=0),
  Message('note_on', channel=7, note=36, velocity=0, time=0),
  Message('note_on', channel=1, note=58, velocity=114, time=20),
  Message('note_on', channel=4, note=46, velocity=104, time=0),
  Message('note_on', channel=6, note=58, velocity=99, time=0),
  Message('note_on', channel=7, note=34, velocity=89, time=0),
  Message('note_on', channel=9, note=70, velocity=120, time=0),
  Message('note_on', channel=9, note=60, velocity=96, time=0),
  Message('note_on', channel=9, note=70, velocity=0, time=1),
  Message('note_on', channel=9, note=60, velocity=0, time=0),
  Message('note_on', channel=0, note=41, velocity=0, time=99),
  Message('note_on', channel=0, note=39, velocity=64, time=20),
  Message('note_on', channel=9, note=70, velocity=120, time=0),
  Message('note_on', channel=9, note=70, velocity=0, time=1),
  Message('note_on', channel=9, note=42, velocity=92, time=119),
  Message('note_on', channel=9, note=70, velocity=78, time=0),
  Message('note_on', channel=9, note=60, velocity=96, time=0),
  Message('note_on', channel=9, note=42, velocity=0, time=1),
  Message('note_on', channel=9, note=70, velocity=0, time=0),
  Message('note_on', channel=9, note=60, velocity=0, time=0),
  Message('note_on', channel=9, note=70, velocity=64, time=119),
  Message('note_on', channel=9, note=70, velocity=0, time=1),
  Message('note_on', channel=0, note=39, velocity=0, time=99),
  Message('note_on', channel=1, note=58, velocity=0, time=0),
  Message('note_on', channel=4, note=46, velocity=0, time=0),
  Message('note_on', channel=6, note=58, velocity=0, time=0),
  Message('note_on', channel=7, note=34, velocity=0, time=0),
  Message('note_on', channel=0, note=34, velocity=64, time=20),
  Message('note_on', channel=1, note=60, velocity=114, time=0),
  Message('note_on', channel=4, note=48, velocity=104, time=0),
  Message('note_on', channel=6, note=60, velocity=99, time=0),
  Message('note_on', channel=7, note=36, velocity=89, time=0),
  Message('note_on', channel=9, note=40, velocity=78, time=0),
  Message('note_on', channel=9, note=70, velocity=120, time=0),
  Message('note_on', channel=9, note=61, velocity=96, time=0),
  Message('note_on', channel=9, note=40, velocity=0, time=1),
  Message('note_on', channel=9, note=70, velocity=0, time=0),
  Message('note_on', channel=9, note=61, velocity=0, time=0),
  Message('note_on', channel=9, note=70, velocity=120, time=119),
  Message('note_on', channel=9, note=61, velocity=96, time=0),
  Message('note_on', channel=9, note=70, velocity=0, time=1),
  Message('note_on', channel=9, note=61, velocity=0, time=0),
  Message('note_on', channel=0, note=34, velocity=0, time=99),
  Message('note_on', channel=0, note=36, velocity=64, time=20),
  Message('note_on', channel=9, note=46, velocity=92, time=0),
  Message('note_on', channel=9, note=70, velocity=78, time=0),
  Message('note_on', channel=9, note=60, velocity=96, time=0),
  Message('note_on', channel=9, note=46, velocity=0, time=1),
  Message('note_on', channel=9, note=70, velocity=0, time=0),
  Message('note_on', channel=9, note=60, velocity=0, time=0),
  Message('note_on', channel=9, note=70, velocity=64, time=119),
  Message('note_on', channel=9, note=60, velocity=96, time=0),
  Message('note_on', channel=9, note=70, velocity=0, time=1),
  Message('note_on', channel=9, note=60, velocity=0, time=0),
  Message('note_on', channel=2, note=72, velocity=127, time=119),
  Message('note_on', channel=5, note=72, velocity=107, time=0),
  Message('note_on', channel=9, note=70, velocity=120, time=0),
  Message('note_on', channel=9, note=60, velocity=96, time=0),
  Message('note_on', channel=9, note=70, velocity=0, time=1),
  Message('note_on', channel=9, note=60, velocity=0, time=0),
  Message('note_on', channel=0, note=36, velocity=0, time=99),
  Message('note_on', channel=2, note=72, velocity=0, time=0),
  Message('note_on', channel=5, note=72, velocity=0, time=0),
  Message('note_on', channel=0, note=43, velocity=64, time=20),
  Message('note_on', channel=9, note=70, velocity=120, time=0),
  Message('note_on', channel=9, note=60, velocity=96, time=0),
  Message('note_on', channel=9, note=70, velocity=0, time=1),
  Message('note_on', channel=9, note=60, velocity=0, time=0),
  Message('note_on', channel=2, note=72, velocity=127, time=119),
  Message('note_on', channel=5, note=72, velocity=107, time=0),
  Message('note_on', channel=9, note=46, velocity=92, time=0),
  Message('note_on', channel=9, note=70, velocity=78, time=0),
  Message('note_on', channel=9, note=61, velocity=82, time=0),
  Message('note_on', channel=9, note=46, velocity=0, time=1),
  Message('note_on', channel=9, note=70, velocity=0, time=0),
  Message('note_on', channel=9, note=61, velocity=0, time=0),
  Message('note_on', channel=9, note=70, velocity=64, time=119),
  Message('note_on', channel=9, note=61, velocity=82, time=0),
  Message('note_on', channel=9, note=70, velocity=0, time=1),
  Message('note_on', channel=9, note=61, velocity=0, time=0),
  Message('note_on', channel=0, note=43, velocity=0, time=99),
  Message('note_on', channel=2, note=72, velocity=0, time=0),
  Message('note_on', channel=5, note=72, velocity=0, time=0),
  Message('note_on', channel=0, note=42, velocity=64, time=20),
  Message('note_on', channel=2, note=70, velocity=127, time=0),
  Message('note_on', channel=5, note=70, velocity=107, time=0),
  Message('note_on', channel=9, note=70, velocity=120, time=0),
  Message('note_on', channel=9, note=61, velocity=82, time=0),
  Message('note_on', channel=9, note=70, velocity=0, time=1),
  Message('note_on', channel=9, note=61, velocity=0, time=0),
  Message('note_on', channel=2, note=70, velocity=0, time=99),
  Message('note_on', channel=5, note=70, velocity=0, time=0),
  Message('note_on', channel=2, note=69, velocity=127, time=20),
  Message('note_on', channel=5, note=69, velocity=107, time=0),
  Message('note_on', channel=9, note=70, velocity=120, time=0),
  Message('note_on', channel=9, note=61, velocity=82, time=0),
  Message('note_on', channel=9, note=70, velocity=0, time=1),
  Message('note_on', channel=9, note=61, velocity=0, time=0),
  Message('note_on', channel=0, note=42, velocity=0, time=99),
  Message('note_on', channel=2, note=69, velocity=0, time=0),
  Message('note_on', channel=5, note=69, velocity=0, time=0),
  Message('note_on', channel=0, note=41, velocity=64, time=20),
  Message('note_on', channel=2, note=74, velocity=127, time=0),
  Message('note_on', channel=5, note=74, velocity=107, time=0),
  Message('note_on', channel=9, note=46, velocity=92, time=0),
  Message('note_on', channel=9, note=70, velocity=78, time=0),
  Message('note_on', channel=9, note=61, velocity=110, time=0),
  Message('note_on', channel=9, note=46, velocity=0, time=1),
  Message('note_on', channel=9, note=70, velocity=0, time=0),
  Message('note_on', channel=9, note=61, velocity=0, time=0),
  Message('note_on', channel=2, note=74, velocity=0, time=99),
  Message('note_on', channel=5, note=74, velocity=0, time=0),
  Message('note_on', channel=9, note=70, velocity=64, time=20),
  Message('note_on', channel=9, note=60, velocity=96, time=0),
  Message('note_on', channel=9, note=70, velocity=0, time=1),
  Message('note_on', channel=9, note=60, velocity=0, time=0),
  Message('note_on', channel=9, note=60, velocity=96, time=59),
  Message('note_on', channel=9, note=60, velocity=0, time=1),
  Message('note_on', channel=2, note=75, velocity=127, time=59),
  Message('note_on', channel=5, note=75, velocity=107, time=0),
  Message('note_on', channel=9, note=70, velocity=120, time=0),
  Message('note_on', channel=9, note=70, velocity=0, time=1),
  Message('note_on', channel=0, note=41, velocity=0, time=99),
  Message('note_on', channel=0, note=39, velocity=64, time=20),
  Message('note_on', channel=9, note=46, velocity=92, time=0),
  Message('note_on', channel=9, note=70, velocity=120, time=0),
  Message('note_on', channel=9, note=60, velocity=96, time=0),
  Message('note_on', channel=9, note=46, velocity=0, time=1),
  Message('note_on', channel=9, note=70, velocity=0, time=0),
  Message('note_on', channel=9, note=60, velocity=0, time=0),
  Message('note_on', channel=1, note=60, velocity=0, time=119),
  Message('note_on', channel=4, note=48, velocity=0, time=0),
  Message('note_on', channel=6, note=60, velocity=0, time=0),
  Message('note_on', channel=7, note=36, velocity=0, time=0),
  Message('note_on', channel=9, note=40, velocity=106, time=0),
  Message('note_on', channel=9, note=70, velocity=78, time=0),
  Message('note_on', channel=9, note=60, velocity=96, time=0),
  Message('note_on', channel=9, note=40, velocity=0, time=1),
  Message('note_on', channel=9, note=70, velocity=0, time=0),
  Message('note_on', channel=9, note=60, velocity=0, time=0),
  Message('note_on', channel=9, note=40, velocity=92, time=119),
  Message('note_on', channel=9, note=70, velocity=64, time=0),
  Message('note_on', channel=9, note=40, velocity=0, time=1),
  Message('note_on', channel=9, note=70, velocity=0, time=0),
  Message('note_on', channel=0, note=39, velocity=0, time=99),
  Message('note_on', channel=0, note=34, velocity=64, time=20),
  Message('note_on', channel=9, note=40, velocity=78, time=0),
  Message('note_on', channel=9, note=70, velocity=120, time=0),
  Message('note_on', channel=9, note=61, velocity=96, time=0),
  Message('note_on', channel=9, note=40, velocity=0, time=1),
  Message('note_on', channel=9, note=70, velocity=0, time=0),
  Message('note_on', channel=9, note=61, velocity=0, time=0),
  Message('note_on', channel=9, note=70, velocity=120, time=119),
  Message('note_on', channel=9, note=60, velocity=96, time=0),
  Message('note_on', channel=9, note=70, velocity=0, time=1),
  Message('note_on', channel=9, note=60, velocity=0, time=0),
  Message('note_on', channel=2, note=75, velocity=0, time=79),
  Message('note_on', channel=5, note=75, velocity=0, time=0),
  Message('note_on', channel=0, note=34, velocity=0, time=20),
  Message('note_on', channel=0, note=31, velocity=64, time=20),
  Message('note_on', channel=1, note=71, velocity=127, time=0),
  Message('note_on', channel=1, note=74, velocity=127, time=0),
  Message('note_on', channel=1, note=78, velocity=127, time=0),
  Message('note_on', channel=4, note=59, velocity=127, time=0),
  Message('note_on', channel=4, note=62, velocity=127, time=0),
  Message('note_on', channel=4, note=66, velocity=127, time=0),
  Message('note_on', channel=6, note=71, velocity=99, time=0),
  Message('note_on', channel=6, note=74, velocity=99, time=0),
  Message('note_on', channel=6, note=78, velocity=99, time=0),
  Message('note_on', channel=7, note=47, velocity=89, time=0),
  Message('note_on', channel=7, note=50, velocity=89, time=0),
  Message('note_on', channel=7, note=54, velocity=89, time=0),
  Message('note_on', channel=9, note=49, velocity=120, time=0),
  Message('note_on', channel=9, note=70, velocity=78, time=0),
  Message('note_on', channel=9, note=60, velocity=96, time=0),
  Message('note_on', channel=9, note=49, velocity=0, time=1),
  Message('note_on', channel=9, note=70, velocity=0, time=0),
  Message('note_on', channel=9, note=60, velocity=0, time=0),
  Message('note_on', channel=1, note=71, velocity=0, time=99),
  Message('note_on', channel=1, note=74, velocity=0, time=0),
  Message('note_on', channel=1, note=78, velocity=0, time=0),
  Message('note_on', channel=4, note=59, velocity=0, time=0),
  Message('note_on', channel=4, note=62, velocity=0, time=0),
  Message('note_on', channel=4, note=66, velocity=0, time=0),
  Message('note_on', channel=6, note=71, velocity=0, time=0),
  Message('note_on', channel=6, note=74, velocity=0, time=0),
  Message('note_on', channel=6, note=78, velocity=0, time=0),
  Message('note_on', channel=7, note=47, velocity=0, time=0),
  Message('note_on', channel=7, note=50, velocity=0, time=0),
  Message('note_on', channel=7, note=54, velocity=0, time=0),
  Message('note_on', channel=1, note=71, velocity=127, time=20),
  Message('note_on', channel=1, note=76, velocity=127, time=0),
  Message('note_on', channel=1, note=79, velocity=127, time=0),
  Message('note_on', channel=4, note=59, velocity=127, time=0),
  Message('note_on', channel=4, note=64, velocity=127, time=0),
  Message('note_on', channel=4, note=67, velocity=127, time=0),
  Message('note_on', channel=6, note=71, velocity=99, time=0),
  Message('note_on', channel=6, note=76, velocity=99, time=0),
  Message('note_on', channel=6, note=79, velocity=99, time=0),
  Message('note_on', channel=7, note=47, velocity=89, time=0),
  Message('note_on', channel=7, note=52, velocity=89, time=0),
  Message('note_on', channel=7, note=55, velocity=89, time=0),
  Message('note_on', channel=9, note=70, velocity=64, time=0),
  Message('note_on', channel=9, note=60, velocity=96, time=0),
  Message('note_on', channel=9, note=70, velocity=0, time=1),
  Message('note_on', channel=9, note=60, velocity=0, time=0),
  Message('note_on', channel=1, note=71, velocity=0, time=99),
  Message('note_on', channel=1, note=76, velocity=0, time=0),
  Message('note_on', channel=1, note=79, velocity=0, time=0),
  Message('note_on', channel=4, note=59, velocity=0, time=0),
  Message('note_on', channel=4, note=64, velocity=0, time=0),
  Message('note_on', channel=4, note=67, velocity=0, time=0),
  Message('note_on', channel=6, note=71, velocity=0, time=0),
  Message('note_on', channel=6, note=76, velocity=0, time=0),
  Message('note_on', channel=6, note=79, velocity=0, time=0),
  Message('note_on', channel=7, note=47, velocity=0, time=0),
  Message('note_on', channel=7, note=52, velocity=0, time=0),
  Message('note_on', channel=7, note=55, velocity=0, time=0),
  Message('note_on', channel=9, note=70, velocity=120, time=20),
  Message('note_on', channel=9, note=70, velocity=0, time=1),
  Message('note_on', channel=0, note=31, velocity=0, time=99),
  Message('note_on', channel=0, note=43, velocity=64, time=20),
  Message('note_on', channel=7, note=43, velocity=89, time=0),
  Message('note_on', channel=9, note=70, velocity=120, time=0),
  Message('note_on', channel=9, note=61, velocity=82, time=0),
  Message('note_on', channel=9, note=70, velocity=0, time=1),
  Message('note_on', channel=9, note=61, velocity=0, time=0),
  Message('note_on', channel=9, note=46, velocity=92, time=119),
  Message('note_on', channel=9, note=70, velocity=78, time=0),
  Message('note_on', channel=9, note=61, velocity=82, time=0),
  Message('note_on', channel=9, note=46, velocity=0, time=1),
  Message('note_on', channel=9, note=70, velocity=0, time=0),
  Message('note_on', channel=9, note=61, velocity=0, time=0),
  Message('note_on', channel=7, note=43, velocity=0, time=99),
  Message('note_on', channel=9, note=70, velocity=64, time=20),
  Message('note_on', channel=9, note=70, velocity=0, time=1),
  Message('note_on', channel=0, note=43, velocity=0, time=99),
  Message('note_on', channel=0, note=31, velocity=64, time=20),
  Message('note_on', channel=1, note=70, velocity=127, time=0),
  Message('note_on', channel=1, note=74, velocity=127, time=0),
  Message('note_on', channel=1, note=78, velocity=127, time=0),
  Message('note_on', channel=4, note=58, velocity=127, time=0),
  Message('note_on', channel=4, note=62, velocity=127, time=0),
  Message('note_on', channel=4, note=66, velocity=127, time=0),
  Message('note_on', channel=6, note=70, velocity=99, time=0),
  Message('note_on', channel=6, note=74, velocity=99, time=0),
  Message('note_on', channel=6, note=78, velocity=99, time=0),
  Message('note_on', channel=7, note=46, velocity=89, time=0),
  Message('note_on', channel=7, note=50, velocity=89, time=0),
  Message('note_on', channel=7, note=54, velocity=89, time=0),
  Message('note_on', channel=9, note=70, velocity=120, time=0),
  Message('note_on', channel=9, note=60, velocity=96, time=0),
  Message('note_on', channel=9, note=70, velocity=0, time=1),
  Message('note_on', channel=9, note=60, velocity=0, time=0),
  Message('note_on', channel=1, note=70, velocity=0, time=99),
  Message('note_on', channel=1, note=74, velocity=0, time=0),
  Message('note_on', channel=1, note=78, velocity=0, time=0),
  Message('note_on', channel=4, note=58, velocity=0, time=0),
  Message('note_on', channel=4, note=62, velocity=0, time=0),
  Message('note_on', channel=4, note=66, velocity=0, time=0),
  Message('note_on', channel=6, note=70, velocity=0, time=0),
  Message('note_on', channel=6, note=74, velocity=0, time=0),
  Message('note_on', channel=6, note=78, velocity=0, time=0),
  Message('note_on', channel=7, note=46, velocity=0, time=0),
  Message('note_on', channel=7, note=50, velocity=0, time=0),
  Message('note_on', channel=7, note=54, velocity=0, time=0),
  Message('note_on', channel=1, note=71, velocity=127, time=20),
  Message('note_on', channel=1, note=76, velocity=127, time=0),
  Message('note_on', channel=1, note=79, velocity=127, time=0),
  Message('note_on', channel=4, note=59, velocity=127, time=0),
  Message('note_on', channel=4, note=64, velocity=127, time=0),
  Message('note_on', channel=4, note=67, velocity=127, time=0),
  Message('note_on', channel=6, note=71, velocity=99, time=0),
  Message('note_on', channel=6, note=76, velocity=99, time=0),
  Message('note_on', channel=6, note=79, velocity=99, time=0),
  Message('note_on', channel=7, note=47, velocity=89, time=0),
  Message('note_on', channel=7, note=52, velocity=89, time=0),
  Message('note_on', channel=7, note=55, velocity=89, time=0),
  Message('note_on', channel=9, note=70, velocity=120, time=0),
  Message('note_on', channel=9, note=60, velocity=96, time=0),
  Message('note_on', channel=9, note=70, velocity=0, time=1),
  Message('note_on', channel=9, note=60, velocity=0, time=0),
  Message('note_on', channel=1, note=71, velocity=0, time=99),
  Message('note_on', channel=1, note=76, velocity=0, time=0),
  Message('note_on', channel=1, note=79, velocity=0, time=0),
  Message('note_on', channel=4, note=59, velocity=0, time=0),
  Message('note_on', channel=4, note=64, velocity=0, time=0),
  Message('note_on', channel=4, note=67, velocity=0, time=0),
  Message('note_on', channel=6, note=71, velocity=0, time=0),
  Message('note_on', channel=6, note=76, velocity=0, time=0),
  Message('note_on', channel=6, note=79, velocity=0, time=0),
  Message('note_on', channel=7, note=47, velocity=0, time=0),
  Message('note_on', channel=7, note=52, velocity=0, time=0),
  Message('note_on', channel=7, note=55, velocity=0, time=0),
  Message('note_on', channel=9, note=46, velocity=92, time=20),
  Message('note_on', channel=9, note=70, velocity=78, time=0),
  Message('note_on', channel=9, note=46, velocity=0, time=1),
  Message('note_on', channel=9, note=70, velocity=0, time=0),
  Message('note_on', channel=7, note=43, velocity=89, time=119),
  Message('note_on', channel=9, note=70, velocity=64, time=0),
  Message('note_on', channel=9, note=61, velocity=82, time=0),
  Message('note_on', channel=9, note=70, velocity=0, time=1),
  Message('note_on', channel=9, note=61, velocity=0, time=0),
  Message('note_on', channel=0, note=31, velocity=0, time=79),
  Message('note_on', channel=0, note=43, velocity=64, time=40),
  Message('note_on', channel=9, note=70, velocity=120, time=0),
  Message('note_on', channel=9, note=61, velocity=82, time=0),
  Message('note_on', channel=9, note=70, velocity=0, time=1),
  Message('note_on', channel=9, note=61, velocity=0, time=0),
  Message('note_on', channel=7, note=43, velocity=0, time=99),
  Message('note_on', channel=9, note=70, velocity=120, time=20),
  Message('note_on', channel=9, note=70, velocity=0, time=1),
  Message('note_on', channel=0, note=43, velocity=0, time=79),
  Message('note_on', channel=0, note=31, velocity=64, time=40),
  Message('note_on', channel=1, note=74, velocity=127, time=0),
  Message('note_on', channel=1, note=78, velocity=127, time=0),
  Message('note_on', channel=1, note=82, velocity=127, time=0),
  Message('note_on', channel=4, note=62, velocity=127, time=0),
  Message('note_on', channel=4, note=66, velocity=127, time=0),
  Message('note_on', channel=4, note=70, velocity=127, time=0),
  Message('note_on', channel=6, note=74, velocity=99, time=0),
  Message('note_on', channel=6, note=78, velocity=99, time=0),
  Message('note_on', channel=6, note=82, velocity=99, time=0),
  Message('note_on', channel=7, note=50, velocity=89, time=0),
  Message('note_on', channel=7, note=54, velocity=89, time=0),
  Message('note_on', channel=7, note=58, velocity=89, time=0),
  Message('note_on', channel=9, note=46, velocity=92, time=0),
  Message('note_on', channel=9, note=70, velocity=78, time=0),
  Message('note_on', channel=9, note=61, velocity=96, time=0),
  Message('note_on', channel=9, note=46, velocity=0, time=1),
  Message('note_on', channel=9, note=70, velocity=0, time=0),
  Message('note_on', channel=9, note=61, velocity=0, time=0),
  Message('note_on', channel=1, note=74, velocity=0, time=99),
  Message('note_on', channel=1, note=78, velocity=0, time=0),
  Message('note_on', channel=1, note=82, velocity=0, time=0),
  Message('note_on', channel=4, note=62, velocity=0, time=0),
  Message('note_on', channel=4, note=66, velocity=0, time=0),
  Message('note_on', channel=4, note=70, velocity=0, time=0),
  Message('note_on', channel=6, note=74, velocity=0, time=0),
  Message('note_on', channel=6, note=78, velocity=0, time=0),
  Message('note_on', channel=6, note=82, velocity=0, time=0),
  Message('note_on', channel=7, note=50, velocity=0, time=0),
  Message('note_on', channel=7, note=54, velocity=0, time=0),
  Message('note_on', channel=7, note=58, velocity=0, time=0),
  Message('note_on', channel=1, note=73, velocity=127, time=20),
  Message('note_on', channel=1, note=78, velocity=127, time=0),
  Message('note_on', channel=1, note=81, velocity=127, time=0),
  Message('note_on', channel=4, note=61, velocity=127, time=0),
  Message('note_on', channel=4, note=66, velocity=127, time=0),
  Message('note_on', channel=4, note=69, velocity=127, time=0),
  Message('note_on', channel=6, note=73, velocity=99, time=0),
  Message('note_on', channel=6, note=78, velocity=99, time=0),
  Message('note_on', channel=6, note=81, velocity=99, time=0),
  Message('note_on', channel=7, note=49, velocity=89, time=0),
  Message('note_on', channel=7, note=54, velocity=89, time=0),
  Message('note_on', channel=7, note=57, velocity=89, time=0),
  Message('note_on', channel=9, note=70, velocity=64, time=0),
  Message('note_on', channel=9, note=70, velocity=0, time=1),
  Message('note_on', channel=0, note=31, velocity=0, time=79),
  Message('note_on', channel=1, note=73, velocity=0, time=20),
  Message('note_on', channel=1, note=78, velocity=0, time=0),
  Message('note_on', channel=1, note=81, velocity=0, time=0),
  Message('note_on', channel=4, note=61, velocity=0, time=0),
  Message('note_on', channel=4, note=66, velocity=0, time=0),
  Message('note_on', channel=4, note=69, velocity=0, time=0),
  Message('note_on', channel=6, note=73, velocity=0, time=0),
  Message('note_on', channel=6, note=78, velocity=0, time=0),
  Message('note_on', channel=6, note=81, velocity=0, time=0),
  Message('note_on', channel=7, note=49, velocity=0, time=0),
  Message('note_on', channel=7, note=54, velocity=0, time=0),
  Message('note_on', channel=7, note=57, velocity=0, time=0),
  Message('note_on', channel=0, note=43, velocity=64, time=20),
  Message('note_on', channel=9, note=40, velocity=92, time=0),
  Message('note_on', channel=9, note=70, velocity=120, time=0),
  Message('note_on', channel=9, note=60, velocity=96, time=0),
  Message('note_on', channel=9, note=40, velocity=0, time=1),
  Message('note_on', channel=9, note=70, velocity=0, time=0),
  Message('note_on', channel=9, note=60, velocity=0, time=0),
  Message('note_on', channel=9, note=40, velocity=106, time=119),
  Message('note_on', channel=9, note=70, velocity=120, time=0),
  Message('note_on', channel=9, note=60, velocity=96, time=0),
  Message('note_on', channel=9, note=40, velocity=0, time=1),
  Message('note_on', channel=9, note=70, velocity=0, time=0),
  Message('note_on', channel=9, note=60, velocity=0, time=0),
  Message('note_on', channel=0, note=43, velocity=0, time=79),
  Message('note_on', channel=0, note=32, velocity=64, time=40),
  Message('note_on', channel=1, note=72, velocity=127, time=0),
  Message('note_on', channel=1, note=76, velocity=127, time=0),
  Message('note_on', channel=1, note=80, velocity=127, time=0),
  Message('note_on', channel=4, note=60, velocity=127, time=0),
  Message('note_on', channel=4, note=64, velocity=127, time=0),
  Message('note_on', channel=4, note=68, velocity=127, time=0),
  Message('note_on', channel=6, note=72, velocity=99, time=0),
  Message('note_on', channel=6, note=76, velocity=99, time=0),
  Message('note_on', channel=6, note=80, velocity=99, time=0),
  Message('note_on', channel=7, note=48, velocity=89, time=0),
  Message('note_on', channel=7, note=52, velocity=89, time=0),
  Message('note_on', channel=7, note=56, velocity=89, time=0),
  Message('note_on', channel=9, note=46, velocity=92, time=0),
  Message('note_on', channel=9, note=70, velocity=78, time=0),
  Message('note_on', channel=9, note=60, velocity=96, time=0),
  Message('note_on', channel=9, note=46, velocity=0, time=1),
  Message('note_on', channel=9, note=70, velocity=0, time=0),
  Message('note_on', channel=9, note=60, velocity=0, time=0),
  Message('note_on', channel=1, note=72, velocity=0, time=99),
  Message('note_on', channel=1, note=76, velocity=0, time=0),
  Message('note_on', channel=1, note=80, velocity=0, time=0),
  Message('note_on', channel=4, note=60, velocity=0, time=0),
  Message('note_on', channel=4, note=64, velocity=0, time=0),
  Message('note_on', channel=4, note=68, velocity=0, time=0),
  Message('note_on', channel=6, note=72, velocity=0, time=0),
  Message('note_on', channel=6, note=76, velocity=0, time=0),
  Message('note_on', channel=6, note=80, velocity=0, time=0),
  Message('note_on', channel=7, note=48, velocity=0, time=0),
  Message('note_on', channel=7, note=52, velocity=0, time=0),
  Message('note_on', channel=7, note=56, velocity=0, time=0),
  Message('note_on', channel=1, note=73, velocity=127, time=20),
  Message('note_on', channel=1, note=77, velocity=127, time=0),
  Message('note_on', channel=1, note=81, velocity=127, time=0),
  Message('note_on', channel=4, note=61, velocity=127, time=0),
  Message('note_on', channel=4, note=65, velocity=127, time=0),
  Message('note_on', channel=4, note=69, velocity=127, time=0),
  Message('note_on', channel=6, note=73, velocity=99, time=0),
  Message('note_on', channel=6, note=77, velocity=99, time=0),
  Message('note_on', channel=6, note=81, velocity=99, time=0),
  Message('note_on', channel=7, note=49, velocity=89, time=0),
  Message('note_on', channel=7, note=53, velocity=89, time=0),
  Message('note_on', channel=7, note=57, velocity=89, time=0),
  Message('note_on', channel=9, note=70, velocity=64, time=0),
  Message('note_on', channel=9, note=60, velocity=96, time=0),
  Message('note_on', channel=9, note=70, velocity=0, time=1),
  Message('note_on', channel=9, note=60, velocity=0, time=0),
  Message('note_on', channel=1, note=73, velocity=0, time=99),
  Message('note_on', channel=1, note=77, velocity=0, time=0),
  Message('note_on', channel=1, note=81, velocity=0, time=0),
  Message('note_on', channel=4, note=61, velocity=0, time=0),
  Message('note_on', channel=4, note=65, velocity=0, time=0),
  Message('note_on', channel=4, note=69, velocity=0, time=0),
  Message('note_on', channel=6, note=73, velocity=0, time=0),
  Message('note_on', channel=6, note=77, velocity=0, time=0),
  Message('note_on', channel=6, note=81, velocity=0, time=0),
  Message('note_on', channel=7, note=49, velocity=0, time=0),
  Message('note_on', channel=7, note=53, velocity=0, time=0),
  Message('note_on', channel=7, note=57, velocity=0, time=0),
  Message('note_on', channel=9, note=70, velocity=120, time=20),
  Message('note_on', channel=9, note=70, velocity=0, time=1),
  Message('note_on', channel=0, note=32, velocity=0, time=99),
  Message('note_on', channel=0, note=44, velocity=64, time=20),
  Message('note_on', channel=7, note=43, velocity=89, time=0),
  Message('note_on', channel=9, note=70, velocity=120, time=0),
  Message('note_on', channel=9, note=61, velocity=82, time=0),
  Message('note_on', channel=9, note=70, velocity=0, time=1),
  Message('note_on', channel=9, note=61, velocity=0, time=0),
  Message('note_on', channel=9, note=46, velocity=92, time=119),
  Message('note_on', channel=9, note=70, velocity=78, time=0),
  Message('note_on', channel=9, note=61, velocity=82, time=0),
  Message('note_on', channel=9, note=46, velocity=0, time=1),
  Message('note_on', channel=9, note=70, velocity=0, time=0),
  Message('note_on', channel=9, note=61, velocity=0, time=0),
  Message('note_on', channel=7, note=43, velocity=0, time=99),
  Message('note_on', channel=9, note=70, velocity=64, time=20),
  Message('note_on', channel=9, note=70, velocity=0, time=1),
  Message('note_on', channel=0, note=44, velocity=0, time=99),
  Message('note_on', channel=0, note=32, velocity=64, time=20),
  Message('note_on', channel=1, note=72, velocity=127, time=0),
  Message('note_on', channel=1, note=76, velocity=127, time=0),
  Message('note_on', channel=1, note=80, velocity=127, time=0),
  Message('note_on', channel=4, note=60, velocity=127, time=0),
  Message('note_on', channel=4, note=64, velocity=127, time=0),
  Message('note_on', channel=4, note=68, velocity=127, time=0),
  Message('note_on', channel=6, note=72, velocity=99, time=0),
  Message('note_on', channel=6, note=76, velocity=99, time=0),
  Message('note_on', channel=6, note=80, velocity=99, time=0),
  Message('note_on', channel=7, note=48, velocity=89, time=0),
  Message('note_on', channel=7, note=52, velocity=89, time=0),
  Message('note_on', channel=7, note=56, velocity=89, time=0),
  Message('note_on', channel=9, note=70, velocity=120, time=0),
  Message('note_on', channel=9, note=60, velocity=96, time=0),
  Message('note_on', channel=9, note=70, velocity=0, time=1),
  Message('note_on', channel=9, note=60, velocity=0, time=0),
  Message('note_on', channel=1, note=72, velocity=0, time=99),
  Message('note_on', channel=1, note=76, velocity=0, time=0),
  Message('note_on', channel=1, note=80, velocity=0, time=0),
  Message('note_on', channel=4, note=60, velocity=0, time=0),
  Message('note_on', channel=4, note=64, velocity=0, time=0),
  Message('note_on', channel=4, note=68, velocity=0, time=0),
  Message('note_on', channel=6, note=72, velocity=0, time=0),
  Message('note_on', channel=6, note=76, velocity=0, time=0),
  Message('note_on', channel=6, note=80, velocity=0, time=0),
  Message('note_on', channel=7, note=48, velocity=0, time=0),
  Message('note_on', channel=7, note=52, velocity=0, time=0),
  Message('note_on', channel=7, note=56, velocity=0, time=0),
  Message('note_on', channel=1, note=73, velocity=127, time=20),
  Message('note_on', channel=1, note=77, velocity=127, time=0),
  Message('note_on', channel=1, note=81, velocity=127, time=0),
  Message('note_on', channel=4, note=61, velocity=127, time=0),
  Message('note_on', channel=4, note=65, velocity=127, time=0),
  Message('note_on', channel=4, note=69, velocity=127, time=0),
  Message('note_on', channel=6, note=73, velocity=99, time=0),
  Message('note_on', channel=6, note=77, velocity=99, time=0),
  Message('note_on', channel=6, note=81, velocity=99, time=0),
  Message('note_on', channel=7, note=49, velocity=89, time=0),
  Message('note_on', channel=7, note=53, velocity=89, time=0),
  Message('note_on', channel=7, note=57, velocity=89, time=0),
  Message('note_on', channel=9, note=70, velocity=120, time=0),
  Message('note_on', channel=9, note=60, velocity=96, time=0),
  Message('note_on', channel=9, note=70, velocity=0, time=1),
  Message('note_on', channel=9, note=60, velocity=0, time=0),
  Message('note_on', channel=1, note=73, velocity=0, time=99),
  Message('note_on', channel=1, note=77, velocity=0, time=0),
  Message('note_on', channel=1, note=81, velocity=0, time=0),
  Message('note_on', channel=4, note=61, velocity=0, time=0),
  Message('note_on', channel=4, note=65, velocity=0, time=0),
  Message('note_on', channel=4, note=69, velocity=0, time=0),
  Message('note_on', channel=6, note=73, velocity=0, time=0),
  Message('note_on', channel=6, note=77, velocity=0, time=0),
  Message('note_on', channel=6, note=81, velocity=0, time=0),
  Message('note_on', channel=7, note=49, velocity=0, time=0),
  Message('note_on', channel=7, note=53, velocity=0, time=0),
  Message('note_on', channel=7, note=57, velocity=0, time=0),
  Message('note_on', channel=9, note=46, velocity=92, time=20),
  Message('note_on', channel=9, note=70, velocity=78, time=0),
  Message('note_on', channel=9, note=46, velocity=0, time=1),
  Message('note_on', channel=9, note=70, velocity=0, time=0),
  Message('note_on', channel=7, note=43, velocity=89, time=119),
  Message('note_on', channel=9, note=70, velocity=64, time=0),
  Message('note_on', channel=9, note=61, velocity=82, time=0),
  Message('note_on', channel=9, note=70, velocity=0, time=1),
  Message('note_on', channel=9, note=61, velocity=0, time=0),
  Message('note_on', channel=0, note=32, velocity=0, time=79),
  Message('note_on', channel=0, note=44, velocity=64, time=40),
  Message('note_on', channel=9, note=70, velocity=120, time=0),
  Message('note_on', channel=9, note=61, velocity=82, time=0),
  Message('note_on', channel=9, note=70, velocity=0, time=1),
  Message('note_on', channel=9, note=61, velocity=0, time=0),
  Message('note_on', channel=7, note=43, velocity=0, time=99),
  Message('note_on', channel=9, note=70, velocity=120, time=20),
  Message('note_on', channel=9, note=70, velocity=0, time=1),
  Message('note_on', channel=0, note=44, velocity=0, time=79),
  Message('note_on', channel=0, note=34, velocity=64, time=40),
  Message('note_on', channel=1, note=76, velocity=127, time=0),
  Message('note_on', channel=1, note=80, velocity=127, time=0),
  Message('note_on', channel=1, note=84, velocity=127, time=0),
  Message('note_on', channel=4, note=64, velocity=127, time=0),
  Message('note_on', channel=4, note=68, velocity=127, time=0),
  Message('note_on', channel=4, note=72, velocity=127, time=0),
  Message('note_on', channel=6, note=76, velocity=99, time=0),
  Message('note_on', channel=6, note=80, velocity=99, time=0),
  Message('note_on', channel=6, note=84, velocity=99, time=0),
  Message('note_on', channel=7, note=52, velocity=89, time=0),
  Message('note_on', channel=7, note=56, velocity=89, time=0),
  Message('note_on', channel=7, note=60, velocity=89, time=0),
  Message('note_on', channel=9, note=46, velocity=92, time=0),
  Message('note_on', channel=9, note=70, velocity=78, time=0),
  Message('note_on', channel=9, note=61, velocity=110, time=0),
  Message('note_on', channel=9, note=46, velocity=0, time=1),
  Message('note_on', channel=9, note=70, velocity=0, time=0),
  Message('note_on', channel=9, note=61, velocity=0, time=0),
  Message('note_on', channel=1, note=76, velocity=0, time=99),
  Message('note_on', channel=1, note=80, velocity=0, time=0),
  Message('note_on', channel=1, note=84, velocity=0, time=0),
  Message('note_on', channel=4, note=64, velocity=0, time=0),
  Message('note_on', channel=4, note=68, velocity=0, time=0),
  Message('note_on', channel=4, note=72, velocity=0, time=0),
  Message('note_on', channel=6, note=76, velocity=0, time=0),
  Message('note_on', channel=6, note=80, velocity=0, time=0),
  Message('note_on', channel=6, note=84, velocity=0, time=0),
  Message('note_on', channel=7, note=52, velocity=0, time=0),
  Message('note_on', channel=7, note=56, velocity=0, time=0),
  Message('note_on', channel=7, note=60, velocity=0, time=0),
  Message('note_on', channel=1, note=75, velocity=127, time=20),
  Message('note_on', channel=1, note=80, velocity=127, time=0),
  Message('note_on', channel=1, note=83, velocity=127, time=0),
  Message('note_on', channel=4, note=63, velocity=127, time=0),
  Message('note_on', channel=4, note=68, velocity=127, time=0),
  Message('note_on', channel=4, note=71, velocity=127, time=0),
  Message('note_on', channel=6, note=75, velocity=99, time=0),
  Message('note_on', channel=6, note=80, velocity=99, time=0),
  Message('note_on', channel=6, note=83, velocity=99, time=0),
  Message('note_on', channel=7, note=51, velocity=89, time=0),
  Message('note_on', channel=7, note=56, velocity=89, time=0),
  Message('note_on', channel=7, note=59, velocity=89, time=0),
  Message('note_on', channel=9, note=70, velocity=64, time=0),
  Message('note_on', channel=9, note=60, velocity=96, time=0),
  Message('note_on', channel=9, note=70, velocity=0, time=1),
  Message('note_on', channel=9, note=60, velocity=0, time=0),
  Message('note_on', channel=9, note=60, velocity=96, time=59),
  Message('note_on', channel=9, note=60, velocity=0, time=1),
  Message('note_on', channel=0, note=34, velocity=0, time=19),
  Message('note_on', channel=1, note=75, velocity=0, time=20),
  Message('note_on', channel=1, note=80, velocity=0, time=0),
  Message('note_on', channel=1, note=83, velocity=0, time=0),
  Message('note_on', channel=4, note=63, velocity=0, time=0),
  Message('note_on', channel=4, note=68, velocity=0, time=0),
  Message('note_on', channel=4, note=71, velocity=0, time=0),
  Message('note_on', channel=6, note=75, velocity=0, time=0),
  Message('note_on', channel=6, note=80, velocity=0, time=0),
  Message('note_on', channel=6, note=83, velocity=0, time=0),
  Message('note_on', channel=7, note=51, velocity=0, time=0),
  Message('note_on', channel=7, note=56, velocity=0, time=0),
  Message('note_on', channel=7, note=59, velocity=0, time=0),
  Message('note_on', channel=0, note=44, velocity=64, time=20),
  Message('note_on', channel=9, note=70, velocity=120, time=0),
  Message('note_on', channel=9, note=60, velocity=96, time=0),
  Message('note_on', channel=9, note=70, velocity=0, time=1),
  Message('note_on', channel=9, note=60, velocity=0, time=0),
  Message('note_on', channel=9, note=70, velocity=120, time=119),
  Message('note_on', channel=9, note=60, velocity=96, time=0),
  Message('note_on', channel=9, note=70, velocity=0, time=1),
  Message('note_on', channel=9, note=60, velocity=0, time=0),
  Message('note_on', channel=0, note=44, velocity=0, time=79),
  Message('note_on', channel=0, note=33, velocity=64, time=40),
  Message('note_on', channel=1, note=75, velocity=127, time=0),
  Message('note_on', channel=1, note=78, velocity=127, time=0),
  Message('note_on', channel=1, note=81, velocity=127, time=0),
  Message('note_on', channel=4, note=63, velocity=127, time=0),
  Message('note_on', channel=4, note=66, velocity=127, time=0),
  Message('note_on', channel=4, note=69, velocity=127, time=0),
  Message('note_on', channel=6, note=75, velocity=99, time=0),
  Message('note_on', channel=6, note=78, velocity=99, time=0),
  Message('note_on', channel=6, note=81, velocity=99, time=0),
  Message('note_on', channel=7, note=51, velocity=89, time=0),
  Message('note_on', channel=7, note=54, velocity=89, time=0),
  Message('note_on', channel=7, note=57, velocity=89, time=0),
  Message('note_on', channel=9, note=40, velocity=106, time=0),
  Message('note_on', channel=9, note=70, velocity=78, time=0),
  Message('note_on', channel=9, note=60, velocity=96, time=0),
  Message('note_on', channel=9, note=40, velocity=0, time=1),
  Message('note_on', channel=9, note=70, velocity=0, time=0),
  Message('note_on', channel=9, note=60, velocity=0, time=0),
  Message('note_on', channel=1, note=81, velocity=0, time=99),
  Message('note_on', channel=4, note=69, velocity=0, time=0),
  Message('note_on', channel=6, note=81, velocity=0, time=0),
  Message('note_on', channel=7, note=57, velocity=0, time=0),
  Message('note_on', channel=1, note=75, velocity=0, time=20),
  Message('note_on', channel=1, note=78, velocity=0, time=0),
  Message('note_on', channel=1, note=75, velocity=127, time=0),
  Message('note_on', channel=1, note=79, velocity=127, time=0),
  Message('note_on', channel=1, note=82, velocity=127, time=0),
  Message('note_on', channel=4, note=63, velocity=0, time=0),
  Message('note_on', channel=4, note=66, velocity=0, time=0),
  Message('note_on', channel=4, note=63, velocity=127, time=0),
  Message('note_on', channel=4, note=67, velocity=127, time=0),
  Message('note_on', channel=4, note=70, velocity=127, time=0),
  Message('note_on', channel=6, note=75, velocity=0, time=0),
  Message('note_on', channel=6, note=78, velocity=0, time=0),
  Message('note_on', channel=6, note=75, velocity=99, time=0),
  Message('note_on', channel=6, note=79, velocity=99, time=0),
  Message('note_on', channel=6, note=82, velocity=99, time=0),
  Message('note_on', channel=7, note=51, velocity=0, time=0),
  Message('note_on', channel=7, note=54, velocity=0, time=0),
  Message('note_on', channel=7, note=51, velocity=89, time=0),
  Message('note_on', channel=7, note=55, velocity=89, time=0),
  Message('note_on', channel=7, note=58, velocity=89, time=0),
  Message('note_on', channel=9, note=40, velocity=106, time=0),
  Message('note_on', channel=9, note=70, velocity=64, time=0),
  Message('note_on', channel=9, note=60, velocity=96, time=0),
  Message('note_on', channel=9, note=40, velocity=0, time=1),
  Message('note_on', channel=9, note=70, velocity=0, time=0),
  Message('note_on', channel=9, note=60, velocity=0, time=0),
  Message('note_on', channel=1, note=82, velocity=0, time=99),
  Message('note_on', channel=4, note=70, velocity=0, time=0),
  Message('note_on', channel=6, note=82, velocity=0, time=0),
  Message('note_on', channel=7, note=58, velocity=0, time=0),
  Message('note_on', channel=1, note=75, velocity=0, time=20),
  Message('note_on', channel=1, note=79, velocity=0, time=0),
  Message('note_on', channel=4, note=63, velocity=0, time=0),
  Message('note_on', channel=4, note=67, velocity=0, time=0),
  Message('note_on', channel=6, note=75, velocity=0, time=0),
  Message('note_on', channel=6, note=79, velocity=0, time=0),
  Message('note_on', channel=7, note=51, velocity=0, time=0),
  Message('note_on', channel=7, note=55, velocity=0, time=0),
  Message('note_on', channel=9, note=70, velocity=120, time=0),
  Message('note_on', channel=9, note=70, velocity=0, time=1),
  Message('note_on', channel=0, note=33, velocity=0, time=99),
  Message('note_on', channel=0, note=44, velocity=64, time=20),
  Message('note_on', channel=9, note=70, velocity=120, time=0),
  Message('note_on', channel=9, note=61, velocity=82, time=0),
  Message('note_on', channel=9, note=70, velocity=0, time=1),
  Message('note_on', channel=9, note=61, velocity=0, time=0),
  Message('note_on', channel=9, note=70, velocity=78, time=119),
  Message('note_on', channel=9, note=61, velocity=82, time=0),
  Message('note_on', channel=9, note=70, velocity=0, time=1),
  Message('note_on', channel=9, note=61, velocity=0, time=0),
  Message('note_on', channel=9, note=70, velocity=64, time=119),
  Message('note_on', channel=9, note=70, velocity=0, time=1),
  Message('note_on', channel=0, note=44, velocity=0, time=99),
  Message('note_on', channel=0, note=33, velocity=64, time=20),
  Message('note_on', channel=1, note=75, velocity=127, time=0),
  Message('note_on', channel=1, note=79, velocity=127, time=0),
  Message('note_on', channel=1, note=82, velocity=127, time=0),
  Message('note_on', channel=4, note=63, velocity=127, time=0),
  Message('note_on', channel=4, note=67, velocity=127, time=0),
  Message('note_on', channel=4, note=70, velocity=127, time=0),
  Message('note_on', channel=6, note=75, velocity=99, time=0),
  Message('note_on', channel=6, note=79, velocity=99, time=0),
  Message('note_on', channel=6, note=82, velocity=99, time=0),
  Message('note_on', channel=7, note=51, velocity=89, time=0),
  Message('note_on', channel=7, note=55, velocity=89, time=0),
  Message('note_on', channel=7, note=58, velocity=89, time=0),
  Message('note_on', channel=9, note=40, velocity=106, time=0),
  Message('note_on', channel=9, note=70, velocity=120, time=0),
  Message('note_on', channel=9, note=60, velocity=96, time=0),
  Message('note_on', channel=9, note=40, velocity=0, time=1),
  Message('note_on', channel=9, note=70, velocity=0, time=0),
  Message('note_on', channel=9, note=60, velocity=0, time=0),
  Message('note_on', channel=1, note=82, velocity=0, time=99),
  Message('note_on', channel=4, note=70, velocity=0, time=0),
  Message('note_on', channel=6, note=82, velocity=0, time=0),
  Message('note_on', channel=7, note=58, velocity=0, time=0),
  Message('note_on', channel=1, note=75, velocity=0, time=20),
  Message('note_on', channel=1, note=79, velocity=0, time=0),
  Message('note_on', channel=1, note=75, velocity=127, time=0),
  Message('note_on', channel=1, note=79, velocity=127, time=0),
  Message('note_on', channel=1, note=83, velocity=127, time=0),
  Message('note_on', channel=4, note=63, velocity=0, time=0),
  Message('note_on', channel=4, note=67, velocity=0, time=0),
  Message('note_on', channel=4, note=63, velocity=127, time=0),
  Message('note_on', channel=4, note=67, velocity=127, time=0),
  Message('note_on', channel=4, note=71, velocity=127, time=0),
  Message('note_on', channel=6, note=75, velocity=0, time=0),
  Message('note_on', channel=6, note=79, velocity=0, time=0),
  Message('note_on', channel=6, note=75, velocity=99, time=0),
  Message('note_on', channel=6, note=79, velocity=99, time=0),
  Message('note_on', channel=6, note=83, velocity=99, time=0),
  Message('note_on', channel=7, note=51, velocity=0, time=0),
  Message('note_on', channel=7, note=55, velocity=0, time=0),
  Message('note_on', channel=7, note=51, velocity=89, time=0),
  Message('note_on', channel=7, note=55, velocity=89, time=0),
  Message('note_on', channel=7, note=59, velocity=89, time=0),
  Message('note_on', channel=9, note=40, velocity=106, time=0),
  Message('note_on', channel=9, note=70, velocity=120, time=0),
  Message('note_on', channel=9, note=60, velocity=96, time=0),
  Message('note_on', channel=9, note=40, velocity=0, time=1),
  Message('note_on', channel=9, note=70, velocity=0, time=0),
  Message('note_on', channel=9, note=60, velocity=0, time=0),
  Message('note_on', channel=1, note=83, velocity=0, time=99),
  Message('note_on', channel=4, note=71, velocity=0, time=0),
  Message('note_on', channel=6, note=83, velocity=0, time=0),
  Message('note_on', channel=7, note=59, velocity=0, time=0),
  Message('note_on', channel=1, note=75, velocity=0, time=20),
  Message('note_on', channel=1, note=79, velocity=0, time=0),
  Message('note_on', channel=4, note=63, velocity=0, time=0),
  Message('note_on', channel=4, note=67, velocity=0, time=0),
  Message('note_on', channel=6, note=75, velocity=0, time=0),
  Message('note_on', channel=6, note=79, velocity=0, time=0),
  Message('note_on', channel=7, note=51, velocity=0, time=0),
  Message('note_on', channel=7, note=55, velocity=0, time=0),
  Message('note_on', channel=9, note=70, velocity=78, time=0),
  Message('note_on', channel=9, note=70, velocity=0, time=1),
  Message('note_on', channel=9, note=70, velocity=64, time=119),
  Message('note_on', channel=9, note=61, velocity=82, time=0),
  Message('note_on', channel=9, note=70, velocity=0, time=1),
  Message('note_on', channel=9, note=61, velocity=0, time=0),
  Message('note_on', channel=0, note=33, velocity=0, time=79),
  Message('note_on', channel=0, note=44, velocity=64, time=40),
  Message('note_on', channel=9, note=70, velocity=120, time=0),
  Message('note_on', channel=9, note=61, velocity=82, time=0),
  Message('note_on', channel=9, note=70, velocity=0, time=1),
  Message('note_on', channel=9, note=61, velocity=0, time=0),
  Message('note_on', channel=9, note=70, velocity=120, time=119),
  Message('note_on', channel=9, note=70, velocity=0, time=1),
  Message('note_on', channel=0, note=44, velocity=0, time=79),
  Message('note_on', channel=0, note=33, velocity=64, time=40),
  Message('note_on', channel=1, note=79, velocity=127, time=0),
  Message('note_on', channel=1, note=82, velocity=127, time=0),
  Message('note_on', channel=1, note=87, velocity=127, time=0),
  Message('note_on', channel=4, note=67, velocity=127, time=0),
  Message('note_on', channel=4, note=70, velocity=127, time=0),
  Message('note_on', channel=4, note=75, velocity=127, time=0),
  Message('note_on', channel=6, note=79, velocity=99, time=0),
  Message('note_on', channel=6, note=82, velocity=99, time=0),
  Message('note_on', channel=6, note=87, velocity=99, time=0),
  Message('note_on', channel=7, note=55, velocity=89, time=0),
  Message('note_on', channel=7, note=58, velocity=89, time=0),
  Message('note_on', channel=7, note=63, velocity=89, time=0),
  Message('note_on', channel=9, note=40, velocity=106, time=0),
  Message('note_on', channel=9, note=70, velocity=78, time=0),
  Message('note_on', channel=9, note=61, velocity=96, time=0),
  Message('note_on', channel=9, note=40, velocity=0, time=1),
  Message('note_on', channel=9, note=70, velocity=0, time=0),
  Message('note_on', channel=9, note=61, velocity=0, time=0),
  Message('note_on', channel=1, note=79, velocity=0, time=99),
  Message('note_on', channel=1, note=82, velocity=0, time=0),
  Message('note_on', channel=1, note=87, velocity=0, time=0),
  Message('note_on', channel=4, note=67, velocity=0, time=0),
  Message('note_on', channel=4, note=70, velocity=0, time=0),
  Message('note_on', channel=4, note=75, velocity=0, time=0),
  Message('note_on', channel=6, note=79, velocity=0, time=0),
  Message('note_on', channel=6, note=82, velocity=0, time=0),
  Message('note_on', channel=6, note=87, velocity=0, time=0),
  Message('note_on', channel=7, note=55, velocity=0, time=0),
  Message('note_on', channel=7, note=58, velocity=0, time=0),
  Message('note_on', channel=7, note=63, velocity=0, time=0),
  Message('note_on', channel=1, note=78, velocity=127, time=20),
  Message('note_on', channel=1, note=81, velocity=127, time=0),
  Message('note_on', channel=1, note=87, velocity=127, time=0),
  Message('note_on', channel=4, note=66, velocity=127, time=0),
  Message('note_on', channel=4, note=69, velocity=127, time=0),
  Message('note_on', channel=4, note=75, velocity=127, time=0),
  Message('note_on', channel=6, note=78, velocity=99, time=0),
  Message('note_on', channel=6, note=81, velocity=99, time=0),
  Message('note_on', channel=6, note=87, velocity=99, time=0),
  Message('note_on', channel=7, note=54, velocity=89, time=0),
  Message('note_on', channel=7, note=57, velocity=89, time=0),
  Message('note_on', channel=7, note=63, velocity=89, time=0),
  Message('note_on', channel=9, note=40, velocity=106, time=0),
  Message('note_on', channel=9, note=70, velocity=64, time=0),
  Message('note_on', channel=9, note=60, velocity=96, time=0),
  Message('note_on', channel=9, note=40, velocity=0, time=1),
  Message('note_on', channel=9, note=70, velocity=0, time=0),
  Message('note_on', channel=9, note=60, velocity=0, time=0),
  Message('note_on', channel=0, note=33, velocity=0, time=79),
  Message('note_on', channel=1, note=78, velocity=0, time=20),
  Message('note_on', channel=1, note=81, velocity=0, time=0),
  Message('note_on', channel=1, note=87, velocity=0, time=0),
  Message('note_on', channel=4, note=66, velocity=0, time=0),
  Message('note_on', channel=4, note=69, velocity=0, time=0),
  Message('note_on', channel=4, note=75, velocity=0, time=0),
  Message('note_on', channel=6, note=78, velocity=0, time=0),
  Message('note_on', channel=6, note=81, velocity=0, time=0),
  Message('note_on', channel=6, note=87, velocity=0, time=0),
  Message('note_on', channel=7, note=54, velocity=0, time=0),
  Message('note_on', channel=7, note=57, velocity=0, time=0),
  Message('note_on', channel=7, note=63, velocity=0, time=0),
  Message('note_on', channel=0, note=44, velocity=64, time=20),
  Message('note_on', channel=9, note=70, velocity=120, time=0),
  Message('note_on', channel=9, note=70, velocity=0, time=1),
  Message('note_on', channel=9, note=70, velocity=120, time=119),
  Message('note_on', channel=9, note=70, velocity=0, time=1),
  Message('note_on', channel=0, note=44, velocity=0, time=79),
  Message('note_on', channel=0, note=50, velocity=64, time=280),
  Message('note_on', channel=1, note=70, velocity=117, time=0),
  Message('note_on', channel=1, note=76, velocity=117, time=0),
  Message('note_on', channel=4, note=58, velocity=117, time=0),
  Message('note_on', channel=4, note=64, velocity=117, time=0),
  Message('note_on', channel=6, note=70, velocity=99, time=0),
  Message('note_on', channel=6, note=76, velocity=99, time=0),
  Message('note_on', channel=7, note=46, velocity=89, time=0),
  Message('note_on', channel=7, note=52, velocity=89, time=0),
  Message('note_on', channel=9, note=40, velocity=106, time=0),
  Message('note_on', channel=9, note=70, velocity=120, time=0),
  Message('note_on', channel=9, note=60, velocity=96, time=0),
  Message('note_on', channel=9, note=61, velocity=96, time=0),
  Message('note_on', channel=9, note=40, velocity=0, time=1),
  Message('note_on', channel=9, note=70, velocity=0, time=0),
  Message('note_on', channel=9, note=60, velocity=0, time=0),
  Message('note_on', channel=9, note=61, velocity=0, time=0),
  Message('note_on', channel=0, note=50, velocity=0, time=99),
  Message('note_on', channel=1, note=70, velocity=0, time=0),
  Message('note_on', channel=1, note=76, velocity=0, time=0),
  Message('note_on', channel=4, note=58, velocity=0, time=0),
  Message('note_on', channel=4, note=64, velocity=0, time=0),
  Message('note_on', channel=6, note=70, velocity=0, time=0),
  Message('note_on', channel=6, note=76, velocity=0, time=0),
  Message('note_on', channel=7, note=46, velocity=0, time=0),
  Message('note_on', channel=7, note=52, velocity=0, time=0),
  Message('note_on', channel=0, note=50, velocity=64, time=20),
  Message('note_on', channel=1, note=69, velocity=117, time=0),
  Message('note_on', channel=1, note=75, velocity=117, time=0),
  Message('note_on', channel=4, note=57, velocity=117, time=0),
  Message('note_on', channel=4, note=63, velocity=117, time=0),
  Message('note_on', channel=6, note=69, velocity=99, time=0),
  Message('note_on', channel=6, note=75, velocity=99, time=0),
  Message('note_on', channel=7, note=45, velocity=89, time=0),
  Message('note_on', channel=7, note=51, velocity=89, time=0),
  Message('note_on', channel=9, note=40, velocity=106, time=0),
  Message('note_on', channel=9, note=70, velocity=120, time=0),
  Message('note_on', channel=9, note=60, velocity=96, time=0),
  Message('note_on', channel=9, note=61, velocity=96, time=0),
  Message('note_on', channel=9, note=40, velocity=0, time=1),
  Message('note_on', channel=9, note=70, velocity=0, time=0),
  Message('note_on', channel=9, note=60, velocity=0, time=0),
  Message('note_on', channel=9, note=61, velocity=0, time=0),
  Message('note_on', channel=0, note=50, velocity=0, time=99),
  Message('note_on', channel=1, note=69, velocity=0, time=0),
  Message('note_on', channel=1, note=75, velocity=0, time=0),
  Message('note_on', channel=4, note=57, velocity=0, time=0),
  Message('note_on', channel=4, note=63, velocity=0, time=0),
  Message('note_on', channel=6, note=69, velocity=0, time=0),
  Message('note_on', channel=6, note=75, velocity=0, time=0),
  Message('note_on', channel=7, note=45, velocity=0, time=0),
  Message('note_on', channel=7, note=51, velocity=0, time=0),
  Message('note_on', channel=9, note=40, velocity=78, time=260),
  Message('note_on', channel=9, note=40, velocity=0, time=1),
  Message('note_on', channel=9, note=40, velocity=78, time=59),
  Message('note_on', channel=9, note=40, velocity=0, time=1),
  Message('note_on', channel=9, note=40, velocity=92, time=59),
  Message('note_on', channel=9, note=40, velocity=0, time=1),
  Message('note_on', channel=9, note=40, velocity=106, time=59),
  Message('note_on', channel=9, note=40, velocity=0, time=1),
  Message('note_on', channel=0, note=51, velocity=64, time=59),
  Message('note_on', channel=1, note=72, velocity=117, time=0),
  Message('note_on', channel=1, note=79, velocity=117, time=0),
  Message('note_on', channel=4, note=60, velocity=117, time=0),
  Message('note_on', channel=4, note=67, velocity=117, time=0),
  Message('note_on', channel=6, note=72, velocity=99, time=0),
  Message('note_on', channel=6, note=79, velocity=99, time=0),
  Message('note_on', channel=7, note=48, velocity=89, time=0),
  Message('note_on', channel=7, note=55, velocity=89, time=0),
  Message('note_on', channel=9, note=40, velocity=106, time=0),
  Message('note_on', channel=9, note=70, velocity=120, time=0),
  Message('note_on', channel=9, note=60, velocity=96, time=0),
  Message('note_on', channel=9, note=61, velocity=96, time=0),
  Message('note_on', channel=9, note=40, velocity=0, time=1),
  Message('note_on', channel=9, note=70, velocity=0, time=0),
  Message('note_on', channel=9, note=60, velocity=0, time=0),
  Message('note_on', channel=9, note=61, velocity=0, time=0),
  Message('note_on', channel=0, note=51, velocity=0, time=99),
  Message('note_on', channel=1, note=72, velocity=0, time=0),
  Message('note_on', channel=1, note=79, velocity=0, time=0),
  Message('note_on', channel=4, note=60, velocity=0, time=0),
  Message('note_on', channel=4, note=67, velocity=0, time=0),
  Message('note_on', channel=6, note=72, velocity=0, time=0),
  Message('note_on', channel=6, note=79, velocity=0, time=0),
  Message('note_on', channel=7, note=48, velocity=0, time=0),
  Message('note_on', channel=7, note=55, velocity=0, time=0),
  Message('note_on', channel=0, note=51, velocity=64, time=20),
  Message('note_on', channel=1, note=71, velocity=117, time=0),
  Message('note_on', channel=1, note=77, velocity=117, time=0),
  Message('note_on', channel=4, note=59, velocity=117, time=0),
  Message('note_on', channel=4, note=65, velocity=117, time=0),
  Message('note_on', channel=6, note=71, velocity=99, time=0),
  Message('note_on', channel=6, note=77, velocity=99, time=0),
  Message('note_on', channel=7, note=47, velocity=89, time=0),
  Message('note_on', channel=7, note=53, velocity=89, time=0),
  Message('note_on', channel=9, note=40, velocity=106, time=0),
  Message('note_on', channel=9, note=70, velocity=120, time=0),
  Message('note_on', channel=9, note=60, velocity=96, time=0),
  Message('note_on', channel=9, note=61, velocity=96, time=0),
  Message('note_on', channel=9, note=40, velocity=0, time=1),
  Message('note_on', channel=9, note=70, velocity=0, time=0),
  Message('note_on', channel=9, note=60, velocity=0, time=0),
  Message('note_on', channel=9, note=61, velocity=0, time=0),
  Message('note_on', channel=0, note=51, velocity=0, time=99),
  Message('note_on', channel=1, note=71, velocity=0, time=0),
  Message('note_on', channel=1, note=77, velocity=0, time=0),
  Message('note_on', channel=4, note=59, velocity=0, time=0),
  Message('note_on', channel=4, note=65, velocity=0, time=0),
  Message('note_on', channel=6, note=71, velocity=0, time=0),
  Message('note_on', channel=6, note=77, velocity=0, time=0),
  Message('note_on', channel=7, note=47, velocity=0, time=0),
  Message('note_on', channel=7, note=53, velocity=0, time=0),
  Message('note_on', channel=0, note=45, velocity=64, time=260),
  Message('note_on', channel=3, note=57, velocity=95, time=0),
  Message('note_on', channel=9, note=60, velocity=96, time=0),
  Message('note_on', channel=9, note=60, velocity=0, time=1),
  Message('note_on', channel=9, note=60, velocity=96, time=59),
  Message('note_on', channel=9, note=60, velocity=0, time=1),
  Message('note_on', channel=0, note=45, velocity=0, time=39),
  Message('note_on', channel=0, note=41, velocity=64, time=20),
  Message('note_on', channel=3, note=57, velocity=0, time=0),
  Message('note_on', channel=3, note=53, velocity=95, time=0),
  Message('note_on', channel=9, note=60, velocity=82, time=0),
  Message('note_on', channel=9, note=60, velocity=0, time=1),
  Message('note_on', channel=9, note=60, velocity=82, time=59),
  Message('note_on', channel=9, note=60, velocity=0, time=1),
  Message('note_on', channel=0, note=41, velocity=0, time=39),
  Message('note_on', channel=0, note=37, velocity=64, time=20),
  Message('note_on', channel=3, note=53, velocity=0, time=0),
  Message('note_on', channel=3, note=49, velocity=95, time=0),
  Message('note_on', channel=9, note=60, velocity=68, time=0),
  Message('note_on', channel=9, note=60, velocity=0, time=1),
  Message('note_on', channel=9, note=60, velocity=68, time=59),
  Message('note_on', channel=9, note=60, velocity=0, time=1),
  Message('note_on', channel=0, note=37, velocity=0, time=39),
  Message('note_on', channel=0, note=35, velocity=64, time=20),
  Message('note_on', channel=3, note=49, velocity=0, time=0),
  Message('note_on', channel=3, note=47, velocity=95, time=0),
  Message('note_on', channel=9, note=60, velocity=68, time=0),
  Message('note_on', channel=9, note=60, velocity=0, time=1),
  Message('note_on', channel=9, note=60, velocity=68, time=59),
  Message('note_on', channel=9, note=60, velocity=0, time=1),
  Message('note_on', channel=0, note=35, velocity=0, time=39),
  Message('note_on', channel=0, note=31, velocity=64, time=20),
  Message('note_on', channel=1, note=77, velocity=127, time=0),
  Message('note_on', channel=1, note=79, velocity=127, time=0),
  Message('note_on', channel=1, note=81, velocity=127, time=0),
  Message('note_on', channel=1, note=84, velocity=127, time=0),
  Message('note_on', channel=3, note=47, velocity=0, time=0),
  Message('note_on', channel=4, note=65, velocity=127, time=0),
  Message('note_on', channel=4, note=67, velocity=127, time=0),
  Message('note_on', channel=4, note=69, velocity=127, time=0),
  Message('note_on', channel=4, note=72, velocity=127, time=0),
  Message('note_on', channel=6, note=77, velocity=99, time=0),
  Message('note_on', channel=6, note=79, velocity=99, time=0),
  Message('note_on', channel=6, note=81, velocity=99, time=0),
  Message('note_on', channel=6, note=84, velocity=99, time=0),
  Message('note_on', channel=7, note=53, velocity=89, time=0),
  Message('note_on', channel=7, note=55, velocity=89, time=0),
  Message('note_on', channel=7, note=57, velocity=89, time=0),
  Message('note_on', channel=7, note=60, velocity=89, time=0),
  Message('note_on', channel=9, note=49, velocity=120, time=0),
  Message('note_on', channel=9, note=70, velocity=78, time=0),
  Message('note_on', channel=9, note=61, velocity=96, time=0),
  Message('note_on', channel=9, note=49, velocity=0, time=1),
  Message('note_on', channel=9, note=70, velocity=0, time=0),
  Message('note_on', channel=9, note=61, velocity=0, time=0),
  Message('note_on', channel=9, note=70, velocity=64, time=119),
  Message('note_on', channel=9, note=60, velocity=96, time=0),
  Message('note_on', channel=9, note=70, velocity=0, time=1),
  Message('note_on', channel=9, note=60, velocity=0, time=0),
  Message('note_on', channel=9, note=70, velocity=120, time=119),
  Message('note_on', channel=9, note=70, velocity=0, time=1),
  Message('note_on', channel=0, note=31, velocity=0, time=99),
  Message('note_on', channel=0, note=38, velocity=64, time=20),
  Message('note_on', channel=9, note=70, velocity=120, time=0),
  Message('note_on', channel=9, note=60, velocity=96, time=0),
  Message('note_on', channel=9, note=70, velocity=0, time=1),
  Message('note_on', channel=9, note=60, velocity=0, time=0),
  Message('note_on', channel=9, note=70, velocity=78, time=119),
  Message('note_on', channel=9, note=60, velocity=96, time=0),
  Message('note_on', channel=9, note=70, velocity=0, time=1),
  Message('note_on', channel=9, note=60, velocity=0, time=0),
  Message('note_on', channel=9, note=70, velocity=64, time=119),
  Message('note_on', channel=9, note=70, velocity=0, time=1),
  Message('note_on', channel=1, note=77, velocity=0, time=79),
  Message('note_on', channel=1, note=79, velocity=0, time=0),
  Message('note_on', channel=1, note=81, velocity=0, time=0),
  Message('note_on', channel=1, note=84, velocity=0, time=0),
  Message('note_on', channel=4, note=65, velocity=0, time=0),
  Message('note_on', channel=4, note=67, velocity=0, time=0),
  Message('note_on', channel=4, note=69, velocity=0, time=0),
  Message('note_on', channel=4, note=72, velocity=0, time=0),
  Message('note_on', channel=6, note=77, velocity=0, time=0),
  Message('note_on', channel=6, note=79, velocity=0, time=0),
  Message('note_on', channel=6, note=81, velocity=0, time=0),
  Message('note_on', channel=6, note=84, velocity=0, time=0),
  Message('note_on', channel=7, note=53, velocity=0, time=0),
  Message('note_on', channel=7, note=55, velocity=0, time=0),
  Message('note_on', channel=7, note=57, velocity=0, time=0),
  Message('note_on', channel=7, note=60, velocity=0, time=0),
  Message('note_on', channel=0, note=38, velocity=0, time=20),
  Message('note_on', channel=0, note=31, velocity=64, time=20),
  Message('note_on', channel=1, note=77, velocity=127, time=0),
  Message('note_on', channel=1, note=79, velocity=127, time=0),
  Message('note_on', channel=1, note=81, velocity=127, time=0),
  Message('note_on', channel=1, note=84, velocity=127, time=0),
  Message('note_on', channel=4, note=65, velocity=127, time=0),
  Message('note_on', channel=4, note=67, velocity=127, time=0),
  Message('note_on', channel=4, note=69, velocity=127, time=0),
  Message('note_on', channel=4, note=72, velocity=127, time=0),
  Message('note_on', channel=6, note=77, velocity=99, time=0),
  Message('note_on', channel=6, note=79, velocity=99, time=0),
  Message('note_on', channel=6, note=81, velocity=99, time=0),
  Message('note_on', channel=6, note=84, velocity=99, time=0),
  Message('note_on', channel=7, note=53, velocity=89, time=0),
  Message('note_on', channel=7, note=55, velocity=89, time=0),
  Message('note_on', channel=7, note=57, velocity=89, time=0),
  Message('note_on', channel=7, note=60, velocity=89, time=0),
  Message('note_on', channel=9, note=46, velocity=106, time=0),
  Message('note_on', channel=9, note=70, velocity=120, time=0),
  Message('note_on', channel=9, note=61, velocity=96, time=0),
  Message('note_on', channel=9, note=46, velocity=0, time=1),
  Message('note_on', channel=9, note=70, velocity=0, time=0),
  Message('note_on', channel=9, note=61, velocity=0, time=0),
  Message('note_on', channel=9, note=70, velocity=120, time=119),
  Message('note_on', channel=9, note=70, velocity=0, time=1),
  Message('note_on', channel=9, note=42, velocity=106, time=119),
  Message('note_on', channel=9, note=70, velocity=78, time=0),
  Message('note_on', channel=9, note=61, velocity=96, time=0),
  Message('note_on', channel=9, note=42, velocity=0, time=1),
  Message('note_on', channel=9, note=70, velocity=0, time=0),
  Message('note_on', channel=9, note=61, velocity=0, time=0),
  Message('note_on', channel=9, note=70, velocity=64, time=119),
  Message('note_on', channel=9, note=60, velocity=96, time=0),
  Message('note_on', channel=9, note=70, velocity=0, time=1),
  Message('note_on', channel=9, note=60, velocity=0, time=0),
  Message('note_on', channel=9, note=70, velocity=120, time=119),
  Message('note_on', channel=9, note=70, velocity=0, time=1),
  Message('note_on', channel=9, note=70, velocity=120, time=119),
  Message('note_on', channel=9, note=60, velocity=96, time=0),
  Message('note_on', channel=9, note=70, velocity=0, time=1),
  Message('note_on', channel=9, note=60, velocity=0, time=0),
  Message('note_on', channel=9, note=46, velocity=106, time=119),
  Message('note_on', channel=9, note=70, velocity=78, time=0),
  Message('note_on', channel=9, note=60, velocity=96, time=0),
  Message('note_on', channel=9, note=46, velocity=0, time=1),
  Message('note_on', channel=9, note=70, velocity=0, time=0),
  Message('note_on', channel=9, note=60, velocity=0, time=0),
  Message('note_on', channel=9, note=70, velocity=64, time=119),
  Message('note_on', channel=9, note=70, velocity=0, time=1),
  Message('note_on', channel=9, note=70, velocity=120, time=119),
  Message('note_on', channel=9, note=61, velocity=96, time=0),
  Message('note_on', channel=9, note=70, velocity=0, time=1),
  Message('note_on', channel=9, note=61, velocity=0, time=0),
  Message('note_on', channel=9, note=70, velocity=120, time=119),
  Message('note_on', channel=9, note=70, velocity=0, time=1),
  Message('note_on', channel=9, note=46, velocity=92, time=119),
  Message('note_on', channel=9, note=70, velocity=78, time=0),
  Message('note_on', channel=9, note=61, velocity=96, time=0),
  Message('note_on', channel=9, note=46, velocity=0, time=1),
  Message('note_on', channel=9, note=70, velocity=0, time=0),
  Message('note_on', channel=9, note=61, velocity=0, time=0),
  Message('note_on', channel=0, note=31, velocity=0, time=99),
  Message('note_on', channel=0, note=47, velocity=64, time=20),
  Message('note_on', channel=9, note=70, velocity=64, time=0),
  Message('note_on', channel=9, note=60, velocity=96, time=0),
  Message('note_on', channel=9, note=70, velocity=0, time=1),
  Message('note_on', channel=9, note=60, velocity=0, time=0),
  Message('note_on', channel=0, note=47, velocity=0, time=99),
  Message('note_on', channel=0, note=43, velocity=64, time=20),
  Message('note_on', channel=9, note=70, velocity=120, time=0),
  Message('note_on', channel=9, note=70, velocity=0, time=1),
  Message('note_on', channel=0, note=43, velocity=0, time=99),
  Message('note_on', channel=0, note=38, velocity=64, time=20),
  Message('note_on', channel=9, note=70, velocity=120, time=0),
  Message('note_on', channel=9, note=60, velocity=96, time=0),
  Message('note_on', channel=9, note=70, velocity=0, time=1),
  Message('note_on', channel=9, note=60, velocity=0, time=0),
  Message('note_on', channel=0, note=38, velocity=0, time=99),
  Message('note_on', channel=9, note=46, velocity=92, time=20),
  Message('note_on', channel=9, note=70, velocity=78, time=0),
  Message('note_on', channel=9, note=60, velocity=96, time=0),
  Message('note_on', channel=9, note=46, velocity=0, time=1),
  Message('note_on', channel=9, note=70, velocity=0, time=0),
  Message('note_on', channel=9, note=60, velocity=0, time=0),
  Message('note_on', channel=0, note=35, velocity=64, time=119),
  Message('note_on', channel=9, note=70, velocity=64, time=0),
  Message('note_on', channel=9, note=70, velocity=0, time=1),
  Message('note_on', channel=0, note=35, velocity=0, time=99),
  Message('note_on', channel=0, note=36, velocity=64, time=20),
  Message('note_on', channel=9, note=70, velocity=120, time=0),
  Message('note_on', channel=9, note=61, velocity=54, time=0),
  Message('note_on', channel=9, note=70, velocity=0, time=1),
  Message('note_on', channel=0, note=36, velocity=0, time=99),
  Message('note_on', channel=9, note=61, velocity=0, time=0),
  Message('note_on', channel=0, note=37, velocity=64, time=20),
  Message('note_on', channel=9, note=70, velocity=120, time=0),
  Message('note_on', channel=9, note=60, velocity=96, time=0),
  Message('note_on', channel=9, note=70, velocity=0, time=1),
  Message('note_on', channel=9, note=60, velocity=0, time=0),
  Message('note_on', channel=9, note=46, velocity=92, time=119),
  Message('note_on', channel=9, note=70, velocity=78, time=0),
  Message('note_on', channel=9, note=46, velocity=0, time=1),
  Message('note_on', channel=9, note=70, velocity=0, time=0),
  Message('note_on', channel=9, note=70, velocity=64, time=119),
  Message('note_on', channel=9, note=60, velocity=96, time=0),
  Message('note_on', channel=9, note=70, velocity=0, time=1),
  Message('note_on', channel=9, note=60, velocity=0, time=0),
  Message('note_on', channel=0, note=37, velocity=0, time=99),
  Message('note_on', channel=0, note=37, velocity=64, time=20),
  Message('note_on', channel=9, note=70, velocity=120, time=0),
  Message('note_on', channel=9, note=60, velocity=96, time=0),
  Message('note_on', channel=9, note=70, velocity=0, time=1),
  Message('note_on', channel=9, note=60, velocity=0, time=0),
  Message('note_on', channel=9, note=70, velocity=120, time=119),
  Message('note_on', channel=9, note=70, velocity=0, time=1),
  Message('note_on', channel=0, note=37, velocity=0, time=99),
  Message('note_on', channel=0, note=31, velocity=64, time=20),
  Message('note_on', channel=9, note=48, velocity=92, time=0),
  Message('note_on', channel=9, note=70, velocity=78, time=0),
  Message('note_on', channel=9, note=61, velocity=96, time=0),
  Message('note_on', channel=9, note=48, velocity=0, time=1),
  Message('note_on', channel=9, note=70, velocity=0, time=0),
  Message('note_on', channel=9, note=61, velocity=0, time=0),
  Message('note_on', channel=9, note=48, velocity=92, time=119),
  Message('note_on', channel=9, note=70, velocity=64, time=0),
  Message('note_on', channel=9, note=60, velocity=96, time=0),
  Message('note_on', channel=9, note=48, velocity=0, time=1),
  Message('note_on', channel=9, note=70, velocity=0, time=0),
  Message('note_on', channel=9, note=60, velocity=0, time=0),
  Message('note_on', channel=9, note=60, velocity=96, time=59),
  Message('note_on', channel=9, note=60, velocity=0, time=1),
  Message('note_on', channel=9, note=45, velocity=92, time=59),
  Message('note_on', channel=9, note=70, velocity=120, time=0),
  Message('note_on', channel=9, note=60, velocity=96, time=0),
  Message('note_on', channel=9, note=45, velocity=0, time=1),
  Message('note_on', channel=9, note=70, velocity=0, time=0),
  Message('note_on', channel=9, note=60, velocity=0, time=0),
  Message('note_on', channel=9, note=45, velocity=92, time=119),
  Message('note_on', channel=9, note=70, velocity=120, time=0),
  Message('note_on', channel=9, note=60, velocity=96, time=0),
  Message('note_on', channel=9, note=45, velocity=0, time=1),
  Message('note_on', channel=9, note=70, velocity=0, time=0),
  Message('note_on', channel=9, note=60, velocity=0, time=0),
  Message('note_on', channel=0, note=31, velocity=0, time=89),
  Message('note_on', channel=1, note=77, velocity=0, time=10),
  Message('note_on', channel=1, note=79, velocity=0, time=0),
  Message('note_on', channel=1, note=81, velocity=0, time=0),
  Message('note_on', channel=1, note=84, velocity=0, time=0),
  Message('note_on', channel=4, note=65, velocity=0, time=0),
  Message('note_on', channel=4, note=67, velocity=0, time=0),
  Message('note_on', channel=4, note=69, velocity=0, time=0),
  Message('note_on', channel=4, note=72, velocity=0, time=0),
  Message('note_on', channel=6, note=77, velocity=0, time=0),
  Message('note_on', channel=6, note=79, velocity=0, time=0),
  Message('note_on', channel=6, note=81, velocity=0, time=0),
  Message('note_on', channel=6, note=84, velocity=0, time=0),
  Message('note_on', channel=7, note=53, velocity=0, time=0),
  Message('note_on', channel=7, note=55, velocity=0, time=0),
  Message('note_on', channel=7, note=57, velocity=0, time=0),
  Message('note_on', channel=7, note=60, velocity=0, time=0),
  Message('note_on', channel=0, note=31, velocity=64, time=20),
  Message('note_on', channel=1, note=77, velocity=127, time=0),
  Message('note_on', channel=1, note=79, velocity=127, time=0),
  Message('note_on', channel=1, note=81, velocity=127, time=0),
  Message('note_on', channel=1, note=84, velocity=127, time=0),
  Message('note_on', channel=4, note=65, velocity=127, time=0),
  Message('note_on', channel=4, note=67, velocity=127, time=0),
  Message('note_on', channel=4, note=69, velocity=127, time=0),
  Message('note_on', channel=4, note=72, velocity=127, time=0),
  Message('note_on', channel=6, note=77, velocity=99, time=0),
  Message('note_on', channel=6, note=79, velocity=99, time=0),
  Message('note_on', channel=6, note=81, velocity=99, time=0),
  Message('note_on', channel=6, note=84, velocity=99, time=0),
  Message('note_on', channel=7, note=53, velocity=89, time=0),
  Message('note_on', channel=7, note=55, velocity=89, time=0),
  Message('note_on', channel=7, note=57, velocity=89, time=0),
  Message('note_on', channel=7, note=60, velocity=89, time=0),
  Message('note_on', channel=9, note=49, velocity=120, time=0),
  Message('note_on', channel=9, note=70, velocity=78, time=0),
  Message('note_on', channel=9, note=61, velocity=96, time=0),
  Message('note_on', channel=9, note=49, velocity=0, time=1),
  Message('note_on', channel=9, note=70, velocity=0, time=0),
  Message('note_on', channel=9, note=61, velocity=0, time=0),
  Message('note_on', channel=9, note=70, velocity=64, time=119),
  Message('note_on', channel=9, note=60, velocity=96, time=0),
  Message('note_on', channel=9, note=70, velocity=0, time=1),
  Message('note_on', channel=9, note=60, velocity=0, time=0),
  Message('note_on', channel=9, note=70, velocity=120, time=119),
  Message('note_on', channel=9, note=70, velocity=0, time=1),
  Message('note_on', channel=0, note=31, velocity=0, time=99),
  Message('note_on', channel=0, note=38, velocity=64, time=20),
  Message('note_on', channel=9, note=70, velocity=120, time=0),
  Message('note_on', channel=9, note=60, velocity=96, time=0),
  Message('note_on', channel=9, note=70, velocity=0, time=1),
  Message('note_on', channel=9, note=60, velocity=0, time=0),
  Message('note_on', channel=9, note=70, velocity=78, time=119),
  Message('note_on', channel=9, note=60, velocity=96, time=0),
  Message('note_on', channel=9, note=70, velocity=0, time=1),
  Message('note_on', channel=9, note=60, velocity=0, time=0),
  Message('note_on', channel=9, note=70, velocity=64, time=119),
  Message('note_on', channel=9, note=70, velocity=0, time=1),
  Message('note_on', channel=1, note=77, velocity=0, time=79),
  Message('note_on', channel=1, note=79, velocity=0, time=0),
  Message('note_on', channel=1, note=81, velocity=0, time=0),
  Message('note_on', channel=1, note=84, velocity=0, time=0),
  Message('note_on', channel=4, note=65, velocity=0, time=0),
  Message('note_on', channel=4, note=67, velocity=0, time=0),
  Message('note_on', channel=4, note=69, velocity=0, time=0),
  Message('note_on', channel=4, note=72, velocity=0, time=0),
  Message('note_on', channel=6, note=77, velocity=0, time=0),
  Message('note_on', channel=6, note=79, velocity=0, time=0),
  Message('note_on', channel=6, note=81, velocity=0, time=0),
  Message('note_on', channel=6, note=84, velocity=0, time=0),
  Message('note_on', channel=7, note=53, velocity=0, time=0),
  Message('note_on', channel=7, note=55, velocity=0, time=0),
  Message('note_on', channel=7, note=57, velocity=0, time=0),
  Message('note_on', channel=7, note=60, velocity=0, time=0),
  Message('note_on', channel=0, note=38, velocity=0, time=20),
  Message('note_on', channel=0, note=31, velocity=64, time=20),
  Message('note_on', channel=1, note=77, velocity=127, time=0),
  Message('note_on', channel=1, note=79, velocity=127, time=0),
  Message('note_on', channel=1, note=81, velocity=127, time=0),
  Message('note_on', channel=1, note=84, velocity=127, time=0),
  Message('note_on', channel=4, note=65, velocity=127, time=0),
  Message('note_on', channel=4, note=67, velocity=127, time=0),
  Message('note_on', channel=4, note=69, velocity=127, time=0),
  Message('note_on', channel=4, note=72, velocity=127, time=0),
  Message('note_on', channel=6, note=77, velocity=99, time=0),
  Message('note_on', channel=6, note=79, velocity=99, time=0),
  Message('note_on', channel=6, note=81, velocity=99, time=0),
  Message('note_on', channel=6, note=84, velocity=99, time=0),
  Message('note_on', channel=7, note=53, velocity=89, time=0),
  Message('note_on', channel=7, note=55, velocity=89, time=0),
  Message('note_on', channel=7, note=57, velocity=89, time=0),
  Message('note_on', channel=7, note=60, velocity=89, time=0),
  Message('note_on', channel=9, note=46, velocity=106, time=0),
  Message('note_on', channel=9, note=70, velocity=120, time=0),
  Message('note_on', channel=9, note=61, velocity=54, time=0),
  Message('note_on', channel=9, note=46, velocity=0, time=1),
  Message('note_on', channel=9, note=70, velocity=0, time=0),
  Message('note_on', channel=9, note=61, velocity=0, time=99),
  Message('note_on', channel=9, note=70, velocity=120, time=20),
  Message('note_on', channel=9, note=60, velocity=96, time=0),
  Message('note_on', channel=9, note=70, velocity=0, time=1),
  Message('note_on', channel=9, note=60, velocity=0, time=0),
  Message('note_on', channel=9, note=42, velocity=106, time=119),
  Message('note_on', channel=9, note=70, velocity=78, time=0),
  Message('note_on', channel=9, note=42, velocity=0, time=1),
  Message('note_on', channel=9, note=70, velocity=0, time=0),
  Message('note_on', channel=0, note=31, velocity=0, time=99),
  Message('note_on', channel=0, note=38, velocity=64, time=20),
  Message('note_on', channel=9, note=70, velocity=64, time=0),
  Message('note_on', channel=9, note=60, velocity=96, time=0),
  Message('note_on', channel=9, note=70, velocity=0, time=1),
  Message('note_on', channel=9, note=60, velocity=0, time=0),
  Message('note_on', channel=0, note=38, velocity=0, time=99),
  Message('note_on', channel=0, note=41, velocity=64, time=20),
  Message('note_on', channel=9, note=70, velocity=120, time=0),
  Message('note_on', channel=9, note=60, velocity=96, time=0),
  Message('note_on', channel=9, note=70, velocity=0, time=1),
  Message('note_on', channel=9, note=60, velocity=0, time=0),
  Message('note_on', channel=0, note=41, velocity=0, time=99),
  Message('note_on', channel=0, note=42, velocity=64, time=20),
  Message('note_on', channel=9, note=70, velocity=120, time=0),
  Message('note_on', channel=9, note=70, velocity=0, time=1),
  Message('note_on', channel=0, note=42, velocity=0, time=99),
  Message('note_on', channel=0, note=43, velocity=64, time=20),
  Message('note_on', channel=9, note=46, velocity=106, time=0),
  Message('note_on', channel=9, note=70, velocity=78, time=0),
  Message('note_on', channel=9, note=61, velocity=96, time=0),
  Message('note_on', channel=9, note=46, velocity=0, time=1),
  Message('note_on', channel=9, note=70, velocity=0, time=0),
  Message('note_on', channel=9, note=61, velocity=0, time=0),
  Message('note_on', channel=9, note=70, velocity=64, time=119),
  Message('note_on', channel=9, note=60, velocity=96, time=0),
  Message('note_on', channel=9, note=70, velocity=0, time=1),
  Message('note_on', channel=9, note=60, velocity=0, time=0),
  Message('note_on', channel=9, note=60, velocity=96, time=59),
  Message('note_on', channel=9, note=60, velocity=0, time=1),
  Message('note_on', channel=9, note=70, velocity=120, time=59),
  Message('note_on', channel=9, note=60, velocity=96, time=0),
  Message('note_on', channel=9, note=70, velocity=0, time=1),
  Message('note_on', channel=9, note=60, velocity=0, time=0),
  Message('note_on', channel=9, note=70, velocity=120, time=119),
  Message('note_on', channel=9, note=60, velocity=96, time=0),
  Message('note_on', channel=9, note=70, velocity=0, time=1),
  Message('note_on', channel=9, note=60, velocity=0, time=0),
  Message('control_change', channel=1, control=11, value=127, time=119),
  Message('note_on', channel=9, note=46, velocity=106, time=0),
  Message('note_on', channel=9, note=70, velocity=78, time=0),
  Message('note_on', channel=9, note=61, velocity=96, time=0),
  Message('note_on', channel=9, note=46, velocity=0, time=1),
  Message('note_on', channel=9, note=70, velocity=0, time=0),
  Message('note_on', channel=9, note=61, velocity=0, time=0),
  Message('note_on', channel=9, note=70, velocity=64, time=119),
  Message('note_on', channel=9, note=60, velocity=96, time=0),
  Message('note_on', channel=9, note=70, velocity=0, time=1),
  Message('note_on', channel=9, note=60, velocity=0, time=0),
  Message('note_on', channel=9, note=40, velocity=120, time=119),
  Message('note_on', channel=9, note=70, velocity=120, time=0),
  Message('note_on', channel=9, note=40, velocity=0, time=1),
  Message('note_on', channel=9, note=70, velocity=0, time=0),
  Message('note_on', channel=9, note=70, velocity=120, time=119),
  Message('note_on', channel=9, note=60, velocity=96, time=0),
  Message('note_on', channel=9, note=70, velocity=0, time=1),
  Message('note_on', channel=9, note=60, velocity=0, time=0),
  Message('note_on', channel=9, note=48, velocity=120, time=119),
  Message('note_on', channel=9, note=70, velocity=78, time=0),
  Message('note_on', channel=9, note=61, velocity=96, time=0),
  Message('note_on', channel=9, note=48, velocity=0, time=1),
  Message('note_on', channel=9, note=70, velocity=0, time=0),
  Message('note_on', channel=9, note=61, velocity=0, time=0),
  Message('note_on', channel=9, note=48, velocity=92, time=119),
  Message('note_on', channel=9, note=70, velocity=64, time=0),
  Message('note_on', channel=9, note=60, velocity=96, time=0),
  Message('note_on', channel=9, note=48, velocity=0, time=1),
  Message('note_on', channel=9, note=70, velocity=0, time=0),
  Message('note_on', channel=9, note=60, velocity=0, time=0),
  Message('note_on', channel=9, note=48, velocity=120, time=119),
  Message('note_on', channel=9, note=70, velocity=120, time=0),
  Message('note_on', channel=9, note=48, velocity=0, time=1),
  Message('note_on', channel=9, note=70, velocity=0, time=0),
  Message('note_on', channel=9, note=45, velocity=92, time=119),
  Message('note_on', channel=9, note=70, velocity=120, time=0),
  Message('note_on', channel=9, note=60, velocity=96, time=0),
  Message('note_on', channel=9, note=45, velocity=0, time=1),
  Message('note_on', channel=9, note=70, velocity=0, time=0),
  Message('note_on', channel=9, note=60, velocity=0, time=0),
  Message('note_on', channel=0, note=43, velocity=0, time=79),
  Message('note_on', channel=0, note=43, velocity=64, time=40),
  Message('note_on', channel=9, note=45, velocity=120, time=0),
  Message('note_on', channel=9, note=70, velocity=78, time=0),
  Message('note_on', channel=9, note=61, velocity=96, time=0),
  Message('note_on', channel=9, note=45, velocity=0, time=1),
  Message('note_on', channel=9, note=70, velocity=0, time=0),
  Message('note_on', channel=9, note=61, velocity=0, time=0),
  Message('note_on', channel=0, note=43, velocity=0, time=99),
  Message('note_on', channel=0, note=43, velocity=64, time=20),
  Message('note_on', channel=9, note=45, velocity=92, time=0),
  Message('note_on', channel=9, note=70, velocity=64, time=0),
  Message('note_on', channel=9, note=60, velocity=96, time=0),
  Message('note_on', channel=9, note=45, velocity=0, time=1),
  Message('note_on', channel=9, note=70, velocity=0, time=0),
  Message('note_on', channel=9, note=60, velocity=0, time=0),
  Message('note_on', channel=0, note=43, velocity=0, time=99),
  Message('note_on', channel=0, note=43, velocity=64, time=20),
  Message('note_on', channel=9, note=41, velocity=120, time=0),
  Message('note_on', channel=9, note=70, velocity=120, time=0),
  Message('note_on', channel=9, note=41, velocity=0, time=1),
  Message('note_on', channel=9, note=70, velocity=0, time=0),
  Message('note_on', channel=0, note=43, velocity=0, time=99),
  Message('note_on', channel=0, note=43, velocity=64, time=20),
  Message('note_on', channel=9, note=41, velocity=92, time=0),
  Message('note_on', channel=9, note=70, velocity=120, time=0),
  Message('note_on', channel=9, note=60, velocity=96, time=0),
  Message('note_on', channel=9, note=41, velocity=0, time=1),
  Message('note_on', channel=9, note=70, velocity=0, time=0),
  Message('note_on', channel=9, note=60, velocity=0, time=0),
  Message('note_on', channel=0, note=43, velocity=0, time=99),
  Message('note_on', channel=0, note=43, velocity=64, time=20),
  Message('note_on', channel=9, note=48, velocity=92, time=0),
  Message('note_on', channel=9, note=45, velocity=92, time=0),
  Message('note_on', channel=9, note=40, velocity=120, time=0),
  Message('note_on', channel=9, note=41, velocity=92, time=0),
  Message('note_on', channel=9, note=70, velocity=78, time=0),
  Message('note_on', channel=9, note=61, velocity=96, time=0),
  Message('note_on', channel=9, note=48, velocity=0, time=1),
  Message('note_on', channel=9, note=45, velocity=0, time=0),
  Message('note_on', channel=9, note=40, velocity=0, time=0),
  Message('note_on', channel=9, note=41, velocity=0, time=0),
  Message('note_on', channel=9, note=70, velocity=0, time=0),
  Message('note_on', channel=9, note=61, velocity=0, time=0),
  Message('note_on', channel=9, note=70, velocity=64, time=119),
  Message('note_on', channel=9, note=60, velocity=96, time=0),
  Message('note_on', channel=9, note=70, velocity=0, time=1),
  Message('note_on', channel=9, note=60, velocity=0, time=0),
  Message('note_on', channel=9, note=60, velocity=96, time=59),
  Message('note_on', channel=9, note=60, velocity=0, time=1),
  Message('note_on', channel=9, note=70, velocity=120, time=59),
  Message('note_on', channel=9, note=60, velocity=96, time=0),
  Message('note_on', channel=9, note=70, velocity=0, time=1),
  Message('note_on', channel=9, note=60, velocity=0, time=0),
  Message('note_on', channel=9, note=70, velocity=120, time=119),
  Message('note_on', channel=9, note=60, velocity=96, time=0),
  Message('note_on', channel=9, note=70, velocity=0, time=1),
  Message('note_on', channel=9, note=60, velocity=0, time=0),
  Message('note_on', channel=0, note=43, velocity=0, time=89),
  Message('note_on', channel=1, note=77, velocity=0, time=10),
  Message('note_on', channel=1, note=79, velocity=0, time=0),
  Message('note_on', channel=1, note=81, velocity=0, time=0),
  Message('note_on', channel=1, note=84, velocity=0, time=0),
  Message('note_on', channel=4, note=65, velocity=0, time=0),
  Message('note_on', channel=4, note=67, velocity=0, time=0),
  Message('note_on', channel=4, note=69, velocity=0, time=0),
  Message('note_on', channel=4, note=72, velocity=0, time=0),
  Message('note_on', channel=6, note=77, velocity=0, time=0),
  Message('note_on', channel=6, note=79, velocity=0, time=0),
  Message('note_on', channel=6, note=81, velocity=0, time=0),
  Message('note_on', channel=6, note=84, velocity=0, time=0),
  Message('note_on', channel=7, note=53, velocity=0, time=0),
  Message('note_on', channel=7, note=55, velocity=0, time=0),
  Message('note_on', channel=7, note=57, velocity=0, time=0),
  Message('note_on', channel=7, note=60, velocity=0, time=0),
  Message('note_on', channel=0, note=36, velocity=64, time=20),
  Message('note_on', channel=0, note=46, velocity=64, time=0),
  Message('control_change', channel=1, control=11, value=127, time=0),
  Message('note_on', channel=1, note=74, velocity=114, time=0),
  Message('note_on', channel=1, note=77, velocity=114, time=0),
  Message('note_on', channel=1, note=81, velocity=114, time=0),
  Message('note_on', channel=1, note=84, velocity=114, time=0),
  Message('note_on', channel=4, note=62, velocity=104, time=0),
  Message('note_on', channel=4, note=65, velocity=104, time=0),
  Message('note_on', channel=4, note=69, velocity=104, time=0),
  Message('note_on', channel=4, note=72, velocity=104, time=0),
  Message('note_on', channel=6, note=74, velocity=99, time=0),
  Message('note_on', channel=6, note=77, velocity=99, time=0),
  Message('note_on', channel=6, note=81, velocity=99, time=0),
  Message('note_on', channel=6, note=84, velocity=99, time=0),
  Message('note_on', channel=7, note=50, velocity=89, time=0),
  Message('note_on', channel=7, note=53, velocity=89, time=0),
  Message('note_on', channel=7, note=57, velocity=89, time=0),
  Message('note_on', channel=7, note=60, velocity=89, time=0),
  Message('note_on', channel=9, note=49, velocity=120, time=0),
  Message('note_on', channel=9, note=70, velocity=78, time=0),
  Message('note_on', channel=9, note=60, velocity=96, time=0),
  Message('note_on', channel=9, note=49, velocity=0, time=1),
  Message('note_on', channel=9, note=70, velocity=0, time=0),
  Message('note_on', channel=9, note=60, velocity=0, time=0),
  Message('note_on', channel=9, note=70, velocity=64, time=119),
  Message('note_on', channel=9, note=70, velocity=0, time=1),
  Message('note_on', channel=9, note=70, velocity=120, time=119),
  Message('note_on', channel=9, note=70, velocity=0, time=1),
  Message('note_on', channel=0, note=36, velocity=0, time=99),
  Message('note_on', channel=0, note=46, velocity=0, time=0),
  Message('note_on', channel=1, note=74, velocity=0, time=0),
  Message('note_on', channel=1, note=77, velocity=0, time=0),
  Message('note_on', channel=1, note=81, velocity=0, time=0),
  Message('note_on', channel=1, note=84, velocity=0, time=0),
  Message('note_on', channel=4, note=62, velocity=0, time=0),
  Message('note_on', channel=4, note=65, velocity=0, time=0),
  Message('note_on', channel=4, note=69, velocity=0, time=0),
  Message('note_on', channel=4, note=72, velocity=0, time=0),
  Message('note_on', channel=6, note=74, velocity=0, time=0),
  Message('note_on', channel=6, note=77, velocity=0, time=0),
  Message('note_on', channel=6, note=81, velocity=0, time=0),
  Message('note_on', channel=6, note=84, velocity=0, time=0),
  Message('note_on', channel=7, note=50, velocity=0, time=0),
  Message('note_on', channel=7, note=53, velocity=0, time=0),
  Message('note_on', channel=7, note=57, velocity=0, time=0),
  Message('note_on', channel=7, note=60, velocity=0, time=0),
  Message('note_on', channel=0, note=35, velocity=64, time=20),
  Message('note_on', channel=1, note=77, velocity=114, time=0),
  Message('note_on', channel=4, note=65, velocity=104, time=0),
  Message('note_on', channel=6, note=77, velocity=99, time=0),
  Message('note_on', channel=7, note=53, velocity=89, time=0),
  Message('note_on', channel=9, note=46, velocity=106, time=0),
  Message('note_on', channel=9, note=70, velocity=120, time=0),
  Message('note_on', channel=9, note=60, velocity=96, time=0),
  Message('note_on', channel=9, note=46, velocity=0, time=1),
  Message('note_on', channel=9, note=70, velocity=0, time=0),
  Message('note_on', channel=9, note=60, velocity=0, time=0),
  Message('note_on', channel=9, note=70, velocity=78, time=119),
  Message('note_on', channel=9, note=61, velocity=82, time=0),
  Message('note_on', channel=9, note=70, velocity=0, time=1),
  Message('note_on', channel=9, note=61, velocity=0, time=0),
  Message('note_on', channel=9, note=70, velocity=64, time=119),
  Message('note_on', channel=9, note=61, velocity=82, time=0),
  Message('note_on', channel=9, note=70, velocity=0, time=1),
  Message('note_on', channel=9, note=61, velocity=0, time=0),
  Message('note_on', channel=0, note=35, velocity=0, time=99),
  Message('note_on', channel=1, note=77, velocity=0, time=0),
  Message('note_on', channel=4, note=65, velocity=0, time=0),
  Message('note_on', channel=6, note=77, velocity=0, time=0),
  Message('note_on', channel=7, note=53, velocity=0, time=0),
  Message('note_on', channel=0, note=34, velocity=64, time=20),
  Message('note_on', channel=0, note=44, velocity=64, time=0),
  Message('note_on', channel=1, note=72, velocity=114, time=0),
  Message('note_on', channel=1, note=75, velocity=114, time=0),
  Message('note_on', channel=1, note=79, velocity=114, time=0),
  Message('note_on', channel=1, note=82, velocity=114, time=0),
  Message('note_on', channel=4, note=60, velocity=104, time=0),
  Message('note_on', channel=4, note=63, velocity=104, time=0),
  Message('note_on', channel=4, note=67, velocity=104, time=0),
  Message('note_on', channel=4, note=70, velocity=104, time=0),
  Message('note_on', channel=6, note=72, velocity=99, time=0),
  Message('note_on', channel=6, note=75, velocity=99, time=0),
  Message('note_on', channel=6, note=79, velocity=99, time=0),
  Message('note_on', channel=6, note=82, velocity=99, time=0),
  Message('note_on', channel=7, note=48, velocity=89, time=0),
  Message('note_on', channel=7, note=51, velocity=89, time=0),
  Message('note_on', channel=7, note=55, velocity=89, time=0),
  Message('note_on', channel=7, note=58, velocity=89, time=0),
  Message('note_on', channel=9, note=70, velocity=120, time=0),
  Message('note_on', channel=9, note=61, velocity=82, time=0),
  Message('note_on', channel=9, note=70, velocity=0, time=1),
  Message('note_on', channel=9, note=61, velocity=0, time=0),
  Message('note_on', channel=9, note=42, velocity=106, time=119),
  Message('note_on', channel=9, note=70, velocity=120, time=0),
  Message('note_on', channel=9, note=42, velocity=0, time=1),
  Message('note_on', channel=9, note=70, velocity=0, time=0),
  Message('note_on', channel=9, note=70, velocity=78, time=119),
  Message('note_on', channel=9, note=60, velocity=96, time=0),
  Message('note_on', channel=9, note=70, velocity=0, time=1),
  Message('note_on', channel=9, note=60, velocity=0, time=0),
  Message('note_on', channel=9, note=40, velocity=92, time=119),
  Message('note_on', channel=9, note=70, velocity=64, time=0),
  Message('note_on', channel=9, note=40, velocity=0, time=1),
  Message('note_on', channel=9, note=70, velocity=0, time=0),
  Message('note_on', channel=9, note=70, velocity=120, time=119),
  Message('note_on', channel=9, note=70, velocity=0, time=1),
  Message('note_on', channel=9, note=46, velocity=106, time=119),
  Message('note_on', channel=9, note=70, velocity=120, time=0),
  Message('note_on', channel=9, note=60, velocity=96, time=0),
  Message('note_on', channel=9, note=46, velocity=0, time=1),
  Message('note_on', channel=9, note=70, velocity=0, time=0),
  Message('note_on', channel=9, note=60, velocity=0, time=0),
  Message('note_on', channel=0, note=34, velocity=0, time=89),
  Message('note_on', channel=0, note=44, velocity=0, time=0),
  Message('note_on', channel=1, note=72, velocity=0, time=0),
  Message('note_on', channel=1, note=75, velocity=0, time=0),
  Message('note_on', channel=1, note=79, velocity=0, time=0),
  Message('note_on', channel=1, note=82, velocity=0, time=0),
  Message('note_on', channel=4, note=60, velocity=0, time=0),
  Message('note_on', channel=4, note=63, velocity=0, time=0),
  Message('note_on', channel=4, note=67, velocity=0, time=0),
  Message('note_on', channel=4, note=70, velocity=0, time=0),
  Message('note_on', channel=6, note=72, velocity=0, time=0),
  Message('note_on', channel=6, note=75, velocity=0, time=0),
  Message('note_on', channel=6, note=79, velocity=0, time=0),
  Message('note_on', channel=6, note=82, velocity=0, time=0),
  Message('note_on', channel=7, note=48, velocity=0, time=0),
  Message('note_on', channel=7, note=51, velocity=0, time=0),
  Message('note_on', channel=7, note=55, velocity=0, time=0),
  Message('note_on', channel=7, note=58, velocity=0, time=0),
  Message('note_on', channel=0, note=33, velocity=64, time=30),
  Message('note_on', channel=1, note=75, velocity=114, time=0),
  Message('note_on', channel=4, note=63, velocity=104, time=0),
  Message('note_on', channel=6, note=75, velocity=99, time=0),
  Message('note_on', channel=7, note=51, velocity=89, time=0),
  Message('note_on', channel=9, note=70, velocity=78, time=0),
  Message('note_on', channel=9, note=61, velocity=82, time=0),
  Message('note_on', channel=9, note=70, velocity=0, time=1),
  Message('note_on', channel=9, note=61, velocity=0, time=0),
  Message('note_on', channel=9, note=70, velocity=64, time=119),
  Message('note_on', channel=9, note=61, velocity=82, time=0),
  Message('note_on', channel=9, note=70, velocity=0, time=1),
  Message('note_on', channel=9, note=61, velocity=0, time=0),
  Message('note_on', channel=9, note=70, velocity=120, time=119),
  Message('note_on', channel=9, note=61, velocity=82, time=0),
  Message('note_on', channel=9, note=70, velocity=0, time=1),
  Message('note_on', channel=9, note=61, velocity=0, time=0),
  Message('note_on', channel=0, note=33, velocity=0, time=99),
  Message('note_on', channel=1, note=75, velocity=0, time=0),
  Message('note_on', channel=4, note=63, velocity=0, time=0),
  Message('note_on', channel=6, note=75, velocity=0, time=0),
  Message('note_on', channel=7, note=51, velocity=0, time=0),
  Message('note_on', channel=0, note=32, velocity=64, time=20),
  Message('note_on', channel=0, note=43, velocity=64, time=0),
  Message('note_on', channel=1, note=70, velocity=114, time=0),
  Message('note_on', channel=1, note=73, velocity=114, time=0),
  Message('note_on', channel=1, note=75, velocity=114, time=0),
  Message('note_on', channel=1, note=80, velocity=114, time=0),
  Message('note_on', channel=4, note=58, velocity=104, time=0),
  Message('note_on', channel=4, note=61, velocity=104, time=0),
  Message('note_on', channel=4, note=63, velocity=104, time=0),
  Message('note_on', channel=4, note=68, velocity=104, time=0),
  Message('note_on', channel=6, note=70, velocity=99, time=0),
  Message('note_on', channel=6, note=73, velocity=99, time=0),
  Message('note_on', channel=6, note=75, velocity=99, time=0),
  Message('note_on', channel=6, note=80, velocity=99, time=0),
  Message('note_on', channel=7, note=46, velocity=89, time=0),
  Message('note_on', channel=7, note=49, velocity=89, time=0),
  Message('note_on', channel=7, note=51, velocity=89, time=0),
  Message('note_on', channel=7, note=56, velocity=89, time=0),
  Message('note_on', channel=9, note=42, velocity=106, time=0),
  Message('note_on', channel=9, note=70, velocity=120, time=0),
  Message('note_on', channel=9, note=42, velocity=0, time=1),
  Message('note_on', channel=9, note=70, velocity=0, time=0),
  Message('note_on', channel=9, note=70, velocity=78, time=119),
  Message('note_on', channel=9, note=60, velocity=96, time=0),
  Message('note_on', channel=9, note=70, velocity=0, time=1),
  Message('note_on', channel=9, note=60, velocity=0, time=0),
  Message('note_on', channel=9, note=40, velocity=92, time=119),
  Message('note_on', channel=9, note=70, velocity=64, time=0),
  Message('note_on', channel=9, note=40, velocity=0, time=1),
  Message('note_on', channel=9, note=70, velocity=0, time=0),
  Message('note_on', channel=9, note=70, velocity=120, time=119),
  Message('note_on', channel=9, note=70, velocity=0, time=1),
  Message('note_on', channel=9, note=46, velocity=106, time=119),
  Message('note_on', channel=9, note=70, velocity=120, time=0),
  Message('note_on', channel=9, note=60, velocity=96, time=0),
  Message('note_on', channel=9, note=46, velocity=0, time=1),
  Message('note_on', channel=9, note=70, velocity=0, time=0),
  Message('note_on', channel=9, note=60, velocity=0, time=0),
  Message('note_on', channel=0, note=32, velocity=0, time=89),
  Message('note_on', channel=0, note=43, velocity=0, time=0),
  Message('note_on', channel=1, note=70, velocity=0, time=0),
  Message('note_on', channel=1, note=73, velocity=0, time=0),
  Message('note_on', channel=1, note=75, velocity=0, time=0),
  Message('note_on', channel=1, note=80, velocity=0, time=0),
  Message('note_on', channel=4, note=58, velocity=0, time=0),
  Message('note_on', channel=4, note=61, velocity=0, time=0),
  Message('note_on', channel=4, note=63, velocity=0, time=0),
  Message('note_on', channel=4, note=68, velocity=0, time=0),
  Message('note_on', channel=6, note=70, velocity=0, time=0),
  Message('note_on', channel=6, note=73, velocity=0, time=0),
  Message('note_on', channel=6, note=75, velocity=0, time=0),
  Message('note_on', channel=6, note=80, velocity=0, time=0),
  Message('note_on', channel=7, note=46, velocity=0, time=0),
  Message('note_on', channel=7, note=49, velocity=0, time=0),
  Message('note_on', channel=7, note=51, velocity=0, time=0),
  Message('note_on', channel=7, note=56, velocity=0, time=0),
  Message('note_on', channel=0, note=31, velocity=64, time=30),
  Message('note_on', channel=1, note=71, velocity=114, time=0),
  Message('note_on', channel=4, note=59, velocity=104, time=0),
  Message('note_on', channel=6, note=71, velocity=99, time=0),
  Message('note_on', channel=7, note=47, velocity=89, time=0),
  Message('note_on', channel=9, note=70, velocity=78, time=0),
  Message('note_on', channel=9, note=61, velocity=82, time=0),
  Message('note_on', channel=9, note=70, velocity=0, time=1),
  Message('note_on', channel=9, note=61, velocity=0, time=0),
  Message('note_on', channel=9, note=70, velocity=64, time=119),
  Message('note_on', channel=9, note=61, velocity=82, time=0),
  Message('note_on', channel=9, note=70, velocity=0, time=1),
  Message('note_on', channel=9, note=61, velocity=0, time=0),
  Message('note_on', channel=9, note=70, velocity=120, time=119),
  Message('note_on', channel=9, note=61, velocity=82, time=0),
  Message('note_on', channel=9, note=70, velocity=0, time=1),
  Message('note_on', channel=9, note=61, velocity=0, time=0),
  Message('note_on', channel=0, note=31, velocity=0, time=99),
  Message('note_on', channel=1, note=71, velocity=0, time=0),
  Message('note_on', channel=4, note=59, velocity=0, time=0),
  Message('note_on', channel=6, note=71, velocity=0, time=0),
  Message('note_on', channel=7, note=47, velocity=0, time=0),
  Message('note_on', channel=0, note=30, velocity=64, time=20),
  Message('note_on', channel=0, note=40, velocity=64, time=0),
  Message('note_on', channel=1, note=69, velocity=114, time=0),
  Message('note_on', channel=1, note=72, velocity=114, time=0),
  Message('note_on', channel=1, note=78, velocity=114, time=0),
  Message('note_on', channel=4, note=57, velocity=104, time=0),
  Message('note_on', channel=4, note=60, velocity=104, time=0),
  Message('note_on', channel=4, note=66, velocity=104, time=0),
  Message('note_on', channel=6, note=69, velocity=99, time=0),
  Message('note_on', channel=6, note=72, velocity=99, time=0),
  Message('note_on', channel=6, note=78, velocity=99, time=0),
  Message('note_on', channel=7, note=45, velocity=89, time=0),
  Message('note_on', channel=7, note=48, velocity=89, time=0),
  Message('note_on', channel=7, note=54, velocity=89, time=0),
  Message('note_on', channel=9, note=42, velocity=106, time=0),
  Message('note_on', channel=9, note=70, velocity=120, time=0),
  Message('note_on', channel=9, note=42, velocity=0, time=1),
  Message('note_on', channel=9, note=70, velocity=0, time=0),
  Message('note_on', channel=9, note=70, velocity=78, time=119),
  Message('note_on', channel=9, note=60, velocity=96, time=0),
  Message('note_on', channel=9, note=70, velocity=0, time=1),
  Message('note_on', channel=9, note=60, velocity=0, time=0),
  Message('note_on', channel=9, note=40, velocity=92, time=119),
  Message('note_on', channel=9, note=70, velocity=64, time=0),
  Message('note_on', channel=9, note=40, velocity=0, time=1),
  Message('note_on', channel=9, note=70, velocity=0, time=0),
  Message('note_on', channel=9, note=70, velocity=120, time=119),
  Message('note_on', channel=9, note=70, velocity=0, time=1),
  Message('note_on', channel=9, note=46, velocity=106, time=119),
  Message('note_on', channel=9, note=70, velocity=120, time=0),
  Message('note_on', channel=9, note=60, velocity=96, time=0),
  Message('note_on', channel=9, note=46, velocity=0, time=1),
  Message('note_on', channel=9, note=70, velocity=0, time=0),
  Message('note_on', channel=9, note=60, velocity=0, time=0),
  Message('note_on', channel=0, note=30, velocity=0, time=89),
  Message('note_on', channel=0, note=40, velocity=0, time=0),
  Message('note_on', channel=1, note=69, velocity=0, time=0),
  Message('note_on', channel=1, note=72, velocity=0, time=0),
  Message('note_on', channel=1, note=78, velocity=0, time=0),
  Message('note_on', channel=4, note=57, velocity=0, time=0),
  Message('note_on', channel=4, note=60, velocity=0, time=0),
  Message('note_on', channel=4, note=66, velocity=0, time=0),
  Message('note_on', channel=6, note=69, velocity=0, time=0),
  Message('note_on', channel=6, note=72, velocity=0, time=0),
  Message('note_on', channel=6, note=78, velocity=0, time=0),
  Message('note_on', channel=7, note=45, velocity=0, time=0),
  Message('note_on', channel=7, note=48, velocity=0, time=0),
  Message('note_on', channel=7, note=54, velocity=0, time=0),
  Message('note_on', channel=0, note=29, velocity=64, time=30),
  Message('note_on', channel=1, note=71, velocity=114, time=0),
  Message('note_on', channel=4, note=59, velocity=104, time=0),
  Message('note_on', channel=6, note=71, velocity=99, time=0),
  Message('note_on', channel=7, note=47, velocity=89, time=0),
  Message('note_on', channel=9, note=70, velocity=78, time=0),
  Message('note_on', channel=9, note=61, velocity=96, time=0),
  Message('note_on', channel=9, note=70, velocity=0, time=1),
  Message('note_on', channel=9, note=61, velocity=0, time=0),
  Message('note_on', channel=9, note=61, velocity=96, time=59),
  Message('note_on', channel=9, note=61, velocity=0, time=1),
  Message('note_on', channel=9, note=70, velocity=64, time=59),
  Message('note_on', channel=9, note=61, velocity=96, time=0),
  Message('note_on', channel=9, note=70, velocity=0, time=1),
  Message('note_on', channel=9, note=61, velocity=0, time=0),
  Message('note_on', channel=9, note=61, velocity=96, time=59),
  Message('note_on', channel=9, note=61, velocity=0, time=1),
  Message('note_on', channel=9, note=70, velocity=120, time=59),
  Message('note_on', channel=9, note=60, velocity=96, time=0),
  Message('note_on', channel=9, note=70, velocity=0, time=1),
  Message('note_on', channel=9, note=60, velocity=0, time=0),
  Message('note_on', channel=0, note=29, velocity=0, time=99),
  Message('note_on', channel=1, note=71, velocity=0, time=0),
  Message('note_on', channel=4, note=59, velocity=0, time=0),
  Message('note_on', channel=6, note=71, velocity=0, time=0),
  Message('note_on', channel=7, note=47, velocity=0, time=0),
  Message('note_on', channel=0, note=28, velocity=64, time=20),
  Message('note_on', channel=1, note=67, velocity=114, time=0),
  Message('note_on', channel=1, note=71, velocity=114, time=0),
  Message('note_on', channel=1, note=76, velocity=114, time=0),
  Message('note_on', channel=4, note=55, velocity=104, time=0),
  Message('note_on', channel=4, note=59, velocity=104, time=0),
  Message('note_on', channel=4, note=64, velocity=104, time=0),
  Message('note_on', channel=6, note=67, velocity=99, time=0),
  Message('note_on', channel=6, note=71, velocity=99, time=0),
  Message('note_on', channel=6, note=76, velocity=99, time=0),
  Message('note_on', channel=7, note=43, velocity=89, time=0),
  Message('note_on', channel=7, note=47, velocity=89, time=0),
  Message('note_on', channel=7, note=52, velocity=89, time=0),
  Message('note_on', channel=9, note=42, velocity=106, time=0),
  Message('note_on', channel=9, note=70, velocity=120, time=0),
  Message('note_on', channel=9, note=61, velocity=96, time=0),
  Message('note_on', channel=9, note=42, velocity=0, time=1),
  Message('note_on', channel=9, note=70, velocity=0, time=0),
  Message('note_on', channel=9, note=61, velocity=0, time=0),
  Message('note_on', channel=0, note=28, velocity=0, time=99),
  Message('note_on', channel=0, note=24, velocity=64, time=20),
  Message('note_on', channel=9, note=40, velocity=120, time=0),
  Message('note_on', channel=9, note=60, velocity=110, time=0),
  Message('note_on', channel=9, note=61, velocity=110, time=0),
  Message('note_on', channel=9, note=40, velocity=0, time=1),
  Message('note_on', channel=9, note=60, velocity=0, time=0),
  Message('note_on', channel=9, note=61, velocity=0, time=0),
  Message('note_on', channel=1, note=67, velocity=0, time=119),
  Message('note_on', channel=1, note=71, velocity=0, time=0),
  Message('note_on', channel=1, note=76, velocity=0, time=0),
  Message('note_on', channel=4, note=55, velocity=0, time=0),
  Message('note_on', channel=4, note=59, velocity=0, time=0),
  Message('note_on', channel=4, note=64, velocity=0, time=0),
  Message('note_on', channel=6, note=67, velocity=0, time=0),
  Message('note_on', channel=6, note=71, velocity=0, time=0),
  Message('note_on', channel=6, note=76, velocity=0, time=0),
  Message('note_on', channel=7, note=43, velocity=0, time=0),
  Message('note_on', channel=7, note=47, velocity=0, time=0),
  Message('note_on', channel=7, note=52, velocity=0, time=0),
  Message('note_on', channel=3, note=84, velocity=104, time=120),
  Message('note_on', channel=3, note=84, velocity=0, time=50),
  Message('note_on', channel=3, note=84, velocity=104, time=70),
  Message('note_on', channel=3, note=84, velocity=0, time=50),
  Message('note_on', channel=0, note=24, velocity=0, time=40),
  Message('note_on', channel=3, note=84, velocity=104, time=30),
  Message('note_on', channel=3, note=84, velocity=0, time=50),
  Message('note_on', channel=3, note=84, velocity=104, time=70),
  Message('note_on', channel=3, note=84, velocity=0, time=50),
  Message('note_on', channel=3, note=84, velocity=104, time=70),
  Message('note_on', channel=3, note=84, velocity=0, time=50),
  Message('note_on', channel=3, note=84, velocity=104, time=70),
  Message('note_on', channel=3, note=84, velocity=0, time=50),
  Message('note_on', channel=3, note=84, velocity=104, time=70),
  Message('note_on', channel=3, note=84, velocity=0, time=50),
  Message('note_on', channel=3, note=84, velocity=104, time=70),
  Message('note_on', channel=3, note=84, velocity=0, time=50),
  Message('note_on', channel=3, note=84, velocity=104, time=70),
  Message('note_on', channel=3, note=84, velocity=0, time=50),
  Message('pitchwheel', channel=3, pitch=0, time=70),
  Message('note_on', channel=3, note=84, velocity=104, time=0),
  Message('pitchwheel', channel=3, pitch=128, time=60),
  Message('pitchwheel', channel=3, pitch=256, time=20),
  Message('pitchwheel', channel=3, pitch=512, time=10),
  Message('pitchwheel', channel=3, pitch=768, time=10),
  Message('pitchwheel', channel=3, pitch=1280, time=10),
  Message('pitchwheel', channel=3, pitch=2048, time=10),
  Message('pitchwheel', channel=3, pitch=0, time=0),
  Message('note_on', channel=3, note=87, velocity=104, time=0),
  Message('note_on', channel=3, note=84, velocity=0, time=10),
  Message('note_on', channel=3, note=87, velocity=0, time=210),
  Message('note_on', channel=3, note=84, velocity=104, time=20),
  Message('note_on', channel=3, note=84, velocity=0, time=50),
  Message('note_on', channel=3, note=84, velocity=104, time=70),
  Message('note_on', channel=3, note=84, velocity=0, time=50),
  Message('note_on', channel=3, note=84, velocity=104, time=70),
  Message('note_on', channel=3, note=84, velocity=0, time=50),
  Message('pitchwheel', channel=3, pitch=0, time=70),
  Message('note_on', channel=3, note=84, velocity=104, time=0),
  Message('pitchwheel', channel=3, pitch=128, time=60),
  Message('pitchwheel', channel=3, pitch=256, time=20),
  Message('pitchwheel', channel=3, pitch=512, time=10),
  Message('pitchwheel', channel=3, pitch=768, time=10),
  Message('pitchwheel', channel=3, pitch=1280, time=10),
  Message('pitchwheel', channel=3, pitch=2048, time=10),
  Message('pitchwheel', channel=3, pitch=0, time=0),
  Message('note_on', channel=3, note=87, velocity=104, time=0),
  Message('note_on', channel=3, note=84, velocity=0, time=10),
  Message('note_on', channel=3, note=87, velocity=0, time=210),
  Message('note_on', channel=3, note=84, velocity=104, time=20),
  Message('note_on', channel=3, note=84, velocity=0, time=50),
  Message('note_on', channel=3, note=84, velocity=104, time=70),
  Message('note_on', channel=3, note=84, velocity=0, time=50),
  Message('note_on', channel=3, note=84, velocity=104, time=70),
  Message('note_on', channel=3, note=84, velocity=0, time=50),
  Message('pitchwheel', channel=3, pitch=0, time=70),
  Message('note_on', channel=3, note=84, velocity=104, time=0),
  Message('pitchwheel', channel=3, pitch=128, time=50),
  Message('pitchwheel', channel=3, pitch=256, time=20),
  Message('pitchwheel', channel=3, pitch=512, time=10),
  Message('pitchwheel', channel=3, pitch=768, time=10),
  Message('pitchwheel', channel=3, pitch=1280, time=10),
  Message('pitchwheel', channel=3, pitch=2048, time=10),
  Message('pitchwheel', channel=3, pitch=3328, time=10),
  Message('pitchwheel', channel=3, pitch=0, time=0),
  Message('note_on', channel=3, note=89, velocity=110, time=0),
  Message('note_on', channel=3, note=84, velocity=0, time=10),
  Message('note_on', channel=9, note=40, velocity=92, time=650),
  Message('note_on', channel=9, note=40, velocity=0, time=1),
  Message('note_on', channel=9, note=40, velocity=120, time=59),
  Message('note_on', channel=9, note=40, velocity=0, time=1),
  Message('note_on', channel=1, note=60, velocity=127, time=1199),
  Message('note_on', channel=1, note=72, velocity=127, time=0),
  Message('note_on', channel=4, note=36, velocity=127, time=0),
  Message('note_on', channel=4, note=48, velocity=127, time=0),
  Message('note_on', channel=6, note=60, velocity=127, time=0),
  Message('note_on', channel=6, note=72, velocity=127, time=0),
  Message('note_on', channel=7, note=48, velocity=100, time=0),
  Message('note_on', channel=7, note=36, velocity=100, time=0),
  Message('note_on', channel=9, note=40, velocity=120, time=0),
  Message('note_on', channel=9, note=49, velocity=120, time=0),
  Message('note_on', channel=9, note=70, velocity=120, time=0),
  Message('note_on', channel=9, note=60, velocity=92, time=0),
  Message('note_on', channel=12, note=48, velocity=127, time=0),
  Message('note_on', channel=12, note=60, velocity=127, time=0),
  Message('note_on', channel=13, note=48, velocity=127, time=0),
  Message('note_on', channel=13, note=60, velocity=127, time=0),
  Message('note_on', channel=9, note=40, velocity=0, time=1),
  Message('note_on', channel=9, note=49, velocity=0, time=0),
  Message('note_on', channel=9, note=70, velocity=0, time=0),
  Message('note_on', channel=9, note=60, velocity=0, time=0),
  Message('note_on', channel=9, note=70, velocity=92, time=59),
  Message('note_on', channel=9, note=60, velocity=64, time=0),
  Message('note_on', channel=9, note=70, velocity=0, time=1),
  Message('note_on', channel=9, note=60, velocity=0, time=0),
  Message('note_on', channel=9, note=46, velocity=92, time=59),
  Message('note_on', channel=9, note=70, velocity=120, time=0),
  Message('note_on', channel=9, note=60, velocity=92, time=0),
  Message('note_on', channel=9, note=46, velocity=0, time=1),
  Message('note_on', channel=9, note=70, velocity=0, time=0),
  Message('note_on', channel=9, note=60, velocity=0, time=0),
  Message('note_on', channel=9, note=46, velocity=92, time=59),
  Message('note_on', channel=9, note=70, velocity=92, time=0),
  Message('note_on', channel=9, note=60, velocity=64, time=0),
  Message('note_on', channel=9, note=46, velocity=0, time=1),
  Message('note_on', channel=9, note=70, velocity=0, time=0),
  Message('note_on', channel=9, note=60, velocity=0, time=0),
  Message('note_on', channel=9, note=46, velocity=92, time=59),
  Message('note_on', channel=9, note=70, velocity=120, time=0),
  Message('note_on', channel=9, note=60, velocity=92, time=0),
  Message('note_on', channel=9, note=46, velocity=0, time=1),
  Message('note_on', channel=9, note=70, velocity=0, time=0),
  Message('note_on', channel=9, note=60, velocity=0, time=0),
  Message('note_on', channel=9, note=46, velocity=92, time=59),
  Message('note_on', channel=9, note=70, velocity=92, time=0),
  Message('note_on', channel=9, note=60, velocity=64, time=0),
  Message('note_on', channel=9, note=46, velocity=0, time=1),
  Message('note_on', channel=9, note=70, velocity=0, time=0),
  Message('note_on', channel=9, note=60, velocity=0, time=0),
  Message('note_on', channel=9, note=46, velocity=106, time=59),
  Message('note_on', channel=9, note=70, velocity=120, time=0),
  Message('note_on', channel=9, note=60, velocity=92, time=0),
  Message('note_on', channel=9, note=46, velocity=0, time=1),
  Message('note_on', channel=9, note=70, velocity=0, time=0),
  Message('note_on', channel=9, note=60, velocity=0, time=0),
  Message('note_on', channel=9, note=46, velocity=106, time=59),
  Message('note_on', channel=9, note=70, velocity=92, time=0),
  Message('note_on', channel=9, note=60, velocity=64, time=0),
  Message('note_on', channel=9, note=46, velocity=0, time=1),
  Message('note_on', channel=9, note=70, velocity=0, time=0),
  Message('note_on', channel=9, note=60, velocity=0, time=0),
  Message('note_on', channel=9, note=46, velocity=106, time=59),
  Message('note_on', channel=9, note=70, velocity=120, time=0),
  Message('note_on', channel=9, note=60, velocity=92, time=0),
  Message('note_on', channel=9, note=46, velocity=0, time=1),
  Message('note_on', channel=9, note=70, velocity=0, time=0),
  Message('note_on', channel=9, note=60, velocity=0, time=0),
  Message('note_on', channel=9, note=46, velocity=106, time=59),
  Message('note_on', channel=9, note=70, velocity=92, time=0),
  Message('note_on', channel=9, note=60, velocity=64, time=0),
  Message('note_on', channel=9, note=46, velocity=0, time=1),
  Message('note_on', channel=9, note=70, velocity=0, time=0),
  Message('note_on', channel=9, note=60, velocity=0, time=0),
  Message('note_on', channel=9, note=46, velocity=120, time=59),
  Message('note_on', channel=9, note=70, velocity=120, time=0),
  Message('note_on', channel=9, note=60, velocity=92, time=0),
  Message('note_on', channel=9, note=46, velocity=0, time=1),
  Message('note_on', channel=9, note=70, velocity=0, time=0),
  Message('note_on', channel=9, note=60, velocity=0, time=0),
  Message('note_on', channel=9, note=46, velocity=120, time=59),
  Message('note_on', channel=9, note=70, velocity=92, time=0),
  Message('note_on', channel=9, note=60, velocity=64, time=0),
  Message('note_on', channel=9, note=46, velocity=0, time=1),
  Message('note_on', channel=9, note=70, velocity=0, time=0),
  Message('note_on', channel=9, note=60, velocity=0, time=0),
  Message('note_on', channel=9, note=46, velocity=120, time=59),
  Message('note_on', channel=9, note=70, velocity=120, time=0),
  Message('note_on', channel=9, note=60, velocity=92, time=0),
  Message('note_on', channel=9, note=46, velocity=0, time=1),
  Message('note_on', channel=9, note=70, velocity=0, time=0),
  Message('note_on', channel=9, note=60, velocity=0, time=0),
  Message('note_on', channel=9, note=46, velocity=120, time=59),
  Message('note_on', channel=9, note=70, velocity=92, time=0),
  Message('note_on', channel=9, note=60, velocity=64, time=0),
  Message('note_on', channel=9, note=46, velocity=0, time=1),
  Message('note_on', channel=9, note=70, velocity=0, time=0),
  Message('note_on', channel=9, note=60, velocity=0, time=0),
  Message('note_on', channel=3, note=89, velocity=0, time=39),
  Message('note_on', channel=3, note=84, velocity=107, time=20),
  Message('note_on', channel=9, note=46, velocity=120, time=0),
  Message('note_on', channel=9, note=70, velocity=120, time=0),
  Message('note_on', channel=9, note=60, velocity=92, time=0),
  Message('note_on', channel=9, note=46, velocity=0, time=1),
  Message('note_on', channel=9, note=70, velocity=0, time=0),
  Message('note_on', channel=9, note=60, velocity=0, time=0),
  Message('note_on', channel=9, note=46, velocity=120, time=59),
  Message('note_on', channel=9, note=70, velocity=92, time=0),
  Message('note_on', channel=9, note=60, velocity=64, time=0),
  Message('note_on', channel=9, note=46, velocity=0, time=1),
  Message('note_on', channel=9, note=70, velocity=0, time=0),
  Message('note_on', channel=9, note=60, velocity=0, time=0),
  Message('note_on', channel=3, note=84, velocity=0, time=39),
  Message('note_on', channel=3, note=79, velocity=110, time=20),
  Message('note_on', channel=9, note=49, velocity=120, time=0),
  Message('note_on', channel=9, note=70, velocity=120, time=0),
  Message('note_on', channel=9, note=61, velocity=92, time=0),
  Message('note_on', channel=9, note=49, velocity=0, time=1),
  Message('note_on', channel=9, note=70, velocity=0, time=0),
  Message('note_on', channel=9, note=61, velocity=0, time=0),
  Message('note_on', channel=9, note=70, velocity=92, time=59),
  Message('note_on', channel=9, note=61, velocity=64, time=0),
  Message('note_on', channel=9, note=70, velocity=0, time=1),
  Message('note_on', channel=9, note=61, velocity=0, time=0),
  Message('note_on', channel=3, note=79, velocity=0, time=59),
  Message('note_on', channel=3, note=78, velocity=110, time=0),
  Message('note_on', channel=9, note=48, velocity=120, time=0),
  Message('note_on', channel=9, note=70, velocity=120, time=0),
  Message('note_on', channel=9, note=61, velocity=92, time=0),
  Message('note_on', channel=9, note=48, velocity=0, time=1),
  Message('note_on', channel=9, note=70, velocity=0, time=0),
  Message('note_on', channel=9, note=61, velocity=0, time=0),
  Message('note_on', channel=9, note=48, velocity=92, time=59),
  Message('note_on', channel=9, note=70, velocity=92, time=0),
  Message('note_on', channel=9, note=61, velocity=64, time=0),
  Message('note_on', channel=9, note=48, velocity=0, time=1),
  Message('note_on', channel=9, note=70, velocity=0, time=0),
  Message('note_on', channel=9, note=61, velocity=0, time=0),
  Message('note_on', channel=3, note=78, velocity=0, time=59),
  Message('note_on', channel=3, note=77, velocity=110, time=0),
  Message('note_on', channel=9, note=48, velocity=120, time=0),
  Message('note_on', channel=9, note=70, velocity=120, time=0),
  Message('note_on', channel=9, note=61, velocity=92, time=0),
  Message('note_on', channel=9, note=48, velocity=0, time=1),
  Message('note_on', channel=9, note=70, velocity=0, time=0),
  Message('note_on', channel=9, note=61, velocity=0, time=0),
  Message('note_on', channel=9, note=45, velocity=92, time=59),
  Message('note_on', channel=9, note=70, velocity=92, time=0),
  Message('note_on', channel=9, note=61, velocity=64, time=0),
  Message('note_on', channel=9, note=45, velocity=0, time=1),
  Message('note_on', channel=9, note=70, velocity=0, time=0),
  Message('note_on', channel=9, note=61, velocity=0, time=0),
  Message('note_on', channel=3, note=77, velocity=0, time=59),
  Message('note_on', channel=3, note=75, velocity=110, time=0),
  Message('note_on', channel=9, note=45, velocity=120, time=0),
  Message('note_on', channel=9, note=70, velocity=120, time=0),
  Message('note_on', channel=9, note=61, velocity=92, time=0),
  Message('note_on', channel=9, note=45, velocity=0, time=1),
  Message('note_on', channel=9, note=70, velocity=0, time=0),
  Message('note_on', channel=9, note=61, velocity=0, time=0),
  Message('note_on', channel=9, note=70, velocity=92, time=59),
  Message('note_on', channel=9, note=61, velocity=64, time=0),
  Message('note_on', channel=9, note=70, velocity=0, time=1),
  Message('note_on', channel=9, note=61, velocity=0, time=0),
  Message('note_on', channel=3, note=75, velocity=0, time=59),
  Message('note_on', channel=3, note=72, velocity=110, time=0),
  Message('note_on', channel=9, note=45, velocity=92, time=0),
  Message('note_on', channel=9, note=70, velocity=120, time=0),
  Message('note_on', channel=9, note=61, velocity=92, time=0),
  Message('note_on', channel=9, note=45, velocity=0, time=1),
  Message('note_on', channel=9, note=70, velocity=0, time=0),
  Message('note_on', channel=9, note=61, velocity=0, time=0),
  Message('note_on', channel=9, note=70, velocity=92, time=59),
  Message('note_on', channel=9, note=61, velocity=64, time=0),
  Message('note_on', channel=9, note=70, velocity=0, time=1),
  Message('note_on', channel=9, note=61, velocity=0, time=0),
  Message('note_on', channel=3, note=72, velocity=0, time=59),
  Message('note_on', channel=3, note=70, velocity=110, time=0),
  Message('note_on', channel=9, note=49, velocity=120, time=0),
  Message('note_on', channel=9, note=70, velocity=120, time=0),
  Message('note_on', channel=9, note=61, velocity=92, time=0),
  Message('note_on', channel=9, note=49, velocity=0, time=1),
  Message('note_on', channel=9, note=70, velocity=0, time=0),
  Message('note_on', channel=9, note=61, velocity=0, time=0),
  Message('note_on', channel=9, note=70, velocity=92, time=59),
  Message('note_on', channel=9, note=61, velocity=64, time=0),
  Message('note_on', channel=9, note=70, velocity=0, time=1),
  Message('note_on', channel=9, note=61, velocity=0, time=0),
  Message('note_on', channel=3, note=70, velocity=0, time=59),
  Message('note_on', channel=3, note=67, velocity=110, time=0),
  Message('note_on', channel=9, note=48, velocity=120, time=0),
  Message('note_on', channel=9, note=70, velocity=120, time=0),
  Message('note_on', channel=9, note=61, velocity=92, time=0),
  Message('note_on', channel=9, note=48, velocity=0, time=1),
  Message('note_on', channel=9, note=70, velocity=0, time=0),
  Message('note_on', channel=9, note=61, velocity=0, time=0),
  Message('note_on', channel=9, note=48, velocity=92, time=59),
  Message('note_on', channel=9, note=70, velocity=92, time=0),
  Message('note_on', channel=9, note=61, velocity=64, time=0),
  Message('note_on', channel=9, note=48, velocity=0, time=1),
  Message('note_on', channel=9, note=70, velocity=0, time=0),
  Message('note_on', channel=9, note=61, velocity=0, time=0),
  Message('note_on', channel=3, note=67, velocity=0, time=59),
  Message('note_on', channel=3, note=65, velocity=110, time=0),
  Message('note_on', channel=9, note=48, velocity=120, time=0),
  Message('note_on', channel=9, note=70, velocity=120, time=0),
  Message('note_on', channel=9, note=61, velocity=92, time=0),
  Message('note_on', channel=9, note=48, velocity=0, time=1),
  Message('note_on', channel=9, note=70, velocity=0, time=0),
  Message('note_on', channel=9, note=61, velocity=0, time=0),
  Message('note_on', channel=9, note=45, velocity=92, time=59),
  Message('note_on', channel=9, note=70, velocity=92, time=0),
  Message('note_on', channel=9, note=61, velocity=64, time=0),
  Message('note_on', channel=9, note=45, velocity=0, time=1),
  Message('note_on', channel=9, note=70, velocity=0, time=0),
  Message('note_on', channel=9, note=61, velocity=0, time=0),
  Message('note_on', channel=3, note=65, velocity=0, time=59),
  Message('note_on', channel=3, note=63, velocity=110, time=0),
  Message('note_on', channel=9, note=45, velocity=120, time=0),
  Message('note_on', channel=9, note=70, velocity=120, time=0),
  Message('note_on', channel=9, note=60, velocity=92, time=0),
  Message('note_on', channel=9, note=45, velocity=0, time=1),
  Message('note_on', channel=9, note=70, velocity=0, time=0),
  Message('note_on', channel=9, note=60, velocity=0, time=0),
  Message('note_on', channel=9, note=70, velocity=92, time=59),
  Message('note_on', channel=9, note=60, velocity=64, time=0),
  Message('note_on', channel=9, note=70, velocity=0, time=1),
  Message('note_on', channel=9, note=60, velocity=0, time=0),
  Message('note_on', channel=3, note=63, velocity=0, time=59),
  Message('note_on', channel=3, note=60, velocity=110, time=0),
  Message('note_on', channel=9, note=45, velocity=92, time=0),
  Message('note_on', channel=9, note=70, velocity=120, time=0),
  Message('note_on', channel=9, note=60, velocity=92, time=0),
  Message('note_on', channel=9, note=45, velocity=0, time=1),
  Message('note_on', channel=9, note=70, velocity=0, time=0),
  Message('note_on', channel=9, note=60, velocity=0, time=0),
  Message('note_on', channel=9, note=70, velocity=92, time=59),
  Message('note_on', channel=9, note=60, velocity=64, time=0),
  Message('note_on', channel=9, note=70, velocity=0, time=1),
  Message('note_on', channel=9, note=60, velocity=0, time=0),
  Message('note_on', channel=3, note=60, velocity=0, time=59),
  Message('note_on', channel=3, note=58, velocity=110, time=0),
  Message('note_on', channel=9, note=49, velocity=120, time=0),
  Message('note_on', channel=9, note=70, velocity=120, time=0),
  Message('note_on', channel=9, note=60, velocity=92, time=0),
  Message('note_on', channel=9, note=49, velocity=0, time=1),
  Message('note_on', channel=9, note=70, velocity=0, time=0),
  Message('note_on', channel=9, note=60, velocity=0, time=0),
  Message('note_on', channel=9, note=70, velocity=92, time=59),
  Message('note_on', channel=9, note=60, velocity=64, time=0),
  Message('note_on', channel=9, note=70, velocity=0, time=1),
  Message('note_on', channel=9, note=60, velocity=0, time=0),
  Message('note_on', channel=3, note=58, velocity=0, time=59),
  Message('note_on', channel=3, note=53, velocity=110, time=0),
  Message('note_on', channel=9, note=48, velocity=120, time=0),
  Message('note_on', channel=9, note=70, velocity=120, time=0),
  Message('note_on', channel=9, note=60, velocity=92, time=0),
  Message('note_on', channel=9, note=48, velocity=0, time=1),
  Message('note_on', channel=9, note=70, velocity=0, time=0),
  Message('note_on', channel=9, note=60, velocity=0, time=0),
  Message('note_on', channel=9, note=48, velocity=92, time=59),
  Message('note_on', channel=9, note=70, velocity=92, time=0),
  Message('note_on', channel=9, note=60, velocity=64, time=0),
  Message('note_on', channel=9, note=48, velocity=0, time=1),
  Message('note_on', channel=9, note=70, velocity=0, time=0),
  Message('note_on', channel=9, note=60, velocity=0, time=0),
  Message('note_on', channel=9, note=48, velocity=120, time=59),
  Message('note_on', channel=9, note=70, velocity=120, time=0),
  Message('note_on', channel=9, note=61, velocity=92, time=0),
  Message('note_on', channel=9, note=48, velocity=0, time=1),
  Message('note_on', channel=9, note=70, velocity=0, time=0),
  Message('note_on', channel=9, note=61, velocity=0, time=0),
  Message('note_on', channel=9, note=48, velocity=92, time=59),
  Message('note_on', channel=9, note=70, velocity=92, time=0),
  Message('note_on', channel=9, note=61, velocity=64, time=0),
  Message('note_on', channel=9, note=48, velocity=0, time=1),
  Message('note_on', channel=9, note=70, velocity=0, time=0),
  Message('note_on', channel=9, note=61, velocity=0, time=0),
  Message('note_on', channel=9, note=45, velocity=120, time=59),
  Message('note_on', channel=9, note=70, velocity=120, time=0),
  Message('note_on', channel=9, note=61, velocity=92, time=0),
  Message('note_on', channel=9, note=45, velocity=0, time=1),
  Message('note_on', channel=9, note=70, velocity=0, time=0),
  Message('note_on', channel=9, note=61, velocity=0, time=0),
  Message('note_on', channel=9, note=45, velocity=92, time=59),
  Message('note_on', channel=9, note=70, velocity=92, time=0),
  Message('note_on', channel=9, note=61, velocity=64, time=0),
  Message('note_on', channel=9, note=45, velocity=0, time=1),
  Message('note_on', channel=9, note=70, velocity=0, time=0),
  Message('note_on', channel=9, note=61, velocity=0, time=0),
  Message('note_on', channel=9, note=45, velocity=120, time=59),
  Message('note_on', channel=9, note=70, velocity=120, time=0),
  Message('note_on', channel=9, note=61, velocity=92, time=0),
  Message('note_on', channel=9, note=45, velocity=0, time=1),
  Message('note_on', channel=9, note=70, velocity=0, time=0),
  Message('note_on', channel=9, note=61, velocity=0, time=0),
  Message('note_on', channel=9, note=45, velocity=92, time=59),
  Message('note_on', channel=9, note=70, velocity=92, time=0),
  Message('note_on', channel=9, note=61, velocity=64, time=0),
  Message('note_on', channel=9, note=45, velocity=0, time=1),
  Message('note_on', channel=9, note=70, velocity=0, time=0),
  Message('note_on', channel=9, note=61, velocity=0, time=0),
  Message('note_on', channel=9, note=49, velocity=120, time=59),
  Message('note_on', channel=9, note=70, velocity=120, time=0),
  Message('note_on', channel=9, note=61, velocity=92, time=0),
  Message('note_on', channel=9, note=49, velocity=0, time=1),
  Message('note_on', channel=9, note=70, velocity=0, time=0),
  Message('note_on', channel=9, note=61, velocity=0, time=0),
  Message('note_on', channel=9, note=70, velocity=92, time=59),
  Message('note_on', channel=9, note=61, velocity=64, time=0),
  Message('note_on', channel=9, note=70, velocity=0, time=1),
  Message('note_on', channel=9, note=61, velocity=0, time=0),
  Message('note_on', channel=9, note=48, velocity=120, time=59),
  Message('note_on', channel=9, note=70, velocity=120, time=0),
  Message('note_on', channel=9, note=60, velocity=92, time=0),
  Message('note_on', channel=9, note=48, velocity=0, time=1),
  Message('note_on', channel=9, note=70, velocity=0, time=0),
  Message('note_on', channel=9, note=60, velocity=0, time=0),
  Message('note_on', channel=9, note=48, velocity=92, time=59),
  Message('note_on', channel=9, note=70, velocity=92, time=0),
  Message('note_on', channel=9, note=60, velocity=64, time=0),
  Message('note_on', channel=9, note=48, velocity=0, time=1),
  Message('note_on', channel=9, note=70, velocity=0, time=0),
  Message('note_on', channel=9, note=60, velocity=0, time=0),
  Message('note_on', channel=9, note=48, velocity=120, time=59),
  Message('note_on', channel=9, note=70, velocity=120, time=0),
  Message('note_on', channel=9, note=60, velocity=92, time=0),
  Message('note_on', channel=9, note=48, velocity=0, time=1),
  Message('note_on', channel=9, note=70, velocity=0, time=0),
  Message('note_on', channel=9, note=60, velocity=0, time=0),
  Message('note_on', channel=9, note=48, velocity=92, time=59),
  Message('note_on', channel=9, note=70, velocity=92, time=0),
  Message('note_on', channel=9, note=60, velocity=64, time=0),
  Message('note_on', channel=9, note=48, velocity=0, time=1),
  Message('note_on', channel=9, note=70, velocity=0, time=0),
  Message('note_on', channel=9, note=60, velocity=0, time=0),
  Message('note_on', channel=9, note=45, velocity=120, time=59),
  Message('note_on', channel=9, note=70, velocity=120, time=0),
  Message('note_on', channel=9, note=60, velocity=92, time=0),
  Message('note_on', channel=9, note=45, velocity=0, time=1),
  Message('note_on', channel=9, note=70, velocity=0, time=0),
  Message('note_on', channel=9, note=60, velocity=0, time=0),
  Message('note_on', channel=9, note=45, velocity=92, time=59),
  Message('note_on', channel=9, note=70, velocity=92, time=0),
  Message('note_on', channel=9, note=60, velocity=64, time=0),
  Message('note_on', channel=9, note=45, velocity=0, time=1),
  Message('note_on', channel=9, note=70, velocity=0, time=0),
  Message('note_on', channel=9, note=60, velocity=0, time=0),
  Message('note_on', channel=9, note=45, velocity=120, time=59),
  Message('note_on', channel=9, note=70, velocity=120, time=0),
  Message('note_on', channel=9, note=60, velocity=92, time=0),
  Message('note_on', channel=9, note=45, velocity=0, time=1),
  Message('note_on', channel=9, note=70, velocity=0, time=0),
  Message('note_on', channel=9, note=60, velocity=0, time=0),
  Message('note_on', channel=9, note=45, velocity=92, time=59),
  Message('note_on', channel=9, note=70, velocity=92, time=0),
  Message('note_on', channel=9, note=60, velocity=64, time=0),
  Message('note_on', channel=9, note=45, velocity=0, time=1),
  Message('note_on', channel=9, note=70, velocity=0, time=0),
  Message('note_on', channel=9, note=60, velocity=0, time=0),
  Message('note_on', channel=9, note=48, velocity=120, time=59),
  Message('note_on', channel=9, note=70, velocity=120, time=0),
  Message('note_on', channel=9, note=60, velocity=92, time=0),
  Message('note_on', channel=9, note=48, velocity=0, time=1),
  Message('note_on', channel=9, note=70, velocity=0, time=0),
  Message('note_on', channel=9, note=60, velocity=0, time=0),
  Message('note_on', channel=9, note=48, velocity=92, time=59),
  Message('note_on', channel=9, note=70, velocity=92, time=0),
  Message('note_on', channel=9, note=60, velocity=64, time=0),
  Message('note_on', channel=9, note=48, velocity=0, time=1),
  Message('note_on', channel=9, note=70, velocity=0, time=0),
  Message('note_on', channel=9, note=60, velocity=0, time=0),
  Message('note_on', channel=9, note=48, velocity=120, time=59),
  Message('note_on', channel=9, note=70, velocity=120, time=0),
  Message('note_on', channel=9, note=60, velocity=92, time=0),
  Message('note_on', channel=9, note=48, velocity=0, time=1),
  Message('note_on', channel=9, note=70, velocity=0, time=0),
  Message('note_on', channel=9, note=60, velocity=0, time=0),
  Message('note_on', channel=9, note=48, velocity=92, time=59),
  Message('note_on', channel=9, note=70, velocity=92, time=0),
  Message('note_on', channel=9, note=60, velocity=64, time=0),
  Message('note_on', channel=9, note=48, velocity=0, time=1),
  Message('note_on', channel=9, note=70, velocity=0, time=0),
  Message('note_on', channel=9, note=60, velocity=0, time=0),
  Message('note_on', channel=9, note=45, velocity=120, time=59),
  Message('note_on', channel=9, note=70, velocity=120, time=0),
  Message('note_on', channel=9, note=60, velocity=92, time=0),
  Message('note_on', channel=9, note=45, velocity=0, time=1),
  Message('note_on', channel=9, note=70, velocity=0, time=0),
  Message('note_on', channel=9, note=60, velocity=0, time=0),
  Message('note_on', channel=9, note=45, velocity=92, time=59),
  Message('note_on', channel=9, note=70, velocity=92, time=0),
  Message('note_on', channel=9, note=60, velocity=64, time=0),
  Message('note_on', channel=9, note=45, velocity=0, time=1),
  Message('note_on', channel=9, note=70, velocity=0, time=0),
  Message('note_on', channel=9, note=60, velocity=0, time=0),
  Message('note_on', channel=9, note=45, velocity=120, time=59),
  Message('note_on', channel=9, note=70, velocity=120, time=0),
  Message('note_on', channel=9, note=60, velocity=92, time=0),
  Message('note_on', channel=9, note=45, velocity=0, time=1),
  Message('note_on', channel=9, note=70, velocity=0, time=0),
  Message('note_on', channel=9, note=60, velocity=0, time=0),
  Message('note_on', channel=9, note=45, velocity=92, time=59),
  Message('note_on', channel=9, note=70, velocity=92, time=0),
  Message('note_on', channel=9, note=60, velocity=64, time=0),
  Message('note_on', channel=9, note=45, velocity=0, time=1),
  Message('note_on', channel=9, note=70, velocity=0, time=0),
  Message('note_on', channel=9, note=60, velocity=0, time=0),
  Message('note_on', channel=9, note=49, velocity=120, time=59),
  Message('note_on', channel=9, note=70, velocity=120, time=0),
  Message('note_on', channel=9, note=61, velocity=92, time=0),
  Message('note_on', channel=9, note=49, velocity=0, time=1),
  Message('note_on', channel=9, note=70, velocity=0, time=0),
  Message('note_on', channel=9, note=61, velocity=0, time=0),
  Message('note_on', channel=9, note=61, velocity=64, time=59),
  Message('note_on', channel=9, note=61, velocity=0, time=1),
  Message('note_on', channel=9, note=61, velocity=92, time=59),
  Message('note_on', channel=9, note=61, velocity=0, time=1),
  Message('note_on', channel=9, note=61, velocity=64, time=59),
  Message('note_on', channel=9, note=61, velocity=0, time=1),
  Message('note_on', channel=9, note=49, velocity=120, time=59),
  Message('note_on', channel=9, note=70, velocity=92, time=0),
  Message('note_on', channel=9, note=61, velocity=92, time=0),
  Message('note_on', channel=9, note=49, velocity=0, time=1),
  Message('note_on', channel=9, note=70, velocity=0, time=0),
  Message('note_on', channel=9, note=61, velocity=0, time=0),
  Message('note_on', channel=9, note=61, velocity=64, time=59),
  Message('note_on', channel=9, note=61, velocity=0, time=1),
  Message('note_on', channel=9, note=48, velocity=120, time=59),
  Message('note_on', channel=9, note=61, velocity=92, time=0),
  Message('note_on', channel=9, note=48, velocity=0, time=1),
  Message('note_on', channel=9, note=61, velocity=0, time=0),
  Message('note_on', channel=9, note=48, velocity=92, time=59),
  Message('note_on', channel=9, note=61, velocity=64, time=0),
  Message('note_on', channel=9, note=48, velocity=0, time=1),
  Message('note_on', channel=9, note=61, velocity=0, time=0),
  Message('note_on', channel=9, note=48, velocity=120, time=59),
  Message('note_on', channel=9, note=70, velocity=120, time=0),
  Message('note_on', channel=9, note=61, velocity=92, time=0),
  Message('note_on', channel=9, note=48, velocity=0, time=1),
  Message('note_on', channel=9, note=70, velocity=0, time=0),
  Message('note_on', channel=9, note=61, velocity=0, time=0),
  Message('note_on', channel=9, note=48, velocity=92, time=59),
  Message('note_on', channel=9, note=61, velocity=64, time=0),
  Message('note_on', channel=9, note=48, velocity=0, time=1),
  Message('note_on', channel=9, note=61, velocity=0, time=0),
  Message('note_on', channel=9, note=48, velocity=120, time=59),
  Message('note_on', channel=9, note=61, velocity=92, time=0),
  Message('note_on', channel=9, note=48, velocity=0, time=1),
  Message('note_on', channel=9, note=61, velocity=0, time=0),
  Message('note_on', channel=9, note=48, velocity=92, time=59),
  Message('note_on', channel=9, note=61, velocity=64, time=0),
  Message('note_on', channel=9, note=48, velocity=0, time=1),
  Message('note_on', channel=9, note=61, velocity=0, time=0),
  Message('note_on', channel=9, note=45, velocity=120, time=59),
  Message('note_on', channel=9, note=70, velocity=92, time=0),
  Message('note_on', channel=9, note=61, velocity=92, time=0),
  Message('note_on', channel=9, note=45, velocity=0, time=1),
  Message('note_on', channel=9, note=70, velocity=0, time=0),
  Message('note_on', channel=9, note=61, velocity=0, time=0),
  Message('note_on', channel=9, note=45, velocity=92, time=59),
  Message('note_on', channel=9, note=61, velocity=64, time=0),
  Message('note_on', channel=9, note=45, velocity=0, time=1),
  Message('note_on', channel=9, note=61, velocity=0, time=0),
  Message('note_on', channel=9, note=45, velocity=120, time=59),
  Message('note_on', channel=9, note=61, velocity=92, time=0),
  Message('note_on', channel=9, note=45, velocity=0, time=1),
  Message('note_on', channel=9, note=61, velocity=0, time=0),
  Message('note_on', channel=9, note=45, velocity=92, time=59),
  Message('note_on', channel=9, note=61, velocity=64, time=0),
  Message('note_on', channel=9, note=45, velocity=0, time=1),
  Message('note_on', channel=9, note=61, velocity=0, time=0),
  Message('note_on', channel=9, note=48, velocity=120, time=59),
  Message('note_on', channel=9, note=70, velocity=120, time=0),
  Message('note_on', channel=9, note=60, velocity=92, time=0),
  Message('note_on', channel=9, note=48, velocity=0, time=1),
  Message('note_on', channel=9, note=70, velocity=0, time=0),
  Message('note_on', channel=9, note=60, velocity=0, time=0),
  Message('note_on', channel=9, note=48, velocity=92, time=59),
  Message('note_on', channel=9, note=70, velocity=92, time=0),
  Message('note_on', channel=9, note=60, velocity=64, time=0),
  Message('note_on', channel=9, note=48, velocity=0, time=1),
  Message('note_on', channel=9, note=70, velocity=0, time=0),
  Message('note_on', channel=9, note=60, velocity=0, time=0),
  Message('note_on', channel=9, note=48, velocity=120, time=59),
  Message('note_on', channel=9, note=70, velocity=120, time=0),
  Message('note_on', channel=9, note=60, velocity=92, time=0),
  Message('note_on', channel=9, note=48, velocity=0, time=1),
  Message('note_on', channel=9, note=70, velocity=0, time=0),
  Message('note_on', channel=9, note=60, velocity=0, time=0),
  Message('note_on', channel=9, note=48, velocity=92, time=59),
  Message('note_on', channel=9, note=70, velocity=92, time=0),
  Message('note_on', channel=9, note=60, velocity=64, time=0),
  Message('note_on', channel=9, note=48, velocity=0, time=1),
  Message('note_on', channel=9, note=70, velocity=0, time=0),
  Message('note_on', channel=9, note=60, velocity=0, time=0),
  Message('note_on', channel=9, note=45, velocity=120, time=59),
  Message('note_on', channel=9, note=70, velocity=120, time=0),
  Message('note_on', channel=9, note=60, velocity=92, time=0),
  Message('note_on', channel=9, note=45, velocity=0, time=1),
  Message('note_on', channel=9, note=70, velocity=0, time=0),
  Message('note_on', channel=9, note=60, velocity=0, time=0),
  Message('note_on', channel=9, note=45, velocity=92, time=59),
  Message('note_on', channel=9, note=70, velocity=92, time=0),
  Message('note_on', channel=9, note=60, velocity=64, time=0),
  Message('note_on', channel=9, note=45, velocity=0, time=1),
  Message('note_on', channel=9, note=70, velocity=0, time=0),
  Message('note_on', channel=9, note=60, velocity=0, time=0),
  Message('note_on', channel=9, note=45, velocity=120, time=59),
  Message('note_on', channel=9, note=70, velocity=120, time=0),
  Message('note_on', channel=9, note=60, velocity=92, time=0),
  Message('note_on', channel=9, note=45, velocity=0, time=1),
  Message('note_on', channel=9, note=70, velocity=0, time=0),
  Message('note_on', channel=9, note=60, velocity=0, time=0),
  Message('note_on', channel=9, note=45, velocity=92, time=59),
  Message('note_on', channel=9, note=70, velocity=92, time=0),
  Message('note_on', channel=9, note=60, velocity=64, time=0),
  Message('note_on', channel=9, note=45, velocity=0, time=1),
  Message('note_on', channel=9, note=70, velocity=0, time=0),
  Message('note_on', channel=9, note=60, velocity=0, time=0),
  Message('note_on', channel=9, note=45, velocity=120, time=59),
  Message('note_on', channel=9, note=70, velocity=120, time=0),
  Message('note_on', channel=9, note=60, velocity=92, time=0),
  Message('note_on', channel=9, note=45, velocity=0, time=1),
  Message('note_on', channel=9, note=70, velocity=0, time=0),
  Message('note_on', channel=9, note=60, velocity=0, time=0),
  Message('note_on', channel=9, note=70, velocity=92, time=59),
  Message('note_on', channel=9, note=60, velocity=64, time=0),
  Message('note_on', channel=9, note=70, velocity=0, time=1),
  Message('note_on', channel=9, note=60, velocity=0, time=0),
  Message('note_on', channel=9, note=70, velocity=120, time=59),
  Message('note_on', channel=9, note=61, velocity=92, time=0),
  Message('note_on', channel=9, note=70, velocity=0, time=1),
  Message('note_on', channel=9, note=61, velocity=0, time=0),
  Message('note_on', channel=9, note=70, velocity=92, time=59),
  Message('note_on', channel=9, note=61, velocity=64, time=0),
  Message('note_on', channel=9, note=70, velocity=0, time=1),
  Message('note_on', channel=9, note=61, velocity=0, time=0),
  Message('note_on', channel=9, note=40, velocity=92, time=59),
  Message('note_on', channel=9, note=70, velocity=120, time=0),
  Message('note_on', channel=9, note=61, velocity=92, time=0),
  Message('note_on', channel=9, note=40, velocity=0, time=1),
  Message('note_on', channel=9, note=70, velocity=0, time=0),
  Message('note_on', channel=9, note=61, velocity=0, time=0),
  Message('note_on', channel=9, note=40, velocity=120, time=59),
  Message('note_on', channel=9, note=70, velocity=92, time=0),
  Message('note_on', channel=9, note=61, velocity=64, time=0),
  Message('note_on', channel=9, note=40, velocity=0, time=1),
  Message('note_on', channel=9, note=70, velocity=0, time=0),
  Message('note_on', channel=9, note=61, velocity=0, time=0),
  Message('note_on', channel=9, note=70, velocity=120, time=59),
  Message('note_on', channel=9, note=61, velocity=92, time=0),
  Message('note_on', channel=9, note=70, velocity=0, time=1),
  Message('note_on', channel=9, note=61, velocity=0, time=0),
  Message('note_on', channel=9, note=70, velocity=92, time=59),
  Message('note_on', channel=9, note=61, velocity=64, time=0),
  Message('note_on', channel=9, note=70, velocity=0, time=1),
  Message('note_on', channel=9, note=61, velocity=0, time=0),
  Message('note_on', channel=9, note=70, velocity=120, time=59),
  Message('note_on', channel=9, note=61, velocity=92, time=0),
  Message('note_on', channel=9, note=70, velocity=0, time=1),
  Message('note_on', channel=9, note=61, velocity=0, time=0),
  Message('note_on', channel=9, note=70, velocity=92, time=59),
  Message('note_on', channel=9, note=61, velocity=64, time=0),
  Message('note_on', channel=9, note=70, velocity=0, time=1),
  Message('note_on', channel=9, note=61, velocity=0, time=0),
  Message('note_on', channel=9, note=70, velocity=120, time=59),
  Message('note_on', channel=9, note=61, velocity=92, time=0),
  Message('note_on', channel=9, note=70, velocity=0, time=1),
  Message('note_on', channel=9, note=61, velocity=0, time=0),
  Message('note_on', channel=9, note=70, velocity=92, time=59),
  Message('note_on', channel=9, note=61, velocity=64, time=0),
  Message('note_on', channel=9, note=70, velocity=0, time=1),
  Message('note_on', channel=9, note=61, velocity=0, time=0),
  Message('note_on', channel=9, note=70, velocity=120, time=59),
  Message('note_on', channel=9, note=61, velocity=92, time=0),
  Message('note_on', channel=9, note=70, velocity=0, time=1),
  Message('note_on', channel=9, note=61, velocity=0, time=0),
  Message('note_on', channel=1, note=60, velocity=0, time=699),
  Message('note_on', channel=1, note=72, velocity=0, time=0),
  Message('note_on', channel=3, note=53, velocity=0, time=0),
  Message('note_on', channel=4, note=36, velocity=0, time=0),
  Message('note_on', channel=4, note=48, velocity=0, time=0),
  Message('note_on', channel=6, note=60, velocity=0, time=0),
  Message('note_on', channel=6, note=72, velocity=0, time=0),
  Message('note_on', channel=7, note=48, velocity=0, time=0),
  Message('note_on', channel=7, note=36, velocity=0, time=0),
  Message('note_on', channel=12, note=48, velocity=0, time=0),
  Message('note_on', channel=12, note=60, velocity=0, time=0),
  Message('note_on', channel=13, note=48, velocity=0, time=0),
  Message('note_on', channel=13, note=60, velocity=0, time=0),
  Message('control_change', channel=1, control=11, value=127, time=20),
  Message('pitchwheel', channel=1, pitch=0, time=0),
  Message('note_on', channel=1, note=84, velocity=114, time=0),
  Message('note_on', channel=1, note=72, velocity=114, time=0),
  Message('note_on', channel=3, note=84, velocity=77, time=0),
  Message('note_on', channel=3, note=72, velocity=77, time=0),
  Message('control_change', channel=4, control=11, value=127, time=0),
  Message('pitchwheel', channel=4, pitch=0, time=0),
  Message('note_on', channel=4, note=72, velocity=114, time=0),
  Message('note_on', channel=4, note=60, velocity=114, time=0),
  Message('pitchwheel', channel=6, pitch=0, time=0),
  Message('control_change', channel=6, control=11, value=127, time=0),
  Message('note_on', channel=6, note=84, velocity=110, time=0),
  Message('note_on', channel=6, note=72, velocity=110, time=0),
  Message('control_change', channel=7, control=11, value=127, time=0),
  Message('pitchwheel', channel=7, pitch=0, time=0),
  Message('note_on', channel=7, note=60, velocity=89, time=0),
  Message('note_on', channel=7, note=48, velocity=89, time=0),
  Message('note_on', channel=9, note=40, velocity=120, time=0),
  Message('note_on', channel=9, note=49, velocity=120, time=0),
  Message('note_on', channel=9, note=61, velocity=120, time=0),
  Message('note_on', channel=9, note=40, velocity=0, time=1),
  Message('note_on', channel=9, note=49, velocity=0, time=0),
  Message('note_on', channel=9, note=61, velocity=0, time=0),
  Message('note_on', channel=9, note=61, velocity=120, time=59),
  Message('note_on', channel=9, note=61, velocity=0, time=1),
  Message('control_change', channel=1, control=11, value=126, time=39),
  Message('control_change', channel=4, control=11, value=126, time=0),
  Message('control_change', channel=6, control=11, value=126, time=0),
  Message('control_change', channel=7, control=11, value=126, time=0),
  Message('pitchwheel', channel=1, pitch=-128, time=20),
  Message('pitchwheel', channel=4, pitch=-128, time=0),
  Message('pitchwheel', channel=6, pitch=-128, time=0),
  Message('pitchwheel', channel=7, pitch=-128, time=0),
  Message('control_change', channel=1, control=11, value=125, time=30),
  Message('control_change', channel=4, control=11, value=125, time=0),
  Message('control_change', channel=6, control=11, value=125, time=0),
  Message('control_change', channel=7, control=11, value=125, time=0),
  Message('control_change', channel=1, control=11, value=124, time=20),
  Message('control_change', channel=4, control=11, value=124, time=0),
  Message('control_change', channel=6, control=11, value=124, time=0),
  Message('control_change', channel=7, control=11, value=124, time=0),
  Message('pitchwheel', channel=1, pitch=-256, time=10),
  Message('pitchwheel', channel=4, pitch=-256, time=0),
  Message('pitchwheel', channel=6, pitch=-256, time=0),
  Message('pitchwheel', channel=7, pitch=-256, time=0),
  Message('control_change', channel=1, control=11, value=123, time=20),
  Message('control_change', channel=4, control=11, value=123, time=0),
  Message('control_change', channel=6, control=11, value=123, time=0),
  Message('control_change', channel=7, control=11, value=123, time=0),
  Message('control_change', channel=1, control=11, value=122, time=10),
  Message('control_change', channel=4, control=11, value=122, time=0),
  Message('control_change', channel=6, control=11, value=122, time=0),
  Message('control_change', channel=7, control=11, value=122, time=0),
  Message('pitchwheel', channel=1, pitch=-384, time=10),
  Message('pitchwheel', channel=4, pitch=-384, time=0),
  Message('pitchwheel', channel=6, pitch=-384, time=0),
  Message('pitchwheel', channel=7, pitch=-384, time=0),
  Message('control_change', channel=1, control=11, value=121, time=10),
  Message('control_change', channel=4, control=11, value=121, time=0),
  Message('control_change', channel=6, control=11, value=121, time=0),
  Message('control_change', channel=7, control=11, value=121, time=0),
  Message('control_change', channel=1, control=11, value=120, time=10),
  Message('pitchwheel', channel=1, pitch=-512, time=0),
  Message('control_change', channel=4, control=11, value=120, time=0),
  Message('pitchwheel', channel=4, pitch=-512, time=0),
  Message('control_change', channel=6, control=11, value=120, time=0),
  Message('pitchwheel', channel=6, pitch=-512, time=0),
  Message('control_change', channel=7, control=11, value=120, time=0),
  Message('pitchwheel', channel=7, pitch=-512, time=0),
  Message('control_change', channel=1, control=11, value=119, time=10),
  Message('control_change', channel=4, control=11, value=119, time=0),
  Message('control_change', channel=6, control=11, value=119, time=0),
  Message('control_change', channel=7, control=11, value=119, time=0),
  Message('control_change', channel=1, control=11, value=118, time=10),
  Message('control_change', channel=4, control=11, value=118, time=0),
  Message('control_change', channel=6, control=11, value=118, time=0),
  Message('control_change', channel=7, control=11, value=118, time=0),
  Message('control_change', channel=1, control=11, value=117, time=10),
  Message('pitchwheel', channel=1, pitch=-640, time=0),
  Message('control_change', channel=4, control=11, value=117, time=0),
  Message('pitchwheel', channel=4, pitch=-640, time=0),
  Message('control_change', channel=6, control=11, value=117, time=0),
  Message('pitchwheel', channel=6, pitch=-640, time=0),
  Message('control_change', channel=7, control=11, value=117, time=0),
  Message('pitchwheel', channel=7, pitch=-640, time=0),
  Message('control_change', channel=1, control=11, value=115, time=10),
  Message('pitchwheel', channel=1, pitch=-768, time=0),
  Message('control_change', channel=4, control=11, value=115, time=0),
  Message('pitchwheel', channel=4, pitch=-768, time=0),
  Message('control_change', channel=6, control=11, value=115, time=0),
  Message('pitchwheel', channel=6, pitch=-768, time=0),
  Message('control_change', channel=7, control=11, value=115, time=0),
  Message('pitchwheel', channel=7, pitch=-768, time=0),
  Message('control_change', channel=1, control=11, value=114, time=10),
  Message('pitchwheel', channel=1, pitch=-896, time=0),
  Message('control_change', channel=4, control=11, value=114, time=0),
  Message('pitchwheel', channel=4, pitch=-896, time=0),
  Message('control_change', channel=6, control=11, value=114, time=0),
  Message('pitchwheel', channel=6, pitch=-896, time=0),
  Message('control_change', channel=7, control=11, value=114, time=0),
  Message('pitchwheel', channel=7, pitch=-896, time=0),
  Message('control_change', channel=1, control=11, value=112, time=10),
  Message('pitchwheel', channel=1, pitch=-1024, time=0),
  Message('control_change', channel=4, control=11, value=112, time=0),
  Message('pitchwheel', channel=4, pitch=-1024, time=0),
  Message('control_change', channel=6, control=11, value=112, time=0),
  Message('pitchwheel', channel=6, pitch=-1024, time=0),
  Message('control_change', channel=7, control=11, value=112, time=0),
  Message('pitchwheel', channel=7, pitch=-1024, time=0),
  Message('control_change', channel=1, control=11, value=110, time=10),
  Message('control_change', channel=4, control=11, value=110, time=0),
  Message('control_change', channel=6, control=11, value=110, time=0),
  Message('control_change', channel=7, control=11, value=110, time=0),
  Message('control_change', channel=1, control=11, value=108, time=10),
  Message('pitchwheel', channel=1, pitch=-1280, time=0),
  Message('control_change', channel=4, control=11, value=108, time=0),
  Message('pitchwheel', channel=4, pitch=-1280, time=0),
  Message('control_change', channel=6, control=11, value=108, time=0),
  Message('pitchwheel', channel=6, pitch=-1280, time=0),
  Message('control_change', channel=7, control=11, value=108, time=0),
  Message('pitchwheel', channel=7, pitch=-1280, time=0),
  Message('control_change', channel=1, control=11, value=105, time=10),
  Message('pitchwheel', channel=1, pitch=-1408, time=0),
  Message('control_change', channel=4, control=11, value=105, time=0),
  Message('pitchwheel', channel=4, pitch=-1408, time=0),
  Message('control_change', channel=6, control=11, value=105, time=0),
  Message('pitchwheel', channel=6, pitch=-1408, time=0),
  Message('control_change', channel=7, control=11, value=105, time=0),
  Message('pitchwheel', channel=7, pitch=-1408, time=0),
  Message('control_change', channel=1, control=11, value=103, time=10),
  Message('pitchwheel', channel=1, pitch=-1536, time=0),
  Message('control_change', channel=4, control=11, value=103, time=0),
  Message('pitchwheel', channel=4, pitch=-1536, time=0),
  Message('control_change', channel=6, control=11, value=103, time=0),
  Message('pitchwheel', channel=6, pitch=-1536, time=0),
  Message('control_change', channel=7, control=11, value=103, time=0),
  Message('pitchwheel', channel=7, pitch=-1536, time=0),
  Message('control_change', channel=1, control=11, value=99, time=10),
  Message('pitchwheel', channel=1, pitch=-1792, time=0),
  Message('control_change', channel=4, control=11, value=99, time=0),
  Message('pitchwheel', channel=4, pitch=-1792, time=0),
  Message('control_change', channel=6, control=11, value=99, time=0),
  Message('pitchwheel', channel=6, pitch=-1792, time=0),
  Message('control_change', channel=7, control=11, value=99, time=0),
  Message('pitchwheel', channel=7, pitch=-1792, time=0),
  Message('control_change', channel=1, control=11, value=96, time=10),
  Message('pitchwheel', channel=1, pitch=-2048, time=0),
  Message('control_change', channel=4, control=11, value=96, time=0),
  Message('pitchwheel', channel=4, pitch=-2048, time=0),
  Message('control_change', channel=6, control=11, value=96, time=0),
  Message('pitchwheel', channel=6, pitch=-2048, time=0),
  Message('control_change', channel=7, control=11, value=96, time=0),
  Message('pitchwheel', channel=7, pitch=-2048, time=0),
  Message('control_change', channel=1, control=11, value=92, time=10),
  Message('pitchwheel', channel=1, pitch=-2176, time=0),
  Message('control_change', channel=4, control=11, value=92, time=0),
  Message('pitchwheel', channel=4, pitch=-2176, time=0),
  Message('control_change', channel=6, control=11, value=92, time=0),
  Message('pitchwheel', channel=6, pitch=-2176, time=0),
  Message('control_change', channel=7, control=11, value=92, time=0),
  Message('pitchwheel', channel=7, pitch=-2176, time=0),
  Message('control_change', channel=1, control=11, value=87, time=10),
  Message('pitchwheel', channel=1, pitch=-2560, time=0),
  Message('control_change', channel=4, control=11, value=87, time=0),
  Message('pitchwheel', channel=4, pitch=-2560, time=0),
  Message('control_change', channel=6, control=11, value=87, time=0),
  Message('pitchwheel', channel=6, pitch=-2560, time=0),
  Message('control_change', channel=7, control=11, value=87, time=0),
  Message('pitchwheel', channel=7, pitch=-2560, time=0),
  Message('control_change', channel=1, control=11, value=83, time=10),
  Message('pitchwheel', channel=1, pitch=-2816, time=0),
  Message('control_change', channel=4, control=11, value=83, time=0),
  Message('pitchwheel', channel=4, pitch=-2816, time=0),
  Message('control_change', channel=6, control=11, value=83, time=0),
  Message('pitchwheel', channel=6, pitch=-2816, time=0),
  Message('control_change', channel=7, control=11, value=83, time=0),
  Message('pitchwheel', channel=7, pitch=-2816, time=0),
  Message('control_change', channel=1, control=11, value=78, time=10),
  Message('pitchwheel', channel=1, pitch=-3200, time=0),
  Message('control_change', channel=4, control=11, value=78, time=0),
  Message('pitchwheel', channel=4, pitch=-3200, time=0),
  Message('control_change', channel=6, control=11, value=78, time=0),
  Message('pitchwheel', channel=6, pitch=-3200, time=0),
  Message('control_change', channel=7, control=11, value=78, time=0),
  Message('pitchwheel', channel=7, pitch=-3200, time=0),
  Message('control_change', channel=1, control=11, value=71, time=10),
  Message('pitchwheel', channel=1, pitch=-3584, time=0),
  Message('control_change', channel=4, control=11, value=71, time=0),
  Message('pitchwheel', channel=4, pitch=-3584, time=0),
  Message('control_change', channel=6, control=11, value=71, time=0),
  Message('pitchwheel', channel=6, pitch=-3584, time=0),
  Message('control_change', channel=7, control=11, value=71, time=0),
  Message('pitchwheel', channel=7, pitch=-3584, time=0),
  Message('control_change', channel=1, control=11, value=64, time=10),
  Message('pitchwheel', channel=1, pitch=-4096, time=0),
  Message('control_change', channel=4, control=11, value=64, time=0),
  Message('pitchwheel', channel=4, pitch=-4096, time=0),
  Message('control_change', channel=6, control=11, value=64, time=0),
  Message('pitchwheel', channel=6, pitch=-4096, time=0),
  Message('control_change', channel=7, control=11, value=64, time=0),
  Message('pitchwheel', channel=7, pitch=-4096, time=0),
  Message('control_change', channel=1, control=11, value=57, time=10),
  Message('pitchwheel', channel=1, pitch=-4480, time=0),
  Message('control_change', channel=4, control=11, value=57, time=0),
  Message('pitchwheel', channel=4, pitch=-4480, time=0),
  Message('control_change', channel=6, control=11, value=57, time=0),
  Message('pitchwheel', channel=6, pitch=-4480, time=0),
  Message('control_change', channel=7, control=11, value=57, time=0),
  Message('pitchwheel', channel=7, pitch=-4480, time=0),
  Message('control_change', channel=1, control=11, value=47, time=10),
  Message('pitchwheel', channel=1, pitch=-5120, time=0),
  Message('control_change', channel=4, control=11, value=47, time=0),
  Message('pitchwheel', channel=4, pitch=-5120, time=0),
  Message('control_change', channel=6, control=11, value=47, time=0),
  Message('pitchwheel', channel=6, pitch=-5120, time=0),
  Message('control_change', channel=7, control=11, value=47, time=0),
  Message('pitchwheel', channel=7, pitch=-5120, time=0),
  Message('note_on', channel=1, note=84, velocity=0, time=10),
  Message('note_on', channel=1, note=72, velocity=0, time=0),
  Message('control_change', channel=1, control=11, value=38, time=0),
  Message('pitchwheel', channel=1, pitch=-5760, time=0),
  Message('note_on', channel=3, note=84, velocity=0, time=0),
  Message('note_on', channel=3, note=72, velocity=0, time=0),
  Message('note_on', channel=4, note=72, velocity=0, time=0),
  Message('note_on', channel=4, note=60, velocity=0, time=0),
  Message('control_change', channel=4, control=11, value=38, time=0),
  Message('pitchwheel', channel=4, pitch=-5760, time=0),
  Message('note_on', channel=6, note=84, velocity=0, time=0),
  Message('note_on', channel=6, note=72, velocity=0, time=0),
  Message('control_change', channel=6, control=11, value=38, time=0),
  Message('pitchwheel', channel=6, pitch=-5760, time=0),
  Message('note_on', channel=7, note=60, velocity=0, time=0),
  Message('note_on', channel=7, note=48, velocity=0, time=0),
  Message('control_change', channel=7, control=11, value=38, time=0),
  Message('pitchwheel', channel=7, pitch=-5760, time=0),
  Message('control_change', channel=1, control=11, value=28, time=10),
  Message('pitchwheel', channel=1, pitch=-6400, time=0),
  Message('control_change', channel=4, control=11, value=28, time=0),
  Message('pitchwheel', channel=4, pitch=-6400, time=0),
  Message('control_change', channel=6, control=11, value=28, time=0),
  Message('pitchwheel', channel=6, pitch=-6400, time=0),
  Message('control_change', channel=7, control=11, value=28, time=0),
  Message('pitchwheel', channel=7, pitch=-6400, time=0),
  Message('control_change', channel=1, control=11, value=14, time=10),
  Message('pitchwheel', channel=1, pitch=-7296, time=0),
  Message('control_change', channel=4, control=11, value=14, time=0),
  Message('pitchwheel', channel=4, pitch=-7296, time=0),
  Message('control_change', channel=6, control=11, value=14, time=0),
  Message('pitchwheel', channel=6, pitch=-7296, time=0),
  Message('control_change', channel=7, control=11, value=14, time=0),
  Message('pitchwheel', channel=7, pitch=-7296, time=0),
  Message('control_change', channel=1, control=11, value=0, time=10),
  Message('pitchwheel', channel=1, pitch=-8192, time=0),
  Message('pitchwheel', channel=1, pitch=0, time=0),
  Message('control_change', channel=4, control=11, value=0, time=0),
  Message('pitchwheel', channel=4, pitch=-8192, time=0),
  Message('pitchwheel', channel=4, pitch=0, time=0),
  Message('control_change', channel=6, control=11, value=0, time=0),
  Message('pitchwheel', channel=6, pitch=-8192, time=0),
  Message('pitchwheel', channel=6, pitch=0, time=0),
  Message('control_change', channel=7, control=11, value=0, time=0),
  Message('pitchwheel', channel=7, pitch=-8192, time=0),
  Message('pitchwheel', channel=7, pitch=0, time=0),
  MetaMessage('end_of_track', time=1440)])
