MidiTrack([
  MetaMessage('track_name', name='Wikipedia MIDI (extended)', time=0),
  MetaMessage('set_tempo', tempo=500000, time=0),
  MetaMessage('time_signature', numerator=4, denominator=4, clocks_per_click=24, notated_32nd_notes_per_beat=8, time=0),
  MetaMessage('end_of_track', time=0)])
MidiTrack([
  MetaMessage('track_name', name='Bass', time=0),
  Message('control_change', channel=0, control=0, value=121, time=0),
  Message('control_change', channel=0, control=32, value=0, time=0),
  Message('program_change', channel=0, program=33, time=0),
  Message('note_on', channel=0, note=45, velocity=78, time=0),
  Message('note_off', channel=0, note=45, velocity=64, time=256),
  Message('note_on', channel=0, note=48, velocity=81, time=464),
  Message('note_on', channel=0, note=50, velocity=79, time=240),
  Message('note_off', channel=0, note=48, velocity=64, time=4),
  Message('note_on', channel=0, note=52, velocity=68, time=236),
  Message('note_off', channel=0, note=50, velocity=64, time=16),
  Message('note_off', channel=0, note=52, velocity=64, time=110),
  Message('note_on', channel=0, note=45, velocity=82, time=354),
  Message('note_off', channel=0, note=45, velocity=64, time=702),
  Message('note_on', channel=0, note=43, velocity=62, time=18),
  Message('note_off', channel=0, note=43, velocity=64, time=458),
  Message('note_on', channel=0, note=45, velocity=80, time=22),
  Message('note_off', channel=0, note=45, velocity=64, time=268),
  Message('note_on', channel=0, note=45, velocity=88, time=692),
  Message('note_off', channel=0, note=45, velocity=64, time=152),
  Message('note_on', channel=0, note=48, velocity=77, time=568),
  Message('note_off', channel=0, note=48, velocity=64, time=152),
  Message('note_on', channel=0, note=50, velocity=90, time=88),
  Message('note_on', channel=0, note=52, velocity=75, time=240),
  Message('note_off', channel=0, note=50, velocity=64, time=2),
  Message('note_off', channel=0, note=52, velocity=64, time=190),
  Message('note_on', channel=0, note=45, velocity=75, time=288),
  Message('note_on', channel=0, note=48, velocity=77, time=720),
  Message('note_off', channel=0, note=45, velocity=64, time=8),
  Message('note_off', channel=0, note=48, velocity=64, time=450),
  Message('note_on', channel=0, note=45, velocity=78, time=22),
  Message('note_off', channel=0, note=45, velocity=64, time=178),
  Message('note_on', channel=0, note=45, velocity=80, time=782),
  Message('note_off', channel=0, note=45, velocity=64, time=164),
  Message('note_on', channel=0, note=45, velocity=78, time=76),
  Message('note_off', channel=0, note=45, velocity=64, time=152),
  Message('note_on', channel=0, note=43, velocity=80, time=328),
  Message('note_off', channel=0, note=43, velocity=64, time=204),
  Message('note_on', channel=0, note=45, velocity=76, time=36),
  Message('note_off', channel=0, note=45, velocity=64, time=152),
  Message('note_on', channel=0, note=45, velocity=78, time=88),
  Message('note_off', channel=0, note=45, velocity=64, time=128),
  Message('note_on', channel=0, note=43, velocity=75, time=352),
  Message('note_off', channel=0, note=43, velocity=64, time=218),
  Message('note_on', channel=0, note=45, velocity=76, time=22),
  Message('note_off', channel=0, note=45, velocity=64, time=152),
  Message('note_on', channel=0, note=45, velocity=76, time=88),
  Message('note_off', channel=0, note=45, velocity=64, time=150),
  Message('note_on', channel=0, note=48, velocity=70, time=330),
  Message('note_on', channel=0, note=50, velocity=69, time=720),
  Message('note_off', channel=0, note=48, velocity=64, time=8),
  Message('note_off', channel=0, note=50, velocity=64, time=172),
  Message('note_on', channel=0, note=45, velocity=79, time=300),
  Message('note_off', channel=0, note=45, velocity=64, time=140),
  Message('note_on', channel=0, note=45, velocity=78, time=100),
  Message('note_off', channel=0, note=45, velocity=64, time=140),
  Message('note_on', channel=0, note=43, velocity=74, time=340),
  Message('note_off', channel=0, note=43, velocity=64, time=232),
  Message('note_on', channel=0, note=45, velocity=75, time=8),
  Message('note_off', channel=0, note=45, velocity=64, time=176),
  Message('note_on', channel=0, note=45, velocity=78, time=64),
  Message('note_off', channel=0, note=45, velocity=64, time=152),
  Message('aftertouch', channel=0, value=4, time=291),
  Message('note_on', channel=0, note=43, velocity=74, time=37),
  Message('note_off', channel=0, note=43, velocity=64, time=216),
  Message('note_on', channel=0, note=45, velocity=75, time=24),
  Message('note_off', channel=0, note=45, velocity=64, time=164),
  Message('note_on', channel=0, note=45, velocity=73, time=76),
  Message('note_off', channel=0, note=45, velocity=64, time=216),
  Message('note_on', channel=0, note=48, velocity=74, time=24),
  Message('note_on', channel=0, note=45, velocity=76, time=240),
  Message('note_off', channel=0, note=48, velocity=64, time=16),
  Message('note_off', channel=0, note=45, velocity=64, time=752),
  Message('note_on', channel=0, note=45, velocity=78, time=38832),
  Message('note_off', channel=0, note=45, velocity=64, time=256),
  Message('note_on', channel=0, note=48, velocity=81, time=464),
  Message('note_on', channel=0, note=50, velocity=79, time=240),
  Message('note_off', channel=0, note=48, velocity=64, time=4),
  Message('note_on', channel=0, note=52, velocity=68, time=236),
  Message('note_off', channel=0, note=50, velocity=64, time=16),
  Message('note_off', channel=0, note=52, velocity=64, time=110),
  Message('note_on', channel=0, note=45, velocity=82, time=354),
  Message('note_off', channel=0, note=45, velocity=64, time=702),
  Message('note_on', channel=0, note=43, velocity=62, time=18),
  Message('note_off', channel=0, note=43, velocity=64, time=458),
  Message('note_on', channel=0, note=45, velocity=80, time=22),
  Message('note_off', channel=0, note=45, velocity=64, time=268),
  Message('note_on', channel=0, note=45, velocity=88, time=692),
  Message('note_off', channel=0, note=45, velocity=64, time=152),
  Message('note_on', channel=0, note=48, velocity=77, time=568),
  Message('note_off', channel=0, note=48, velocity=64, time=152),
  Message('note_on', channel=0, note=50, velocity=90, time=88),
  Message('note_on', channel=0, note=52, velocity=75, time=240),
  Message('note_off', channel=0, note=50, velocity=64, time=2),
  Message('note_off', channel=0, note=52, velocity=64, time=190),
  Message('note_on', channel=0, note=45, velocity=75, time=288),
  Message('note_on', channel=0, note=48, velocity=77, time=720),
  Message('note_off', channel=0, note=45, velocity=64, time=8),
  Message('note_off', channel=0, note=48, velocity=64, time=450),
  Message('note_on', channel=0, note=45, velocity=78, time=22),
  Message('note_off', channel=0, note=45, velocity=64, time=178),
  Message('note_on', channel=0, note=45, velocity=80, time=782),
  Message('note_off', channel=0, note=45, velocity=64, time=164),
  Message('note_on', channel=0, note=45, velocity=78, time=76),
  Message('note_off', channel=0, note=45, velocity=64, time=152),
  Message('note_on', channel=0, note=43, velocity=80, time=328),
  Message('note_off', channel=0, note=43, velocity=64, time=204),
  Message('note_on', channel=0, note=45, velocity=76, time=36),
  Message('note_off', channel=0, note=45, velocity=64, time=152),
  Message('note_on', channel=0, note=45, velocity=78, time=88),
  Message('note_off', channel=0, note=45, velocity=64, time=128),
  Message('note_on', channel=0, note=43, velocity=75, time=352),
  Message('note_off', channel=0, note=43, velocity=64, time=218),
  Message('note_on', channel=0, note=45, velocity=76, time=22),
  Message('note_off', channel=0, note=45, velocity=64, time=152),
  Message('note_on', channel=0, note=45, velocity=76, time=88),
  Message('note_off', channel=0, note=45, velocity=64, time=150),
  Message('note_on', channel=0, note=48, velocity=70, time=330),
  Message('note_on', channel=0, note=50, velocity=69, time=720),
  Message('note_off', channel=0, note=48, velocity=64, time=8),
  Message('note_off', channel=0, note=50, velocity=64, time=172),
  Message('note_on', channel=0, note=45, velocity=79, time=300),
  Message('note_off', channel=0, note=45, velocity=64, time=140),
  Message('note_on', channel=0, note=45, velocity=78, time=100),
  Message('note_off', channel=0, note=45, velocity=64, time=140),
  Message('note_on', channel=0, note=43, velocity=74, time=340),
  Message('note_off', channel=0, note=43, velocity=64, time=232),
  Message('note_on', channel=0, note=45, velocity=75, time=8),
  Message('note_off', channel=0, note=45, velocity=64, time=176),
  Message('note_on', channel=0, note=45, velocity=78, time=64),
  Message('note_off', channel=0, note=45, velocity=64, time=152),
  Message('aftertouch', channel=0, value=4, time=291),
  Message('note_on', channel=0, note=43, velocity=74, time=37),
  Message('note_off', channel=0, note=43, velocity=64, time=216),
  Message('note_on', channel=0, note=45, velocity=75, time=24),
  Message('note_off', channel=0, note=45, velocity=64, time=164),
  Message('note_on', channel=0, note=45, velocity=73, time=76),
  Message('note_off', channel=0, note=45, velocity=64, time=216),
  Message('note_on', channel=0, note=48, velocity=74, time=24),
  Message('note_on', channel=0, note=45, velocity=76, time=240),
  Message('note_off', channel=0, note=48, velocity=64, time=16),
  Message('note_off', channel=0, note=45, velocity=64, time=752),
  Message('note_on', channel=0, note=45, velocity=80, time=8112),
  Message('note_off', channel=0, note=45, velocity=64, time=164),
  Message('note_on', channel=0, note=45, velocity=78, time=76),
  Message('note_off', channel=0, note=45, velocity=64, time=152),
  Message('note_on', channel=0, note=43, velocity=80, time=328),
  Message('note_off', channel=0, note=43, velocity=64, time=204),
  Message('note_on', channel=0, note=45, velocity=76, time=36),
  Message('note_off', channel=0, note=45, velocity=64, time=152),
  Message('note_on', channel=0, note=45, velocity=78, time=88),
  Message('note_off', channel=0, note=45, velocity=64, time=128),
  Message('note_on', channel=0, note=43, velocity=75, time=352),
  Message('note_off', channel=0, note=43, velocity=64, time=218),
  Message('note_on', channel=0, note=45, velocity=76, time=22),
  Message('note_off', channel=0, note=45, velocity=64, time=152),
  Message('note_on', channel=0, note=45, velocity=76, time=88),
  Message('note_off', channel=0, note=45, velocity=64, time=150),
  Message('note_on', channel=0, note=48, velocity=70, time=330),
  Message('note_on', channel=0, note=50, velocity=69, time=720),
  Message('note_off', channel=0, note=48, velocity=64, time=8),
  Message('note_off', channel=0, note=50, velocity=64, time=172),
  Message('note_on', channel=0, note=45, velocity=79, time=300),
  Message('note_off', channel=0, note=45, velocity=64, time=140),
  Message('note_on', channel=0, note=45, velocity=78, time=100),
  Message('note_off', channel=0, note=45, velocity=64, time=140),
  Message('note_on', channel=0, note=43, velocity=74, time=340),
  Message('note_off', channel=0, note=43, velocity=64, time=232),
  Message('note_on', channel=0, note=45, velocity=75, time=8),
  Message('note_off', channel=0, note=45, velocity=64, time=176),
  Message('note_on', channel=0, note=45, velocity=78, time=64),
  Message('note_off', channel=0, note=45, velocity=64, time=152),
  Message('aftertouch', channel=0, value=4, time=291),
  Message('note_on', channel=0, note=43, velocity=74, time=37),
  Message('note_off', channel=0, note=43, velocity=64, time=216),
  Message('note_on', channel=0, note=45, velocity=75, time=24),
  Message('note_off', channel=0, note=45, velocity=64, time=164),
  Message('note_on', channel=0, note=45, velocity=73, time=76),
  Message('note_off', channel=0, note=45, velocity=64, time=216),
  Message('note_on', channel=0, note=48, velocity=74, time=24),
  Message('note_on', channel=0, note=45, velocity=76, time=240),
  Message('note_off', channel=0, note=48, velocity=64, time=16),
  Message('note_off', channel=0, note=45, velocity=64, time=752),
  Message('note_on', channel=0, note=45, velocity=78, time=15792),
  Message('note_off', channel=0, note=45, velocity=64, time=256),
  Message('note_on', channel=0, note=48, velocity=81, time=464),
  Message('note_on', channel=0, note=50, velocity=79, time=240),
  Message('note_off', channel=0, note=48, velocity=64, time=4),
  Message('note_on', channel=0, note=52, velocity=68, time=236),
  Message('note_off', channel=0, note=50, velocity=64, time=16),
  Message('note_off', channel=0, note=52, velocity=64, time=110),
  Message('note_on', channel=0, note=45, velocity=82, time=354),
  Message('note_off', channel=0, note=45, velocity=64, time=702),
  Message('note_on', channel=0, note=43, velocity=62, time=18),
  Message('note_off', channel=0, note=43, velocity=64, time=458),
  Message('note_on', channel=0, note=45, velocity=80, time=22),
  Message('note_off', channel=0, note=45, velocity=64, time=268),
  Message('note_on', channel=0, note=45, velocity=88, time=692),
  Message('note_off', channel=0, note=45, velocity=64, time=152),
  Message('note_on', channel=0, note=48, velocity=77, time=568),
  Message('note_off', channel=0, note=48, velocity=64, time=152),
  Message('note_on', channel=0, note=50, velocity=90, time=88),
  Message('note_on', channel=0, note=52, velocity=75, time=240),
  Message('note_off', channel=0, note=50, velocity=64, time=2),
  Message('note_off', channel=0, note=52, velocity=64, time=190),
  Message('note_on', channel=0, note=45, velocity=75, time=288),
  Message('note_on', channel=0, note=48, velocity=77, time=720),
  Message('note_off', channel=0, note=45, velocity=64, time=8),
  Message('note_off', channel=0, note=48, velocity=64, time=450),
  Message('note_on', channel=0, note=45, velocity=78, time=22),
  Message('note_off', channel=0, note=45, velocity=64, time=178),
  Message('note_on', channel=0, note=45, velocity=80, time=782),
  Message('note_off', channel=0, note=45, velocity=64, time=164),
  Message('note_on', channel=0, note=45, velocity=78, time=76),
  Message('note_off', channel=0, note=45, velocity=64, time=152),
  Message('note_on', channel=0, note=43, velocity=80, time=328),
  Message('note_off', channel=0, note=43, velocity=64, time=204),
  Message('note_on', channel=0, note=45, velocity=76, time=36),
  Message('note_off', channel=0, note=45, velocity=64, time=152),
  Message('note_on', channel=0, note=45, velocity=78, time=88),
  Message('note_off', channel=0, note=45, velocity=64, time=128),
  Message('note_on', channel=0, note=43, velocity=75, time=352),
  Message('note_off', channel=0, note=43, velocity=64, time=218),
  Message('note_on', channel=0, note=45, velocity=76, time=22),
  Message('note_off', channel=0, note=45, velocity=64, time=152),
  Message('note_on', channel=0, note=45, velocity=76, time=88),
  Message('note_off', channel=0, note=45, velocity=64, time=150),
  Message('note_on', channel=0, note=48, velocity=70, time=330),
  Message('note_on', channel=0, note=50, velocity=69, time=720),
  Message('note_off', channel=0, note=48, velocity=64, time=8),
  Message('note_off', channel=0, note=50, velocity=64, time=172),
  Message('note_on', channel=0, note=45, velocity=79, time=300),
  Message('note_off', channel=0, note=45, velocity=64, time=140),
  Message('note_on', channel=0, note=45, velocity=78, time=100),
  Message('note_off', channel=0, note=45, velocity=64, time=140),
  Message('note_on', channel=0, note=43, velocity=74, time=340),
  Message('note_off', channel=0, note=43, velocity=64, time=232),
  Message('note_on', channel=0, note=45, velocity=75, time=8),
  Message('note_off', channel=0, note=45, velocity=64, time=176),
  Message('note_on', channel=0, note=45, velocity=78, time=64),
  Message('note_off', channel=0, note=45, velocity=64, time=152),
  Message('aftertouch', channel=0, value=4, time=291),
  Message('note_on', channel=0, note=43, velocity=74, time=37),
  Message('note_off', channel=0, note=43, velocity=64, time=216),
  Message('note_on', channel=0, note=45, velocity=75, time=24),
  Message('note_off', channel=0, note=45, velocity=64, time=164),
  Message('note_on', channel=0, note=45, velocity=73, time=76),
  Message('note_off', channel=0, note=45, velocity=64, time=216),
  Message('note_on', channel=0, note=48, velocity=74, time=24),
  Message('note_on', channel=0, note=45, velocity=76, time=240),
  Message('note_off', channel=0, note=48, velocity=64, time=16),
  Message('note_off', channel=0, note=45, velocity=64, time=752),
  Message('note_on', channel=0, note=50, velocity=109, time=432),
  Message('note_on', channel=0, note=50, velocity=0, time=117),
  Message('note_on', channel=0, note=50, velocity=114, time=123),
  Message('note_on', channel=0, note=48, velocity=114, time=480),
  Message('note_on', channel=0, note=50, velocity=0, time=24),
  Message('note_on', channel=0, note=48, velocity=0, time=174),
  Message('note_on', channel=0, note=50, velocity=109, time=42),
  Message('note_on', channel=0, note=50, velocity=0, time=103),
  Message('note_on', channel=0, note=50, velocity=109, time=137),
  Message('note_on', channel=0, note=50, velocity=0, time=478),
  Message('note_on', channel=0, note=48, velocity=120, time=2),
  Message('note_on', channel=0, note=48, velocity=0, time=211),
  Message('note_on', channel=0, note=45, velocity=114, time=29),
  Message('note_on', channel=0, note=45, velocity=0, time=111),
  Message('note_on', channel=0, note=45, velocity=104, time=129),
  Message('note_on', channel=0, note=43, velocity=120, time=480),
  Message('note_on', channel=0, note=45, velocity=0, time=26),
  Message('note_on', channel=0, note=43, velocity=0, time=142),
  Message('note_on', channel=0, note=45, velocity=114, time=72),
  Message('note_on', channel=0, note=45, velocity=0, time=120),
  Message('note_on', channel=0, note=45, velocity=104, time=120),
  Message('note_on', channel=0, note=45, velocity=0, time=221),
  Message('note_on', channel=0, note=43, velocity=104, time=19),
  Message('note_on', channel=0, note=43, velocity=0, time=223),
  Message('note_on', channel=0, note=43, velocity=66, time=17),
  Message('note_on', channel=0, note=43, velocity=0, time=148),
  Message('note_on', channel=0, note=40, velocity=74, time=92),
  Message('note_on', channel=0, note=40, velocity=0, time=130),
  Message('note_on', channel=0, note=40, velocity=104, time=110),
  Message('note_on', channel=0, note=40, velocity=0, time=368),
  Message('note_on', channel=0, note=40, velocity=109, time=112),
  Message('note_on', channel=0, note=40, velocity=0, time=177),
  Message('note_on', channel=0, note=44, velocity=120, time=63),
  Message('note_on', channel=0, note=44, velocity=0, time=189),
  Message('note_on', channel=0, note=40, velocity=109, time=51),
  Message('note_on', channel=0, note=40, velocity=0, time=143),
  Message('note_on', channel=0, note=44, velocity=120, time=97),
  Message('note_on', channel=0, note=44, velocity=0, time=228),
  Message('note_on', channel=0, note=47, velocity=95, time=12),
  Message('note_on', channel=0, note=47, velocity=0, time=159),
  Message('note_on', channel=0, note=45, velocity=124, time=81),
  Message('note_on', channel=0, note=45, velocity=0, time=143),
  Message('note_on', channel=0, note=45, velocity=109, time=97),
  Message('note_on', channel=0, note=45, velocity=0, time=166),
  Message('note_on', channel=0, note=40, velocity=104, time=74),
  Message('note_on', channel=0, note=40, velocity=0, time=181),
  Message('note_on', channel=0, note=43, velocity=98, time=59),
  Message('note_on', channel=0, note=43, velocity=0, time=183),
  Message('note_on', channel=0, note=45, velocity=120, time=57),
  Message('note_on', channel=0, note=45, velocity=0, time=277),
  MetaMessage('end_of_track', time=0)])
MidiTrack([
  MetaMessage('track_name', name='Piano', time=0),
  Message('control_change', channel=1, control=0, value=121, time=0),
  Message('control_change', channel=1, control=32, value=0, time=0),
  Message('program_change', channel=1, program=0, time=0),
  Message('note_on', channel=1, note=45, velocity=124, time=69120),
  Message('note_on', channel=1, note=57, velocity=120, time=0),
  Message('note_on', channel=1, note=45, velocity=0, time=391),
  Message('note_on', channel=1, note=57, velocity=0, time=81),
  Message('note_on', channel=1, note=60, velocity=120, time=8),
  Message('note_on', channel=1, note=64, velocity=114, time=0),
  Message('note_on', channel=1, note=60, velocity=0, time=124),
  Message('note_on', channel=1, note=64, velocity=0, time=2),
  Message('note_on', channel=1, note=48, velocity=120, time=114),
  Message('note_on', channel=1, note=60, velocity=114, time=0),
  Message('note_on', channel=1, note=60, velocity=0, time=184),
  Message('note_on', channel=1, note=48, velocity=0, time=38),
  Message('note_on', channel=1, note=50, velocity=109, time=18),
  Message('note_on', channel=1, note=62, velocity=109, time=0),
  Message('note_on', channel=1, note=62, velocity=0, time=194),
  Message('note_on', channel=1, note=50, velocity=0, time=24),
  Message('note_on', channel=1, note=52, velocity=120, time=22),
  Message('note_on', channel=1, note=60, velocity=124, time=0),
  Message('note_on', channel=1, note=64, velocity=127, time=0),
  Message('note_on', channel=1, note=64, velocity=0, time=150),
  Message('note_on', channel=1, note=60, velocity=0, time=33),
  Message('note_on', channel=1, note=52, velocity=0, time=2),
  Message('note_on', channel=1, note=45, velocity=127, time=295),
  Message('note_on', channel=1, note=57, velocity=98, time=0),
  Message('note_on', channel=1, note=60, velocity=114, time=480),
  Message('note_on', channel=1, note=64, velocity=109, time=0),
  Message('note_on', channel=1, note=57, velocity=0, time=44),
  Message('note_on', channel=1, note=64, velocity=0, time=122),
  Message('note_on', channel=1, note=60, velocity=0, time=1),
  Message('note_on', channel=1, note=45, velocity=0, time=24),
  Message('note_on', channel=1, note=43, velocity=127, time=49),
  Message('note_on', channel=1, note=55, velocity=124, time=0),
  Message('note_on', channel=1, note=59, velocity=120, time=240),
  Message('note_on', channel=1, note=62, velocity=114, time=0),
  Message('note_on', channel=1, note=59, velocity=0, time=92),
  Message('note_on', channel=1, note=62, velocity=0, time=30),
  Message('note_on', channel=1, note=55, velocity=0, time=14),
  Message('note_on', channel=1, note=45, velocity=127, time=104),
  Message('note_on', channel=1, note=57, velocity=124, time=0),
  Message('note_on', channel=1, note=43, velocity=0, time=38),
  Message('note_on', channel=1, note=45, velocity=0, time=58),
  Message('note_on', channel=1, note=57, velocity=0, time=43),
  Message('note_on', channel=1, note=40, velocity=104, time=101),
  Message('note_on', channel=1, note=52, velocity=109, time=0),
  Message('note_on', channel=1, note=52, velocity=0, time=120),
  Message('note_on', channel=1, note=40, velocity=0, time=8),
  Message('note_on', channel=1, note=40, velocity=114, time=112),
  Message('note_on', channel=1, note=52, velocity=109, time=0),
  Message('note_on', channel=1, note=40, velocity=0, time=181),
  Message('note_on', channel=1, note=52, velocity=0, time=20),
  Message('note_on', channel=1, note=43, velocity=114, time=39),
  Message('note_on', channel=1, note=55, velocity=120, time=0),
  Message('note_on', channel=1, note=55, velocity=0, time=180),
  Message('note_on', channel=1, note=43, velocity=0, time=12),
  Message('note_on', channel=1, note=45, velocity=124, time=48),
  Message('note_on', channel=1, note=57, velocity=120, time=0),
  Message('note_on', channel=1, note=45, velocity=0, time=215),
  Message('note_on', channel=1, note=57, velocity=0, time=221),
  Message('note_on', channel=1, note=45, velocity=124, time=44),
  Message('note_on', channel=1, note=60, velocity=124, time=0),
  Message('note_on', channel=1, note=64, velocity=120, time=0),
  Message('note_on', channel=1, note=60, velocity=0, time=126),
  Message('note_on', channel=1, note=64, velocity=0, time=14),
  Message('note_on', channel=1, note=48, velocity=114, time=100),
  Message('note_on', channel=1, note=60, velocity=104, time=0),
  Message('note_on', channel=1, note=45, velocity=0, time=4),
  Message('note_on', channel=1, note=60, velocity=0, time=175),
  Message('note_on', channel=1, note=48, velocity=0, time=35),
  Message('note_on', channel=1, note=50, velocity=114, time=26),
  Message('note_on', channel=1, note=62, velocity=109, time=0),
  Message('note_on', channel=1, note=50, velocity=0, time=209),
  Message('note_on', channel=1, note=62, velocity=0, time=7),
  Message('note_on', channel=1, note=52, velocity=124, time=24),
  Message('note_on', channel=1, note=60, velocity=114, time=0),
  Message('note_on', channel=1, note=64, velocity=109, time=0),
  Message('note_on', channel=1, note=52, velocity=0, time=131),
  Message('note_on', channel=1, note=60, velocity=0, time=3),
  Message('note_on', channel=1, note=64, velocity=0, time=0),
  Message('aftertouch', channel=1, value=5, time=257),
  Message('note_on', channel=1, note=45, velocity=120, time=89),
  Message('note_on', channel=1, note=52, velocity=114, time=0),
  Message('note_on', channel=1, note=57, velocity=120, time=0),
  Message('note_on', channel=1, note=60, velocity=127, time=0),
  Message('note_on', channel=1, note=45, velocity=0, time=223),
  Message('note_on', channel=1, note=45, velocity=114, time=257),
  Message('note_on', channel=1, note=52, velocity=0, time=95),
  Message('note_on', channel=1, note=57, velocity=0, time=24),
  Message('note_on', channel=1, note=60, velocity=0, time=73),
  Message('note_on', channel=1, note=47, velocity=121, time=48),
  Message('note_on', channel=1, note=52, velocity=114, time=0),
  Message('note_on', channel=1, note=56, velocity=109, time=0),
  Message('note_on', channel=1, note=59, velocity=127, time=0),
  Message('note_on', channel=1, note=45, velocity=0, time=4),
  Message('note_on', channel=1, note=59, velocity=0, time=128),
  Message('note_on', channel=1, note=56, velocity=0, time=4),
  Message('note_on', channel=1, note=52, velocity=0, time=29),
  Message('note_on', channel=1, note=47, velocity=0, time=73),
  Message('note_on', channel=1, note=45, velocity=127, time=242),
  Message('note_on', channel=1, note=48, velocity=120, time=0),
  Message('note_on', channel=1, note=52, velocity=120, time=0),
  Message('note_on', channel=1, note=57, velocity=127, time=0),
  Message('note_on', channel=1, note=57, velocity=0, time=251),
  Message('note_on', channel=1, note=48, velocity=0, time=30),
  Message('note_on', channel=1, note=52, velocity=0, time=3),
  Message('note_on', channel=1, note=45, velocity=0, time=84),
  Message('note_on', channel=1, note=60, velocity=114, time=592),
  Message('note_on', channel=1, note=64, velocity=120, time=0),
  Message('note_on', channel=1, note=69, velocity=124, time=0),
  Message('note_on', channel=1, note=64, velocity=0, time=92),
  Message('note_on', channel=1, note=60, velocity=0, time=5),
  Message('note_on', channel=1, note=69, velocity=0, time=6),
  Message('note_on', channel=1, note=60, velocity=109, time=137),
  Message('note_on', channel=1, note=64, velocity=114, time=0),
  Message('note_on', channel=1, note=69, velocity=120, time=0),
  Message('note_on', channel=1, note=64, velocity=0, time=305),
  Message('note_on', channel=1, note=60, velocity=0, time=64),
  Message('note_on', channel=1, note=69, velocity=0, time=92),
  Message('note_on', channel=1, note=59, velocity=98, time=19),
  Message('note_on', channel=1, note=62, velocity=104, time=0),
  Message('note_on', channel=1, note=67, velocity=114, time=0),
  Message('note_on', channel=1, note=62, velocity=0, time=86),
  Message('note_on', channel=1, note=59, velocity=0, time=30),
  Message('note_on', channel=1, note=67, velocity=0, time=57),
  Message('note_on', channel=1, note=60, velocity=104, time=67),
  Message('note_on', channel=1, note=64, velocity=114, time=0),
  Message('note_on', channel=1, note=69, velocity=120, time=0),
  Message('note_on', channel=1, note=69, velocity=0, time=78),
  Message('note_on', channel=1, note=60, velocity=0, time=9),
  Message('note_on', channel=1, note=64, velocity=0, time=3),
  Message('note_on', channel=1, note=60, velocity=109, time=150),
  Message('note_on', channel=1, note=64, velocity=95, time=0),
  Message('note_on', channel=1, note=69, velocity=120, time=0),
  Message('note_on', channel=1, note=64, velocity=0, time=220),
  Message('note_on', channel=1, note=60, velocity=0, time=56),
  Message('note_on', channel=1, note=69, velocity=0, time=199),
  Message('note_on', channel=1, note=59, velocity=98, time=5),
  Message('note_on', channel=1, note=62, velocity=114, time=0),
  Message('note_on', channel=1, note=67, velocity=109, time=0),
  Message('note_on', channel=1, note=59, velocity=0, time=93),
  Message('note_on', channel=1, note=62, velocity=0, time=19),
  Message('note_on', channel=1, note=67, velocity=0, time=52),
  Message('note_on', channel=1, note=60, velocity=114, time=76),
  Message('note_on', channel=1, note=64, velocity=114, time=0),
  Message('note_on', channel=1, note=69, velocity=124, time=0),
  Message('note_on', channel=1, note=69, velocity=0, time=88),
  Message('note_on', channel=1, note=64, velocity=0, time=17),
  Message('note_on', channel=1, note=60, velocity=0, time=10),
  Message('note_on', channel=1, note=60, velocity=104, time=125),
  Message('note_on', channel=1, note=64, velocity=109, time=0),
  Message('note_on', channel=1, note=69, velocity=124, time=0),
  Message('note_on', channel=1, note=60, velocity=0, time=115),
  Message('note_on', channel=1, note=69, velocity=0, time=9),
  Message('note_on', channel=1, note=64, velocity=0, time=11),
  Message('note_on', channel=1, note=64, velocity=114, time=345),
  Message('note_on', channel=1, note=67, velocity=109, time=0),
  Message('note_on', channel=1, note=72, velocity=127, time=0),
  Message('note_on', channel=1, note=64, velocity=0, time=501),
  Message('note_on', channel=1, note=67, velocity=0, time=93),
  Message('note_on', channel=1, note=72, velocity=0, time=53),
  Message('note_on', channel=1, note=68, velocity=88, time=73),
  Message('note_on', channel=1, note=71, velocity=124, time=0),
  Message('note_on', channel=1, note=74, velocity=127, time=0),
  Message('note_on', channel=1, note=68, velocity=0, time=180),
  Message('note_on', channel=1, note=74, velocity=0, time=53),
  Message('note_on', channel=1, note=71, velocity=0, time=15),
  Message('note_on', channel=1, note=60, velocity=98, time=232),
  Message('note_on', channel=1, note=64, velocity=98, time=0),
  Message('note_on', channel=1, note=69, velocity=114, time=0),
  Message('note_on', channel=1, note=60, velocity=0, time=95),
  Message('note_on', channel=1, note=69, velocity=0, time=7),
  Message('note_on', channel=1, note=64, velocity=0, time=2),
  Message('note_on', channel=1, note=60, velocity=104, time=136),
  Message('note_on', channel=1, note=64, velocity=98, time=0),
  Message('note_on', channel=1, note=69, velocity=104, time=0),
  Message('note_on', channel=1, note=69, velocity=0, time=147),
  Message('note_on', channel=1, note=60, velocity=0, time=0),
  Message('note_on', channel=1, note=64, velocity=0, time=18),
  Message('note_on', channel=1, note=59, velocity=98, time=315),
  Message('note_on', channel=1, note=62, velocity=109, time=0),
  Message('note_on', channel=1, note=67, velocity=114, time=0),
  Message('note_on', channel=1, note=59, velocity=0, time=205),
  Message('note_on', channel=1, note=67, velocity=0, time=26),
  Message('note_on', channel=1, note=60, velocity=104, time=9),
  Message('note_on', channel=1, note=64, velocity=104, time=0),
  Message('note_on', channel=1, note=69, velocity=114, time=0),
  Message('note_on', channel=1, note=62, velocity=0, time=43),
  Message('note_on', channel=1, note=60, velocity=0, time=30),
  Message('note_on', channel=1, note=69, velocity=0, time=3),
  Message('note_on', channel=1, note=64, velocity=0, time=15),
  Message('note_on', channel=1, note=60, velocity=109, time=149),
  Message('note_on', channel=1, note=64, velocity=109, time=0),
  Message('note_on', channel=1, note=69, velocity=120, time=0),
  Message('note_on', channel=1, note=60, velocity=0, time=196),
  Message('note_on', channel=1, note=69, velocity=0, time=2),
  Message('note_on', channel=1, note=64, velocity=0, time=18),
  Message('aftertouch', channel=1, value=3, time=168),
  Message('aftertouch', channel=1, value=4, time=62),
  Message('note_on', channel=1, note=59, velocity=109, time=34),
  Message('note_on', channel=1, note=62, velocity=114, time=0),
  Message('note_on', channel=1, note=67, velocity=109, time=0),
  Message('note_on', channel=1, note=59, velocity=0, time=223),
  Message('note_on', channel=1, note=67, velocity=0, time=14),
  Message('note_on', channel=1, note=60, velocity=88, time=3),
  Message('note_on', channel=1, note=64, velocity=88, time=0),
  Message('note_on', channel=1, note=69, velocity=124, time=0),
  Message('note_on', channel=1, note=62, velocity=0, time=20),
  Message('note_on', channel=1, note=69, velocity=0, time=63),
  Message('note_on', channel=1, note=64, velocity=0, time=11),
  Message('note_on', channel=1, note=60, velocity=0, time=3),
  Message('note_on', channel=1, note=60, velocity=91, time=23),
  Message('note_on', channel=1, note=69, velocity=104, time=0),
  Message('note_on', channel=1, note=64, velocity=98, time=120),
  Message('note_on', channel=1, note=60, velocity=0, time=5),
  Message('note_on', channel=1, note=69, velocity=0, time=10),
  Message('note_on', channel=1, note=64, velocity=0, time=79),
  Message('note_on', channel=1, note=64, velocity=120, time=146),
  Message('note_on', channel=1, note=69, velocity=120, time=0),
  Message('note_on', channel=1, note=72, velocity=120, time=0),
  Message('note_on', channel=1, note=64, velocity=0, time=179),
  Message('note_on', channel=1, note=72, velocity=0, time=22),
  Message('note_on', channel=1, note=69, velocity=0, time=4),
  Message('note_on', channel=1, note=60, velocity=120, time=35),
  Message('note_on', channel=1, note=64, velocity=120, time=0),
  Message('note_on', channel=1, note=69, velocity=127, time=0),
  Message('note_on', channel=1, note=64, velocity=0, time=334),
  Message('note_on', channel=1, note=60, velocity=0, time=8),
  Message('note_on', channel=1, note=69, velocity=0, time=13),
  Message('note_on', channel=1, note=45, velocity=124, time=16205),
  Message('note_on', channel=1, note=57, velocity=120, time=0),
  Message('note_on', channel=1, note=45, velocity=0, time=391),
  Message('note_on', channel=1, note=57, velocity=0, time=81),
  Message('note_on', channel=1, note=60, velocity=120, time=8),
  Message('note_on', channel=1, note=64, velocity=114, time=0),
  Message('note_on', channel=1, note=60, velocity=0, time=124),
  Message('note_on', channel=1, note=64, velocity=0, time=2),
  Message('note_on', channel=1, note=48, velocity=120, time=114),
  Message('note_on', channel=1, note=60, velocity=114, time=0),
  Message('note_on', channel=1, note=60, velocity=0, time=184),
  Message('note_on', channel=1, note=48, velocity=0, time=38),
  Message('note_on', channel=1, note=50, velocity=109, time=18),
  Message('note_on', channel=1, note=62, velocity=109, time=0),
  Message('note_on', channel=1, note=62, velocity=0, time=194),
  Message('note_on', channel=1, note=50, velocity=0, time=24),
  Message('note_on', channel=1, note=52, velocity=120, time=22),
  Message('note_on', channel=1, note=60, velocity=124, time=0),
  Message('note_on', channel=1, note=64, velocity=127, time=0),
  Message('note_on', channel=1, note=64, velocity=0, time=150),
  Message('note_on', channel=1, note=60, velocity=0, time=33),
  Message('note_on', channel=1, note=52, velocity=0, time=2),
  Message('note_on', channel=1, note=45, velocity=127, time=295),
  Message('note_on', channel=1, note=57, velocity=98, time=0),
  Message('note_on', channel=1, note=60, velocity=114, time=480),
  Message('note_on', channel=1, note=64, velocity=109, time=0),
  Message('note_on', channel=1, note=57, velocity=0, time=44),
  Message('note_on', channel=1, note=64, velocity=0, time=122),
  Message('note_on', channel=1, note=60, velocity=0, time=1),
  Message('note_on', channel=1, note=45, velocity=0, time=24),
  Message('note_on', channel=1, note=43, velocity=127, time=49),
  Message('note_on', channel=1, note=55, velocity=124, time=0),
  Message('note_on', channel=1, note=59, velocity=120, time=240),
  Message('note_on', channel=1, note=62, velocity=114, time=0),
  Message('note_on', channel=1, note=59, velocity=0, time=92),
  Message('note_on', channel=1, note=62, velocity=0, time=30),
  Message('note_on', channel=1, note=55, velocity=0, time=14),
  Message('note_on', channel=1, note=45, velocity=127, time=104),
  Message('note_on', channel=1, note=57, velocity=124, time=0),
  Message('note_on', channel=1, note=43, velocity=0, time=38),
  Message('note_on', channel=1, note=45, velocity=0, time=58),
  Message('note_on', channel=1, note=57, velocity=0, time=43),
  Message('note_on', channel=1, note=40, velocity=104, time=101),
  Message('note_on', channel=1, note=52, velocity=109, time=0),
  Message('note_on', channel=1, note=52, velocity=0, time=120),
  Message('note_on', channel=1, note=40, velocity=0, time=8),
  Message('note_on', channel=1, note=40, velocity=114, time=112),
  Message('note_on', channel=1, note=52, velocity=109, time=0),
  Message('note_on', channel=1, note=40, velocity=0, time=181),
  Message('note_on', channel=1, note=52, velocity=0, time=20),
  Message('note_on', channel=1, note=43, velocity=114, time=39),
  Message('note_on', channel=1, note=55, velocity=120, time=0),
  Message('note_on', channel=1, note=55, velocity=0, time=180),
  Message('note_on', channel=1, note=43, velocity=0, time=12),
  Message('note_on', channel=1, note=45, velocity=124, time=48),
  Message('note_on', channel=1, note=57, velocity=120, time=0),
  Message('note_on', channel=1, note=45, velocity=0, time=215),
  Message('note_on', channel=1, note=57, velocity=0, time=221),
  Message('note_on', channel=1, note=45, velocity=124, time=44),
  Message('note_on', channel=1, note=60, velocity=124, time=0),
  Message('note_on', channel=1, note=64, velocity=120, time=0),
  Message('note_on', channel=1, note=60, velocity=0, time=126),
  Message('note_on', channel=1, note=64, velocity=0, time=14),
  Message('note_on', channel=1, note=48, velocity=114, time=100),
  Message('note_on', channel=1, note=60, velocity=104, time=0),
  Message('note_on', channel=1, note=45, velocity=0, time=4),
  Message('note_on', channel=1, note=60, velocity=0, time=175),
  Message('note_on', channel=1, note=48, velocity=0, time=35),
  Message('note_on', channel=1, note=50, velocity=114, time=26),
  Message('note_on', channel=1, note=62, velocity=109, time=0),
  Message('note_on', channel=1, note=50, velocity=0, time=209),
  Message('note_on', channel=1, note=62, velocity=0, time=7),
  Message('note_on', channel=1, note=52, velocity=124, time=24),
  Message('note_on', channel=1, note=60, velocity=114, time=0),
  Message('note_on', channel=1, note=64, velocity=109, time=0),
  Message('note_on', channel=1, note=52, velocity=0, time=131),
  Message('note_on', channel=1, note=60, velocity=0, time=3),
  Message('note_on', channel=1, note=64, velocity=0, time=0),
  Message('aftertouch', channel=1, value=5, time=257),
  Message('note_on', channel=1, note=45, velocity=120, time=89),
  Message('note_on', channel=1, note=52, velocity=114, time=0),
  Message('note_on', channel=1, note=57, velocity=120, time=0),
  Message('note_on', channel=1, note=60, velocity=127, time=0),
  Message('note_on', channel=1, note=45, velocity=0, time=223),
  Message('note_on', channel=1, note=45, velocity=114, time=257),
  Message('note_on', channel=1, note=52, velocity=0, time=95),
  Message('note_on', channel=1, note=57, velocity=0, time=24),
  Message('note_on', channel=1, note=60, velocity=0, time=73),
  Message('note_on', channel=1, note=47, velocity=121, time=48),
  Message('note_on', channel=1, note=52, velocity=114, time=0),
  Message('note_on', channel=1, note=56, velocity=109, time=0),
  Message('note_on', channel=1, note=59, velocity=127, time=0),
  Message('note_on', channel=1, note=45, velocity=0, time=4),
  Message('note_on', channel=1, note=59, velocity=0, time=128),
  Message('note_on', channel=1, note=56, velocity=0, time=4),
  Message('note_on', channel=1, note=52, velocity=0, time=29),
  Message('note_on', channel=1, note=47, velocity=0, time=73),
  Message('note_on', channel=1, note=45, velocity=127, time=242),
  Message('note_on', channel=1, note=48, velocity=120, time=0),
  Message('note_on', channel=1, note=52, velocity=120, time=0),
  Message('note_on', channel=1, note=57, velocity=127, time=0),
  Message('note_on', channel=1, note=57, velocity=0, time=251),
  Message('note_on', channel=1, note=48, velocity=0, time=30),
  Message('note_on', channel=1, note=52, velocity=0, time=3),
  Message('note_on', channel=1, note=45, velocity=0, time=84),
  Message('note_on', channel=1, note=60, velocity=114, time=592),
  Message('note_on', channel=1, note=64, velocity=120, time=0),
  Message('note_on', channel=1, note=69, velocity=124, time=0),
  Message('note_on', channel=1, note=64, velocity=0, time=92),
  Message('note_on', channel=1, note=60, velocity=0, time=5),
  Message('note_on', channel=1, note=69, velocity=0, time=6),
  Message('note_on', channel=1, note=60, velocity=109, time=137),
  Message('note_on', channel=1, note=64, velocity=114, time=0),
  Message('note_on', channel=1, note=69, velocity=120, time=0),
  Message('note_on', channel=1, note=64, velocity=0, time=305),
  Message('note_on', channel=1, note=60, velocity=0, time=64),
  Message('note_on', channel=1, note=69, velocity=0, time=92),
  Message('note_on', channel=1, note=59, velocity=98, time=19),
  Message('note_on', channel=1, note=62, velocity=104, time=0),
  Message('note_on', channel=1, note=67, velocity=114, time=0),
  Message('note_on', channel=1, note=62, velocity=0, time=86),
  Message('note_on', channel=1, note=59, velocity=0, time=30),
  Message('note_on', channel=1, note=67, velocity=0, time=57),
  Message('note_on', channel=1, note=60, velocity=104, time=67),
  Message('note_on', channel=1, note=64, velocity=114, time=0),
  Message('note_on', channel=1, note=69, velocity=120, time=0),
  Message('note_on', channel=1, note=69, velocity=0, time=78),
  Message('note_on', channel=1, note=60, velocity=0, time=9),
  Message('note_on', channel=1, note=64, velocity=0, time=3),
  Message('note_on', channel=1, note=60, velocity=109, time=150),
  Message('note_on', channel=1, note=64, velocity=95, time=0),
  Message('note_on', channel=1, note=69, velocity=120, time=0),
  Message('note_on', channel=1, note=64, velocity=0, time=220),
  Message('note_on', channel=1, note=60, velocity=0, time=56),
  Message('note_on', channel=1, note=69, velocity=0, time=199),
  Message('note_on', channel=1, note=59, velocity=98, time=5),
  Message('note_on', channel=1, note=62, velocity=114, time=0),
  Message('note_on', channel=1, note=67, velocity=109, time=0),
  Message('note_on', channel=1, note=59, velocity=0, time=93),
  Message('note_on', channel=1, note=62, velocity=0, time=19),
  Message('note_on', channel=1, note=67, velocity=0, time=52),
  Message('note_on', channel=1, note=60, velocity=114, time=76),
  Message('note_on', channel=1, note=64, velocity=114, time=0),
  Message('note_on', channel=1, note=69, velocity=124, time=0),
  Message('note_on', channel=1, note=69, velocity=0, time=88),
  Message('note_on', channel=1, note=64, velocity=0, time=17),
  Message('note_on', channel=1, note=60, velocity=0, time=10),
  Message('note_on', channel=1, note=60, velocity=104, time=125),
  Message('note_on', channel=1, note=64, velocity=109, time=0),
  Message('note_on', channel=1, note=69, velocity=124, time=0),
  Message('note_on', channel=1, note=60, velocity=0, time=115),
  Message('note_on', channel=1, note=69, velocity=0, time=9),
  Message('note_on', channel=1, note=64, velocity=0, time=11),
  Message('note_on', channel=1, note=64, velocity=114, time=345),
  Message('note_on', channel=1, note=67, velocity=109, time=0),
  Message('note_on', channel=1, note=72, velocity=127, time=0),
  Message('note_on', channel=1, note=64, velocity=0, time=501),
  Message('note_on', channel=1, note=67, velocity=0, time=93),
  Message('note_on', channel=1, note=72, velocity=0, time=53),
  Message('note_on', channel=1, note=68, velocity=88, time=73),
  Message('note_on', channel=1, note=71, velocity=124, time=0),
  Message('note_on', channel=1, note=74, velocity=127, time=0),
  Message('note_on', channel=1, note=68, velocity=0, time=180),
  Message('note_on', channel=1, note=74, velocity=0, time=53),
  Message('note_on', channel=1, note=71, velocity=0, time=15),
  Message('note_on', channel=1, note=60, velocity=98, time=232),
  Message('note_on', channel=1, note=64, velocity=98, time=0),
  Message('note_on', channel=1, note=69, velocity=114, time=0),
  Message('note_on', channel=1, note=60, velocity=0, time=95),
  Message('note_on', channel=1, note=69, velocity=0, time=7),
  Message('note_on', channel=1, note=64, velocity=0, time=2),
  Message('note_on', channel=1, note=60, velocity=104, time=136),
  Message('note_on', channel=1, note=64, velocity=98, time=0),
  Message('note_on', channel=1, note=69, velocity=104, time=0),
  Message('note_on', channel=1, note=69, velocity=0, time=147),
  Message('note_on', channel=1, note=60, velocity=0, time=0),
  Message('note_on', channel=1, note=64, velocity=0, time=18),
  Message('note_on', channel=1, note=59, velocity=98, time=315),
  Message('note_on', channel=1, note=62, velocity=109, time=0),
  Message('note_on', channel=1, note=67, velocity=114, time=0),
  Message('note_on', channel=1, note=59, velocity=0, time=205),
  Message('note_on', channel=1, note=67, velocity=0, time=26),
  Message('note_on', channel=1, note=60, velocity=104, time=9),
  Message('note_on', channel=1, note=64, velocity=104, time=0),
  Message('note_on', channel=1, note=69, velocity=114, time=0),
  Message('note_on', channel=1, note=62, velocity=0, time=43),
  Message('note_on', channel=1, note=60, velocity=0, time=30),
  Message('note_on', channel=1, note=69, velocity=0, time=3),
  Message('note_on', channel=1, note=64, velocity=0, time=15),
  Message('note_on', channel=1, note=60, velocity=109, time=149),
  Message('note_on', channel=1, note=64, velocity=109, time=0),
  Message('note_on', channel=1, note=69, velocity=120, time=0),
  Message('note_on', channel=1, note=60, velocity=0, time=196),
  Message('note_on', channel=1, note=69, velocity=0, time=2),
  Message('note_on', channel=1, note=64, velocity=0, time=18),
  Message('aftertouch', channel=1, value=3, time=168),
  Message('aftertouch', channel=1, value=4, time=62),
  Message('note_on', channel=1, note=59, velocity=109, time=34),
  Message('note_on', channel=1, note=62, velocity=114, time=0),
  Message('note_on', channel=1, note=67, velocity=109, time=0),
  Message('note_on', channel=1, note=59, velocity=0, time=223),
  Message('note_on', channel=1, note=67, velocity=0, time=14),
  Message('note_on', channel=1, note=60, velocity=88, time=3),
  Message('note_on', channel=1, note=64, velocity=88, time=0),
  Message('note_on', channel=1, note=69, velocity=124, time=0),
  Message('note_on', channel=1, note=62, velocity=0, time=20),
  Message('note_on', channel=1, note=69, velocity=0, time=63),
  Message('note_on', channel=1, note=64, velocity=0, time=11),
  Message('note_on', channel=1, note=60, velocity=0, time=3),
  Message('note_on', channel=1, note=60, velocity=91, time=23),
  Message('note_on', channel=1, note=69, velocity=104, time=0),
  Message('note_on', channel=1, note=64, velocity=98, time=120),
  Message('note_on', channel=1, note=60, velocity=0, time=5),
  Message('note_on', channel=1, note=69, velocity=0, time=10),
  Message('note_on', channel=1, note=64, velocity=0, time=79),
  Message('note_on', channel=1, note=64, velocity=120, time=146),
  Message('note_on', channel=1, note=69, velocity=120, time=0),
  Message('note_on', channel=1, note=72, velocity=120, time=0),
  Message('note_on', channel=1, note=64, velocity=0, time=179),
  Message('note_on', channel=1, note=72, velocity=0, time=22),
  Message('note_on', channel=1, note=69, velocity=0, time=4),
  Message('note_on', channel=1, note=60, velocity=120, time=35),
  Message('note_on', channel=1, note=64, velocity=120, time=0),
  Message('note_on', channel=1, note=69, velocity=127, time=0),
  Message('note_on', channel=1, note=64, velocity=0, time=334),
  Message('note_on', channel=1, note=60, velocity=0, time=8),
  Message('note_on', channel=1, note=69, velocity=0, time=13),
  Message('note_on', channel=1, note=38, velocity=120, time=845),
  Message('note_on', channel=1, note=57, velocity=120, time=0),
  Message('note_on', channel=1, note=62, velocity=109, time=0),
  Message('note_on', channel=1, note=65, velocity=120, time=0),
  Message('note_on', channel=1, note=69, velocity=124, time=0),
  Message('note_on', channel=1, note=57, velocity=0, time=376),
  Message('note_on', channel=1, note=38, velocity=0, time=18),
  Message('note_on', channel=1, note=41, velocity=120, time=86),
  Message('note_on', channel=1, note=57, velocity=120, time=0),
  Message('note_on', channel=1, note=69, velocity=0, time=72),
  Message('note_on', channel=1, note=65, velocity=0, time=12),
  Message('note_on', channel=1, note=62, velocity=0, time=10),
  Message('note_on', channel=1, note=41, velocity=0, time=70),
  Message('note_on', channel=1, note=45, velocity=114, time=76),
  Message('note_on', channel=1, note=62, velocity=114, time=0),
  Message('note_on', channel=1, note=65, velocity=124, time=0),
  Message('note_on', channel=1, note=69, velocity=120, time=0),
  Message('note_on', channel=1, note=45, velocity=0, time=221),
  Message('note_on', channel=1, note=57, velocity=0, time=174),
  Message('note_on', channel=1, note=38, velocity=120, time=85),
  Message('note_on', channel=1, note=57, velocity=114, time=0),
  Message('note_on', channel=1, note=69, velocity=0, time=14),
  Message('note_on', channel=1, note=62, velocity=0, time=20),
  Message('note_on', channel=1, note=65, velocity=0, time=23),
  Message('note_on', channel=1, note=38, velocity=0, time=141),
  Message('note_on', channel=1, note=50, velocity=114, time=42),
  Message('note_on', channel=1, note=62, velocity=114, time=0),
  Message('note_on', channel=1, note=65, velocity=124, time=0),
  Message('note_on', channel=1, note=69, velocity=124, time=0),
  Message('note_on', channel=1, note=57, velocity=0, time=75),
  Message('note_on', channel=1, note=50, velocity=0, time=132),
  Message('note_on', channel=1, note=45, velocity=120, time=33),
  Message('note_on', channel=1, note=57, velocity=109, time=0),
  Message('note_on', channel=1, note=69, velocity=0, time=23),
  Message('note_on', channel=1, note=62, velocity=0, time=1),
  Message('note_on', channel=1, note=65, velocity=0, time=19),
  Message('note_on', channel=1, note=45, velocity=0, time=48),
  Message('note_on', channel=1, note=57, velocity=0, time=37),
  Message('note_on', channel=1, note=45, velocity=120, time=112),
  Message('note_on', channel=1, note=57, velocity=120, time=0),
  Message('note_on', channel=1, note=60, velocity=98, time=0),
  Message('note_on', channel=1, note=64, velocity=120, time=0),
  Message('note_on', channel=1, note=69, velocity=124, time=0),
  Message('note_on', channel=1, note=45, velocity=0, time=225),
  Message('note_on', channel=1, note=48, velocity=114, time=15),
  Message('note_on', channel=1, note=57, velocity=0, time=147),
  Message('note_on', channel=1, note=48, velocity=0, time=91),
  Message('note_on', channel=1, note=52, velocity=110, time=2),
  Message('note_on', channel=1, note=57, velocity=120, time=0),
  Message('note_on', channel=1, note=57, velocity=0, time=135),
  Message('note_on', channel=1, note=69, velocity=0, time=8),
  Message('note_on', channel=1, note=64, velocity=0, time=14),
  Message('note_on', channel=1, note=60, velocity=0, time=4),
  Message('note_on', channel=1, note=52, velocity=0, time=77),
  Message('note_on', channel=1, note=57, velocity=120, time=2),
  Message('note_on', channel=1, note=57, velocity=114, time=0),
  Message('note_on', channel=1, note=57, velocity=0, time=178),
  Message('note_on', channel=1, note=45, velocity=120, time=302),
  Message('note_on', channel=1, note=60, velocity=114, time=0),
  Message('note_on', channel=1, note=64, velocity=120, time=0),
  Message('note_on', channel=1, note=69, velocity=124, time=0),
  Message('note_on', channel=1, note=57, velocity=0, time=90),
  Message('note_on', channel=1, note=45, velocity=0, time=106),
  Message('note_on', channel=1, note=52, velocity=120, time=44),
  Message('note_on', channel=1, note=57, velocity=120, time=0),
  Message('note_on', channel=1, note=57, velocity=0, time=140),
  Message('note_on', channel=1, note=60, velocity=0, time=1),
  Message('note_on', channel=1, note=52, velocity=0, time=49),
  Message('note_on', channel=1, note=48, velocity=120, time=50),
  Message('note_on', channel=1, note=57, velocity=104, time=0),
  Message('note_on', channel=1, note=64, velocity=0, time=75),
  Message('note_on', channel=1, note=48, velocity=0, time=12),
  Message('note_on', channel=1, note=57, velocity=0, time=53),
  Message('note_on', channel=1, note=40, velocity=120, time=100),
  Message('note_on', channel=1, note=56, velocity=124, time=0),
  Message('note_on', channel=1, note=59, velocity=127, time=0),
  Message('note_on', channel=1, note=69, velocity=0, time=64),
  Message('note_on', channel=1, note=40, velocity=0, time=92),
  Message('note_on', channel=1, note=40, velocity=104, time=84),
  Message('note_on', channel=1, note=40, velocity=0, time=151),
  Message('note_on', channel=1, note=44, velocity=124, time=89),
  Message('note_on', channel=1, note=64, velocity=114, time=0),
  Message('note_on', channel=1, note=68, velocity=114, time=0),
  Message('note_on', channel=1, note=59, velocity=0, time=105),
  Message('note_on', channel=1, note=56, velocity=0, time=19),
  Message('note_on', channel=1, note=44, velocity=0, time=35),
  Message('note_on', channel=1, note=40, velocity=98, time=81),
  Message('note_on', channel=1, note=56, velocity=91, time=0),
  Message('note_on', channel=1, note=59, velocity=98, time=0),
  Message('note_on', channel=1, note=40, velocity=0, time=174),
  Message('note_on', channel=1, note=56, velocity=0, time=48),
  Message('note_on', channel=1, note=50, velocity=109, time=18),
  Message('note_on', channel=1, note=52, velocity=91, time=0),
  Message('note_on', channel=1, note=59, velocity=0, time=33),
  Message('note_on', channel=1, note=50, velocity=0, time=74),
  Message('note_on', channel=1, note=52, velocity=0, time=25),
  Message('note_on', channel=1, note=64, velocity=0, time=60),
  Message('note_on', channel=1, note=68, velocity=0, time=29),
  Message('note_on', channel=1, note=47, velocity=109, time=19),
  Message('note_on', channel=1, note=56, velocity=109, time=0),
  Message('note_on', channel=1, note=59, velocity=120, time=0),
  Message('note_on', channel=1, note=47, velocity=0, time=151),
  Message('note_on', channel=1, note=44, velocity=120, time=89),
  Message('note_on', channel=1, note=64, velocity=124, time=0),
  Message('note_on', channel=1, note=68, velocity=114, time=0),
  Message('note_on', channel=1, note=59, velocity=0, time=14),
  Message('note_on', channel=1, note=56, velocity=0, time=67),
  Message('note_on', channel=1, note=44, velocity=0, time=129),
  Message('note_on', channel=1, note=40, velocity=104, time=30),
  Message('note_on', channel=1, note=56, velocity=88, time=0),
  Message('note_on', channel=1, note=59, velocity=109, time=0),
  Message('note_on', channel=1, note=56, velocity=0, time=124),
  Message('note_on', channel=1, note=40, velocity=0, time=3),
  Message('note_on', channel=1, note=59, velocity=0, time=12),
  Message('note_on', channel=1, note=64, velocity=0, time=8),
  Message('note_on', channel=1, note=68, velocity=0, time=19),
  Message('note_on', channel=1, note=45, velocity=120, time=74),
  Message('note_on', channel=1, note=57, velocity=124, time=0),
  Message('note_on', channel=1, note=60, velocity=109, time=0),
  Message('note_on', channel=1, note=64, velocity=120, time=0),
  Message('note_on', channel=1, note=69, velocity=120, time=0),
  Message('note_on', channel=1, note=45, velocity=0, time=179),
  Message('note_on', channel=1, note=40, velocity=114, time=181),
  Message('note_on', channel=1, note=64, velocity=0, time=28),
  Message('note_on', channel=1, note=60, velocity=0, time=38),
  Message('note_on', channel=1, note=69, velocity=0, time=14),
  Message('note_on', channel=1, note=57, velocity=0, time=3),
  Message('note_on', channel=1, note=56, velocity=114, time=37),
  Message('note_on', channel=1, note=64, velocity=120, time=0),
  Message('note_on', channel=1, note=68, velocity=114, time=0),
  Message('note_on', channel=1, note=40, velocity=0, time=48),
  Message('note_on', channel=1, note=45, velocity=124, time=192),
  Message('note_on', channel=1, note=64, velocity=0, time=20),
  Message('note_on', channel=1, note=68, velocity=0, time=18),
  Message('note_on', channel=1, note=56, velocity=0, time=47),
  Message('note_on', channel=1, note=45, velocity=0, time=118),
  Message('note_on', channel=1, note=55, velocity=120, time=37),
  Message('note_on', channel=1, note=57, velocity=114, time=0),
  Message('note_on', channel=1, note=60, velocity=124, time=0),
  Message('note_on', channel=1, note=64, velocity=114, time=0),
  Message('note_on', channel=1, note=55, velocity=0, time=89),
  Message('note_on', channel=1, note=64, velocity=0, time=267),
  Message('note_on', channel=1, note=60, velocity=0, time=1),
  Message('note_on', channel=1, note=57, velocity=0, time=14),
  Message('note_on', channel=1, note=33, velocity=124, time=109),
  Message('note_on', channel=1, note=33, velocity=0, time=238),
  MetaMessage('end_of_track', time=0)])
MidiTrack([
  MetaMessage('track_name', name='Hi-hat only', time=0),
  Message('control_change', channel=9, control=0, value=120, time=0),
  Message('control_change', channel=9, control=32, value=0, time=0),
  Message('program_change', channel=9, program=0, time=0),
  Message('note_on', channel=9, note=42, velocity=89, time=30720),
  Message('note_off', channel=9, note=42, velocity=64, time=88),
  Message('note_on', channel=9, note=46, velocity=96, time=152),
  Message('note_off', channel=9, note=46, velocity=64, time=114),
  Message('note_on', channel=9, note=42, velocity=96, time=126),
  Message('note_off', channel=9, note=42, velocity=64, time=50),
  Message('note_on', channel=9, note=46, velocity=104, time=190),
  Message('note_off', channel=9, note=46, velocity=64, time=138),
  Message('note_on', channel=9, note=42, velocity=109, time=102),
  Message('note_off', channel=9, note=42, velocity=64, time=74),
  Message('note_on', channel=9, note=42, velocity=92, time=166),
  Message('note_off', channel=9, note=42, velocity=64, time=52),
  Message('note_on', channel=9, note=42, velocity=84, time=68),
  Message('note_off', channel=9, note=42, velocity=64, time=64),
  Message('note_on', channel=9, note=42, velocity=114, time=56),
  Message('note_off', channel=9, note=42, velocity=64, time=62),
  Message('note_on', channel=9, note=42, velocity=96, time=178),
  Message('note_off', channel=9, note=42, velocity=64, time=38),
  Message('note_on', channel=9, note=42, velocity=79, time=82),
  Message('note_off', channel=9, note=42, velocity=64, time=50),
  Message('note_on', channel=9, note=42, velocity=114, time=70),
  Message('note_off', channel=9, note=42, velocity=64, time=74),
  Message('note_on', channel=9, note=46, velocity=92, time=166),
  Message('note_off', channel=9, note=46, velocity=64, time=190),
  Message('note_on', channel=9, note=42, velocity=104, time=50),
  Message('note_off', channel=9, note=42, velocity=64, time=62),
  Message('note_on', channel=9, note=46, velocity=100, time=178),
  Message('note_off', channel=9, note=46, velocity=64, time=192),
  Message('note_on', channel=9, note=42, velocity=104, time=48),
  Message('note_off', channel=9, note=42, velocity=64, time=74),
  Message('note_on', channel=9, note=42, velocity=89, time=166),
  Message('note_off', channel=9, note=42, velocity=64, time=62),
  Message('note_on', channel=9, note=42, velocity=104, time=58),
  Message('note_off', channel=9, note=42, velocity=64, time=62),
  Message('note_on', channel=9, note=42, velocity=84, time=58),
  Message('note_off', channel=9, note=42, velocity=64, time=88),
  Message('note_on', channel=9, note=42, velocity=89, time=152),
  Message('note_off', channel=9, note=42, velocity=64, time=48),
  Message('note_on', channel=9, note=42, velocity=81, time=72),
  Message('note_off', channel=9, note=42, velocity=64, time=48),
  Message('note_on', channel=9, note=42, velocity=104, time=72),
  Message('note_off', channel=9, note=42, velocity=64, time=62),
  Message('note_on', channel=9, note=46, velocity=96, time=178),
  Message('note_off', channel=9, note=46, velocity=64, time=176),
  Message('note_on', channel=9, note=42, velocity=104, time=64),
  Message('note_off', channel=9, note=42, velocity=64, time=64),
  Message('note_on', channel=9, note=46, velocity=89, time=176),
  Message('note_off', channel=9, note=46, velocity=64, time=152),
  Message('note_on', channel=9, note=42, velocity=100, time=88),
  Message('note_off', channel=9, note=42, velocity=64, time=64),
  Message('note_on', channel=9, note=42, velocity=81, time=176),
  Message('note_off', channel=9, note=42, velocity=64, time=36),
  Message('note_on', channel=9, note=42, velocity=73, time=84),
  Message('note_off', channel=9, note=42, velocity=64, time=50),
  Message('note_on', channel=9, note=42, velocity=92, time=70),
  Message('note_off', channel=9, note=42, velocity=64, time=60),
  Message('note_on', channel=9, note=42, velocity=92, time=180),
  Message('note_off', channel=9, note=42, velocity=64, time=50),
  Message('note_on', channel=9, note=42, velocity=77, time=70),
  Message('note_off', channel=9, note=42, velocity=64, time=48),
  Message('note_on', channel=9, note=42, velocity=104, time=72),
  Message('note_off', channel=9, note=42, velocity=64, time=50),
  Message('note_on', channel=9, note=46, velocity=92, time=190),
  Message('note_off', channel=9, note=46, velocity=64, time=150),
  Message('note_on', channel=9, note=42, velocity=100, time=90),
  Message('note_off', channel=9, note=42, velocity=64, time=62),
  Message('note_on', channel=9, note=46, velocity=92, time=178),
  Message('note_off', channel=9, note=46, velocity=64, time=138),
  Message('note_on', channel=9, note=42, velocity=92, time=102),
  Message('note_off', channel=9, note=42, velocity=64, time=50),
  Message('note_on', channel=9, note=42, velocity=84, time=70),
  Message('note_off', channel=9, note=42, velocity=64, time=64),
  Message('note_on', channel=9, note=42, velocity=100, time=56),
  Message('note_off', channel=9, note=42, velocity=64, time=50),
  Message('note_on', channel=9, note=46, velocity=92, time=70),
  Message('note_off', channel=9, note=46, velocity=64, time=76),
  Message('note_on', channel=9, note=42, velocity=109, time=44),
  Message('note_off', channel=9, note=42, velocity=64, time=100),
  Message('note_on', channel=9, note=42, velocity=89, time=54140),
  Message('note_off', channel=9, note=42, velocity=64, time=88),
  Message('note_on', channel=9, note=46, velocity=96, time=152),
  Message('note_off', channel=9, note=46, velocity=64, time=114),
  Message('note_on', channel=9, note=42, velocity=96, time=126),
  Message('note_off', channel=9, note=42, velocity=64, time=50),
  Message('note_on', channel=9, note=46, velocity=104, time=190),
  Message('note_off', channel=9, note=46, velocity=64, time=138),
  Message('note_on', channel=9, note=42, velocity=109, time=102),
  Message('note_off', channel=9, note=42, velocity=64, time=74),
  Message('note_on', channel=9, note=42, velocity=92, time=166),
  Message('note_off', channel=9, note=42, velocity=64, time=52),
  Message('note_on', channel=9, note=42, velocity=84, time=68),
  Message('note_off', channel=9, note=42, velocity=64, time=64),
  Message('note_on', channel=9, note=42, velocity=114, time=56),
  Message('note_off', channel=9, note=42, velocity=64, time=62),
  Message('note_on', channel=9, note=42, velocity=96, time=178),
  Message('note_off', channel=9, note=42, velocity=64, time=38),
  Message('note_on', channel=9, note=42, velocity=79, time=82),
  Message('note_off', channel=9, note=42, velocity=64, time=50),
  Message('note_on', channel=9, note=42, velocity=114, time=70),
  Message('note_off', channel=9, note=42, velocity=64, time=74),
  Message('note_on', channel=9, note=46, velocity=92, time=166),
  Message('note_off', channel=9, note=46, velocity=64, time=190),
  Message('note_on', channel=9, note=42, velocity=104, time=50),
  Message('note_off', channel=9, note=42, velocity=64, time=62),
  Message('note_on', channel=9, note=46, velocity=100, time=178),
  Message('note_off', channel=9, note=46, velocity=64, time=192),
  Message('note_on', channel=9, note=42, velocity=104, time=48),
  Message('note_off', channel=9, note=42, velocity=64, time=74),
  Message('note_on', channel=9, note=42, velocity=89, time=166),
  Message('note_off', channel=9, note=42, velocity=64, time=62),
  Message('note_on', channel=9, note=42, velocity=104, time=58),
  Message('note_off', channel=9, note=42, velocity=64, time=62),
  Message('note_on', channel=9, note=42, velocity=84, time=58),
  Message('note_off', channel=9, note=42, velocity=64, time=88),
  Message('note_on', channel=9, note=42, velocity=89, time=152),
  Message('note_off', channel=9, note=42, velocity=64, time=48),
  Message('note_on', channel=9, note=42, velocity=81, time=72),
  Message('note_off', channel=9, note=42, velocity=64, time=48),
  Message('note_on', channel=9, note=42, velocity=104, time=72),
  Message('note_off', channel=9, note=42, velocity=64, time=62),
  Message('note_on', channel=9, note=46, velocity=96, time=178),
  Message('note_off', channel=9, note=46, velocity=64, time=176),
  Message('note_on', channel=9, note=42, velocity=104, time=64),
  Message('note_off', channel=9, note=42, velocity=64, time=64),
  Message('note_on', channel=9, note=46, velocity=89, time=176),
  Message('note_off', channel=9, note=46, velocity=64, time=152),
  Message('note_on', channel=9, note=42, velocity=100, time=88),
  Message('note_off', channel=9, note=42, velocity=64, time=64),
  Message('note_on', channel=9, note=42, velocity=81, time=176),
  Message('note_off', channel=9, note=42, velocity=64, time=36),
  Message('note_on', channel=9, note=42, velocity=73, time=84),
  Message('note_off', channel=9, note=42, velocity=64, time=50),
  Message('note_on', channel=9, note=42, velocity=92, time=70),
  Message('note_off', channel=9, note=42, velocity=64, time=60),
  Message('note_on', channel=9, note=42, velocity=92, time=180),
  Message('note_off', channel=9, note=42, velocity=64, time=50),
  Message('note_on', channel=9, note=42, velocity=77, time=70),
  Message('note_off', channel=9, note=42, velocity=64, time=48),
  Message('note_on', channel=9, note=42, velocity=104, time=72),
  Message('note_off', channel=9, note=42, velocity=64, time=50),
  Message('note_on', channel=9, note=46, velocity=92, time=190),
  Message('note_off', channel=9, note=46, velocity=64, time=150),
  Message('note_on', channel=9, note=42, velocity=100, time=90),
  Message('note_off', channel=9, note=42, velocity=64, time=62),
  Message('note_on', channel=9, note=46, velocity=92, time=178),
  Message('note_off', channel=9, note=46, velocity=64, time=138),
  Message('note_on', channel=9, note=42, velocity=92, time=102),
  Message('note_off', channel=9, note=42, velocity=64, time=50),
  Message('note_on', channel=9, note=42, velocity=84, time=70),
  Message('note_off', channel=9, note=42, velocity=64, time=64),
  Message('note_on', channel=9, note=42, velocity=100, time=56),
  Message('note_off', channel=9, note=42, velocity=64, time=50),
  Message('note_on', channel=9, note=46, velocity=92, time=70),
  Message('note_off', channel=9, note=46, velocity=64, time=76),
  Message('note_on', channel=9, note=42, velocity=109, time=44),
  Message('note_off', channel=9, note=42, velocity=64, time=100),
  MetaMessage('end_of_track', time=0)])
MidiTrack([
  MetaMessage('track_name', name='Drums', time=0),
  Message('control_change', channel=9, control=0, value=120, time=0),
  Message('control_change', channel=9, control=32, value=0, time=0),
  Message('program_change', channel=9, program=0, time=0),
  Message('note_on', channel=9, note=36, velocity=97, time=15360),
  Message('note_off', channel=9, note=36, velocity=64, time=120),
  Message('note_on', channel=9, note=38, velocity=94, time=360),
  Message('note_off', channel=9, note=38, velocity=64, time=240),
  Message('note_on', channel=9, note=36, velocity=94, time=0),
  Message('note_off', channel=9, note=36, velocity=64, time=308),
  Message('note_on', channel=9, note=36, velocity=94, time=172),
  Message('note_off', channel=9, note=36, velocity=64, time=152),
  Message('note_on', channel=9, note=38, velocity=101, time=88),
  Message('note_off', channel=9, note=38, velocity=64, time=202),
  Message('note_on', channel=9, note=36, velocity=90, time=278),
  Message('note_off', channel=9, note=36, velocity=64, time=154),
  Message('note_on', channel=9, note=38, velocity=99, time=326),
  Message('note_on', channel=9, note=36, velocity=88, time=240),
  Message('note_off', channel=9, note=38, velocity=64, time=2),
  Message('note_off', channel=9, note=36, velocity=64, time=368),
  Message('note_on', channel=9, note=36, velocity=94, time=110),
  Message('note_off', channel=9, note=36, velocity=64, time=218),
  Message('note_on', channel=9, note=38, velocity=97, time=22),
  Message('note_off', channel=9, note=38, velocity=64, time=204),
  Message('note_on', channel=9, note=36, velocity=79, time=36),
  Message('note_off', channel=9, note=36, velocity=64, time=88),
  Message('note_on', channel=9, note=36, velocity=101, time=152),
  Message('note_off', channel=9, note=36, velocity=64, time=166),
  Message('note_on', channel=9, note=38, velocity=94, time=314),
  Message('note_on', channel=9, note=36, velocity=97, time=240),
  Message('note_off', channel=9, note=38, velocity=64, time=2),
  Message('note_off', channel=9, note=36, velocity=64, time=290),
  Message('note_on', channel=9, note=36, velocity=99, time=188),
  Message('note_off', channel=9, note=36, velocity=64, time=128),
  Message('note_on', channel=9, note=38, velocity=101, time=112),
  Message('note_off', channel=9, note=38, velocity=64, time=192),
  Message('note_on', channel=9, note=36, velocity=101, time=288),
  Message('note_off', channel=9, note=36, velocity=64, time=164),
  Message('note_on', channel=9, note=38, velocity=99, time=316),
  Message('note_off', channel=9, note=38, velocity=64, time=240),
  Message('note_on', channel=9, note=36, velocity=97, time=0),
  Message('note_off', channel=9, note=36, velocity=64, time=344),
  Message('note_on', channel=9, note=36, velocity=94, time=136),
  Message('note_off', channel=9, note=36, velocity=64, time=116),
  Message('note_on', channel=9, note=38, velocity=101, time=124),
  Message('note_off', channel=9, note=38, velocity=64, time=140),
  Message('note_on', channel=9, note=36, velocity=92, time=340),
  Message('note_off', channel=9, note=36, velocity=64, time=102),
  Message('note_on', channel=9, note=36, velocity=85, time=138),
  Message('note_off', channel=9, note=36, velocity=64, time=78),
  Message('note_on', channel=9, note=38, velocity=94, time=162),
  Message('note_off', channel=9, note=38, velocity=64, time=190),
  Message('note_on', channel=9, note=36, velocity=101, time=50),
  Message('note_off', channel=9, note=36, velocity=64, time=114),
  Message('note_on', channel=9, note=36, velocity=79, time=846),
  Message('note_off', channel=9, note=36, velocity=64, time=64),
  Message('note_on', channel=9, note=36, velocity=101, time=176),
  Message('note_off', channel=9, note=36, velocity=64, time=114),
  Message('note_on', channel=9, note=36, velocity=97, time=126),
  Message('note_off', channel=9, note=36, velocity=64, time=88),
  Message('note_on', channel=9, note=38, velocity=107, time=152),
  Message('note_off', channel=9, note=38, velocity=64, time=204),
  Message('note_on', channel=9, note=36, velocity=104, time=36),
  Message('note_off', channel=9, note=36, velocity=64, time=268),
  Message('note_on', channel=9, note=36, velocity=94, time=212),
  Message('note_off', channel=9, note=36, velocity=64, time=64),
  Message('note_on', channel=9, note=38, velocity=107, time=176),
  Message('note_off', channel=9, note=38, velocity=64, time=164),
  Message('note_on', channel=9, note=36, velocity=74, time=76),
  Message('note_off', channel=9, note=36, velocity=64, time=88),
  Message('note_on', channel=9, note=36, velocity=92, time=152),
  Message('note_off', channel=9, note=36, velocity=64, time=102),
  Message('note_on', channel=9, note=36, velocity=85, time=138),
  Message('note_off', channel=9, note=36, velocity=64, time=78),
  Message('note_on', channel=9, note=38, velocity=94, time=162),
  Message('note_off', channel=9, note=38, velocity=64, time=190),
  Message('note_on', channel=9, note=36, velocity=101, time=50),
  Message('note_off', channel=9, note=36, velocity=64, time=114),
  Message('note_on', channel=9, note=36, velocity=79, time=846),
  Message('aftertouch', channel=9, value=4, time=55),
  Message('aftertouch', channel=9, value=3, time=7),
  Message('note_off', channel=9, note=36, velocity=64, time=2),
  Message('note_on', channel=9, note=36, velocity=101, time=176),
  Message('note_off', channel=9, note=36, velocity=64, time=114),
  Message('note_on', channel=9, note=36, velocity=97, time=126),
  Message('note_off', channel=9, note=36, velocity=64, time=88),
  Message('note_on', channel=9, note=38, velocity=107, time=152),
  Message('note_off', channel=9, note=38, velocity=64, time=204),
  Message('note_on', channel=9, note=36, velocity=104, time=36),
  Message('note_off', channel=9, note=36, velocity=64, time=268),
  Message('note_on', channel=9, note=36, velocity=94, time=212),
  Message('note_off', channel=9, note=36, velocity=64, time=64),
  Message('note_on', channel=9, note=38, velocity=107, time=176),
  Message('note_off', channel=9, note=38, velocity=64, time=164),
  Message('note_on', channel=9, note=36, velocity=74, time=76),
  Message('note_off', channel=9, note=36, velocity=64, time=88),
  Message('note_on', channel=9, note=36, velocity=97, time=7832),
  Message('note_on', channel=9, note=42, velocity=89, time=0),
  Message('note_off', channel=9, note=42, velocity=64, time=88),
  Message('note_off', channel=9, note=36, velocity=64, time=32),
  Message('note_on', channel=9, note=46, velocity=96, time=120),
  Message('note_off', channel=9, note=46, velocity=64, time=114),
  Message('note_on', channel=9, note=38, velocity=94, time=126),
  Message('note_on', channel=9, note=42, velocity=96, time=0),
  Message('note_off', channel=9, note=42, velocity=64, time=50),
  Message('note_off', channel=9, note=38, velocity=64, time=190),
  Message('note_on', channel=9, note=36, velocity=94, time=0),
  Message('note_on', channel=9, note=46, velocity=104, time=0),
  Message('note_off', channel=9, note=46, velocity=64, time=138),
  Message('note_on', channel=9, note=42, velocity=109, time=102),
  Message('note_off', channel=9, note=36, velocity=64, time=68),
  Message('note_off', channel=9, note=42, velocity=64, time=6),
  Message('note_on', channel=9, note=36, velocity=94, time=166),
  Message('note_on', channel=9, note=42, velocity=92, time=0),
  Message('note_off', channel=9, note=42, velocity=64, time=52),
  Message('note_on', channel=9, note=42, velocity=84, time=68),
  Message('note_off', channel=9, note=36, velocity=64, time=32),
  Message('note_off', channel=9, note=42, velocity=64, time=32),
  Message('note_on', channel=9, note=38, velocity=101, time=56),
  Message('note_on', channel=9, note=42, velocity=114, time=0),
  Message('note_off', channel=9, note=42, velocity=64, time=62),
  Message('note_off', channel=9, note=38, velocity=64, time=140),
  Message('note_on', channel=9, note=42, velocity=96, time=38),
  Message('note_off', channel=9, note=42, velocity=64, time=38),
  Message('note_on', channel=9, note=42, velocity=79, time=82),
  Message('note_off', channel=9, note=42, velocity=64, time=50),
  Message('note_on', channel=9, note=36, velocity=90, time=70),
  Message('note_on', channel=9, note=42, velocity=114, time=0),
  Message('note_off', channel=9, note=42, velocity=64, time=74),
  Message('note_off', channel=9, note=36, velocity=64, time=80),
  Message('note_on', channel=9, note=46, velocity=92, time=86),
  Message('note_off', channel=9, note=46, velocity=64, time=190),
  Message('note_on', channel=9, note=38, velocity=99, time=50),
  Message('note_on', channel=9, note=42, velocity=104, time=0),
  Message('note_off', channel=9, note=42, velocity=64, time=62),
  Message('note_on', channel=9, note=36, velocity=88, time=178),
  Message('note_on', channel=9, note=46, velocity=100, time=0),
  Message('note_off', channel=9, note=38, velocity=64, time=2),
  Message('note_off', channel=9, note=46, velocity=64, time=190),
  Message('note_on', channel=9, note=42, velocity=104, time=48),
  Message('note_off', channel=9, note=42, velocity=64, time=74),
  Message('note_off', channel=9, note=36, velocity=64, time=56),
  Message('note_on', channel=9, note=36, velocity=94, time=110),
  Message('note_on', channel=9, note=42, velocity=89, time=0),
  Message('note_off', channel=9, note=42, velocity=64, time=62),
  Message('note_on', channel=9, note=42, velocity=104, time=58),
  Message('note_off', channel=9, note=42, velocity=64, time=62),
  Message('note_off', channel=9, note=36, velocity=64, time=36),
  Message('note_on', channel=9, note=38, velocity=97, time=22),
  Message('note_on', channel=9, note=42, velocity=84, time=0),
  Message('note_off', channel=9, note=42, velocity=64, time=88),
  Message('note_off', channel=9, note=38, velocity=64, time=116),
  Message('note_on', channel=9, note=36, velocity=79, time=36),
  Message('note_on', channel=9, note=42, velocity=89, time=0),
  Message('note_off', channel=9, note=42, velocity=64, time=48),
  Message('note_off', channel=9, note=36, velocity=64, time=40),
  Message('note_on', channel=9, note=42, velocity=81, time=32),
  Message('note_off', channel=9, note=42, velocity=64, time=48),
  Message('note_on', channel=9, note=36, velocity=101, time=72),
  Message('note_on', channel=9, note=42, velocity=104, time=0),
  Message('note_off', channel=9, note=42, velocity=64, time=62),
  Message('note_off', channel=9, note=36, velocity=64, time=104),
  Message('note_on', channel=9, note=46, velocity=96, time=74),
  Message('note_off', channel=9, note=46, velocity=64, time=176),
  Message('note_on', channel=9, note=38, velocity=94, time=64),
  Message('note_on', channel=9, note=42, velocity=104, time=0),
  Message('note_off', channel=9, note=42, velocity=64, time=64),
  Message('note_on', channel=9, note=36, velocity=97, time=176),
  Message('note_on', channel=9, note=46, velocity=89, time=0),
  Message('note_off', channel=9, note=38, velocity=64, time=2),
  Message('note_off', channel=9, note=46, velocity=64, time=150),
  Message('note_on', channel=9, note=42, velocity=100, time=88),
  Message('note_off', channel=9, note=36, velocity=64, time=52),
  Message('note_off', channel=9, note=42, velocity=64, time=12),
  Message('note_on', channel=9, note=36, velocity=99, time=176),
  Message('note_on', channel=9, note=42, velocity=81, time=0),
  Message('note_off', channel=9, note=42, velocity=64, time=36),
  Message('note_on', channel=9, note=42, velocity=73, time=84),
  Message('note_off', channel=9, note=36, velocity=64, time=8),
  Message('note_off', channel=9, note=42, velocity=64, time=42),
  Message('note_on', channel=9, note=38, velocity=101, time=70),
  Message('note_on', channel=9, note=42, velocity=92, time=0),
  Message('note_off', channel=9, note=42, velocity=64, time=60),
  Message('note_off', channel=9, note=38, velocity=64, time=132),
  Message('note_on', channel=9, note=42, velocity=92, time=48),
  Message('note_off', channel=9, note=42, velocity=64, time=50),
  Message('note_on', channel=9, note=42, velocity=77, time=70),
  Message('note_off', channel=9, note=42, velocity=64, time=48),
  Message('note_on', channel=9, note=36, velocity=101, time=72),
  Message('note_on', channel=9, note=42, velocity=104, time=0),
  Message('note_off', channel=9, note=42, velocity=64, time=50),
  Message('note_off', channel=9, note=36, velocity=64, time=114),
  Message('note_on', channel=9, note=46, velocity=92, time=76),
  Message('note_off', channel=9, note=46, velocity=64, time=150),
  Message('note_on', channel=9, note=38, velocity=99, time=90),
  Message('note_on', channel=9, note=42, velocity=100, time=0),
  Message('note_off', channel=9, note=42, velocity=64, time=62),
  Message('note_off', channel=9, note=38, velocity=64, time=178),
  Message('note_on', channel=9, note=36, velocity=97, time=0),
  Message('note_on', channel=9, note=46, velocity=92, time=0),
  Message('note_off', channel=9, note=46, velocity=64, time=138),
  Message('note_on', channel=9, note=42, velocity=92, time=102),
  Message('note_off', channel=9, note=42, velocity=64, time=50),
  Message('note_off', channel=9, note=36, velocity=64, time=54),
  Message('note_on', channel=9, note=42, velocity=84, time=16),
  Message('note_off', channel=9, note=42, velocity=64, time=64),
  Message('note_on', channel=9, note=36, velocity=94, time=56),
  Message('note_on', channel=9, note=42, velocity=100, time=0),
  Message('note_off', channel=9, note=42, velocity=64, time=50),
  Message('note_off', channel=9, note=36, velocity=64, time=66),
  Message('note_on', channel=9, note=46, velocity=92, time=4),
  Message('note_off', channel=9, note=46, velocity=64, time=76),
  Message('note_on', channel=9, note=38, velocity=101, time=44),
  Message('note_on', channel=9, note=42, velocity=109, time=0),
  Message('note_off', channel=9, note=42, velocity=64, time=100),
  Message('note_off', channel=9, note=38, velocity=64, time=40),
  Message('note_on', channel=9, note=36, velocity=92, time=340),
  Message('note_on', channel=9, note=42, velocity=89, time=0),
  Message('note_off', channel=9, note=42, velocity=64, time=88),
  Message('note_off', channel=9, note=36, velocity=64, time=14),
  Message('note_on', channel=9, note=36, velocity=85, time=138),
  Message('note_on', channel=9, note=46, velocity=96, time=0),
  Message('note_off', channel=9, note=36, velocity=64, time=78),
  Message('note_off', channel=9, note=46, velocity=64, time=36),
  Message('note_on', channel=9, note=38, velocity=94, time=126),
  Message('note_on', channel=9, note=42, velocity=96, time=0),
  Message('note_off', channel=9, note=42, velocity=64, time=50),
  Message('note_off', channel=9, note=38, velocity=64, time=140),
  Message('note_on', channel=9, note=36, velocity=101, time=50),
  Message('note_on', channel=9, note=46, velocity=104, time=0),
  Message('note_off', channel=9, note=36, velocity=64, time=114),
  Message('note_off', channel=9, note=46, velocity=64, time=24),
  Message('note_on', channel=9, note=42, velocity=109, time=102),
  Message('note_off', channel=9, note=42, velocity=64, time=74),
  Message('note_on', channel=9, note=42, velocity=92, time=166),
  Message('note_off', channel=9, note=42, velocity=64, time=52),
  Message('note_on', channel=9, note=42, velocity=84, time=68),
  Message('note_off', channel=9, note=42, velocity=64, time=64),
  Message('note_on', channel=9, note=42, velocity=114, time=56),
  Message('note_off', channel=9, note=42, velocity=64, time=62),
  Message('note_on', channel=9, note=36, velocity=79, time=178),
  Message('note_on', channel=9, note=42, velocity=96, time=0),
  Message('note_off', channel=9, note=42, velocity=64, time=38),
  Message('note_off', channel=9, note=36, velocity=64, time=26),
  Message('note_on', channel=9, note=42, velocity=79, time=56),
  Message('note_off', channel=9, note=42, velocity=64, time=50),
  Message('note_on', channel=9, note=36, velocity=101, time=70),
  Message('note_on', channel=9, note=42, velocity=114, time=0),
  Message('note_off', channel=9, note=42, velocity=64, time=74),
  Message('note_off', channel=9, note=36, velocity=64, time=40),
  Message('note_on', channel=9, note=36, velocity=97, time=126),
  Message('note_on', channel=9, note=46, velocity=92, time=0),
  Message('note_off', channel=9, note=36, velocity=64, time=88),
  Message('note_off', channel=9, note=46, velocity=64, time=102),
  Message('note_on', channel=9, note=38, velocity=107, time=50),
  Message('note_on', channel=9, note=42, velocity=104, time=0),
  Message('note_off', channel=9, note=42, velocity=64, time=62),
  Message('note_off', channel=9, note=38, velocity=64, time=142),
  Message('note_on', channel=9, note=36, velocity=104, time=36),
  Message('note_on', channel=9, note=46, velocity=100, time=0),
  Message('note_off', channel=9, note=46, velocity=64, time=192),
  Message('note_on', channel=9, note=42, velocity=104, time=48),
  Message('note_off', channel=9, note=36, velocity=64, time=28),
  Message('note_off', channel=9, note=42, velocity=64, time=46),
  Message('note_on', channel=9, note=36, velocity=94, time=166),
  Message('note_on', channel=9, note=42, velocity=89, time=0),
  Message('note_off', channel=9, note=42, velocity=64, time=62),
  Message('note_off', channel=9, note=36, velocity=64, time=2),
  Message('note_on', channel=9, note=42, velocity=104, time=56),
  Message('note_off', channel=9, note=42, velocity=64, time=62),
  Message('note_on', channel=9, note=38, velocity=107, time=58),
  Message('note_on', channel=9, note=42, velocity=84, time=0),
  Message('note_off', channel=9, note=42, velocity=64, time=88),
  Message('note_off', channel=9, note=38, velocity=64, time=76),
  Message('note_on', channel=9, note=36, velocity=74, time=76),
  Message('note_on', channel=9, note=42, velocity=89, time=0),
  Message('note_off', channel=9, note=42, velocity=64, time=48),
  Message('note_off', channel=9, note=36, velocity=64, time=40),
  Message('note_on', channel=9, note=42, velocity=81, time=32),
  Message('note_off', channel=9, note=42, velocity=64, time=48),
  Message('note_on', channel=9, note=36, velocity=92, time=72),
  Message('note_on', channel=9, note=42, velocity=104, time=0),
  Message('note_off', channel=9, note=42, velocity=64, time=62),
  Message('note_off', channel=9, note=36, velocity=64, time=40),
  Message('note_on', channel=9, note=36, velocity=85, time=138),
  Message('note_on', channel=9, note=46, velocity=96, time=0),
  Message('note_off', channel=9, note=36, velocity=64, time=78),
  Message('note_off', channel=9, note=46, velocity=64, time=98),
  Message('note_on', channel=9, note=38, velocity=94, time=64),
  Message('note_on', channel=9, note=42, velocity=104, time=0),
  Message('note_off', channel=9, note=42, velocity=64, time=64),
  Message('note_off', channel=9, note=38, velocity=64, time=126),
  Message('note_on', channel=9, note=36, velocity=101, time=50),
  Message('note_on', channel=9, note=46, velocity=89, time=0),
  Message('note_off', channel=9, note=36, velocity=64, time=114),
  Message('note_off', channel=9, note=46, velocity=64, time=38),
  Message('note_on', channel=9, note=42, velocity=100, time=88),
  Message('note_off', channel=9, note=42, velocity=64, time=64),
  Message('note_on', channel=9, note=42, velocity=81, time=176),
  Message('note_off', channel=9, note=42, velocity=64, time=36),
  Message('note_on', channel=9, note=42, velocity=73, time=84),
  Message('note_off', channel=9, note=42, velocity=64, time=50),
  Message('note_on', channel=9, note=42, velocity=92, time=70),
  Message('note_off', channel=9, note=42, velocity=64, time=60),
  Message('note_on', channel=9, note=36, velocity=79, time=180),
  Message('note_on', channel=9, note=42, velocity=92, time=0),
  Message('note_off', channel=9, note=42, velocity=64, time=50),
  Message('aftertouch', channel=9, value=4, time=5),
  Message('aftertouch', channel=9, value=3, time=7),
  Message('note_off', channel=9, note=36, velocity=64, time=2),
  Message('note_on', channel=9, note=42, velocity=77, time=56),
  Message('note_off', channel=9, note=42, velocity=64, time=48),
  Message('note_on', channel=9, note=36, velocity=101, time=72),
  Message('note_on', channel=9, note=42, velocity=104, time=0),
  Message('note_off', channel=9, note=42, velocity=64, time=50),
  Message('note_off', channel=9, note=36, velocity=64, time=64),
  Message('note_on', channel=9, note=36, velocity=97, time=126),
  Message('note_on', channel=9, note=46, velocity=92, time=0),
  Message('note_off', channel=9, note=36, velocity=64, time=88),
  Message('note_off', channel=9, note=46, velocity=64, time=62),
  Message('note_on', channel=9, note=38, velocity=107, time=90),
  Message('note_on', channel=9, note=42, velocity=100, time=0),
  Message('note_off', channel=9, note=42, velocity=64, time=62),
  Message('note_off', channel=9, note=38, velocity=64, time=142),
  Message('note_on', channel=9, note=36, velocity=104, time=36),
  Message('note_on', channel=9, note=46, velocity=92, time=0),
  Message('note_off', channel=9, note=46, velocity=64, time=138),
  Message('note_on', channel=9, note=42, velocity=92, time=102),
  Message('note_off', channel=9, note=36, velocity=64, time=28),
  Message('note_off', channel=9, note=42, velocity=64, time=22),
  Message('note_on', channel=9, note=42, velocity=84, time=70),
  Message('note_off', channel=9, note=42, velocity=64, time=64),
  Message('note_on', channel=9, note=36, velocity=94, time=56),
  Message('note_on', channel=9, note=42, velocity=100, time=0),
  Message('note_off', channel=9, note=42, velocity=64, time=50),
  Message('note_off', channel=9, note=36, velocity=64, time=14),
  Message('note_on', channel=9, note=46, velocity=92, time=56),
  Message('note_off', channel=9, note=46, velocity=64, time=76),
  Message('note_on', channel=9, note=38, velocity=107, time=44),
  Message('note_on', channel=9, note=42, velocity=109, time=0),
  Message('note_off', channel=9, note=42, velocity=64, time=100),
  Message('note_off', channel=9, note=38, velocity=64, time=64),
  Message('note_on', channel=9, note=36, velocity=74, time=76),
  Message('note_off', channel=9, note=36, velocity=64, time=88),
  Message('note_on', channel=9, note=36, velocity=97, time=152),
  Message('note_off', channel=9, note=36, velocity=64, time=120),
  Message('note_on', channel=9, note=38, velocity=94, time=360),
  Message('note_off', channel=9, note=38, velocity=64, time=240),
  Message('note_on', channel=9, note=36, velocity=94, time=0),
  Message('note_off', channel=9, note=36, velocity=64, time=308),
  Message('note_on', channel=9, note=36, velocity=94, time=172),
  Message('note_off', channel=9, note=36, velocity=64, time=152),
  Message('note_on', channel=9, note=38, velocity=101, time=88),
  Message('note_off', channel=9, note=38, velocity=64, time=202),
  Message('note_on', channel=9, note=36, velocity=90, time=278),
  Message('note_off', channel=9, note=36, velocity=64, time=154),
  Message('note_on', channel=9, note=38, velocity=99, time=326),
  Message('note_on', channel=9, note=36, velocity=88, time=240),
  Message('note_off', channel=9, note=38, velocity=64, time=2),
  Message('note_off', channel=9, note=36, velocity=64, time=368),
  Message('note_on', channel=9, note=36, velocity=94, time=110),
  Message('note_off', channel=9, note=36, velocity=64, time=218),
  Message('note_on', channel=9, note=38, velocity=97, time=22),
  Message('note_off', channel=9, note=38, velocity=64, time=204),
  Message('note_on', channel=9, note=36, velocity=79, time=36),
  Message('note_off', channel=9, note=36, velocity=64, time=88),
  Message('note_on', channel=9, note=36, velocity=101, time=152),
  Message('note_off', channel=9, note=36, velocity=64, time=166),
  Message('note_on', channel=9, note=38, velocity=94, time=314),
  Message('note_on', channel=9, note=36, velocity=97, time=240),
  Message('note_off', channel=9, note=38, velocity=64, time=2),
  Message('note_off', channel=9, note=36, velocity=64, time=290),
  Message('note_on', channel=9, note=36, velocity=99, time=188),
  Message('note_off', channel=9, note=36, velocity=64, time=128),
  Message('note_on', channel=9, note=38, velocity=101, time=112),
  Message('note_off', channel=9, note=38, velocity=64, time=192),
  Message('note_on', channel=9, note=36, velocity=101, time=288),
  Message('note_off', channel=9, note=36, velocity=64, time=164),
  Message('note_on', channel=9, note=38, velocity=99, time=316),
  Message('note_off', channel=9, note=38, velocity=64, time=240),
  Message('note_on', channel=9, note=36, velocity=97, time=0),
  Message('note_off', channel=9, note=36, velocity=64, time=344),
  Message('note_on', channel=9, note=36, velocity=94, time=136),
  Message('note_off', channel=9, note=36, velocity=64, time=116),
  Message('note_on', channel=9, note=38, velocity=101, time=124),
  Message('note_off', channel=9, note=38, velocity=64, time=140),
  Message('note_on', channel=9, note=36, velocity=92, time=340),
  Message('note_off', channel=9, note=36, velocity=64, time=102),
  Message('note_on', channel=9, note=36, velocity=85, time=138),
  Message('note_off', channel=9, note=36, velocity=64, time=78),
  Message('note_on', channel=9, note=38, velocity=94, time=162),
  Message('note_off', channel=9, note=38, velocity=64, time=190),
  Message('note_on', channel=9, note=36, velocity=101, time=50),
  Message('note_off', channel=9, note=36, velocity=64, time=114),
  Message('note_on', channel=9, note=36, velocity=79, time=846),
  Message('note_off', channel=9, note=36, velocity=64, time=64),
  Message('note_on', channel=9, note=36, velocity=101, time=176),
  Message('note_off', channel=9, note=36, velocity=64, time=114),
  Message('note_on', channel=9, note=36, velocity=97, time=126),
  Message('note_off', channel=9, note=36, velocity=64, time=88),
  Message('note_on', channel=9, note=38, velocity=107, time=152),
  Message('note_off', channel=9, note=38, velocity=64, time=204),
  Message('note_on', channel=9, note=36, velocity=104, time=36),
  Message('note_off', channel=9, note=36, velocity=64, time=268),
  Message('note_on', channel=9, note=36, velocity=94, time=212),
  Message('note_off', channel=9, note=36, velocity=64, time=64),
  Message('note_on', channel=9, note=38, velocity=107, time=176),
  Message('note_off', channel=9, note=38, velocity=64, time=164),
  Message('note_on', channel=9, note=36, velocity=74, time=76),
  Message('note_off', channel=9, note=36, velocity=64, time=88),
  Message('note_on', channel=9, note=36, velocity=92, time=152),
  Message('note_off', channel=9, note=36, velocity=64, time=102),
  Message('note_on', channel=9, note=36, velocity=85, time=138),
  Message('note_off', channel=9, note=36, velocity=64, time=78),
  Message('note_on', channel=9, note=38, velocity=94, time=162),
  Message('note_off', channel=9, note=38, velocity=64, time=190),
  Message('note_on', channel=9, note=36, velocity=101, time=50),
  Message('note_off', channel=9, note=36, velocity=64, time=114),
  Message('note_on', channel=9, note=36, velocity=79, time=846),
  Message('aftertouch', channel=9, value=4, time=55),
  Message('aftertouch', channel=9, value=3, time=7),
  Message('note_off', channel=9, note=36, velocity=64, time=2),
  Message('note_on', channel=9, note=36, velocity=101, time=176),
  Message('note_off', channel=9, note=36, velocity=64, time=114),
  Message('note_on', channel=9, note=36, velocity=97, time=126),
  Message('note_off', channel=9, note=36, velocity=64, time=88),
  Message('note_on', channel=9, note=38, velocity=107, time=152),
  Message('note_off', channel=9, note=38, velocity=64, time=204),
  Message('note_on', channel=9, note=36, velocity=104, time=36),
  Message('note_off', channel=9, note=36, velocity=64, time=268),
  Message('note_on', channel=9, note=36, velocity=94, time=212),
  Message('note_off', channel=9, note=36, velocity=64, time=64),
  Message('note_on', channel=9, note=38, velocity=107, time=176),
  Message('note_off', channel=9, note=38, velocity=64, time=164),
  Message('note_on', channel=9, note=36, velocity=74, time=76),
  Message('note_off', channel=9, note=36, velocity=64, time=88),
  Message('note_on', channel=9, note=36, velocity=97, time=30872),
  Message('note_on', channel=9, note=42, velocity=89, time=0),
  Message('note_off', channel=9, note=42, velocity=64, time=88),
  Message('note_off', channel=9, note=36, velocity=64, time=32),
  Message('note_on', channel=9, note=46, velocity=96, time=120),
  Message('note_off', channel=9, note=46, velocity=64, time=114),
  Message('note_on', channel=9, note=38, velocity=94, time=126),
  Message('note_on', channel=9, note=42, velocity=96, time=0),
  Message('note_off', channel=9, note=42, velocity=64, time=50),
  Message('note_off', channel=9, note=38, velocity=64, time=190),
  Message('note_on', channel=9, note=36, velocity=94, time=0),
  Message('note_on', channel=9, note=46, velocity=104, time=0),
  Message('note_off', channel=9, note=46, velocity=64, time=138),
  Message('note_on', channel=9, note=42, velocity=109, time=102),
  Message('note_off', channel=9, note=36, velocity=64, time=68),
  Message('note_off', channel=9, note=42, velocity=64, time=6),
  Message('note_on', channel=9, note=36, velocity=94, time=166),
  Message('note_on', channel=9, note=42, velocity=92, time=0),
  Message('note_off', channel=9, note=42, velocity=64, time=52),
  Message('note_on', channel=9, note=42, velocity=84, time=68),
  Message('note_off', channel=9, note=36, velocity=64, time=32),
  Message('note_off', channel=9, note=42, velocity=64, time=32),
  Message('note_on', channel=9, note=38, velocity=101, time=56),
  Message('note_on', channel=9, note=42, velocity=114, time=0),
  Message('note_off', channel=9, note=42, velocity=64, time=62),
  Message('note_off', channel=9, note=38, velocity=64, time=140),
  Message('note_on', channel=9, note=42, velocity=96, time=38),
  Message('note_off', channel=9, note=42, velocity=64, time=38),
  Message('note_on', channel=9, note=42, velocity=79, time=82),
  Message('note_off', channel=9, note=42, velocity=64, time=50),
  Message('note_on', channel=9, note=36, velocity=90, time=70),
  Message('note_on', channel=9, note=42, velocity=114, time=0),
  Message('note_off', channel=9, note=42, velocity=64, time=74),
  Message('note_off', channel=9, note=36, velocity=64, time=80),
  Message('note_on', channel=9, note=46, velocity=92, time=86),
  Message('note_off', channel=9, note=46, velocity=64, time=190),
  Message('note_on', channel=9, note=38, velocity=99, time=50),
  Message('note_on', channel=9, note=42, velocity=104, time=0),
  Message('note_off', channel=9, note=42, velocity=64, time=62),
  Message('note_on', channel=9, note=36, velocity=88, time=178),
  Message('note_on', channel=9, note=46, velocity=100, time=0),
  Message('note_off', channel=9, note=38, velocity=64, time=2),
  Message('note_off', channel=9, note=46, velocity=64, time=190),
  Message('note_on', channel=9, note=42, velocity=104, time=48),
  Message('note_off', channel=9, note=42, velocity=64, time=74),
  Message('note_off', channel=9, note=36, velocity=64, time=56),
  Message('note_on', channel=9, note=36, velocity=94, time=110),
  Message('note_on', channel=9, note=42, velocity=89, time=0),
  Message('note_off', channel=9, note=42, velocity=64, time=62),
  Message('note_on', channel=9, note=42, velocity=104, time=58),
  Message('note_off', channel=9, note=42, velocity=64, time=62),
  Message('note_off', channel=9, note=36, velocity=64, time=36),
  Message('note_on', channel=9, note=38, velocity=97, time=22),
  Message('note_on', channel=9, note=42, velocity=84, time=0),
  Message('note_off', channel=9, note=42, velocity=64, time=88),
  Message('note_off', channel=9, note=38, velocity=64, time=116),
  Message('note_on', channel=9, note=36, velocity=79, time=36),
  Message('note_on', channel=9, note=42, velocity=89, time=0),
  Message('note_off', channel=9, note=42, velocity=64, time=48),
  Message('note_off', channel=9, note=36, velocity=64, time=40),
  Message('note_on', channel=9, note=42, velocity=81, time=32),
  Message('note_off', channel=9, note=42, velocity=64, time=48),
  Message('note_on', channel=9, note=36, velocity=101, time=72),
  Message('note_on', channel=9, note=42, velocity=104, time=0),
  Message('note_off', channel=9, note=42, velocity=64, time=62),
  Message('note_off', channel=9, note=36, velocity=64, time=104),
  Message('note_on', channel=9, note=46, velocity=96, time=74),
  Message('note_off', channel=9, note=46, velocity=64, time=176),
  Message('note_on', channel=9, note=38, velocity=94, time=64),
  Message('note_on', channel=9, note=42, velocity=104, time=0),
  Message('note_off', channel=9, note=42, velocity=64, time=64),
  Message('note_on', channel=9, note=36, velocity=97, time=176),
  Message('note_on', channel=9, note=46, velocity=89, time=0),
  Message('note_off', channel=9, note=38, velocity=64, time=2),
  Message('note_off', channel=9, note=46, velocity=64, time=150),
  Message('note_on', channel=9, note=42, velocity=100, time=88),
  Message('note_off', channel=9, note=36, velocity=64, time=52),
  Message('note_off', channel=9, note=42, velocity=64, time=12),
  Message('note_on', channel=9, note=36, velocity=99, time=176),
  Message('note_on', channel=9, note=42, velocity=81, time=0),
  Message('note_off', channel=9, note=42, velocity=64, time=36),
  Message('note_on', channel=9, note=42, velocity=73, time=84),
  Message('note_off', channel=9, note=36, velocity=64, time=8),
  Message('note_off', channel=9, note=42, velocity=64, time=42),
  Message('note_on', channel=9, note=38, velocity=101, time=70),
  Message('note_on', channel=9, note=42, velocity=92, time=0),
  Message('note_off', channel=9, note=42, velocity=64, time=60),
  Message('note_off', channel=9, note=38, velocity=64, time=132),
  Message('note_on', channel=9, note=42, velocity=92, time=48),
  Message('note_off', channel=9, note=42, velocity=64, time=50),
  Message('note_on', channel=9, note=42, velocity=77, time=70),
  Message('note_off', channel=9, note=42, velocity=64, time=48),
  Message('note_on', channel=9, note=36, velocity=101, time=72),
  Message('note_on', channel=9, note=42, velocity=104, time=0),
  Message('note_off', channel=9, note=42, velocity=64, time=50),
  Message('note_off', channel=9, note=36, velocity=64, time=114),
  Message('note_on', channel=9, note=46, velocity=92, time=76),
  Message('note_off', channel=9, note=46, velocity=64, time=150),
  Message('note_on', channel=9, note=38, velocity=99, time=90),
  Message('note_on', channel=9, note=42, velocity=100, time=0),
  Message('note_off', channel=9, note=42, velocity=64, time=62),
  Message('note_off', channel=9, note=38, velocity=64, time=178),
  Message('note_on', channel=9, note=36, velocity=97, time=0),
  Message('note_on', channel=9, note=46, velocity=92, time=0),
  Message('note_off', channel=9, note=46, velocity=64, time=138),
  Message('note_on', channel=9, note=42, velocity=92, time=102),
  Message('note_off', channel=9, note=42, velocity=64, time=50),
  Message('note_off', channel=9, note=36, velocity=64, time=54),
  Message('note_on', channel=9, note=42, velocity=84, time=16),
  Message('note_off', channel=9, note=42, velocity=64, time=64),
  Message('note_on', channel=9, note=36, velocity=94, time=56),
  Message('note_on', channel=9, note=42, velocity=100, time=0),
  Message('note_off', channel=9, note=42, velocity=64, time=50),
  Message('note_off', channel=9, note=36, velocity=64, time=66),
  Message('note_on', channel=9, note=46, velocity=92, time=4),
  Message('note_off', channel=9, note=46, velocity=64, time=76),
  Message('note_on', channel=9, note=38, velocity=101, time=44),
  Message('note_on', channel=9, note=42, velocity=109, time=0),
  Message('note_off', channel=9, note=42, velocity=64, time=100),
  Message('note_off', channel=9, note=38, velocity=64, time=40),
  Message('note_on', channel=9, note=36, velocity=92, time=340),
  Message('note_on', channel=9, note=42, velocity=89, time=0),
  Message('note_off', channel=9, note=42, velocity=64, time=88),
  Message('note_off', channel=9, note=36, velocity=64, time=14),
  Message('note_on', channel=9, note=36, velocity=85, time=138),
  Message('note_on', channel=9, note=46, velocity=96, time=0),
  Message('note_off', channel=9, note=36, velocity=64, time=78),
  Message('note_off', channel=9, note=46, velocity=64, time=36),
  Message('note_on', channel=9, note=38, velocity=94, time=126),
  Message('note_on', channel=9, note=42, velocity=96, time=0),
  Message('note_off', channel=9, note=42, velocity=64, time=50),
  Message('note_off', channel=9, note=38, velocity=64, time=140),
  Message('note_on', channel=9, note=36, velocity=101, time=50),
  Message('note_on', channel=9, note=46, velocity=104, time=0),
  Message('note_off', channel=9, note=36, velocity=64, time=114),
  Message('note_off', channel=9, note=46, velocity=64, time=24),
  Message('note_on', channel=9, note=42, velocity=109, time=102),
  Message('note_off', channel=9, note=42, velocity=64, time=74),
  Message('note_on', channel=9, note=42, velocity=92, time=166),
  Message('note_off', channel=9, note=42, velocity=64, time=52),
  Message('note_on', channel=9, note=42, velocity=84, time=68),
  Message('note_off', channel=9, note=42, velocity=64, time=64),
  Message('note_on', channel=9, note=42, velocity=114, time=56),
  Message('note_off', channel=9, note=42, velocity=64, time=62),
  Message('note_on', channel=9, note=36, velocity=79, time=178),
  Message('note_on', channel=9, note=42, velocity=96, time=0),
  Message('note_off', channel=9, note=42, velocity=64, time=38),
  Message('note_off', channel=9, note=36, velocity=64, time=26),
  Message('note_on', channel=9, note=42, velocity=79, time=56),
  Message('note_off', channel=9, note=42, velocity=64, time=50),
  Message('note_on', channel=9, note=36, velocity=101, time=70),
  Message('note_on', channel=9, note=42, velocity=114, time=0),
  Message('note_off', channel=9, note=42, velocity=64, time=74),
  Message('note_off', channel=9, note=36, velocity=64, time=40),
  Message('note_on', channel=9, note=36, velocity=97, time=126),
  Message('note_on', channel=9, note=46, velocity=92, time=0),
  Message('note_off', channel=9, note=36, velocity=64, time=88),
  Message('note_off', channel=9, note=46, velocity=64, time=102),
  Message('note_on', channel=9, note=38, velocity=107, time=50),
  Message('note_on', channel=9, note=42, velocity=104, time=0),
  Message('note_off', channel=9, note=42, velocity=64, time=62),
  Message('note_off', channel=9, note=38, velocity=64, time=142),
  Message('note_on', channel=9, note=36, velocity=104, time=36),
  Message('note_on', channel=9, note=46, velocity=100, time=0),
  Message('note_off', channel=9, note=46, velocity=64, time=192),
  Message('note_on', channel=9, note=42, velocity=104, time=48),
  Message('note_off', channel=9, note=36, velocity=64, time=28),
  Message('note_off', channel=9, note=42, velocity=64, time=46),
  Message('note_on', channel=9, note=36, velocity=94, time=166),
  Message('note_on', channel=9, note=42, velocity=89, time=0),
  Message('note_off', channel=9, note=42, velocity=64, time=62),
  Message('note_off', channel=9, note=36, velocity=64, time=2),
  Message('note_on', channel=9, note=42, velocity=104, time=56),
  Message('note_off', channel=9, note=42, velocity=64, time=62),
  Message('note_on', channel=9, note=38, velocity=107, time=58),
  Message('note_on', channel=9, note=42, velocity=84, time=0),
  Message('note_off', channel=9, note=42, velocity=64, time=88),
  Message('note_off', channel=9, note=38, velocity=64, time=76),
  Message('note_on', channel=9, note=36, velocity=74, time=76),
  Message('note_on', channel=9, note=42, velocity=89, time=0),
  Message('note_off', channel=9, note=42, velocity=64, time=48),
  Message('note_off', channel=9, note=36, velocity=64, time=40),
  Message('note_on', channel=9, note=42, velocity=81, time=32),
  Message('note_off', channel=9, note=42, velocity=64, time=48),
  Message('note_on', channel=9, note=36, velocity=92, time=72),
  Message('note_on', channel=9, note=42, velocity=104, time=0),
  Message('note_off', channel=9, note=42, velocity=64, time=62),
  Message('note_off', channel=9, note=36, velocity=64, time=40),
  Message('note_on', channel=9, note=36, velocity=85, time=138),
  Message('note_on', channel=9, note=46, velocity=96, time=0),
  Message('note_off', channel=9, note=36, velocity=64, time=78),
  Message('note_off', channel=9, note=46, velocity=64, time=98),
  Message('note_on', channel=9, note=38, velocity=94, time=64),
  Message('note_on', channel=9, note=42, velocity=104, time=0),
  Message('note_off', channel=9, note=42, velocity=64, time=64),
  Message('note_off', channel=9, note=38, velocity=64, time=126),
  Message('note_on', channel=9, note=36, velocity=101, time=50),
  Message('note_on', channel=9, note=46, velocity=89, time=0),
  Message('note_off', channel=9, note=36, velocity=64, time=114),
  Message('note_off', channel=9, note=46, velocity=64, time=38),
  Message('note_on', channel=9, note=42, velocity=100, time=88),
  Message('note_off', channel=9, note=42, velocity=64, time=64),
  Message('note_on', channel=9, note=42, velocity=81, time=176),
  Message('note_off', channel=9, note=42, velocity=64, time=36),
  Message('note_on', channel=9, note=42, velocity=73, time=84),
  Message('note_off', channel=9, note=42, velocity=64, time=50),
  Message('note_on', channel=9, note=42, velocity=92, time=70),
  Message('note_off', channel=9, note=42, velocity=64, time=60),
  Message('note_on', channel=9, note=36, velocity=79, time=180),
  Message('note_on', channel=9, note=42, velocity=92, time=0),
  Message('note_off', channel=9, note=42, velocity=64, time=50),
  Message('aftertouch', channel=9, value=4, time=5),
  Message('aftertouch', channel=9, value=3, time=7),
  Message('note_off', channel=9, note=36, velocity=64, time=2),
  Message('note_on', channel=9, note=42, velocity=77, time=56),
  Message('note_off', channel=9, note=42, velocity=64, time=48),
  Message('note_on', channel=9, note=36, velocity=101, time=72),
  Message('note_on', channel=9, note=42, velocity=104, time=0),
  Message('note_off', channel=9, note=42, velocity=64, time=50),
  Message('note_off', channel=9, note=36, velocity=64, time=64),
  Message('note_on', channel=9, note=36, velocity=97, time=126),
  Message('note_on', channel=9, note=46, velocity=92, time=0),
  Message('note_off', channel=9, note=36, velocity=64, time=88),
  Message('note_off', channel=9, note=46, velocity=64, time=62),
  Message('note_on', channel=9, note=38, velocity=107, time=90),
  Message('note_on', channel=9, note=42, velocity=100, time=0),
  Message('note_off', channel=9, note=42, velocity=64, time=62),
  Message('note_off', channel=9, note=38, velocity=64, time=142),
  Message('note_on', channel=9, note=36, velocity=104, time=36),
  Message('note_on', channel=9, note=46, velocity=92, time=0),
  Message('note_off', channel=9, note=46, velocity=64, time=138),
  Message('note_on', channel=9, note=42, velocity=92, time=102),
  Message('note_off', channel=9, note=36, velocity=64, time=28),
  Message('note_off', channel=9, note=42, velocity=64, time=22),
  Message('note_on', channel=9, note=42, velocity=84, time=70),
  Message('note_off', channel=9, note=42, velocity=64, time=64),
  Message('note_on', channel=9, note=36, velocity=94, time=56),
  Message('note_on', channel=9, note=42, velocity=100, time=0),
  Message('note_off', channel=9, note=42, velocity=64, time=50),
  Message('note_off', channel=9, note=36, velocity=64, time=14),
  Message('note_on', channel=9, note=46, velocity=92, time=56),
  Message('note_off', channel=9, note=46, velocity=64, time=76),
  Message('note_on', channel=9, note=38, velocity=107, time=44),
  Message('note_on', channel=9, note=42, velocity=109, time=0),
  Message('note_off', channel=9, note=42, velocity=64, time=100),
  Message('note_off', channel=9, note=38, velocity=64, time=64),
  Message('note_on', channel=9, note=36, velocity=74, time=76),
  Message('note_off', channel=9, note=36, velocity=64, time=88),
  Message('note_on', channel=9, note=36, velocity=104, time=152),
  Message('note_on', channel=9, note=42, velocity=100, time=0),
  Message('note_on', channel=9, note=36, velocity=0, time=124),
  Message('note_off', channel=9, note=42, velocity=64, time=114),
  Message('note_on', channel=9, note=36, velocity=85, time=2),
  Message('note_on', channel=9, note=42, velocity=100, time=0),
  Message('note_on', channel=9, note=36, velocity=0, time=152),
  Message('note_off', channel=9, note=42, velocity=64, time=86),
  Message('note_on', channel=9, note=38, velocity=120, time=2),
  Message('note_on', channel=9, note=42, velocity=100, time=0),
  Message('note_on', channel=9, note=38, velocity=0, time=159),
  Message('note_off', channel=9, note=42, velocity=64, time=79),
  Message('note_on', channel=9, note=36, velocity=104, time=2),
  Message('note_on', channel=9, note=42, velocity=100, time=0),
  Message('note_on', channel=9, note=36, velocity=0, time=123),
  Message('note_off', channel=9, note=42, velocity=64, time=115),
  Message('note_on', channel=9, note=36, velocity=88, time=2),
  Message('note_on', channel=9, note=42, velocity=100, time=0),
  Message('note_on', channel=9, note=36, velocity=0, time=127),
  Message('note_off', channel=9, note=42, velocity=64, time=111),
  Message('note_on', channel=9, note=36, velocity=82, time=2),
  Message('note_on', channel=9, note=42, velocity=100, time=0),
  Message('note_on', channel=9, note=36, velocity=0, time=115),
  Message('note_off', channel=9, note=42, velocity=64, time=123),
  Message('note_on', channel=9, note=38, velocity=114, time=2),
  Message('note_on', channel=9, note=42, velocity=100, time=0),
  Message('note_on', channel=9, note=38, velocity=0, time=163),
  Message('note_off', channel=9, note=42, velocity=64, time=75),
  Message('note_on', channel=9, note=36, velocity=91, time=2),
  Message('note_on', channel=9, note=42, velocity=100, time=0),
  Message('note_on', channel=9, note=36, velocity=0, time=117),
  Message('note_off', channel=9, note=42, velocity=64, time=121),
  Message('note_on', channel=9, note=36, velocity=104, time=2),
  Message('note_on', channel=9, note=42, velocity=100, time=0),
  Message('note_on', channel=9, note=36, velocity=0, time=135),
  Message('note_off', channel=9, note=42, velocity=64, time=103),
  Message('note_on', channel=9, note=36, velocity=70, time=2),
  Message('note_on', channel=9, note=42, velocity=100, time=0),
  Message('note_on', channel=9, note=36, velocity=0, time=109),
  Message('note_off', channel=9, note=42, velocity=64, time=129),
  Message('note_on', channel=9, note=38, velocity=114, time=2),
  Message('note_on', channel=9, note=42, velocity=100, time=0),
  Message('note_on', channel=9, note=38, velocity=0, time=143),
  Message('note_off', channel=9, note=42, velocity=64, time=95),
  Message('note_on', channel=9, note=36, velocity=114, time=2),
  Message('note_on', channel=9, note=42, velocity=100, time=0),
  Message('note_on', channel=9, note=36, velocity=0, time=223),
  Message('note_off', channel=9, note=42, velocity=64, time=15),
  Message('note_on', channel=9, note=42, velocity=100, time=2),
  Message('note_off', channel=9, note=42, velocity=64, time=238),
  Message('note_on', channel=9, note=36, velocity=104, time=2),
  Message('note_on', channel=9, note=42, velocity=100, time=0),
  Message('note_on', channel=9, note=36, velocity=0, time=155),
  Message('note_off', channel=9, note=42, velocity=64, time=83),
  Message('note_on', channel=9, note=38, velocity=127, time=2),
  Message('note_on', channel=9, note=42, velocity=100, time=0),
  Message('note_on', channel=9, note=38, velocity=0, time=158),
  Message('note_off', channel=9, note=42, velocity=64, time=80),
  Message('note_on', channel=9, note=36, velocity=71, time=2),
  Message('note_on', channel=9, note=42, velocity=100, time=0),
  Message('note_on', channel=9, note=36, velocity=0, time=81),
  Message('note_off', channel=9, note=42, velocity=64, time=157),
  Message('note_on', channel=9, note=36, velocity=109, time=2),
  Message('note_on', channel=9, note=42, velocity=100, time=0),
  Message('note_on', channel=9, note=36, velocity=0, time=189),
  Message('note_off', channel=9, note=42, velocity=64, time=49),
  Message('note_on', channel=9, note=42, velocity=100, time=2),
  Message('note_off', channel=9, note=42, velocity=64, time=238),
  Message('note_on', channel=9, note=38, velocity=120, time=2),
  Message('note_on', channel=9, note=42, velocity=100, time=0),
  Message('note_on', channel=9, note=38, velocity=0, time=171),
  Message('note_off', channel=9, note=42, velocity=64, time=67),
  Message('note_on', channel=9, note=36, velocity=109, time=2),
  Message('note_on', channel=9, note=42, velocity=100, time=0),
  Message('note_on', channel=9, note=36, velocity=0, time=159),
  Message('note_off', channel=9, note=42, velocity=64, time=79),
  Message('note_on', channel=9, note=42, velocity=100, time=2),
  Message('note_off', channel=9, note=42, velocity=64, time=238),
  Message('note_on', channel=9, note=36, velocity=109, time=2),
  Message('note_on', channel=9, note=42, velocity=100, time=0),
  Message('note_on', channel=9, note=36, velocity=0, time=171),
  Message('note_off', channel=9, note=42, velocity=64, time=67),
  Message('note_on', channel=9, note=38, velocity=109, time=2),
  Message('note_on', channel=9, note=42, velocity=100, time=0),
  Message('note_on', channel=9, note=38, velocity=0, time=165),
  Message('note_off', channel=9, note=42, velocity=64, time=73),
  Message('note_on', channel=9, note=36, velocity=85, time=2),
  Message('note_on', channel=9, note=42, velocity=100, time=0),
  Message('note_on', channel=9, note=36, velocity=0, time=108),
  Message('note_off', channel=9, note=42, velocity=64, time=130),
  Message('note_on', channel=9, note=36, velocity=109, time=2),
  Message('note_on', channel=9, note=42, velocity=100, time=0),
  Message('note_on', channel=9, note=36, velocity=0, time=132),
  Message('note_off', channel=9, note=42, velocity=64, time=106),
  Message('note_on', channel=9, note=36, velocity=82, time=2),
  Message('note_on', channel=9, note=42, velocity=100, time=0),
  Message('note_on', channel=9, note=36, velocity=0, time=116),
  Message('note_off', channel=9, note=42, velocity=64, time=122),
  Message('note_on', channel=9, note=38, velocity=104, time=2),
  Message('note_on', channel=9, note=42, velocity=100, time=0),
  Message('note_on', channel=9, note=38, velocity=0, time=162),
  Message('note_off', channel=9, note=42, velocity=64, time=76),
  Message('note_on', channel=9, note=36, velocity=98, time=2),
  Message('note_on', channel=9, note=42, velocity=100, time=0),
  Message('note_on', channel=9, note=36, velocity=0, time=128),
  Message('note_off', channel=9, note=42, velocity=64, time=110),
  Message('note_on', channel=9, note=36, velocity=104, time=2),
  Message('note_on', channel=9, note=42, velocity=100, time=0),
  Message('note_on', channel=9, note=36, velocity=0, time=108),
  Message('note_off', channel=9, note=42, velocity=64, time=130),
  Message('note_on', channel=9, note=42, velocity=100, time=2),
  Message('note_off', channel=9, note=42, velocity=64, time=238),
  Message('note_on', channel=9, note=42, velocity=100, time=2),
  Message('note_on', channel=9, note=55, velocity=124, time=0),
  Message('note_on', channel=9, note=55, velocity=0, time=86),
  Message('note_off', channel=9, note=42, velocity=64, time=152),
  Message('note_on', channel=9, note=42, velocity=100, time=2),
  Message('note_off', channel=9, note=42, velocity=64, time=238),
  MetaMessage('end_of_track', time=0)])
MidiTrack([
  MetaMessage('track_name', name='Jazz Guitar', time=0),
  Message('control_change', channel=2, control=0, value=121, time=0),
  Message('control_change', channel=2, control=32, value=0, time=0),
  Message('program_change', channel=2, program=26, time=0),
  Message('note_on', channel=2, note=52, velocity=95, time=84480),
  Message('note_on', channel=2, note=57, velocity=98, time=0),
  Message('note_on', channel=2, note=60, velocity=95, time=720),
  Message('note_on', channel=2, note=62, velocity=104, time=240),
  Message('note_on', channel=2, note=52, velocity=0, time=41),
  Message('note_on', channel=2, note=60, velocity=0, time=46),
  Message('note_on', channel=2, note=64, velocity=114, time=153),
  Message('note_on', channel=2, note=62, velocity=0, time=42),
  Message('note_on', channel=2, note=57, velocity=0, time=56),
  Message('note_on', channel=2, note=64, velocity=0, time=374),
  Message('note_on', channel=2, note=52, velocity=95, time=8),
  Message('note_on', channel=2, note=57, velocity=104, time=0),
  Message('note_on', channel=2, note=57, velocity=0, time=705),
  Message('note_on', channel=2, note=55, velocity=98, time=15),
  Message('note_on', channel=2, note=57, velocity=98, time=480),
  Message('note_on', channel=2, note=55, velocity=0, time=115),
  Message('note_on', channel=2, note=52, velocity=0, time=238),
  Message('note_on', channel=2, note=52, velocity=98, time=367),
  Message('note_on', channel=2, note=57, velocity=0, time=28),
  Message('note_on', channel=2, note=52, velocity=0, time=154),
  Message('note_on', channel=2, note=52, velocity=88, time=58),
  Message('note_on', channel=2, note=57, velocity=104, time=0),
  Message('note_on', channel=2, note=60, velocity=88, time=720),
  Message('note_on', channel=2, note=57, velocity=0, time=42),
  Message('note_on', channel=2, note=52, velocity=0, time=166),
  Message('note_on', channel=2, note=60, velocity=0, time=9),
  Message('note_on', channel=2, note=57, velocity=88, time=23),
  Message('note_on', channel=2, note=62, velocity=104, time=0),
  Message('note_on', channel=2, note=64, velocity=114, time=240),
  Message('note_on', channel=2, note=62, velocity=0, time=16),
  Message('note_on', channel=2, note=57, velocity=0, time=318),
  Message('aftertouch', channel=2, value=4, time=102),
  Message('aftertouch', channel=2, value=4, time=22),
  Message('note_on', channel=2, note=64, velocity=0, time=20),
  Message('note_on', channel=2, note=52, velocity=109, time=2),
  Message('note_on', channel=2, note=57, velocity=104, time=0),
  Message('note_on', channel=2, note=52, velocity=0, time=395),
  Message('note_on', channel=2, note=57, velocity=0, time=64),
  Message('note_on', channel=2, note=55, velocity=98, time=261),
  Message('note_on', channel=2, note=60, velocity=114, time=0),
  Message('note_on', channel=2, note=55, velocity=0, time=418),
  Message('note_on', channel=2, note=60, velocity=0, time=40),
  Message('note_on', channel=2, note=52, velocity=98, time=22),
  Message('note_on', channel=2, note=57, velocity=109, time=0),
  Message('note_on', channel=2, note=57, velocity=0, time=466),
  Message('note_on', channel=2, note=52, velocity=0, time=2),
  Message('note_on', channel=2, note=57, velocity=91, time=492),
  Message('note_on', channel=2, note=60, velocity=98, time=0),
  Message('note_on', channel=2, note=57, velocity=0, time=119),
  Message('note_on', channel=2, note=57, velocity=95, time=121),
  Message('note_on', channel=2, note=64, velocity=88, time=0),
  Message('note_on', channel=2, note=60, velocity=0, time=162),
  Message('note_on', channel=2, note=69, velocity=88, time=78),
  Message('note_on', channel=2, note=64, velocity=0, time=9),
  Message('note_on', channel=2, note=55, velocity=104, time=231),
  Message('note_on', channel=2, note=64, velocity=88, time=0),
  Message('note_on', channel=2, note=57, velocity=0, time=17),
  Message('note_on', channel=2, note=69, velocity=0, time=23),
  Message('note_on', channel=2, note=55, velocity=0, time=161),
  Message('note_on', channel=2, note=57, velocity=95, time=39),
  Message('note_on', channel=2, note=60, velocity=70, time=0),
  Message('note_on', channel=2, note=64, velocity=0, time=15),
  Message('note_on', channel=2, note=57, velocity=0, time=109),
  Message('note_on', channel=2, note=57, velocity=98, time=116),
  Message('note_on', channel=2, note=64, velocity=88, time=0),
  Message('note_on', channel=2, note=60, velocity=0, time=183),
  Message('note_on', channel=2, note=69, velocity=95, time=57),
  Message('note_on', channel=2, note=64, velocity=0, time=46),
  Message('note_on', channel=2, note=55, velocity=114, time=194),
  Message('note_on', channel=2, note=64, velocity=82, time=0),
  Message('note_on', channel=2, note=57, velocity=0, time=9),
  Message('note_on', channel=2, note=69, velocity=0, time=115),
  Message('note_on', channel=2, note=55, velocity=0, time=73),
  Message('note_on', channel=2, note=57, velocity=98, time=43),
  Message('note_on', channel=2, note=60, velocity=74, time=0),
  Message('note_on', channel=2, note=64, velocity=0, time=2),
  Message('note_on', channel=2, note=57, velocity=0, time=126),
  Message('note_on', channel=2, note=57, velocity=104, time=112),
  Message('note_on', channel=2, note=64, velocity=95, time=0),
  Message('note_on', channel=2, note=60, velocity=0, time=84),
  Message('note_on', channel=2, note=64, velocity=0, time=155),
  Message('note_on', channel=2, note=69, velocity=98, time=1),
  Message('note_on', channel=2, note=60, velocity=95, time=240),
  Message('note_on', channel=2, note=64, velocity=95, time=0),
  Message('note_on', channel=2, note=57, velocity=0, time=6),
  Message('note_on', channel=2, note=69, velocity=0, time=26),
  Message('note_on', channel=2, note=60, velocity=74, time=208),
  Message('note_on', channel=2, note=64, velocity=0, time=28),
  Message('note_on', channel=2, note=64, velocity=95, time=212),
  Message('note_on', channel=2, note=60, velocity=0, time=79),
  Message('note_on', channel=2, note=60, velocity=0, time=57),
  Message('note_on', channel=2, note=62, velocity=98, time=104),
  Message('note_on', channel=2, note=69, velocity=104, time=0),
  Message('note_on', channel=2, note=64, velocity=0, time=19),
  Message('note_on', channel=2, note=64, velocity=91, time=221),
  Message('note_on', channel=2, note=69, velocity=0, time=24),
  Message('note_on', channel=2, note=62, velocity=0, time=27),
  Message('note_on', channel=2, note=57, velocity=95, time=189),
  Message('note_on', channel=2, note=60, velocity=95, time=0),
  Message('note_on', channel=2, note=64, velocity=0, time=32),
  Message('note_on', channel=2, note=57, velocity=0, time=85),
  Message('note_on', channel=2, note=57, velocity=104, time=123),
  Message('note_on', channel=2, note=64, velocity=95, time=0),
  Message('note_on', channel=2, note=60, velocity=0, time=68),
  Message('note_on', channel=2, note=69, velocity=95, time=172),
  Message('note_on', channel=2, note=64, velocity=0, time=21),
  Message('note_on', channel=2, note=57, velocity=0, time=204),
  Message('note_on', channel=2, note=55, velocity=109, time=15),
  Message('note_on', channel=2, note=64, velocity=85, time=0),
  Message('note_on', channel=2, note=69, velocity=0, time=32),
  Message('note_on', channel=2, note=55, velocity=0, time=161),
  Message('note_on', channel=2, note=57, velocity=98, time=47),
  Message('note_on', channel=2, note=60, velocity=95, time=0),
  Message('note_on', channel=2, note=64, velocity=0, time=11),
  Message('note_on', channel=2, note=57, velocity=0, time=99),
  Message('note_on', channel=2, note=57, velocity=104, time=130),
  Message('note_on', channel=2, note=64, velocity=91, time=0),
  Message('note_on', channel=2, note=60, velocity=0, time=64),
  Message('note_on', channel=2, note=69, velocity=95, time=176),
  Message('note_on', channel=2, note=64, velocity=0, time=19),
  Message('aftertouch', channel=2, value=4, time=173),
  Message('note_on', channel=2, note=55, velocity=109, time=48),
  Message('note_on', channel=2, note=64, velocity=88, time=0),
  Message('note_on', channel=2, note=69, velocity=0, time=49),
  Message('note_on', channel=2, note=57, velocity=0, time=1),
  Message('note_on', channel=2, note=55, velocity=0, time=128),
  Message('note_on', channel=2, note=57, velocity=104, time=62),
  Message('note_on', channel=2, note=60, velocity=91, time=0),
  Message('note_on', channel=2, note=64, velocity=0, time=25),
  Message('note_on', channel=2, note=57, velocity=0, time=84),
  Message('note_on', channel=2, note=57, velocity=95, time=131),
  Message('note_on', channel=2, note=64, velocity=95, time=0),
  Message('note_on', channel=2, note=60, velocity=0, time=126),
  Message('note_on', channel=2, note=60, velocity=104, time=114),
  Message('note_on', channel=2, note=69, velocity=85, time=0),
  Message('note_on', channel=2, note=57, velocity=0, time=6),
  Message('note_on', channel=2, note=64, velocity=0, time=29),
  Message('note_on', channel=2, note=60, velocity=0, time=205),
  Message('note_on', channel=2, note=57, velocity=104, time=0),
  Message('note_on', channel=2, note=64, velocity=88, time=0),
  Message('note_on', channel=2, note=69, velocity=0, time=182),
  Message('note_on', channel=2, note=60, velocity=80, time=58),
  Message('note_on', channel=2, note=64, velocity=0, time=42),
  Message('note_on', channel=2, note=64, velocity=95, time=198),
  Message('note_on', channel=2, note=60, velocity=0, time=95),
  Message('note_on', channel=2, note=69, velocity=91, time=145),
  Message('note_on', channel=2, note=57, velocity=0, time=1),
  Message('note_on', channel=2, note=64, velocity=0, time=31),
  Message('note_on', channel=2, note=64, velocity=95, time=208),
  Message('note_on', channel=2, note=69, velocity=0, time=16),
  Message('note_on', channel=2, note=64, velocity=0, time=208),
  Message('note_on', channel=2, note=52, velocity=95, time=16),
  Message('note_on', channel=2, note=57, velocity=98, time=0),
  Message('note_on', channel=2, note=60, velocity=95, time=720),
  Message('note_on', channel=2, note=62, velocity=104, time=240),
  Message('note_on', channel=2, note=52, velocity=0, time=41),
  Message('note_on', channel=2, note=60, velocity=0, time=46),
  Message('note_on', channel=2, note=64, velocity=114, time=153),
  Message('note_on', channel=2, note=62, velocity=0, time=42),
  Message('note_on', channel=2, note=57, velocity=0, time=56),
  Message('note_on', channel=2, note=64, velocity=0, time=374),
  Message('note_on', channel=2, note=52, velocity=95, time=8),
  Message('note_on', channel=2, note=57, velocity=104, time=0),
  Message('note_on', channel=2, note=57, velocity=0, time=705),
  Message('note_on', channel=2, note=55, velocity=98, time=15),
  Message('note_on', channel=2, note=57, velocity=98, time=480),
  Message('note_on', channel=2, note=55, velocity=0, time=115),
  Message('note_on', channel=2, note=52, velocity=0, time=238),
  Message('note_on', channel=2, note=52, velocity=98, time=367),
  Message('note_on', channel=2, note=57, velocity=0, time=28),
  Message('note_on', channel=2, note=52, velocity=0, time=154),
  Message('note_on', channel=2, note=52, velocity=88, time=58),
  Message('note_on', channel=2, note=57, velocity=104, time=0),
  Message('note_on', channel=2, note=60, velocity=88, time=720),
  Message('note_on', channel=2, note=57, velocity=0, time=42),
  Message('note_on', channel=2, note=52, velocity=0, time=166),
  Message('note_on', channel=2, note=60, velocity=0, time=9),
  Message('note_on', channel=2, note=57, velocity=88, time=23),
  Message('note_on', channel=2, note=62, velocity=104, time=0),
  Message('note_on', channel=2, note=64, velocity=114, time=240),
  Message('note_on', channel=2, note=62, velocity=0, time=16),
  Message('note_on', channel=2, note=57, velocity=0, time=318),
  Message('aftertouch', channel=2, value=4, time=102),
  Message('aftertouch', channel=2, value=4, time=22),
  Message('note_on', channel=2, note=64, velocity=0, time=20),
  Message('note_on', channel=2, note=52, velocity=109, time=2),
  Message('note_on', channel=2, note=57, velocity=104, time=0),
  Message('note_on', channel=2, note=52, velocity=0, time=395),
  Message('note_on', channel=2, note=57, velocity=0, time=64),
  Message('note_on', channel=2, note=55, velocity=98, time=261),
  Message('note_on', channel=2, note=60, velocity=114, time=0),
  Message('note_on', channel=2, note=55, velocity=0, time=418),
  Message('note_on', channel=2, note=60, velocity=0, time=40),
  Message('note_on', channel=2, note=52, velocity=98, time=22),
  Message('note_on', channel=2, note=57, velocity=109, time=0),
  Message('note_on', channel=2, note=57, velocity=0, time=466),
  Message('note_on', channel=2, note=52, velocity=0, time=2),
  Message('note_on', channel=2, note=57, velocity=91, time=492),
  Message('note_on', channel=2, note=60, velocity=98, time=0),
  Message('note_on', channel=2, note=57, velocity=0, time=119),
  Message('note_on', channel=2, note=57, velocity=95, time=121),
  Message('note_on', channel=2, note=64, velocity=88, time=0),
  Message('note_on', channel=2, note=60, velocity=0, time=162),
  Message('note_on', channel=2, note=69, velocity=88, time=78),
  Message('note_on', channel=2, note=64, velocity=0, time=9),
  Message('note_on', channel=2, note=55, velocity=104, time=231),
  Message('note_on', channel=2, note=64, velocity=88, time=0),
  Message('note_on', channel=2, note=57, velocity=0, time=17),
  Message('note_on', channel=2, note=69, velocity=0, time=23),
  Message('note_on', channel=2, note=55, velocity=0, time=161),
  Message('note_on', channel=2, note=57, velocity=95, time=39),
  Message('note_on', channel=2, note=60, velocity=70, time=0),
  Message('note_on', channel=2, note=64, velocity=0, time=15),
  Message('note_on', channel=2, note=57, velocity=0, time=109),
  Message('note_on', channel=2, note=57, velocity=98, time=116),
  Message('note_on', channel=2, note=64, velocity=88, time=0),
  Message('note_on', channel=2, note=60, velocity=0, time=183),
  Message('note_on', channel=2, note=69, velocity=95, time=57),
  Message('note_on', channel=2, note=64, velocity=0, time=46),
  Message('note_on', channel=2, note=55, velocity=114, time=194),
  Message('note_on', channel=2, note=64, velocity=82, time=0),
  Message('note_on', channel=2, note=57, velocity=0, time=9),
  Message('note_on', channel=2, note=69, velocity=0, time=115),
  Message('note_on', channel=2, note=55, velocity=0, time=73),
  Message('note_on', channel=2, note=57, velocity=98, time=43),
  Message('note_on', channel=2, note=60, velocity=74, time=0),
  Message('note_on', channel=2, note=64, velocity=0, time=2),
  Message('note_on', channel=2, note=57, velocity=0, time=126),
  Message('note_on', channel=2, note=57, velocity=104, time=112),
  Message('note_on', channel=2, note=64, velocity=95, time=0),
  Message('note_on', channel=2, note=60, velocity=0, time=84),
  Message('note_on', channel=2, note=64, velocity=0, time=155),
  Message('note_on', channel=2, note=69, velocity=98, time=1),
  Message('note_on', channel=2, note=60, velocity=95, time=240),
  Message('note_on', channel=2, note=64, velocity=95, time=0),
  Message('note_on', channel=2, note=57, velocity=0, time=6),
  Message('note_on', channel=2, note=69, velocity=0, time=26),
  Message('note_on', channel=2, note=60, velocity=74, time=208),
  Message('note_on', channel=2, note=64, velocity=0, time=28),
  Message('note_on', channel=2, note=64, velocity=95, time=212),
  Message('note_on', channel=2, note=60, velocity=0, time=79),
  Message('note_on', channel=2, note=60, velocity=0, time=57),
  Message('note_on', channel=2, note=62, velocity=98, time=104),
  Message('note_on', channel=2, note=69, velocity=104, time=0),
  Message('note_on', channel=2, note=64, velocity=0, time=19),
  Message('note_on', channel=2, note=64, velocity=91, time=221),
  Message('note_on', channel=2, note=69, velocity=0, time=24),
  Message('note_on', channel=2, note=62, velocity=0, time=27),
  Message('note_on', channel=2, note=57, velocity=95, time=189),
  Message('note_on', channel=2, note=60, velocity=95, time=0),
  Message('note_on', channel=2, note=64, velocity=0, time=32),
  Message('note_on', channel=2, note=57, velocity=0, time=85),
  Message('note_on', channel=2, note=57, velocity=104, time=123),
  Message('note_on', channel=2, note=64, velocity=95, time=0),
  Message('note_on', channel=2, note=60, velocity=0, time=68),
  Message('note_on', channel=2, note=69, velocity=95, time=172),
  Message('note_on', channel=2, note=64, velocity=0, time=21),
  Message('note_on', channel=2, note=57, velocity=0, time=204),
  Message('note_on', channel=2, note=55, velocity=109, time=15),
  Message('note_on', channel=2, note=64, velocity=85, time=0),
  Message('note_on', channel=2, note=69, velocity=0, time=32),
  Message('note_on', channel=2, note=55, velocity=0, time=161),
  Message('note_on', channel=2, note=57, velocity=98, time=47),
  Message('note_on', channel=2, note=60, velocity=95, time=0),
  Message('note_on', channel=2, note=64, velocity=0, time=11),
  Message('note_on', channel=2, note=57, velocity=0, time=99),
  Message('note_on', channel=2, note=57, velocity=104, time=130),
  Message('note_on', channel=2, note=64, velocity=91, time=0),
  Message('note_on', channel=2, note=60, velocity=0, time=64),
  Message('note_on', channel=2, note=69, velocity=95, time=176),
  Message('note_on', channel=2, note=64, velocity=0, time=19),
  Message('aftertouch', channel=2, value=4, time=173),
  Message('note_on', channel=2, note=55, velocity=109, time=48),
  Message('note_on', channel=2, note=64, velocity=88, time=0),
  Message('note_on', channel=2, note=69, velocity=0, time=49),
  Message('note_on', channel=2, note=57, velocity=0, time=1),
  Message('note_on', channel=2, note=55, velocity=0, time=128),
  Message('note_on', channel=2, note=57, velocity=104, time=62),
  Message('note_on', channel=2, note=60, velocity=91, time=0),
  Message('note_on', channel=2, note=64, velocity=0, time=25),
  Message('note_on', channel=2, note=57, velocity=0, time=84),
  Message('note_on', channel=2, note=57, velocity=95, time=131),
  Message('note_on', channel=2, note=64, velocity=95, time=0),
  Message('note_on', channel=2, note=60, velocity=0, time=126),
  Message('note_on', channel=2, note=60, velocity=104, time=114),
  Message('note_on', channel=2, note=69, velocity=85, time=0),
  Message('note_on', channel=2, note=57, velocity=0, time=6),
  Message('note_on', channel=2, note=64, velocity=0, time=29),
  Message('note_on', channel=2, note=60, velocity=0, time=205),
  Message('note_on', channel=2, note=57, velocity=104, time=0),
  Message('note_on', channel=2, note=64, velocity=88, time=0),
  Message('note_on', channel=2, note=69, velocity=0, time=182),
  Message('note_on', channel=2, note=60, velocity=80, time=58),
  Message('note_on', channel=2, note=64, velocity=0, time=42),
  Message('note_on', channel=2, note=64, velocity=95, time=198),
  Message('note_on', channel=2, note=60, velocity=0, time=95),
  Message('note_on', channel=2, note=69, velocity=91, time=145),
  Message('note_on', channel=2, note=57, velocity=0, time=1),
  Message('note_on', channel=2, note=64, velocity=0, time=31),
  Message('note_on', channel=2, note=64, velocity=95, time=208),
  Message('note_on', channel=2, note=69, velocity=0, time=16),
  Message('note_on', channel=2, note=64, velocity=0, time=208),
  Message('note_on', channel=2, note=62, velocity=98, time=16),
  Message('note_on', channel=2, note=65, velocity=95, time=240),
  Message('note_on', channel=2, note=62, velocity=0, time=198),
  Message('note_on', channel=2, note=65, velocity=0, time=42),
  Message('note_on', channel=2, note=69, velocity=85, time=0),
  Message('note_on', channel=2, note=65, velocity=98, time=240),
  Message('note_on', channel=2, note=65, velocity=0, time=224),
  Message('note_on', channel=2, note=62, velocity=91, time=16),
  Message('note_on', channel=2, note=69, velocity=0, time=16),
  Message('note_on', channel=2, note=65, velocity=104, time=224),
  Message('note_on', channel=2, note=69, velocity=82, time=240),
  Message('note_on', channel=2, note=65, velocity=0, time=20),
  Message('note_on', channel=2, note=65, velocity=98, time=220),
  Message('note_on', channel=2, note=62, velocity=0, time=49),
  Message('note_on', channel=2, note=65, velocity=0, time=181),
  Message('note_on', channel=2, note=60, velocity=78, time=10),
  Message('note_on', channel=2, note=69, velocity=0, time=62),
  Message('note_on', channel=2, note=64, velocity=85, time=178),
  Message('note_on', channel=2, note=60, velocity=0, time=198),
  Message('note_on', channel=2, note=69, velocity=85, time=42),
  Message('note_on', channel=2, note=64, velocity=0, time=60),
  Message('note_on', channel=2, note=64, velocity=98, time=180),
  Message('note_on', channel=2, note=64, velocity=0, time=233),
  Message('note_on', channel=2, note=60, velocity=80, time=7),
  Message('note_on', channel=2, note=69, velocity=0, time=93),
  Message('note_on', channel=2, note=64, velocity=88, time=147),
  Message('note_on', channel=2, note=60, velocity=0, time=201),
  Message('note_on', channel=2, note=69, velocity=91, time=39),
  Message('note_on', channel=2, note=64, velocity=0, time=31),
  Message('note_on', channel=2, note=64, velocity=91, time=209),
  Message('note_on', channel=2, note=69, velocity=0, time=50),
  Message('note_on', channel=2, note=59, velocity=91, time=190),
  Message('note_on', channel=2, note=64, velocity=0, time=18),
  Message('note_on', channel=2, note=64, velocity=104, time=222),
  Message('note_on', channel=2, note=68, velocity=98, time=240),
  Message('note_on', channel=2, note=64, velocity=0, time=47),
  Message('note_on', channel=2, note=64, velocity=98, time=193),
  Message('note_on', channel=2, note=59, velocity=0, time=28),
  Message('note_on', channel=2, note=68, velocity=0, time=184),
  Message('note_on', channel=2, note=59, velocity=91, time=28),
  Message('note_on', channel=2, note=64, velocity=0, time=14),
  Message('note_on', channel=2, note=64, velocity=85, time=226),
  Message('note_on', channel=2, note=64, velocity=0, time=198),
  Message('note_on', channel=2, note=68, velocity=104, time=42),
  Message('note_on', channel=2, note=64, velocity=98, time=240),
  Message('note_on', channel=2, note=59, velocity=0, time=29),
  Message('note_on', channel=2, note=68, velocity=0, time=49),
  Message('note_on', channel=2, note=64, velocity=0, time=157),
  Message('note_on', channel=2, note=69, velocity=114, time=5),
  Message('note_on', channel=2, note=64, velocity=85, time=240),
  Message('note_on', channel=2, note=69, velocity=0, time=124),
  Message('note_on', channel=2, note=64, velocity=0, time=75),
  Message('note_on', channel=2, note=60, velocity=98, time=41),
  Message('note_on', channel=2, note=64, velocity=82, time=240),
  Message('note_on', channel=2, note=60, velocity=0, time=226),
  Message('note_on', channel=2, note=57, velocity=98, time=14),
  Message('note_on', channel=2, note=64, velocity=0, time=26),
  Message('note_on', channel=2, note=57, velocity=0, time=515),
  MetaMessage('end_of_track', time=0)])
